<svg width="40" height="28" viewBox="0 0 40 28" fill="none" xmlns="http://www.w3.org/2000/svg">
<path d="M39.96 20.1801C39.96 22.1801 39.2 23.9001 37.68 25.3401C36.24 26.7001 34.44 27.3801 32.28 27.3801C29.32 27.3801 26.84 26.3401 24.84 24.2601C22.92 22.1801 21.96 19.5001 21.96 16.2201C21.96 10.2201 24.28 5.94012 28.92 3.38012C32.28 1.54012 35 0.620117 37.08 0.620117C37.96 0.620117 38.4 0.940119 38.4 1.58012C38.4 2.14012 37.92 2.54012 36.96 2.78012C30.32 4.54012 27 7.86012 27 12.7401C27 14.9001 27.56 16.7401 28.68 18.2601C28.84 15.5401 30.56 14.1801 33.84 14.1801C35.6 14.1801 37.04 14.7801 38.16 15.9801C39.36 17.1001 39.96 18.5001 39.96 20.1801ZM17.88 20.1801C17.88 22.1801 17.12 23.9001 15.6 25.3401C14.16 26.7001 12.4 27.3801 10.32 27.3801C7.28 27.3801 4.8 26.3401 2.88 24.2601C0.96 22.1001 0 19.3801 0 16.1001C0 10.1801 2.32 5.94012 6.96 3.38012C10.32 1.54012 13 0.620117 15 0.620117C15.88 0.620117 16.32 0.940119 16.32 1.58012C16.32 2.14012 15.84 2.54012 14.88 2.78012C8.32 4.54012 5.04 7.90012 5.04 12.8601C5.04 14.9401 5.6 16.7401 6.72 18.2601C6.88 15.5401 8.56 14.1801 11.76 14.1801C13.52 14.1801 14.96 14.7801 16.08 15.9801C17.28 17.1001 17.88 18.5001 17.88 20.1801Z" fill="#222222"/>
</svg>
