<svg width="24" height="25" viewBox="0 0 24 25" fill="none" xmlns="http://www.w3.org/2000/svg">
<path d="M12.9417 12.5029L20.4697 4.9736C20.731 4.7136 20.731 4.29094 20.4697 4.03094C20.2097 3.77094 19.7884 3.77094 19.527 4.03094L11.999 11.5603L4.4697 4.03094C4.2097 3.77094 3.78836 3.77094 3.52703 4.03094C3.26703 4.29094 3.26703 4.7136 3.52703 4.9736L11.0564 12.5029L3.52703 20.0309C3.26703 20.2923 3.26703 20.7136 3.52703 20.9749C3.6577 21.1043 3.82836 21.1696 3.99903 21.1696C4.1697 21.1696 4.34036 21.1043 4.4697 20.9749L11.999 13.4456L19.527 20.9749C19.6577 21.1043 19.8284 21.1696 19.999 21.1696C20.1697 21.1696 20.3404 21.1043 20.4697 20.9749C20.731 20.7136 20.731 20.2923 20.4697 20.0309L12.9417 12.5029Z" fill="#222222"/>
</svg>
