<svg width="104" height="104" viewBox="0 0 104 104" fill="none" xmlns="http://www.w3.org/2000/svg">
<path fill-rule="evenodd" clip-rule="evenodd" d="M46.9535 26.5609C48.2944 25.2201 50.1132 24.4667 52.0091 24.4667C53.9062 24.4667 55.7238 25.2201 57.0648 26.5609C58.4058 27.9017 59.1593 29.7202 59.1593 31.6159C59.1593 33.5115 58.4058 35.33 57.0648 36.6708C55.7238 38.0116 53.9062 38.765 52.0091 38.765C50.112 38.765 48.2944 38.0116 46.9535 36.6708C45.6125 35.33 44.859 33.5115 44.859 31.6159C44.859 29.7202 45.6125 27.9017 46.9535 26.5609ZM52.0091 36.7214C53.3633 36.7214 54.6622 36.1834 55.6203 35.2253C56.5785 34.2673 57.1166 32.9687 57.1166 31.6146C57.1166 30.2606 56.5773 28.962 55.6203 28.004C54.6622 27.0459 53.3633 26.5079 52.0091 26.5079C50.6549 26.5079 49.3561 27.0459 48.3979 28.004C47.4398 28.962 46.9017 30.2606 46.9017 31.6146C46.9017 32.9687 47.441 34.2673 48.3979 35.2253C49.3561 36.1834 50.6549 36.7214 52.0091 36.7214Z" fill="#6219FF"/>
<path fill-rule="evenodd" clip-rule="evenodd" d="M78.5635 51.0173C80.3438 51.0185 82.0362 51.7936 83.199 53.1415L83.1978 53.1427C84.3606 54.4907 84.8795 56.278 84.6207 58.0388C84.3606 59.7996 83.3483 61.3619 81.846 62.3163C80.3438 63.2707 78.4997 63.5259 76.7952 63.0144C75.0895 62.5028 73.692 61.2752 72.9637 59.6504C72.2354 58.0256 72.2511 56.1649 73.0046 54.5521L67.3266 50.6201C65.8497 52.5362 64.032 54.1634 61.964 55.4199L68.4702 67.6745C69.0889 67.4651 69.7365 67.358 70.3901 67.358C72.3438 67.3375 74.1891 68.2486 75.3591 69.8121C76.5304 71.3755 76.8855 73.4023 76.3161 75.2702C75.7467 77.1382 74.3215 78.6221 72.4774 79.2672C70.6333 79.9124 68.5942 79.6404 66.9836 78.5343C65.3742 77.4294 64.3871 75.6229 64.3281 73.6707C64.2692 71.7185 65.1431 69.8554 66.6826 68.6542L60.1765 56.3996C57.9291 57.4443 55.5012 58.0448 53.0263 58.1664V72.555C55.0642 72.8992 56.7916 74.2484 57.6197 76.1428C58.4479 78.0372 58.2637 80.2217 57.1322 81.9512C56.0007 83.6807 54.0711 84.723 52.0043 84.723C49.9375 84.723 48.0091 83.6819 46.8764 81.9512C45.7437 80.2217 45.5608 78.0372 46.3889 76.1428C47.2159 74.2484 48.9432 72.8992 50.9824 72.555V58.1664C48.5123 58.0352 46.0916 57.4286 43.8527 56.3791L37.3465 68.6338C38.8921 69.8253 39.7768 71.6836 39.7287 73.6346C39.6817 75.5856 38.7067 77.3969 37.1045 78.5126C35.5024 79.6283 33.4645 79.9124 31.6179 79.2805C29.7702 78.6486 28.3353 77.1743 27.7539 75.3111C27.1725 73.448 27.5132 71.4188 28.6712 69.8482C29.8304 68.2763 31.6673 67.352 33.6197 67.3568C34.2746 67.346 34.927 67.4423 35.5505 67.6432L42.0567 55.3886C39.9887 54.1429 38.1674 52.5265 36.6844 50.6201L30.9956 54.5918C31.8707 56.4646 31.7407 58.6527 30.6525 60.4099C29.5644 62.167 27.6637 63.2575 25.5969 63.3092C23.5301 63.361 21.5764 62.368 20.4016 60.6674C19.2255 58.9656 18.9872 56.7883 19.7672 54.8735C20.5472 52.9586 22.2397 51.5661 24.2679 51.1701C26.2974 50.7741 28.3895 51.4277 29.8316 52.9081L35.5108 48.976C33.0708 45.0392 32.1199 40.3597 32.8289 35.7838C33.5391 31.2066 35.8611 27.0351 39.3784 24.0214C42.8957 21.0077 47.3748 19.3516 52.0067 19.3516C56.6387 19.3516 61.1178 21.0077 64.6351 24.0214C68.1524 27.0351 70.4756 31.2078 71.1846 35.7838C71.8936 40.3597 70.9426 45.0392 68.5027 48.976L74.1819 52.8659C75.3339 51.6852 76.9132 51.0185 78.5635 51.0173ZM25.4548 61.2295C26.5382 61.2295 27.577 60.7998 28.3438 60.0331C29.1106 59.2665 29.5403 58.2278 29.5403 57.1446C29.5403 56.0614 29.1093 55.0215 28.3438 54.256C27.577 53.4906 26.5382 53.0597 25.4548 53.0597C24.3715 53.0597 23.3326 53.4906 22.5659 54.256C21.8003 55.0215 21.3694 56.0614 21.3694 57.1446C21.3694 58.2278 21.8003 59.2677 22.5659 60.0331C23.3326 60.7998 24.3715 61.2295 25.4548 61.2295ZM36.5147 76.3727C37.2815 75.606 37.7112 74.5673 37.7112 73.4841C37.7112 72.4009 37.2803 71.3611 36.5147 70.5956C35.7479 69.8289 34.7091 69.3993 33.6258 69.3993C32.5424 69.3993 31.5036 69.8289 30.7368 70.5956C29.9712 71.3611 29.5403 72.4009 29.5403 73.4841C29.5403 74.5673 29.9712 75.6072 30.7368 76.3727C31.5036 77.1394 32.5424 77.569 33.6258 77.569C34.7091 77.569 35.7479 77.1394 36.5147 76.3727ZM73.2827 70.5956C72.5159 69.8289 71.4771 69.3993 70.3937 69.3993C69.3104 69.3993 68.2716 69.8289 67.5048 70.5956C66.738 71.3611 66.3083 72.4009 66.3083 73.4841C66.3083 74.5673 66.7392 75.6072 67.5048 76.3727C68.2716 77.1394 69.3104 77.569 70.3937 77.569C71.4771 77.569 72.5159 77.1394 73.2827 76.3727C74.0483 75.606 74.4792 74.5673 74.4792 73.4841C74.4792 72.4009 74.0483 71.3611 73.2827 70.5956ZM56.0946 78.5896C56.0946 77.5064 55.6637 76.4678 54.8981 75.7011C54.1313 74.9344 53.0925 74.5048 52.0091 74.5048C50.9258 74.5048 49.887 74.9356 49.1202 75.7011C48.3534 76.4678 47.9237 77.5064 47.9237 78.5896C47.9237 79.6728 48.3546 80.7115 49.1202 81.4782C49.887 82.2437 50.9258 82.6745 52.0091 82.6745C53.0925 82.6745 54.1313 82.2437 54.8981 81.4782C55.6649 80.7115 56.0946 79.6728 56.0946 78.5896ZM40.7747 51.9777C43.9056 54.6544 47.89 56.124 52.0091 56.124C56.1283 56.124 60.1127 54.6532 63.2436 51.9777V51.0173C63.2496 48.9447 62.466 46.948 61.0528 45.4303C59.6396 43.9138 57.7028 42.9895 55.6348 42.8475L52.8879 47.4331C52.7037 47.7424 52.3703 47.9325 52.0091 47.9325C51.648 47.9325 51.3146 47.7424 51.1304 47.4331L48.3835 42.8475C46.3143 42.9907 44.3787 43.9138 42.9655 45.4303C41.5523 46.9468 40.7699 48.9447 40.7747 51.0173V51.9777ZM65.2861 49.9943C65.0316 47.4677 63.8437 45.1253 61.9568 43.4264C60.0681 41.727 57.6137 40.793 55.0726 40.805C54.7115 40.805 54.3781 40.9952 54.1939 41.3057L52.0079 44.9513L49.822 41.3057C49.6378 40.9952 49.3044 40.805 48.9432 40.805C46.4118 40.805 43.9694 41.745 42.0916 43.4432C40.2138 45.1415 39.0341 47.4764 38.7813 49.9954C35.9128 46.6074 34.4515 42.2505 34.6971 37.819C34.9426 33.3875 36.8758 29.2184 40.0994 26.1685C43.323 23.1187 47.5939 21.4181 52.0332 21.4181C56.4726 21.4181 60.7422 23.1175 63.967 26.1685C67.1918 29.2184 69.1238 33.3875 69.3694 37.819C69.6149 42.25 68.1539 46.6064 65.2861 49.9943ZM78.5635 61.2295C79.6468 61.2295 80.6857 60.7998 81.4524 60.0331C82.218 59.2665 82.6489 58.2278 82.6489 57.1446C82.6489 56.0614 82.218 55.0215 81.4524 54.256C80.6857 53.4906 79.6468 53.0597 78.5635 53.0597C77.4801 53.0597 76.4413 53.4906 75.6745 54.256C74.9077 55.0215 74.478 56.0614 74.478 57.1446C74.478 58.2278 74.9089 59.2677 75.6745 60.0331C76.4413 60.7998 77.4801 61.2295 78.5635 61.2295Z" fill="#6219FF"/>
</svg>
