<svg width="104" height="104" viewBox="0 0 104 104" fill="none" xmlns="http://www.w3.org/2000/svg">
<path fill-rule="evenodd" clip-rule="evenodd" d="M82.859 75.6655C83.5916 74.9317 84.0128 73.9175 84.0128 72.8818C84.0128 71.8461 83.5928 70.8319 82.859 70.0981L64.7621 52.0024L82.859 33.9066C83.6023 33.1633 84.0128 32.1753 84.0128 31.123C84.0128 30.0706 83.5928 29.0731 82.859 28.3393C80.8306 26.3109 77.6878 23.168 75.6594 21.1396C74.9256 20.407 73.9114 19.9858 72.8757 19.9858C71.84 19.9858 70.8341 20.3951 70.092 21.1396L51.9951 39.2378L33.8993 21.1408C33.1655 20.4082 32.1513 19.987 31.1156 19.987C30.08 19.987 29.0658 20.407 28.332 21.1408C26.3036 23.1692 23.1607 26.3121 21.1323 28.3405C20.3997 29.0743 19.9785 30.0885 19.9785 31.1242C19.9785 32.1598 20.3985 33.174 21.1323 33.9078L39.2281 52.0024L23.9351 67.2953C23.3838 67.8466 23.0116 68.5434 22.8588 69.307L20.7302 79.9442C20.5453 80.8713 20.834 81.8247 21.5034 82.494C22.1728 83.1634 23.1261 83.4522 24.0532 83.2672L34.6892 81.1386C35.454 80.9859 36.1497 80.6136 36.7021 80.0623L51.9951 64.7694L70.0908 82.8663C70.8246 83.5989 71.8388 84.0201 72.8745 84.0201C73.9102 84.0201 74.9244 83.6001 75.6582 82.8663C77.6866 80.8379 80.8294 77.6951 82.8578 75.6667L82.859 75.6655ZM71.7231 22.7671C72.0273 22.4641 72.4473 22.2899 72.8757 22.2899C73.304 22.2899 73.7252 22.4641 74.0283 22.7671L81.2279 29.9668C81.531 30.271 81.7052 30.691 81.7052 31.1194C81.7052 31.5477 81.531 31.9677 81.2279 32.272L74.2669 39.233L64.7609 29.7269L71.7219 22.7659L71.7231 22.7671ZM63.1322 31.358L72.6382 40.8641L63.1322 50.3689L53.6273 40.8641L63.1322 31.358ZM23.601 81.0014C23.5664 81.0085 23.5318 81.0121 23.4972 81.0121C23.3648 81.0121 23.2335 80.9596 23.1345 80.8618C23.0092 80.7353 22.9579 80.5599 22.9937 80.3905L24.8622 71.0431L32.952 79.1329L23.601 81.0014ZM35.2918 78.2093L25.7869 68.7045L40.8603 53.6311L50.3652 63.1359L35.2918 78.2093ZM74.0295 81.2328C73.7252 81.5359 73.3052 81.7101 72.8769 81.7101C72.4485 81.7101 72.0285 81.5359 71.7243 81.2328L68.9394 78.448L72.3006 75.0868C72.7504 74.637 72.7504 73.9055 72.3006 73.4557C71.8507 73.0059 71.1193 73.0059 70.6695 73.4557L67.3083 76.8169L64.7633 74.2719L68.1244 70.9107C68.5743 70.4608 68.5743 69.7294 68.1244 69.2796C67.9073 69.0624 67.6173 68.9419 67.3095 68.9419C67.0017 68.9419 66.7117 69.0612 66.4946 69.2796L63.1334 72.6408L60.5883 70.0957L63.9495 66.7346C64.1667 66.5174 64.2872 66.2275 64.2872 65.9196C64.2872 65.6118 64.1679 65.3218 63.9495 65.1047C63.4997 64.6548 62.7683 64.6548 62.3184 65.1047L58.9573 68.4658L56.4122 65.9208L59.7734 62.5596C60.2232 62.1098 60.2232 61.3784 59.7734 60.9285C59.5562 60.7114 59.2663 60.5909 58.9585 60.5909C58.6506 60.5909 58.3607 60.7102 58.1435 60.9285L54.7823 64.2897L52.2373 61.7447L55.5985 58.3835C56.0483 57.9337 56.0483 57.2023 55.5985 56.7524C55.1486 56.3026 54.4172 56.3026 53.9674 56.7524L50.6062 60.1136L48.0612 57.5686L51.4223 54.2074C51.8722 53.7575 51.8722 53.0261 51.4223 52.5763C50.9725 52.1265 50.2411 52.1265 49.7913 52.5763L46.4301 55.9375L43.885 53.3924L47.2462 50.0313C47.696 49.5814 47.696 48.85 47.2462 48.4002C47.0291 48.183 46.7391 48.0625 46.4313 48.0625C46.1234 48.0625 45.8335 48.1818 45.6163 48.4002L42.2552 51.7614L39.7101 49.2163L43.0713 45.8551C43.5211 45.4053 43.5211 44.6739 43.0713 44.2241C42.6215 43.7742 41.89 43.7742 41.4402 44.2241L38.079 47.5852L35.534 45.0402L38.8952 41.679C39.345 41.2292 39.345 40.4978 38.8952 40.0479C38.4453 39.5981 37.7139 39.5981 37.2641 40.0479L33.9029 43.4091L31.3579 40.8641L34.719 37.5029C35.1689 37.0531 35.1689 36.3216 34.719 35.8718C34.2692 35.422 33.5378 35.422 33.088 35.8718L29.7268 39.233L27.1817 36.6879L30.5429 33.3268C30.9927 32.8769 30.9927 32.1455 30.5429 31.6957C30.0931 31.2459 29.3617 31.2459 28.9118 31.6957L25.5507 35.0569L22.7658 32.272C22.4627 31.9677 22.2885 31.5477 22.2885 31.1194C22.2885 30.691 22.4627 30.271 22.7658 29.9668L29.9654 22.7671C30.2697 22.4641 30.6897 22.2899 31.118 22.2899C31.5464 22.2899 31.9676 22.4641 32.2706 22.7671L81.2315 71.728C81.5346 72.0323 81.7088 72.4523 81.7088 72.8806C81.7088 73.309 81.5346 73.7302 81.2315 74.0332L74.0319 81.2328H74.0295Z" fill="#6219FF"/>
</svg>
