<svg width="104" height="104" viewBox="0 0 104 104" fill="none" xmlns="http://www.w3.org/2000/svg">
<path d="M25.9998 26.6506V36.5826C26.0355 38.1411 25.5393 39.6654 24.5944 40.9045C23.6494 42.1436 22.3123 43.0261 20.7998 43.4065V56.5491C20.8132 56.6576 20.8132 56.766 20.7998 56.8745C21.1995 57.1048 21.5293 57.4361 21.7581 57.8357C21.9854 58.2354 22.1043 58.6885 22.0998 59.1491V78.6491H16.8998V59.1491C16.8954 58.6885 17.0127 58.2354 17.2415 57.8357C17.4703 57.4361 17.8017 57.1048 18.1998 56.8745C18.1865 56.766 18.1865 56.6576 18.1998 56.5491V43.4065C16.6889 43.0276 15.3502 42.1451 14.4053 40.9045C13.4604 39.6654 12.9642 38.1411 12.9998 36.5826V26.6506C12.9998 25.933 13.5822 25.3506 14.2998 25.3506C15.0174 25.3506 15.5998 25.933 15.5998 26.6506V36.5826C15.5761 37.4458 15.8108 38.2971 16.2744 39.0266C16.7379 39.7561 17.408 40.331 18.1998 40.6772V26.6506C18.1998 25.933 18.7822 25.3506 19.4998 25.3506C20.2174 25.3506 20.7998 25.933 20.7998 26.6506V40.6772C21.5917 40.331 22.2618 39.7561 22.7253 39.0266C23.1874 38.2971 23.4236 37.4458 23.3998 36.5826V26.6506C23.3998 25.933 23.9822 25.3506 24.6998 25.3506C25.0445 25.3506 25.3758 25.4873 25.6195 25.7309C25.8631 25.9746 25.9998 26.3059 25.9998 26.6506Z" fill="#6219FF"/>
<path d="M84.4998 25.9998C85.8786 25.9998 87.2009 26.5481 88.177 27.5227C89.1516 28.4988 89.6998 29.8211 89.6998 31.1998V36.3998C89.6998 37.5528 89.315 38.6715 88.6093 39.5822C87.9036 40.493 86.9156 41.1437 85.7998 41.432C85.8073 41.4884 85.8073 41.5449 85.7998 41.6013V55.9013C85.8132 56.0098 85.8132 56.1182 85.7998 56.2267C86.1995 56.457 86.5293 56.7883 86.7581 57.188C86.9854 57.5876 87.1043 58.0408 87.0998 58.5013V78.0013H81.8998V58.5013C81.8954 58.0408 82.0128 57.5876 82.2416 57.188C82.4704 56.7883 82.8017 56.457 83.1998 56.2267C83.1865 56.1182 83.1865 56.0098 83.1998 55.9013V41.6013C83.1924 41.5449 83.1924 41.4884 83.1998 41.432C82.0841 41.1422 81.0961 40.493 80.3904 39.5822C79.6847 38.6715 79.2998 37.5513 79.2998 36.3998V31.1998C79.2998 29.8211 79.8481 28.4988 80.8227 27.5227C81.7988 26.5481 83.1211 25.9998 84.4998 25.9998Z" fill="#6219FF"/>
<path fill-rule="evenodd" clip-rule="evenodd" d="M42.1317 53.5212L51.9998 64.6522L52.0013 64.6507L61.1756 54.2923L61.8382 53.539L61.8501 53.5242C63.165 51.9895 63.89 50.0298 63.89 48.0077C63.89 45.9857 63.165 44.0275 61.8561 42.4987C60.568 40.9758 58.6856 40.1022 56.6917 40.1022C54.9267 40.1022 53.2478 40.7872 51.9924 42.001C50.737 40.7872 49.0596 40.1022 47.2931 40.1022C45.2993 40.1022 43.4169 40.9744 42.1317 42.4942C40.8228 44.032 40.1022 45.9886 40.1022 48.0077C40.1022 50.0268 40.8228 51.9835 42.1317 53.5212ZM45.0408 52.3312L44.387 51.5868L44.3856 51.5853C43.5387 50.5854 43.0722 49.3196 43.0722 48.0062C43.0722 46.6929 43.5417 45.4196 44.3959 44.4153C45.118 43.5625 46.1744 43.0722 47.2916 43.0722C48.4089 43.0722 49.4652 43.561 50.1873 44.4153L52.0088 46.4477L53.7768 44.4376L53.7946 44.4168C54.5167 43.564 55.573 43.0737 56.6903 43.0737C57.8075 43.0737 58.8639 43.5625 59.5919 44.4242C60.4461 45.4211 60.9171 46.6973 60.9171 48.0077C60.9171 49.3181 60.4491 50.5869 59.5978 51.5838L58.9456 52.3267L51.9969 60.1728L45.0408 52.3312Z" fill="#6219FF"/>
<path fill-rule="evenodd" clip-rule="evenodd" d="M52.0013 25.9998C45.1061 25.9998 38.4917 28.7395 33.6171 33.6156C28.741 38.4917 26.0013 45.1046 26.0013 51.9998C26.0013 58.895 28.741 65.5094 33.6171 70.3841C38.4932 75.2602 45.1061 77.9998 52.0013 77.9998C58.8965 77.9998 65.5109 75.2602 70.3856 70.3841C75.2617 65.508 78.0013 58.895 78.0013 51.9998C78.0013 47.4357 76.7994 42.9518 74.5173 38.9998C72.2353 35.0478 68.9533 31.7644 65.0013 29.4838C61.0493 27.2018 56.5654 25.9998 52.0013 25.9998ZM52.1157 28.9713C56.1123 28.9921 60.0509 30.0573 63.5126 32.0556C67.0085 34.0747 69.9235 36.9897 71.9426 40.4856C73.9602 43.9814 75.0284 47.9632 75.0284 51.9998C75.0284 55.0396 74.4386 58.0036 73.2753 60.8116C72.112 63.6196 70.4331 66.1334 68.2833 68.2818C66.1349 70.4316 63.6211 72.1105 60.8131 73.2738C58.0051 74.4371 55.0396 75.0269 51.9998 75.0269C48.9601 75.0269 45.9961 74.4371 43.1881 73.2738C40.3801 72.1105 37.8662 70.4316 35.7179 68.2818C33.5681 66.1334 31.8892 63.6196 30.7259 60.8116C29.5626 58.0036 28.9728 55.0381 28.9728 51.9984C28.9728 48.9586 29.5626 45.9946 30.7259 43.1866C31.8892 40.3786 33.5681 37.8648 35.7179 35.7164C37.8662 33.5666 40.3801 31.8877 43.1881 30.7244C45.9961 29.5611 48.9616 28.9713 52.0013 28.9713H52.1157Z" fill="#6219FF"/>
</svg>
