<svg width="500" height="338" viewBox="0 0 500 338" fill="none" xmlns="http://www.w3.org/2000/svg">
<path d="M395.74 103.278C389.568 121.672 363.44 126.285 350.628 112.254C337.921 98.9518 341.753 73.2589 359.401 66.1421C383.488 56.3397 404.59 79.756 395.74 103.278Z" fill="white"/>
<path d="M390.828 180.791H360.017L375.659 144.064L390.828 180.791Z" fill="white"/>
<path d="M169.15 65.7543L153.513 102.481H184.324L169.15 65.7543Z" fill="white"/>
<path d="M121.647 90.0181C131.294 88.1334 134.287 73.5078 126.061 68.1744C121.927 65.1237 114.333 65.3193 108.014 65.4819C106.81 65.5128 105.652 65.5427 104.574 65.5486C103.623 65.554 102.734 65.5406 101.928 65.4931V90.7349C103.096 90.6824 104.985 90.7088 107.159 90.7392C112.317 90.8115 119.082 90.906 121.647 90.0222V90.0181Z" fill="white"/>
<path d="M162.792 196.58C180.407 189.438 184.067 163.648 171.283 150.473C153.9 132.702 123.641 145.443 124.337 170.516C123.814 191.065 144.06 204.464 162.792 196.58Z" fill="white"/>
<path d="M160.528 259.1H191.339L176.166 222.374L160.528 259.1Z" fill="white"/>
<path d="M230.004 222.085C240.37 221.873 254.157 221.592 254.058 234.322C254.219 247.177 240.408 246.885 229.817 246.66H229.807L229.764 246.66C228.599 246.635 227.474 246.611 226.412 246.606C225.786 246.603 225.182 246.607 224.605 246.621V222.108C226.204 222.162 228.043 222.125 230.004 222.085Z" fill="white"/>
<path d="M293.836 143.858C304.103 143.741 316.043 143.605 323.687 150.148V150.152C335.281 159.402 335.323 181.579 323.687 190.812C315.982 197.429 303.997 197.296 293.675 197.183H293.641C291.985 197.164 290.371 197.146 288.824 197.157V143.883C290.408 143.896 292.066 143.877 293.773 143.858H293.836Z" fill="white"/>
<path fill-rule="evenodd" clip-rule="evenodd" d="M482.512 17.4843V0H477.355V17.4843H22.6405V0H17.4841V17.4843H0V22.6405H17.4841V315.288H0V320.445H17.4841V337.929H22.6405V320.445H477.36V337.929H482.516V320.445H500V315.288H482.516V22.6405H500V17.4843H482.512ZM342.761 79.8572C349.705 60.2439 377.851 55.3573 391.819 70.1602C409.818 89.0273 397.987 123.49 370.414 122.925C347.896 123.422 334.767 99.7487 342.761 79.8572ZM401.407 199.616H398.548L391.743 183.169H359.005L351.956 199.616H349.093L374.331 141.416H377.155L401.407 199.616ZM286.219 63.1067H320.516V65.5688H288.841V89.9209H318.653V92.3833H288.841V118.839H321.815V121.301H286.219V63.1067ZM167.822 63.1067H170.647L194.898 121.306H192.039L185.234 104.859H152.496L145.447 121.306H142.585L167.822 63.1067ZM99.2933 63.1067C101.534 63.2495 104.114 63.1769 106.835 63.1001C116.159 62.8374 127.139 62.528 131.753 70.6872C136.125 78.4701 131.888 89.8874 122.891 92.1218C119.895 93.3344 113.061 93.2131 107.65 93.117H107.646C105.344 93.076 103.301 93.0396 101.92 93.1126V121.306H99.2933V63.1067ZM57.4361 199.616H54.8093V141.416H57.4361V168.311H95.1534V141.416H97.7798V199.616H95.1534V170.773H57.4361V199.616ZM126.926 277.925V223.399L101.937 277.925H99.9385L75.1141 223.58V277.925H72.4873V219.726H76.3411C76.3757 219.8 82.811 233.925 89.101 247.731C95.106 260.912 100.979 273.802 101.022 273.895L125.703 219.726H129.557V277.925H126.926ZM130.206 192.562C115.879 178.265 120.1 149.592 139.658 142.095C166.262 131.719 189.202 156.856 179.26 182.865C172.308 202.478 144.182 207.344 130.206 192.562ZM199.051 277.925L192.246 261.478H159.508L152.459 277.925H149.596L174.833 219.726H177.658L201.909 277.925H199.051ZM205.396 141.416H208.018V197.153H236.536V199.616H205.396V141.416ZM254.716 277.925L237.379 249.003H224.592V277.925H221.965V219.726C224.182 219.867 226.869 219.799 229.742 219.725C237.096 219.537 245.667 219.318 250.681 222.505C256.744 225.84 258.291 235.41 255.078 241.262C252.178 246.537 246.005 248.75 240.301 248.914L257.726 277.93H254.716V277.925ZM259.467 199.616H256.841V141.416H259.467V199.616ZM260.842 117.819C232.131 133.077 200.358 113.15 211.345 79.8614C217.998 60.8932 244.749 55.7326 259.349 68.5242L257.435 70.4383C247.043 61.0534 228.66 62.0104 219.292 72.167C209.211 82.6481 209.266 101.579 219.212 112.136C228.698 122.608 246.364 122.271 258.219 116.331V94.4954H243.311V92.1134H260.842V117.819ZM298.593 263.63C290.876 255.79 282.85 247.637 282.799 247.586V277.925H280.173V219.726H282.799V245.596L311.136 219.726H314.989L285.337 246.494L316.36 277.925H312.662C312.626 277.887 305.741 270.893 298.593 263.63ZM332.452 183.531C325.209 200.247 306.302 199.935 290.431 199.673C288.99 199.649 287.574 199.626 286.193 199.616V141.416C288.317 141.452 290.572 141.422 292.902 141.392C304.247 141.241 317.36 141.067 325.622 148.356C335.425 155.983 337.17 172.595 332.452 183.527V183.531ZM372.075 277.925H336.479V219.726H370.781V222.189H339.105V246.541H368.917V249.003H339.105V275.459H372.079V277.921L372.075 277.925ZM431.493 222.189H411.972V277.925H409.346V222.189H389.821V219.726H431.493V222.189ZM429.73 174.201V199.62H427.104V174.201L407.09 141.416H410.185L428.499 171.486L446.734 141.416H449.749L429.734 174.201H429.73Z" fill="white"/>
</svg>
