<svg width="500" height="338" viewBox="0 0 500 338" fill="none" xmlns="http://www.w3.org/2000/svg">
<path d="M253.637 234.327C253.717 219.608 234.782 222.909 225.026 222.53V246.199C235.406 245.828 253.573 249.201 253.637 234.322V234.327Z" fill="black"/>
<path d="M161.165 258.679H190.711L176.161 223.462L161.165 258.679Z" fill="black"/>
<path d="M360.654 180.369H390.2L375.65 145.152L360.654 180.369Z" fill="black"/>
<path d="M314.112 145.814C307.561 143.655 296.287 144.469 289.25 144.305V196.736C296.232 196.593 307.603 197.402 314.108 195.189C325.475 192.161 332.187 182.507 331.879 170.52C332.174 158.555 325.53 148.765 314.112 145.814Z" fill="black"/>
<path d="M171.094 190.277C186.757 172.915 176.52 142.504 151.62 142.685C131.243 142.475 119.872 163.391 126.686 181.44C133.094 199.7 158.129 204.08 171.094 190.277Z" fill="black"/>
<path d="M381.418 117.886C398.772 110.85 402.355 85.4351 389.77 72.4537C376.7 58.6207 352.104 63.1361 345.518 81.2906C336.938 105.12 357.066 127.309 381.418 117.882V117.886Z" fill="black"/>
<path d="M121.533 89.6132C126.926 88.2008 130.547 83.5884 130.391 77.787C130.598 71.8508 126.601 67.7569 121.196 66.5385C117.536 65.4381 106.258 66.0747 102.346 65.9145V90.3131C106.145 90.1318 118 90.8569 121.533 89.6132Z" fill="black"/>
<path d="M169.145 66.8462L154.149 102.059H183.691L169.145 66.8462Z" fill="black"/>
<path d="M482.512 17.4842V0H477.355V17.4842H22.6405V0H17.4842V17.4842H0V22.6405H17.4842V315.288H0V320.445H17.4842V337.929H22.6405V320.445H477.36V337.929H482.516V320.445H500V315.288H482.516V22.6405H500V17.4842H482.512ZM358.297 63.4017C385.546 53.0638 408.359 78.04 398.455 104.715C390.972 124.784 363.335 129.552 348.705 114.551C334.164 99.8752 338.397 71.1804 358.297 63.4017ZM402.039 200.041H398.265L391.461 183.594H359.283L352.234 200.041H348.448L374.048 140.999H375.579L375.663 140.797L375.747 140.999H377.43L402.03 200.041H402.039ZM285.793 62.6892H320.938V65.9946H289.262V89.5036H319.074V92.809H289.262V118.422H322.237V121.727H285.797V62.685L285.793 62.6892ZM169.078 62.6892L169.163 62.4868L169.247 62.6892H170.929L195.53 121.731H191.757L184.952 105.284H152.775L145.725 121.731H141.939L167.544 62.6892H169.078ZM98.876 62.6892C109.016 63.2921 126.036 59.7 132.12 70.4763C135.404 76.1934 134.005 85.4266 128.608 89.5415C125.269 92.2946 120.758 93.5468 116.326 93.5426H102.346V121.736H98.876V62.6892ZM57.8618 200.041H54.3919V140.999H57.8618V167.894H94.7358V140.999H98.2056V200.041H94.7358V171.199H57.8618V200.041ZM129.978 278.351H126.508V225.334L102.211 278.351H99.6686L75.5357 225.519V278.351H72.0658V219.309H76.6108L101.022 272.883L125.433 219.309H129.978V278.351ZM121.285 170.52C121.129 158.032 127.963 146.429 139.502 141.712C150.511 137.04 165.035 139.418 173.324 148.175C187.869 162.855 183.636 191.596 163.69 199.325C142.917 207.656 120.892 193.304 121.289 170.516L121.285 170.52ZM198.776 278.351L191.972 261.904H159.794L152.745 278.351H148.959L174.559 219.309H176.09L176.174 219.107L176.258 219.309H177.941L202.541 278.351H198.768H198.776ZM204.978 140.999H208.448V196.736H236.966V200.041H204.983V140.999H204.978ZM254.484 278.351L237.147 249.429H225.022V278.351H221.552V219.309H238.273C244.656 219.284 252.013 220.709 255.365 226.771C256.516 228.732 257.102 231.274 257.102 234.327C257.338 241.692 252.266 246.983 245.563 248.594C244.036 248.969 242.519 249.205 241.03 249.302L258.476 278.351H254.484ZM259.897 200.041H256.427V140.999H259.897V200.041ZM261.276 118.068C244.083 127.596 218.702 124.999 210.919 104.382C206.551 93.1716 208.63 78.4616 217.256 69.8692C228.011 58.6417 248.451 58.1232 259.982 68.4948L257.448 71.0286C247.291 61.4918 228.901 62.373 219.604 72.4579C212.074 80.2324 210.341 92.9228 214.072 102.936C220.607 121.107 242.207 123.646 257.806 116.065V94.9171H242.898V91.6917H261.272V118.068H261.276ZM312.493 278.351L283.229 248.619V278.351H279.759V219.309H283.229V244.643L310.98 219.309H316.089L285.953 246.515L317.371 278.351H312.489H312.493ZM325.896 192.925C315.609 201.943 298.601 199.843 285.78 200.041V140.999C298.424 141.201 315.777 139.11 325.896 148.036C338.62 158.374 338.662 182.599 325.896 192.925ZM372.501 278.351H336.061V219.309H371.207V222.614H339.531V246.123H369.343V249.429H339.531V275.041H372.505V278.347L372.501 278.351ZM431.923 222.614H412.398V278.351H408.928V222.614H389.403V219.309H431.918V222.614H431.923ZM430.156 174.323V200.041H426.686V174.323L406.339 140.999H410.421L428.495 170.68L446.493 140.999H450.495L430.148 174.323H430.156Z" fill="black"/>
</svg>
