<svg width="400" height="270" viewBox="0 0 400 270" fill="none" xmlns="http://www.w3.org/2000/svg">
<path fill-rule="evenodd" clip-rule="evenodd" d="M319.166 83.3788C313.504 99.3459 290.613 103.309 279.232 91.2744C267.563 79.6392 271.015 56.3147 286.931 50.2161C308.465 41.7148 327.312 62.315 319.166 83.3788ZM305.49 93.9514C319.419 88.3035 322.294 67.9034 312.198 57.4856C302.15 46.3885 281.54 50.1857 276.676 64.5791C269.597 83.372 286.281 101.712 305.49 93.9514Z" fill="white"/>
<path d="M206.266 75.5139H194.299V72.9215H209.048V94.0937C185.784 106.68 159.668 90.4048 168.66 63.3034C174.129 47.722 196.168 43.6169 208.013 54.3011L205.978 56.335C197.826 48.6831 183.067 49.3904 175.601 57.4823C167.631 65.7738 167.675 80.7528 175.54 89.1018C183.003 97.3459 196.905 97.1024 206.266 92.4894V75.5139Z" fill="white"/>
<path fill-rule="evenodd" clip-rule="evenodd" d="M121.967 83.8357H147.792L153.255 97.0379H156.283L136.536 49.6442H135.186L135.118 49.4818L135.051 49.6442H133.822L113.269 97.0379H116.308L121.967 83.8357ZM123.06 81.2467L135.098 52.9811L146.777 81.2467H123.06Z" fill="white"/>
<path fill-rule="evenodd" clip-rule="evenodd" d="M81.4769 74.4071C82.6343 74.3435 84.2928 74.3716 86.1399 74.403C90.3852 74.475 95.6269 74.5641 98.0768 73.5949C105.499 71.7436 109.005 62.315 105.38 55.8949C101.599 49.1602 92.5007 49.4173 84.8186 49.6346C82.6066 49.6971 80.5119 49.7563 78.6951 49.6442V97.0379H81.4806V74.4071H81.4769ZM103.989 61.7634C104.016 72.2949 93.5497 72.0478 85.3811 71.855C83.9923 71.8223 82.67 71.791 81.4769 71.8147V52.2299C82.6046 52.2551 83.8905 52.2261 85.2634 52.195C93.245 52.0141 104.165 51.7667 103.989 61.7634Z" fill="white"/>
<path d="M257.985 94.3812H231.516V73.8216H255.447V71.1684H231.516V52.2975H256.942V49.6442H228.734V97.0379H257.985V94.3812Z" fill="white"/>
<path d="M75.3716 159.898H78.1567V112.501H75.3716V134.092H45.7726V112.501H42.9872V159.898H45.7726V136.746H75.3716V159.898Z" fill="white"/>
<path fill-rule="evenodd" clip-rule="evenodd" d="M138.451 118.264C150.124 129.906 146.672 153.261 130.718 159.322C114.362 166.142 96.1239 154.229 96.6825 136.198C96.0089 113.895 122.951 102.937 138.451 118.264ZM121.029 113.854C104.916 113.445 95.42 130.776 101.014 144.963C105.769 159.454 126.657 163.13 136.661 152.056C149.322 138.546 140.702 113.333 121.029 113.854Z" fill="white"/>
<path d="M189.537 157.241H166.646V112.501H163.861V159.898H189.537V157.241Z" fill="white"/>
<path d="M205.163 112.501H207.948V159.894H205.163V112.501Z" fill="white"/>
<path fill-rule="evenodd" clip-rule="evenodd" d="M260.923 118.153C254.21 112.204 243.429 112.353 234.172 112.481H234.165C232.27 112.507 230.44 112.532 228.721 112.504V159.898C230.424 159.871 232.232 159.896 234.099 159.921C243.392 160.045 254.168 160.19 260.923 154.185C271.17 145.897 271.136 126.454 260.923 118.156V118.153ZM231.503 115.157C247.862 114.531 265.413 115.269 265.721 136.201C265.434 157.011 247.774 157.901 231.503 157.245V115.157Z" fill="white"/>
<path fill-rule="evenodd" clip-rule="evenodd" d="M300.881 112.338L300.949 112.501H302.306L322.053 159.894H319.024L313.562 146.692H287.733L282.074 159.894H279.035L299.585 112.501H300.813L300.881 112.338ZM300.864 115.838L288.826 144.103H312.543L300.864 115.838Z" fill="white"/>
<path d="M341.831 159.898H344.616V139.25L360.945 112.501H357.734L343.286 136.326L328.778 112.501H325.498L341.831 139.25V159.898Z" fill="white"/>
<path d="M60.8261 175.361L80.4177 218.365L100.013 175.361H103.661V222.754H100.876V180.197L81.3722 222.754H79.3313L59.9595 180.349V222.754H57.1777V175.361H60.8261Z" fill="white"/>
<path fill-rule="evenodd" clip-rule="evenodd" d="M140.814 175.361L140.746 175.198L140.678 175.361H139.45L118.9 222.754H121.94L127.598 209.552H153.427L158.889 222.754H161.918L142.171 175.361H140.814ZM128.691 206.963L140.729 178.698L152.408 206.963H128.691Z" fill="white"/>
<path fill-rule="evenodd" clip-rule="evenodd" d="M200.733 177.642C209.2 182.853 206.364 197.216 196.442 198.871V198.868C195.216 199.169 193.998 199.362 192.803 199.436L206.808 222.754H203.603L189.686 199.538H179.953V222.754H177.168V175.361C178.95 175.471 181.124 175.415 183.457 175.355C189.515 175.2 196.642 175.017 200.733 177.642ZM184.253 177.937C182.688 177.969 181.221 177.999 179.95 177.953V196.956C181.154 196.927 182.517 196.955 183.963 196.985C192.204 197.156 203.149 197.384 202.916 187.422C202.984 177.554 192.315 177.772 184.253 177.937Z" fill="white"/>
<path d="M253.054 175.361H248.949L226.673 195.697V175.361H223.888V222.754H226.673V198.888L250.164 222.754H254.083L228.86 197.2L253.054 175.361Z" fill="white"/>
<path d="M295.798 199.542H271.867V220.101H298.336V222.754H269.082V175.361H297.294V178.017H271.867V196.885H295.798V199.542Z" fill="white"/>
<path d="M311.904 178.017H327.576V222.754H330.361V178.017H346.034V175.361H311.904V178.017Z" fill="white"/>
<path fill-rule="evenodd" clip-rule="evenodd" d="M385.962 14.0347H400V16.82H385.965V253.084H400V255.87H385.965V269.904H383.18V255.87H16.82V269.904H14.0346V255.87H0V253.084H14.0346V16.82H0V14.0347H14.0346V0H16.82V14.0347H383.177V0H385.962V14.0347ZM383.177 253.084V16.82H16.82V253.084H383.177Z" fill="white"/>
</svg>
