<svg width="100" height="100" viewBox="0 0 100 100" fill="none" xmlns="http://www.w3.org/2000/svg">
<path d="M32.7492 35.9902C32.7692 35.9902 32.8092 36.0002 32.8092 36.0002C33.0392 37.9402 32.3492 39.9602 31.6992 41.7502C31.7024 41.7084 31.7067 41.6656 31.711 41.6224C31.72 41.5313 31.7292 41.4384 31.7292 41.3502C31.7392 41.0702 31.7592 40.7902 31.7892 40.5102H31.7992C31.8692 40.0602 31.8992 39.6002 31.9292 39.1302L31.9338 39.066C32.0121 37.9763 32.0921 36.8631 32.7492 35.9902Z" fill="black"/>
<path d="M38.5206 48.1699C38.5206 48.1699 38.5406 48.1799 38.5606 48.1799C39.9007 47.3999 40.7006 40.9299 38.8206 44.4399C38.4306 45.6299 38.2506 46.9199 38.5106 48.1599H38.5206V48.1699Z" fill="black"/>
<path d="M50.8407 37.26C50.9607 36.15 51.0907 35.04 51.4707 33.96C51.7307 34.54 51.2407 37.4 50.7207 38.25C50.754 38.0301 50.7785 37.8102 50.8029 37.5902C50.8151 37.4802 50.8274 37.37 50.8407 37.26Z" fill="black"/>
<path d="M68.3508 49.36C64.8208 51.9 65.0508 44.67 67.5308 43.79C66.6008 45.22 67.6908 47 69.0008 47.72C69.2008 48.18 68.6508 48.95 68.3508 49.36Z" fill="black"/>
<path d="M69.2505 46.42C69.2505 46.42 69.2805 46.4001 69.3005 46.4001C69.1905 43.3401 67.3505 44.66 69.2505 46.42Z" fill="black"/>
<path fill-rule="evenodd" clip-rule="evenodd" d="M14 86V14H86V86H14ZM24.8013 47.3206C24.8568 47.1817 24.9117 47.0441 24.97 46.91C24.74 50.36 28.2 51.37 29.97 48.48C29.9764 48.5763 29.9746 48.7015 29.9725 48.8475C29.9713 48.929 29.97 49.0169 29.97 49.11C29.93 50.28 29.88 52.15 31.17 51.07C31.5427 50.2974 31.8245 49.4669 32.1055 48.6387C32.1336 48.5557 32.1618 48.4728 32.19 48.39C32.74 46.73 33.3 45.06 34.46 43.73C34.465 43.73 34.4725 43.735 34.48 43.74C34.4875 43.745 34.495 43.75 34.5 43.75C34.51 43.76 34.52 43.76 34.52 43.76C34.54 44.2 34.52 44.75 34.49 45.34L34.4895 45.3515C34.3796 47.9201 34.235 51.2985 37.56 50.3C37.7067 50.2467 37.82 50.2867 37.9 50.42C38.2 50.92 38.59 51.3 39.17 51.44C41.44 51.82 42.78 49.28 43.44 47.48C43.71 46.69 42.51 46.33 42.27 47.13L42.21 47.27C41.7 48.49 40.78 50.67 39.24 50.15C39.21 50.12 39.18 50.09 39.15 50.05C39 49.89 38.79 49.66 38.95 49.5C40.65 47.99 41.55 45.48 41 43.24C40.75 42.31 39.86 41.9 39.03 42.33C37.29 43.39 37.12 45.84 37.19 47.69C37.21 47.9 37.25 48.09 37.29 48.27C37.42 48.89 37.5 49.32 36.43 49.27C35.4354 48.8025 35.5685 47.2569 35.6979 45.7545L35.7 45.73L35.7014 45.7131C35.7809 44.739 35.8587 43.7864 35.63 43.17C34.03 40.23 31.81 45.68 31.35 47.08C31.51 45.52 32.1 44 32.7 42.48L32.7234 42.4197C33.5559 40.2794 34.3965 38.1182 34.02 35.8C33.89 34.84 32.74 34.43 32.02 35.06C30.61 36.88 30.54 39.29 30.48 41.66C30.45 42.87 30.42 44.07 30.21 45.18C29.82 48.09 25.77 51.49 26.24 46.18C26.33 45.53 26.37 44.83 26.41 44.1301L26.4108 44.1166C26.4805 42.9009 26.5514 41.6662 26.92 40.64C27.21 40.56 27.66 40.56 28.1499 40.56C29.2299 40.57 30.47 40.57 30.47 39.66C30.1612 38.9727 29.2272 39.1387 28.3304 39.2982L28.32 39.3C27.82 39.39 27.34 39.47 26.99 39.41C26.96 39.09 27.06 38.67 27.17 38.24C27.3699 37.4202 27.5798 36.5599 26.92 36.23C26.08 36.1608 25.9822 37.205 25.8932 38.1561L25.89 38.19C25.85 38.65 25.81 39.09 25.69 39.37C24.8 39.65 23.75 39.64 22.7 39.63C21.68 39.62 20.65 39.61 19.75 39.87C18.9812 41.208 20.7048 41.0305 22.0638 40.8906L22.07 40.89C22.6 40.83 23.08 40.78 23.33 40.83L23.31 40.79C23.62 40.78 23.92 40.77 24.23 40.75C24.3221 40.7452 24.4148 40.7397 24.5078 40.7343C24.7985 40.7172 25.0921 40.7 25.38 40.7C25.2138 41.2816 25.0684 41.8838 24.9207 42.4953C24.8906 42.6199 24.8605 42.7448 24.83 42.87C24.13 45.83 23.39 48.94 21.14 50.96C20.65 51.26 20.85 51.95 21.37 52.09H21.58C23.25 51.2 24 49.33 24.68 47.62C24.7217 47.52 24.7616 47.4199 24.8013 47.3206ZM70.6321 70.5417L70.75 70.61H70.65L70.6321 70.5417ZM67.97 69L70.6321 70.5417L69.87 67.64L72.37 65.67L69.11 65.45L67.88 62.62L66.65 65.45L63.39 65.67L60.13 65.45L58.9 62.62L57.67 65.45L54.41 65.67L51.15 65.45L49.92 62.62L48.69 65.45L45.43 65.67L42.17 65.45L40.94 62.62L39.71 65.45L36.45 65.67L33.19 65.45L31.96 62.62L30.73 65.45L27.47 65.67L29.97 67.64L29.19 70.61L31.97 69L34.75 70.61L33.97 67.64L36.47 65.67L38.97 67.64L38.19 70.61L40.97 69L43.75 70.61L42.97 67.64L45.47 65.67L47.97 67.64L47.19 70.61L49.97 69L52.75 70.61L51.97 67.64L54.47 65.67L56.97 67.64L56.19 70.61L58.97 69L61.75 70.61L60.97 67.64L63.47 65.67L65.97 67.64L65.19 70.61L67.97 69ZM77.3731 40.047C78.0224 39.988 78.6805 39.9282 79.3 39.82C79.65 39.78 79.9 39.64 80.02 39.3C80.07 38.77 79.58 38.46 79.14 38.61L79.11 38.56C77.7 38.78 76.29 38.91 74.86 39.04C74.82 38.76 74.88 38.4 74.95 38.02L74.9505 38.017C75.0904 37.2378 75.239 36.4098 74.48 36.22C73.7315 36.3298 73.7001 37.1667 73.6702 37.9652L73.67 37.97C73.66 38.36 73.64 38.73 73.55 39C72.83 39.3 71.88 39.3 70.95 39.3C70.38 39.3 69.81 39.3 69.3 39.37C68.79 39.37 68.51 40.02 68.86 40.39C69.6798 40.6926 70.6235 40.595 71.5701 40.4972L71.64 40.49C71.6988 40.4839 71.7576 40.4777 71.8162 40.4715C72.3355 40.4168 72.8458 40.363 73.34 40.39C73.3064 40.6187 73.2773 40.8699 73.2466 41.1347C73.2317 41.2636 73.2164 41.3957 73.2 41.53L73.1953 41.5714C72.9561 43.6747 72.6561 46.3135 70.54 46.85C70.6 45.33 69.95 42.59 67.93 43.47C68.12 41.66 65.95 43.14 65.56 43.96C65.06 44.67 64.79 45.51 64.53 46.35C64.17 47.49 63.81 48.62 62.87 49.41C62.73 49.51 62.67 49.51 62.63 49.35C62.37 48.41 62.46 47.43 62.55 46.45C62.65 45.38 62.75 44.31 62.39 43.29C60.94 41.12 59 44.45 58.51 45.82C58.47 45.54 58.56 45.14 58.65 44.7401C58.85 43.9001 59.05 43.01 58.15 42.91C57.84 42.93 57.69 43.13 57.59 43.4C57.56 43.49 57.53 43.58 57.5 43.66L57.4927 43.68C55.8753 48.1429 54.3141 52.4508 50.38 46.28C51.57 45.72 55.87 43.23 54.92 41.75C54.68 41.55 54.33 41.58 54.1 41.82C53.04 43.22 51.7 44.36 50.09 45.08C49.9307 43.1683 50.6537 41.5243 51.3805 39.8716L51.39 39.85C51.98 38.52 52.56 37.19 52.71 35.7C52.72 35.66 52.72 35.62 52.72 35.58L52.7216 35.5643C52.8315 34.4654 52.9843 32.9374 51.8 32.4H51.41C49.7907 33.5395 49.6401 36.0778 49.5002 38.4369L49.5 38.44C49.4972 38.4849 49.4945 38.5298 49.4918 38.5746C49.425 39.6664 49.3609 40.7143 49.14 41.55C49.12 41.58 49.1025 41.6075 49.085 41.635C49.0675 41.6625 49.05 41.69 49.03 41.72C48.43 42.64 47.83 43.56 47.13 44.41C46.62 45.03 47.59 45.8 48.09 45.17C48.1376 45.1085 48.1844 45.0482 48.2307 44.9886C48.4177 44.7477 48.5956 44.5185 48.78 44.27C48.805 44.24 48.8275 44.21 48.85 44.18C48.8725 44.15 48.895 44.12 48.92 44.09C49 44.53 48.86 45.63 48.7 46.86C48.4 49.14 48.04 51.88 48.96 51.81C49.23 51.81 49.53 51.56 49.55 51.31C49.5829 51.0205 49.6071 50.7267 49.6313 50.4342C49.6438 50.2822 49.6563 50.1305 49.67 49.98L49.6771 49.8932C49.7348 49.1914 49.7932 48.4807 49.87 47.77C51.46 50.32 55.28 52.1 56.82 48.52C56.8889 48.8351 56.793 49.2567 56.6946 49.6896L56.69 49.71C56.5 50.53 56.31 51.37 57.19 51.52C57.54 51.52 57.8 51.32 57.94 51.03C58.38 50.19 58.67 49.25 58.96 48.31C59.47 46.65 59.98 44.99 61.31 43.84C61.52 44.75 61.43 45.68 61.34 46.61L61.3341 46.6746C61.2359 47.743 61.1377 48.8107 61.52 49.84C62.23 51.56 64.07 50.43 64.68 49.24C65.8 52.45 69.81 51.26 70.28 48.29C70.32 48.15 70.38 48.11 70.52 48.11C71.46 48.09 72.25 47.63 72.84 46.91C72.41 51.86 75.43 53.76 78.47 49.29C78.74 48.92 78.54 48.42 78.1 48.33C77.61 48.29 77.32 48.72 77.03 49.15C76.88 49.38 76.73 49.6 76.55 49.75C72.8 53.3 74.2 43.88 74.63 41C74.67 40.75 74.7 40.55 74.72 40.41C75.54 40.22 76.44 40.13 77.34 40.05L77.3731 40.047Z" fill="black"/>
</svg>
