<svg width="100" height="100" viewBox="0 0 100 100" fill="none" xmlns="http://www.w3.org/2000/svg">
<path d="M43.9908 63.2602C43.1508 63.2602 42.5908 63.6802 42.3608 64.1502V63.3402H41.5508V68.4302H42.3608C42.3999 68.1295 42.3792 67.7014 42.3564 67.228C42.2858 65.7652 42.1943 63.8695 43.7808 63.9602C44.6008 63.9602 44.9808 64.3602 44.9808 65.2502V68.4302H45.7908C45.7682 68.114 45.7823 67.6995 45.7978 67.2426C45.858 65.4742 45.9398 63.0695 44.0008 63.2602H43.9908Z" fill="black"/>
<path d="M39.2403 63.3499H40.1803L38.0003 65.7099L40.3703 68.4399H39.3903L37.1303 65.7999V68.4399H36.3203V60.9199H37.1303V65.6899L39.2403 63.3499Z" fill="black"/>
<path d="M21.9697 67.0899V64.0299H23.1597V63.3499H21.9697V62.1899H21.1597V63.3499H20.4297V64.0299H21.1597C21.1953 64.3749 21.1739 64.8253 21.1511 65.3077C21.0712 66.993 20.9728 69.0686 23.2197 68.3999V67.7199C22.7097 67.9199 21.9097 67.9099 21.9697 67.0899Z" fill="black"/>
<path d="M25.3491 64.1502C25.5791 63.6802 26.1391 63.2602 26.9791 63.2602H26.9891C28.928 63.0694 28.8463 65.4741 28.7861 67.2425C28.7706 67.6995 28.7565 68.1139 28.7791 68.4302H27.9691V65.2502C27.9691 64.3602 27.5891 63.9602 26.7691 63.9602C25.1825 63.8695 25.2741 65.7651 25.3447 67.2279C25.3675 67.7013 25.3882 68.1294 25.3491 68.4302H24.5391V60.9102H25.3491V64.1502Z" fill="black"/>
<path d="M54.54 67.0899V64.0299H55.73V63.3499H54.54V62.1899H53.73V63.3499H53V64.0299H53.73C53.7656 64.3749 53.7443 64.8253 53.7214 65.3077C53.6415 66.993 53.5432 69.0686 55.79 68.3999V67.7199C55.28 67.9199 54.48 67.9099 54.54 67.0899Z" fill="black"/>
<path d="M75.6909 64.2098C76.0409 63.5498 76.8009 63.2598 77.4309 63.2598L77.4409 63.2798C79.2969 63.0869 79.2162 65.586 79.1595 67.3435V67.3447C79.1456 67.7738 79.1332 68.1593 79.1509 68.4498H78.3409V65.2398C78.3409 64.3398 77.9609 63.9698 77.2609 63.9698C75.7488 63.879 75.8429 65.8061 75.914 67.2616C75.9369 67.7313 75.9575 68.1519 75.9209 68.4398H75.1109V65.2298C75.1109 64.3298 74.7309 63.9598 74.0309 63.9598C72.5184 63.869 72.6129 65.8027 72.684 67.2569C72.7069 67.7254 72.7274 68.1447 72.6909 68.4298H71.8809V63.3398H72.6909V64.1198C73.1409 63.0498 75.2509 62.8698 75.6909 64.2098Z" fill="black"/>
<path d="M57.7696 67.24C56.9596 67.22 56.9596 68.5 57.7696 68.48C58.5796 68.5 58.5796 67.22 57.7696 67.24Z" fill="black"/>
<path d="M62.0892 63.9302C59.9492 63.7802 59.9092 68.0702 62.1192 67.8502C62.8392 67.8502 63.4892 67.4402 63.5792 66.6102H64.3292C64.0192 69.5202 59.3192 68.9002 59.6192 65.8702C59.4392 63.0502 63.8292 62.1202 64.2992 65.0402H63.4992C63.3692 64.2302 62.7892 63.9302 62.0892 63.9302Z" fill="black"/>
<path d="M79.9998 54.5H20.0098V55.06H79.9998V54.5Z" fill="black"/>
<path fill-rule="evenodd" clip-rule="evenodd" d="M24.2309 37.6375C23.9242 37.6543 23.6176 37.6711 23.3109 37.68L23.3309 37.72C23.0791 37.6724 22.6043 37.7219 22.0744 37.7771C20.71 37.9193 18.9802 38.0996 19.7509 36.76C20.6547 36.5046 21.6792 36.5145 22.6963 36.5245C23.7498 36.5347 24.7954 36.5449 25.6909 36.26C25.8112 35.9836 25.8501 35.5432 25.8911 35.0785C25.9763 34.1144 26.0707 33.0458 26.9209 33.12C27.5819 33.4472 27.3691 34.3141 27.1684 35.132C27.0624 35.5639 26.9598 35.9821 26.9909 36.3C27.3402 36.3642 27.8217 36.2784 28.3185 36.1899C29.2153 36.0301 30.162 35.8614 30.4709 36.55C30.464 37.4641 29.2289 37.4571 28.1552 37.4509C27.6668 37.4482 27.2117 37.4456 26.9209 37.53C26.5518 38.561 26.4824 39.7986 26.4137 41.0237C26.3744 41.7235 26.3354 42.4192 26.2409 43.07C25.7709 48.38 29.8209 44.98 30.2109 42.07C30.42 40.9601 30.4517 39.7603 30.4835 38.5519C30.546 36.1785 30.6095 33.7723 32.0209 31.95C32.7409 31.32 33.8909 31.73 34.0209 32.69C34.3962 35.0297 33.5439 37.2078 32.6981 39.3694C32.1015 40.8941 31.5081 42.4107 31.3509 43.97C31.8109 42.57 34.0309 37.12 35.6309 40.06C35.8633 40.6785 35.7807 41.637 35.6961 42.6186C35.5659 44.1286 35.4309 45.6933 36.4309 46.16C37.5045 46.2067 37.416 45.7812 37.2861 45.1568C37.2491 44.9786 37.2086 44.7842 37.1909 44.58C37.1209 42.73 37.2909 40.28 39.0309 39.22C39.8609 38.79 40.7509 39.2 41.0009 40.13C41.5509 42.37 40.6509 44.88 38.9509 46.39C38.7873 46.5454 39.0051 46.7811 39.1555 46.9439C39.1889 46.9801 39.219 47.0127 39.2409 47.04C40.7797 47.5593 41.6988 45.3777 42.2116 44.1604L42.2709 44.02C42.5109 43.22 43.7109 43.58 43.4409 44.37C42.7809 46.17 41.4409 48.71 39.1709 48.33C38.5909 48.19 38.2009 47.81 37.9009 47.31C37.7809 47.11 37.7809 47.11 37.5609 47.19C34.2342 48.1904 34.3808 44.8048 34.4921 42.2309C34.5177 41.6402 34.5414 41.0923 34.5209 40.65C34.5142 40.6467 34.5075 40.6422 34.5009 40.6378C34.4875 40.6289 34.4742 40.62 34.4609 40.62C33.3053 41.9498 32.7457 43.6173 32.1875 45.2806C31.881 46.1938 31.5749 47.1058 31.1709 47.96C29.8824 49.0433 29.9342 47.1699 29.9666 45.9989C29.9737 45.743 29.9798 45.5206 29.9709 45.37C28.2009 48.26 24.7409 47.25 24.9709 43.8C24.8751 44.0307 24.7806 44.2675 24.6849 44.5072C24.0008 46.2207 23.2564 48.0852 21.5809 48.98H21.3709C20.8509 48.84 20.6509 48.15 21.1409 47.85C23.3942 45.8284 24.1343 42.7151 24.8356 39.7649C25.012 39.0231 25.186 38.2912 25.3809 37.59C24.9976 37.5955 24.6142 37.6165 24.2309 37.6375ZM38.5509 45.07C39.8909 44.29 40.6909 37.82 38.8109 41.33C38.4209 42.52 38.2409 43.81 38.5009 45.05C38.5062 45.0527 38.5109 45.0553 38.5152 45.0578C38.527 45.0646 38.5362 45.07 38.5509 45.07ZM31.9354 36.0239C31.905 36.4919 31.8747 36.9568 31.8009 37.4H31.7909C31.7636 37.6792 31.7457 37.9585 31.7275 38.2409C31.719 38.3731 31.7104 38.5061 31.7009 38.64C32.3509 36.85 33.0409 34.83 32.8109 32.89C32.7909 32.88 32.7709 32.88 32.7509 32.88C32.0815 33.7748 32.0079 34.9079 31.9354 36.0239Z" fill="black"/>
<path fill-rule="evenodd" clip-rule="evenodd" d="M67.9202 63.2599C64.6302 63.1699 64.6002 68.5799 67.9202 68.5199C71.2302 68.6199 71.2402 63.1699 67.9202 63.2599ZM69.5802 65.9299C69.7102 68.5099 66.0302 68.4099 66.2502 65.8499C66.1202 63.2599 69.7802 63.3399 69.5802 65.9299Z" fill="black"/>
<path fill-rule="evenodd" clip-rule="evenodd" d="M49.6897 63.2599C46.3997 63.1699 46.3697 68.5799 49.6897 68.5199C52.9997 68.6199 53.0097 63.1699 49.6897 63.2599ZM51.3497 65.9299C51.4797 68.5099 47.7997 68.4099 48.0197 65.8499C47.8897 63.2599 51.5497 63.3399 51.3497 65.9299Z" fill="black"/>
<path fill-rule="evenodd" clip-rule="evenodd" d="M32.5706 63.2598C31.1406 63.2598 30.1506 64.3898 30.1906 65.9398C29.9106 68.7098 34.2806 69.5398 34.8206 66.9598H34.0106C33.5806 68.5498 30.7906 67.9098 31.0206 66.0498H34.8506C34.9906 64.2398 33.8306 63.1998 32.5606 63.2598H32.5706ZM31.0506 65.3998C31.2006 63.5298 33.9806 63.3398 34.0306 65.3998H31.0506Z" fill="black"/>
<path fill-rule="evenodd" clip-rule="evenodd" d="M74.8603 35.93C76.2903 35.8 77.7003 35.67 79.1103 35.45L79.1403 35.5C79.5803 35.35 80.0703 35.66 80.0203 36.19C79.9003 36.53 79.6503 36.67 79.3003 36.71C78.6668 36.8156 78.0048 36.8766 77.3444 36.9375C76.441 37.0207 75.5406 37.1036 74.7203 37.3C74.7018 37.4393 74.6718 37.6417 74.6343 37.8943C74.2061 40.7788 72.808 50.1985 76.5503 46.64C76.7282 46.4935 76.8793 46.268 77.0326 46.0393C77.3186 45.6123 77.6119 45.1745 78.1003 45.22C78.5403 45.31 78.7403 45.81 78.4703 46.18C75.4303 50.65 72.4103 48.75 72.8403 43.8C72.2503 44.52 71.4603 44.98 70.5203 45C70.3803 45 70.3203 45.04 70.2803 45.18C69.8103 48.15 65.8003 49.34 64.6803 46.13C64.0703 47.32 62.2303 48.45 61.5203 46.73C61.1319 45.6833 61.2383 44.5929 61.3448 43.5013C61.4357 42.5697 61.5268 41.6371 61.3103 40.73C59.9832 41.8785 59.4703 43.5398 58.9586 45.1973C58.6683 46.1376 58.3783 47.0766 57.9403 47.92C57.8003 48.21 57.5403 48.41 57.1903 48.41C56.3123 48.2604 56.5045 47.4171 56.6912 46.598C56.7915 46.1578 56.8903 45.7247 56.8203 45.41C55.2803 48.99 51.4603 47.21 49.8703 44.66C49.7893 45.4022 49.7276 46.1366 49.666 46.8705C49.6289 47.3133 49.5917 47.756 49.5503 48.2C49.5303 48.45 49.2303 48.7 48.9603 48.7C48.0448 48.765 48.4025 46.0304 48.7003 43.754C48.8612 42.5246 49.0045 41.4289 48.9203 40.98C48.8724 41.0429 48.8255 41.1044 48.7793 41.165C48.5465 41.4703 48.3324 41.7513 48.0903 42.06C47.5903 42.69 46.6203 41.92 47.1303 41.3C47.8273 40.4523 48.4268 39.5337 49.0289 38.6108C49.066 38.5539 49.1031 38.497 49.1403 38.44C49.3689 37.5681 49.4333 36.47 49.5003 35.3276C49.6383 32.972 49.7874 30.4281 51.4103 29.29H51.8003C52.9878 29.8307 52.8331 31.3686 52.722 32.4731C52.7181 32.5127 52.7141 32.5517 52.7103 32.59C52.5639 34.0765 51.9764 35.4114 51.3926 36.738C50.6607 38.401 49.9346 40.0509 50.0903 41.97C51.7003 41.25 53.0403 40.11 54.1003 38.71C54.3303 38.47 54.6803 38.44 54.9203 38.64C55.8703 40.12 51.5703 42.61 50.3803 43.17C54.3156 49.3526 55.8817 45.0185 57.4982 40.545C57.5289 40.4601 57.5596 40.375 57.5903 40.29C57.6903 40.02 57.8403 39.82 58.1503 39.8C59.0539 39.9012 58.848 40.7935 58.6549 41.6307C58.5616 42.0351 58.4713 42.4267 58.5103 42.71C59.0003 41.34 60.9403 38.01 62.3903 40.18C62.7513 41.195 62.6525 42.2675 62.5535 43.3416C62.4632 44.3205 62.3729 45.3007 62.6303 46.24C62.6703 46.4 62.7303 46.4 62.8703 46.3C63.8152 45.5107 64.1726 44.3761 64.5314 43.2368C64.7954 42.3986 65.0602 41.5579 65.5603 40.85C65.9503 40.03 68.1203 38.55 67.9303 40.36C69.9503 39.48 70.6003 42.22 70.5403 43.74C72.6672 43.1958 72.9641 40.5269 73.1981 38.4226C73.2436 38.0139 73.2867 37.6265 73.3403 37.28C72.7939 37.2538 72.2181 37.3159 71.6406 37.3781C70.6751 37.4821 69.7051 37.5867 68.8603 37.28C68.5103 36.91 68.7903 36.26 69.3003 36.26C69.8121 36.1918 70.3784 36.1911 70.9481 36.1904C71.8814 36.1893 72.8238 36.1881 73.5503 35.89C73.645 35.619 73.6576 35.2457 73.6706 34.8601C73.6975 34.0649 73.726 33.2178 74.4803 33.11C75.2436 33.2992 75.0944 34.1317 74.9541 34.914C74.8867 35.2899 74.8214 35.6542 74.8603 35.93ZM50.7203 35.14C51.2403 34.29 51.7303 31.43 51.4703 30.85C51.0853 31.9282 50.9612 33.0419 50.8377 34.1502C50.8008 34.481 50.764 34.8113 50.7203 35.14ZM67.5303 40.68C65.0503 41.56 64.8203 48.79 68.3503 46.25C68.6503 45.84 69.2003 45.07 69.0003 44.61C67.6903 43.89 66.6003 42.11 67.5303 40.68ZM69.2503 43.31C67.3503 41.55 69.1903 40.23 69.3003 43.29C69.2803 43.29 69.2703 43.3 69.2503 43.31Z" fill="black"/>
<path fill-rule="evenodd" clip-rule="evenodd" d="M14 14H86V86H14V14ZM15 15V85H85V15H15Z" fill="black"/>
</svg>
