<svg width="100" height="100" viewBox="0 0 100 100" fill="none" xmlns="http://www.w3.org/2000/svg">
<path d="M71.2106 45.3099C70.8406 45.3099 70.6506 45.4299 70.6506 45.6599V54.4499C70.6506 54.6999 70.8406 54.8199 71.2106 54.8199C71.5606 54.8199 71.7406 54.6999 71.7406 54.4499V45.6599C71.7406 45.4199 71.5606 45.3099 71.2106 45.3099Z" fill="black"/>
<path d="M44.8806 34.7599H41.6306V35.7999H40.3406C40.3406 35.5199 40.5006 35.2699 40.8106 35.0099C41.1306 34.7599 41.5006 34.5199 41.9506 34.2999C42.3906 34.0799 42.8306 33.8499 43.2706 33.6099C43.7106 33.3699 44.0906 33.0699 44.4106 32.7199C44.7306 32.3699 44.8806 31.9899 44.8806 31.5899V30.8999C44.8806 29.8499 43.5806 29.3199 40.9706 29.3199C38.3606 29.3199 37.0606 29.8499 37.0606 30.8999V32.5199H40.3106V30.6899C40.3106 30.5499 40.4806 30.4799 40.8306 30.4799C41.1906 30.4799 41.3806 30.5499 41.3806 30.6899V31.7099C41.3806 31.9899 41.2206 32.2599 40.9106 32.5299C40.6006 32.7999 40.2206 33.0399 39.7706 33.2699C39.3307 33.4999 38.8906 33.7299 38.4506 33.9799C38.0106 34.2299 37.6306 34.5199 37.3106 34.8599C36.9906 35.1999 36.8406 35.5699 36.8406 35.9699V37.1499H44.8906V34.7699L44.8806 34.7599Z" fill="black"/>
<path fill-rule="evenodd" clip-rule="evenodd" d="M49.5106 29.3199C46.8106 29.3199 45.4606 29.8499 45.4606 30.8999V35.6799C45.4606 36.7399 46.8106 37.2699 49.5106 37.2699C52.2106 37.2699 53.5306 36.7399 53.5306 35.6799V30.8999C53.5306 29.8499 52.1906 29.3199 49.5106 29.3199ZM50.0306 35.8899C50.0306 36.0399 49.8606 36.1099 49.5106 36.1099C49.1506 36.1099 48.9606 36.0399 48.9606 35.8899V30.6899C48.9606 30.5499 49.1406 30.4799 49.5106 30.4799C49.8506 30.4799 50.0306 30.5499 50.0306 30.6899V35.8899Z" fill="black"/>
<path fill-rule="evenodd" clip-rule="evenodd" d="M58.1106 29.3199C55.4306 29.3199 54.0906 29.8499 54.0906 30.8999V33.0199C54.0906 33.8599 54.9106 34.2799 56.5606 34.2799C57.5206 34.2799 58.2206 34.1199 58.6606 33.8099V35.8999C58.6606 36.0499 58.4806 36.1199 58.1106 36.1199C57.7706 36.1199 57.5906 36.0499 57.5906 35.8999V34.6499H54.3406V35.6899C54.3406 36.7499 55.6406 37.2799 58.2506 37.2799C60.8606 37.2799 62.1606 36.7499 62.1606 35.6899V30.9099C62.1606 29.8599 60.8106 29.3299 58.1106 29.3299V29.3199ZM58.6606 32.8899C58.6606 33.0399 58.4806 33.1099 58.1106 33.1099C57.7706 33.1099 57.5906 33.0399 57.5906 32.8899V30.6899C57.5906 30.5499 57.7606 30.4799 58.1106 30.4799C58.4706 30.4799 58.6606 30.5499 58.6606 30.6899V32.8899Z" fill="black"/>
<path d="M37.6906 37.7899L38.2105 39.2613L38.7206 37.7899H39.1906V39.7099H38.8706V38.2299L38.3406 39.7099H38.0606L37.5306 38.2299V39.7099H37.2106V37.7899H37.6906Z" fill="black"/>
<path fill-rule="evenodd" clip-rule="evenodd" d="M41.7006 37.7899L40.9606 39.7099H41.3106L41.4906 39.1999H42.2606L42.4406 39.7099H42.8006L42.0606 37.7899H41.7006ZM41.5806 38.9399L41.8706 38.1199L42.1606 38.9399H41.5806Z" fill="black"/>
<path d="M45.3306 38.9399H45.3406V38.9599L45.3306 38.9399Z" fill="black"/>
<path d="M45.3406 38.9399H45.8406C45.8406 39.0199 45.8306 39.0899 45.8006 39.1599C45.7806 39.2299 45.7406 39.2799 45.7006 39.3299C45.6506 39.3799 45.6006 39.4099 45.5306 39.4299C45.4606 39.4499 45.3906 39.4699 45.3006 39.4599C45.2006 39.4599 45.1106 39.4399 45.0306 39.3999C44.9606 39.3599 44.8906 39.2999 44.8506 39.2299C44.8006 39.1599 44.7706 39.0799 44.7506 38.9999C44.7306 38.9099 44.7206 38.8199 44.7206 38.7299C44.7206 38.6399 44.7306 38.5499 44.7506 38.4599C44.7706 38.3699 44.8106 38.2899 44.8506 38.2299C44.9006 38.1599 44.9606 38.1099 45.0306 38.0599C45.1006 38.0199 45.1906 37.9999 45.3006 37.9999C45.3606 37.9999 45.4206 37.9999 45.4806 38.0199C45.5406 38.0399 45.5906 38.0599 45.6306 38.0899C45.6706 38.1199 45.7106 38.1599 45.7406 38.2099C45.7706 38.2599 45.7906 38.3099 45.8006 38.3799H46.1306C46.1206 38.2699 46.0906 38.1799 46.0406 38.0999C45.9906 38.0199 45.9306 37.9499 45.8606 37.8899C45.7906 37.8399 45.7006 37.7899 45.6106 37.7699C45.5206 37.7399 45.4206 37.7299 45.3106 37.7299C45.1706 37.7299 45.0406 37.7599 44.9206 37.8099C44.8106 37.8599 44.7106 37.9399 44.6306 38.0299C44.5506 38.1199 44.4906 38.2299 44.4506 38.3499C44.4106 38.4699 44.3906 38.5999 44.3906 38.7399C44.3906 38.8799 44.4106 39.0099 44.4506 39.1299C44.4906 39.2499 44.5506 39.3599 44.6306 39.4499C44.7106 39.5399 44.8106 39.6099 44.9206 39.6699C45.0306 39.7199 45.1606 39.7499 45.3106 39.7499C45.4306 39.7499 45.5306 39.7299 45.6206 39.6899C45.7106 39.6499 45.8006 39.5799 45.8906 39.4799L45.9406 39.7099H46.1606V38.6999H45.3406V38.9399Z" fill="black"/>
<path fill-rule="evenodd" clip-rule="evenodd" d="M47.8806 39.6999H48.2306L48.4106 39.1899H49.1806L49.3606 39.6999H49.7206L48.9806 37.7799H48.6206L47.8806 39.6999ZM48.5006 38.9299L48.7906 38.1099L49.0806 38.9299H48.5006Z" fill="black"/>
<path d="M52.9606 38.0199V37.7699H51.4906V38.0599H52.5306L51.4106 39.4099V39.6799H52.9906V39.3899H51.8406L52.9606 38.0199Z" fill="black"/>
<path d="M54.7906 39.6899H55.1306V37.7699H54.7906V39.6899Z" fill="black"/>
<path d="M58.3306 39.1899L57.4506 37.7799H57.0906V39.6999H57.4106V38.2899L58.2906 39.6999H58.6506V37.7799H58.3306V39.1899Z" fill="black"/>
<path d="M60.9506 38.8399H61.9206V38.5699H60.9506V38.0699H62.0006V37.7799H60.6106V39.6999H62.0206V39.4099H60.9506V38.8399Z" fill="black"/>
<path d="M53.0406 54.3099C52.7606 55.0499 52.5706 56.5899 52.7906 56.7699C52.7906 56.7699 52.9106 56.7699 53.2106 56.4899C53.6606 56.0699 54.7206 54.1099 54.6106 52.9899C54.5806 52.7199 54.4906 52.5399 54.3306 52.4399C54.2206 52.3699 54.1106 52.3199 54.0206 52.2799C53.6706 52.8999 53.3206 53.5899 53.0406 54.3199V54.3099Z" fill="black"/>
<path d="M50.7606 53.8199C50.8206 53.8399 50.9106 53.8299 51.0006 53.7899C51.2594 53.6605 51.4413 53.3859 51.6252 53.1082L51.6706 53.0399L51.7406 52.9299C51.9706 52.5699 52.1806 52.1999 52.3406 51.8399C52.4306 51.6399 52.4906 51.4399 52.5206 51.2599V51.1799H52.4806C52.1606 51.1799 51.7106 51.4999 51.2706 52.0499C51.0506 52.3199 50.8806 52.6199 50.7706 52.9399V52.9699C50.6706 53.2099 50.5906 53.4499 50.6506 53.6499C50.6706 53.7299 50.7306 53.7899 50.7806 53.8099L50.7606 53.8199Z" fill="black"/>
<path d="M37.3157 54.5299L37.3206 54.5299H37.3106L37.3157 54.5299Z" fill="black"/>
<path d="M49.7092 63.9502L48.1292 67.0302L44.6992 67.5802L47.1492 70.0302L46.6092 73.4502L49.7092 71.8902L52.8092 73.4502L52.2792 70.0302L54.7292 67.5802L51.2992 67.0302L49.7092 63.9502Z" fill="black"/>
<path d="M20.4006 45.7999H19.9106V48.6299H20.4006C20.7206 48.6299 20.8906 48.4999 20.8906 48.2399V46.1899C20.8906 45.9299 20.7306 45.7999 20.4006 45.7999Z" fill="black"/>
<path d="M20.4006 50.9099H19.9106V54.2999H20.4006C20.7206 54.2999 20.8906 54.1599 20.8906 53.8699V51.2799C20.8906 51.0299 20.7306 50.9099 20.4006 50.9099Z" fill="black"/>
<path d="M79.9806 45.3099C79.6306 45.3099 79.4506 45.4299 79.4506 45.6599V49.3799C79.4506 49.6299 79.6306 49.7499 79.9806 49.7499C80.3506 49.7499 80.5406 49.6299 80.5406 49.3799V45.6599C80.5406 45.4199 80.3506 45.3099 79.9806 45.3099Z" fill="black"/>
<path fill-rule="evenodd" clip-rule="evenodd" d="M92.4206 58.2899L95.6906 53.0899C95.2406 53.0199 94.8006 52.9499 94.3606 52.8599C92.0506 52.4299 89.6106 52.4499 87.2806 52.7499C86.8206 52.8099 86.3606 52.8499 85.9006 52.8699L87.0306 40.4699H79.9106V26.5399L50.0206 10.1299L20.1306 26.5399V40.4699H13.2406L14.3706 52.8799C13.8306 52.8499 13.2906 52.8099 12.7606 52.7499C10.4306 52.4499 7.99062 52.4199 5.68062 52.8599C5.46062 52.8999 5.23812 52.9374 5.01562 52.9749C4.79313 53.0124 4.57063 53.0499 4.35063 53.0899L7.62063 58.2899L4.14062 63.9999C4.86034 63.8399 5.58006 63.69 6.29978 63.5401C7.41978 63.3201 8.51062 63.1199 9.66063 63.2299C10.3271 63.2894 10.9864 63.4162 11.645 63.5428C12.0933 63.629 12.5411 63.7151 12.9906 63.7799C15.1406 64.0899 17.3106 64.0699 19.4806 64.0099C19.6306 64.0099 19.7906 64.0099 19.9406 63.9999V62.7299L15.0306 60.1599H20.1306V73.4599L50.0206 89.8699L79.9106 73.4599V60.1599H85.2406L80.0906 62.7299V63.9999C80.2406 63.9999 80.4006 63.9999 80.5506 64.0099C82.7206 64.0699 84.8906 64.0899 87.0406 63.7799C87.4982 63.7139 87.9541 63.6276 88.4104 63.5411C89.061 63.4179 89.7123 63.2945 90.3706 63.2299C91.5206 63.1199 92.6106 63.3199 93.7306 63.5399C94.4506 63.6799 95.1706 63.8299 95.8906 63.9999L92.4106 58.2899H92.4206ZM74.7806 28.5999L75.3806 27.4299L75.9806 28.5999L77.2906 28.8099L76.3606 29.7399L76.5606 31.0399L75.3806 30.4499L74.2006 31.0399L74.4006 29.7399L73.4706 28.8099L74.7806 28.5999ZM74.7806 34.0999L75.3806 32.9299L75.9806 34.0999L77.2906 34.3099L76.3606 35.2399L76.5606 36.5399L75.3806 35.9499L74.2006 36.5399L74.4006 35.2399L73.4706 34.3099L74.7806 34.0999ZM74.7806 39.5999L75.3806 38.4299L75.9806 39.5999L77.2906 39.8099L76.6106 40.4999H74.1606L73.4806 39.8099L74.7906 39.5999H74.7806ZM75.3206 54.1099C75.3206 55.8999 73.9506 56.7899 71.2106 56.7899C68.4706 56.7899 67.0806 55.8999 67.0806 54.1099V46.0299C67.0806 44.2599 68.4606 43.3699 71.2106 43.3699C73.9606 43.3699 75.3206 44.2599 75.3206 46.0299V54.1099ZM76.3706 60.1699L76.5606 61.3599L75.3806 60.7699L74.2006 61.3599L74.3906 60.1699H76.3706ZM24.8506 56.5899V54.3199H25.1806V45.8299H24.8506V43.5599H33.0606V48.4399H29.7406V45.8299H28.7706V48.7699H30.7706V50.8599H28.7706V54.3199H29.7406V51.1899H33.0606V56.5899H24.8506ZM25.8306 61.3599L24.6506 60.7699L23.4706 61.3599L23.6606 60.1699H25.6506L25.8406 61.3599H25.8306ZM63.1806 54.3099V52.5699H66.4906V56.5899H58.2806V54.5999C58.2806 53.9299 58.4406 53.3099 58.7606 52.7299C59.0806 52.1499 59.4706 51.6599 59.9206 51.2399C60.3706 50.8199 60.8206 50.4199 61.2706 50.0399C61.7206 49.6599 62.1106 49.2399 62.4306 48.7899C62.7506 48.3399 62.9106 47.8799 62.9106 47.4099V45.6799C62.9106 45.4399 62.7206 45.3299 62.3506 45.3299C62.0006 45.3299 61.8206 45.4499 61.8206 45.6799V48.7699H58.5106V46.0299C58.5106 44.2599 59.8406 43.3699 62.5006 43.3699C65.1606 43.3699 66.4906 44.2599 66.4906 46.0299V47.1999C66.4906 47.8799 66.3306 48.5199 66.0106 49.1099C65.6906 49.6999 65.3006 50.1999 64.8506 50.6099C64.4006 51.0199 63.9506 51.4099 63.5006 51.7799C63.0506 52.1499 62.6606 52.5499 62.3406 52.9799C62.0206 53.4099 61.8606 53.8499 61.8606 54.2899V54.3099H63.1806ZM29.0506 40.4999V31.8299L50.0106 20.3199L70.9706 31.8299V40.4999H29.0506ZM56.4306 50.9099C56.5706 50.9399 56.6606 51.0799 56.6306 51.2199C56.6006 51.3599 56.4606 51.4499 56.3206 51.4199C55.7706 51.3099 55.0406 51.3499 54.4506 51.5699C54.4081 51.6336 54.3707 51.6973 54.3311 51.7646C54.3221 51.78 54.313 51.7955 54.3036 51.8112C54.2961 51.824 54.2885 51.8368 54.2806 51.8499C54.3806 51.8899 54.4906 51.9499 54.6006 52.0199C54.9006 52.2099 55.0806 52.5199 55.1206 52.9599C55.2506 54.2699 54.0906 56.3999 53.5506 56.8899L53.5449 56.8952C53.4114 57.0185 53.0959 57.3099 52.7706 57.3099C52.6806 57.3099 52.5806 57.2899 52.4906 57.2299C51.7406 56.7299 52.5406 54.1899 52.5506 54.1599C52.7606 53.5999 53.0106 53.0599 53.2806 52.5599C53.2506 52.5599 53.2206 52.5599 53.1806 52.5399C53.0506 52.4899 52.9806 52.3499 53.0306 52.2199C53.2006 51.7199 53.6106 51.3799 54.1006 51.1499C54.1235 51.1156 54.1449 51.0813 54.166 51.0475C54.2002 50.9928 54.2335 50.9394 54.2706 50.8899C55.1006 49.5999 56.0306 48.3699 57.0206 47.2199C57.1106 47.1099 57.2806 47.0999 57.3906 47.1899C57.5006 47.2799 57.5106 47.4499 57.4206 47.5499C56.5106 48.5999 55.6606 49.7299 54.8906 50.8999C55.4306 50.7999 55.9906 50.7999 56.4406 50.8999L56.4306 50.9099ZM48.3306 45.8299V54.3199H48.7406V56.5899H44.3706V54.3199H44.7506V45.8299H44.3406V48.5499H41.6006V43.5599H51.5006V48.5499H48.7406V45.8299H48.3306ZM50.2506 52.8299V52.7999C50.4006 52.4199 50.5906 52.0699 50.8506 51.7499C51.2806 51.2299 51.9206 50.6199 52.5706 50.6899C52.6306 50.6899 52.6806 50.7099 52.7306 50.7299C52.9906 50.8499 53.0606 51.1299 53.0206 51.3599C52.9806 51.5799 52.9106 51.8199 52.8006 52.0599C52.6306 52.4399 52.4106 52.8299 52.1606 53.2199L52.0906 53.3299L52.063 53.3726C51.8504 53.702 51.614 54.0682 51.2306 54.2599C51.1006 54.3299 50.9606 54.3599 50.8206 54.3599C50.7306 54.3599 50.6406 54.3399 50.5606 54.3099C50.3506 54.2299 50.1806 54.0399 50.1106 53.8099C50.0013 53.452 50.1291 53.0941 50.2288 52.8149L50.2306 52.8099L50.2506 52.8299ZM37.3157 54.5299C37.6324 54.5286 37.8006 54.4086 37.8006 54.1599V53.0999C37.8006 52.6499 37.6506 52.2499 37.3506 51.8899C37.0506 51.5299 36.6906 51.2099 36.2806 50.9199C35.8606 50.6299 35.4406 50.3199 35.0306 49.9899C34.6106 49.6499 34.2506 49.1999 33.9606 48.6299C33.6606 48.0599 33.5106 47.3999 33.5106 46.6599V45.9299C33.5106 44.2299 34.4506 43.3799 36.3206 43.3799C37.1593 43.3799 37.7812 43.5967 38.1734 44.0238L38.2004 44.0598L38.3204 44.2098C38.3272 44.2199 38.334 44.2296 38.3406 44.2399V43.5699H41.1806V48.0399H38.0906V46.0299C38.0906 45.7799 37.9306 45.6599 37.6006 45.6599C37.2606 45.6599 37.0906 45.7799 37.0906 46.0299V46.7899C37.0906 47.2399 37.2406 47.6399 37.5406 47.9999C37.8406 48.3599 38.2006 48.6799 38.6106 48.9699C39.0306 49.2599 39.4506 49.5599 39.8606 49.8899C40.2806 50.2199 40.6406 50.6699 40.9306 51.2399C41.2306 51.8099 41.3806 52.4699 41.3806 53.2099V54.2299C41.3806 55.9399 40.4406 56.7999 38.5706 56.7999C37.5806 56.7999 36.9106 56.5099 36.5506 55.9199V56.5899H33.5106V51.7899H36.8306V54.1399C36.8306 54.3986 36.989 54.5286 37.3157 54.5299ZM29.0606 60.1799H70.9806V68.2199L50.0206 79.7299L29.0606 68.2199V60.1799ZM69.7006 25.9099L70.3006 24.7399L70.9006 25.9099L72.2106 26.1199L71.2806 27.0499L71.4806 28.3499L70.3006 27.7599L69.1206 28.3499L69.3206 27.0499L68.3906 26.1199L69.7006 25.9099ZM64.6306 23.1999L65.2306 22.0299L65.8306 23.1999L67.1406 23.4099L66.2106 24.3399L66.4106 25.6399L65.2306 25.0499L64.0506 25.6399L64.2506 24.3399L63.3206 23.4099L64.6306 23.1999ZM59.5606 20.4899L60.1606 19.3199L60.7606 20.4899L62.0706 20.6999L61.1406 21.6299L61.3406 22.9299L60.1606 22.3399L58.9806 22.9299L59.1806 21.6299L58.2506 20.6999L59.5606 20.4899ZM54.4906 17.7799L55.0906 16.6099L55.6906 17.7799L57.0006 17.9899L56.0706 18.9199L56.2706 20.2199L55.0906 19.6299L53.9106 20.2199L54.1106 18.9199L53.1806 17.9899L54.4906 17.7799ZM49.4206 15.0699L50.0206 13.8999L50.6206 15.0699L51.9306 15.2799L51.0006 16.2099L51.2006 17.5099L50.0206 16.9199L48.8406 17.5099L49.0406 16.2099L48.1106 15.2799L49.4206 15.0699ZM44.3506 17.7799L44.9506 16.6099L45.5506 17.7799L46.8606 17.9899L45.9306 18.9199L46.1306 20.2199L44.9506 19.6299L43.7706 20.2199L43.9706 18.9199L43.0406 17.9899L44.3506 17.7799ZM39.2806 20.4899L39.8806 19.3199L40.4806 20.4899L41.7906 20.6999L40.8606 21.6299L41.0606 22.9299L39.8806 22.3399L38.7006 22.9299L38.9006 21.6299L37.9706 20.6999L39.2806 20.4899ZM34.2106 23.1999L34.8106 22.0299L35.4106 23.1999L36.7206 23.4099L35.7906 24.3399L35.9906 25.6399L34.8106 25.0499L33.6306 25.6399L33.8306 24.3399L32.9006 23.4099L34.2106 23.1999ZM29.1406 25.9099L29.7406 24.7399L30.3406 25.9099L31.6506 26.1199L30.7206 27.0499L30.9206 28.3499L29.7406 27.7599L28.5606 28.3499L28.7606 27.0499L27.8306 26.1199L29.1406 25.9099ZM24.0706 28.6199L24.6706 27.4499L25.2706 28.6199L26.5806 28.8299L25.6506 29.7599L25.8506 31.0599L24.6706 30.4699L23.4906 31.0599L23.6906 29.7599L22.7606 28.8299L24.0706 28.6199ZM24.0706 34.1199L24.6706 32.9499L25.2706 34.1199L26.5806 34.3299L25.6506 35.2599L25.8506 36.5599L24.6706 35.9699L23.4906 36.5599L23.6906 35.2599L22.7606 34.3299L24.0706 34.1199ZM24.0706 39.6199L24.6706 38.4499L25.2706 39.6199L26.5806 39.8299L25.9006 40.5199H23.4506L22.7706 39.8299L24.0806 39.6199H24.0706ZM16.0306 56.6099V54.3399H16.3606V45.8499H16.0306V43.5799H20.5606C21.7406 43.5799 22.6606 43.7499 23.3206 44.0799C23.9806 44.4199 24.3206 45.0999 24.3206 46.1299V47.8399C24.3206 48.9199 23.9206 49.6099 23.1206 49.9299C24.0406 50.2299 24.5006 50.9199 24.5006 51.9999V54.0099C24.5006 55.0399 24.1506 55.7299 23.4506 56.0899C22.7506 56.4399 21.8106 56.6199 20.6406 56.6199H16.0406L16.0306 56.6099ZM24.6806 71.7599L23.5006 72.3499L23.7006 71.0499L22.7706 70.1199L24.0806 69.9099L24.6806 68.7399L25.2806 69.9099L26.5906 70.1199L25.6606 71.0499L25.8606 72.3499L24.6806 71.7599ZM25.6606 65.5499L25.8606 66.8499L24.6806 66.2599L23.5006 66.8499L23.7006 65.5499L22.7706 64.6199L24.0806 64.4099L24.6806 63.2399L25.2806 64.4099L26.5906 64.6199L25.6606 65.5499ZM30.9406 75.0499L29.7606 74.4599L28.5806 75.0499L28.7806 73.7499L27.8506 72.8199L29.1606 72.6099L29.7606 71.4399L30.3606 72.6099L31.6706 72.8199L30.7406 73.7499L30.9406 75.0499ZM36.0106 77.7599L34.8306 77.1699L33.6506 77.7599L33.8506 76.4599L32.9206 75.5299L34.2306 75.3199L34.8306 74.1499L35.4306 75.3199L36.7406 75.5299L35.8106 76.4599L36.0106 77.7599ZM41.0806 80.4699L39.9006 79.8799L38.7206 80.4699L38.9206 79.1699L37.9906 78.2399L39.3006 78.0299L39.9006 76.8599L40.5006 78.0299L41.8106 78.2399L40.8806 79.1699L41.0806 80.4699ZM46.1506 83.1799L44.9706 82.5899L43.7906 83.1799L43.9906 81.8799L43.0606 80.9499L44.3706 80.7399L44.9706 79.5699L45.5706 80.7399L46.8806 80.9499L45.9506 81.8799L46.1506 83.1799ZM51.2206 85.8899L50.0406 85.2999L48.8606 85.8899L49.0606 84.5899L48.1306 83.6599L49.4406 83.4499L50.0406 82.2799L50.6406 83.4499L51.9506 83.6599L51.0206 84.5899L51.2206 85.8899ZM56.2906 83.1799L55.1106 82.5899L53.9306 83.1799L54.1306 81.8799L53.2006 80.9499L54.5106 80.7399L55.1106 79.5699L55.7106 80.7399L57.0206 80.9499L56.0906 81.8799L56.2906 83.1799ZM61.3606 80.4699L60.1806 79.8799L59.0006 80.4699L59.2006 79.1699L58.2706 78.2399L59.5806 78.0299L60.1806 76.8599L60.7806 78.0299L62.0906 78.2399L61.1606 79.1699L61.3606 80.4699ZM66.4306 77.7599L65.2506 77.1699L64.0706 77.7599L64.2706 76.4599L63.3406 75.5299L64.6506 75.3199L65.2506 74.1499L65.8506 75.3199L67.1606 75.5299L66.2306 76.4599L66.4306 77.7599ZM71.5006 75.0499L70.3206 74.4599L69.1406 75.0499L69.3406 73.7499L68.4106 72.8199L69.7206 72.6099L70.3206 71.4399L70.9206 72.6099L72.2306 72.8199L71.3006 73.7499L71.5006 75.0499ZM76.5706 72.3399L75.3906 71.7499L74.2106 72.3399L74.4106 71.0399L73.4806 70.1099L74.7906 69.8999L75.3906 68.7299L75.9906 69.8999L77.3006 70.1099L76.3706 71.0399L76.5706 72.3399ZM76.3706 65.5399L76.5706 66.8399L75.3906 66.2499L74.2106 66.8399L74.4106 65.5399L73.4806 64.6099L74.7906 64.3999L75.3906 63.2299L75.9906 64.3999L77.3006 64.6099L76.3706 65.5399ZM84.1306 54.1199C84.1306 55.9099 82.8006 56.7999 80.1406 56.7999C77.4806 56.7999 76.1506 55.9099 76.1506 54.1199V52.3699H79.4606V54.4699C79.4606 54.7199 79.6406 54.8399 79.9906 54.8399C80.3606 54.8399 80.5506 54.7199 80.5506 54.4699V50.9299C80.1006 51.4599 79.3906 51.7299 78.4106 51.7299C76.7306 51.7299 75.8906 51.0199 75.8906 49.6099V46.0399C75.8906 44.2699 77.2606 43.3799 80.0006 43.3799C82.7406 43.3799 84.1306 44.2699 84.1306 46.0399V54.1199Z" fill="black"/>
</svg>
