<svg width="100" height="100" viewBox="0 0 100 100" fill="none" xmlns="http://www.w3.org/2000/svg">
<path d="M31.87 38.26C32.23 37.11 32.56 35.95 32.77 34.76C32.86 34.26 32.9 33.76 32.87 33.25C32.87 33.13 32.83 33.01 32.81 32.88C32.79 32.88 32.77 32.88 32.75 32.87C32.68 32.97 32.59 33.06 32.53 33.16C32.25 33.67 32.14 34.23 32.07 34.79C31.96 35.66 31.88 36.53 31.8 37.39C31.76 37.8 31.74 38.2 31.71 38.63C31.74 38.61 31.75 38.6 31.76 38.59C31.8 38.48 31.85 38.37 31.89 38.26H31.87ZM67.92 63.93C66.9 63.93 66.26 64.69 66.26 65.86V65.94C66.26 67.1 66.89 67.85 67.92 67.85C68.95 67.85 69.58 67.08 69.58 65.94V65.87C69.58 64.69 68.93 63.93 67.92 63.93ZM38.54 45.07C38.73 44.81 38.94 44.56 39.1 44.29C39.59 43.45 39.9 42.55 39.92 41.57C39.92 41.2 39.87 40.82 39.81 40.46C39.77 40.24 39.63 40.22 39.45 40.37C39.14 40.63 38.93 40.96 38.8 41.34C38.52 42.15 38.38 42.98 38.37 43.83C38.37 44.24 38.4 44.65 38.49 45.06C38.51 45.06 38.52 45.07 38.54 45.08V45.07ZM49.69 63.93C48.67 63.93 48.03 64.69 48.03 65.86V65.94C48.03 67.1 48.66 67.85 49.69 67.85C50.72 67.85 51.35 67.08 51.35 65.94V65.87C51.35 64.69 50.7 63.93 49.69 63.93ZM32.57 63.93C31.74 63.93 31.19 64.49 31.05 65.4H34.03C33.95 64.35 33.41 63.93 32.57 63.93ZM51.47 30.85C50.97 32.25 50.92 33.71 50.72 35.14C51.23 34.28 51.73 31.42 51.47 30.85ZM85.4 12.5H12.5V87.5H87.5V12.5H85.4ZM19.54 37.43C19.44 37.18 19.53 36.91 19.72 36.72C19.91 36.53 20.14 36.59 20.36 36.58C21.71 36.52 23.06 36.47 24.42 36.41C24.78 36.39 25.15 36.37 25.51 36.36C25.61 36.36 25.65 36.31 25.67 36.22C25.79 35.53 25.92 34.84 26.04 34.14C26.07 33.94 26.1 33.75 26.14 33.55C26.22 33.19 26.52 33.01 26.9 33.08C27.19 33.14 27.39 33.46 27.34 33.78C27.22 34.57 27.1 35.36 26.98 36.15C26.98 36.18 26.98 36.21 26.98 36.26C27.23 36.25 27.48 36.24 27.73 36.22C28.42 36.16 29.11 36.1 29.8 36.03C30.11 36 30.4 36.22 30.46 36.51C30.52 36.84 30.33 37.16 30.01 37.22C29.62 37.29 29.23 37.33 28.84 37.36C28.2 37.41 27.55 37.45 26.91 37.49C26.78 37.49 26.78 37.58 26.77 37.67C26.71 38.15 26.64 38.63 26.59 39.11C26.46 40.42 26.34 41.72 26.24 43.03C26.19 43.65 26.17 44.27 26.32 44.88C26.4 45.2 26.52 45.51 26.81 45.71C27.06 45.88 27.33 45.87 27.6 45.8C28.06 45.67 28.42 45.41 28.7 45.02C29.22 44.29 29.72 43.54 30.1 42.72C30.19 42.52 30.2 42.27 30.21 42.04C30.3 40.98 30.38 39.91 30.47 38.85C30.54 38 30.59 37.15 30.67 36.3C30.77 35.24 30.86 34.18 31.21 33.17C31.37 32.69 31.61 32.25 32.02 31.94C32.4 31.65 33.02 31.51 33.45 31.79C33.78 32 33.94 32.32 34.03 32.68C34.16 33.25 34.14 33.82 34.08 34.39C33.94 35.59 33.62 36.75 33.29 37.9C32.98 38.98 32.54 40 32.13 41.04C31.89 41.66 31.63 42.28 31.4 42.91C31.33 43.1 31.35 43.32 31.34 43.53C31.34 43.67 31.34 43.8 31.36 43.95C31.44 43.74 31.52 43.54 31.6 43.33C31.93 42.46 32.29 41.61 32.77 40.81C33.1 40.27 33.48 39.78 34.01 39.42C34.72 38.93 35.44 39.2 35.64 40.03C35.71 40.33 35.76 40.65 35.76 40.96C35.75 41.97 35.69 42.98 35.68 43.98C35.68 44.45 35.72 44.93 35.77 45.4C35.81 45.79 36.1 46.08 36.44 46.12C36.77 46.16 37.07 46.05 37.36 45.92C37.39 45.9 37.4 45.8 37.39 45.74C37.33 45.34 37.24 44.95 37.19 44.54C37.09 43.64 37.19 42.75 37.39 41.86C37.5 41.35 37.64 40.84 37.89 40.38C38.16 39.88 38.51 39.45 39.03 39.18C39.86 38.75 40.75 39.16 41 40.09C41.25 41.01 41.22 41.94 40.99 42.86C40.81 43.58 40.55 44.28 40.16 44.92C39.83 45.45 39.44 45.94 38.96 46.34C38.88 46.41 38.86 46.47 38.92 46.55C39.03 46.7 39.11 46.88 39.25 46.99C39.48 47.18 39.77 47.15 40.03 47.04C40.55 46.82 40.93 46.42 41.26 45.98C41.72 45.37 42 44.67 42.28 43.97C42.44 43.56 42.8 43.4 43.18 43.59C43.43 43.71 43.56 44.03 43.45 44.32C43.17 45.08 42.84 45.82 42.39 46.49C42.03 47.03 41.6 47.49 41.06 47.86C40.49 48.25 39.87 48.45 39.18 48.28C38.6 48.14 38.21 47.76 37.91 47.26C37.79 47.06 37.79 47.06 37.57 47.14C37.08 47.31 36.57 47.41 36.06 47.27C35.35 47.09 34.91 46.61 34.66 45.94C34.48 45.45 34.45 44.94 34.46 44.43C34.47 43.5 34.53 42.57 34.56 41.65C34.56 41.3 34.55 40.95 34.54 40.61C34.52 40.61 34.5 40.59 34.48 40.58C34.33 40.75 34.17 40.92 34.03 41.1C33.69 41.56 33.44 42.06 33.23 42.58C32.94 43.29 32.65 44 32.38 44.72C32.06 45.59 31.76 46.47 31.45 47.34C31.38 47.54 31.29 47.73 31.19 47.91C31.05 48.16 30.76 48.27 30.48 48.21C30.25 48.16 30.03 47.93 30.02 47.66C30 47.11 30 46.56 29.99 46.01C29.99 45.79 29.99 45.57 29.99 45.32C29.91 45.42 29.83 45.51 29.77 45.61C29.43 46.11 29 46.5 28.46 46.76C27.87 47.04 27.25 47.13 26.63 46.93C26.1 46.76 25.71 46.4 25.45 45.91C25.15 45.35 25.05 44.74 25.03 44.12C25.03 44 25.03 43.88 25 43.75C24.96 43.84 24.92 43.92 24.89 44.01C24.47 45.17 23.98 46.29 23.3 47.32C22.92 47.89 22.47 48.41 21.88 48.78C21.79 48.83 21.7 48.87 21.6 48.92H21.39C21.31 48.88 21.23 48.85 21.16 48.81C20.79 48.57 20.78 48.03 21.16 47.79C21.73 47.44 22.1 46.92 22.44 46.37C23.22 45.1 23.73 43.72 24.16 42.3C24.49 41.2 24.78 40.09 25.08 38.98C25.2 38.54 25.29 38.09 25.39 37.64C25.39 37.61 25.39 37.58 25.41 37.53C25.34 37.53 25.28 37.53 25.21 37.53C24.59 37.56 23.96 37.59 23.34 37.62C22.29 37.67 21.23 37.71 20.18 37.76C19.92 37.77 19.66 37.61 19.57 37.37L19.54 37.43ZM23.22 68.4C23.06 68.46 22.86 68.51 22.53 68.51C21.61 68.51 21.16 67.97 21.16 67.17V64.04H20.43V63.36H21.16V62.2H21.97V63.36H23.16V64.04H21.97V67.1C21.97 67.6 22.19 67.84 22.6 67.84C22.85 67.84 23.05 67.8 23.22 67.73V68.41V68.4ZM28.77 68.44H27.96V65.26C27.96 64.37 27.58 63.97 26.76 63.97C26.01 63.97 25.34 64.45 25.34 65.36V68.44H24.53V60.92H25.34V64.16C25.57 63.68 26.14 63.27 26.97 63.27C28.02 63.27 28.76 63.84 28.76 65.32V68.44H28.77ZM34.86 66.06H31.03C31.07 67.22 31.62 67.86 32.66 67.86C33.45 67.86 33.9 67.57 34.01 66.98H34.82C34.65 68 33.8 68.54 32.65 68.54C31.21 68.54 30.19 67.53 30.19 65.96V65.88C30.19 64.34 31.17 63.27 32.57 63.27C33.75 63.27 34.86 63.98 34.86 65.8V66.06ZM39.39 68.44L37.13 65.8V68.44H36.32V60.92H37.13V65.7L39.24 63.36H40.18L38 65.72L40.36 68.44H39.38H39.39ZM45.79 68.44H44.98V65.26C44.98 64.37 44.6 63.97 43.78 63.97C43.03 63.97 42.36 64.45 42.36 65.36V68.44H41.55V63.35H42.36V64.16C42.59 63.68 43.16 63.27 43.99 63.27C45.04 63.27 45.78 63.84 45.78 65.32V68.44H45.79ZM52.19 65.93C52.19 67.47 51.13 68.53 49.68 68.53C48.23 68.53 47.19 67.43 47.19 65.94V65.86C47.19 64.33 48.25 63.26 49.69 63.26C51.13 63.26 52.19 64.32 52.19 65.85V65.93ZM55.8 68.4C55.63 68.46 55.44 68.51 55.11 68.51C54.19 68.51 53.74 67.97 53.74 67.17V64.04H53.01V63.36H53.74V62.2H54.55V63.36H55.74V64.04H54.55V67.1C54.55 67.6 54.77 67.84 55.18 67.84C55.43 67.84 55.63 67.8 55.8 67.73V68.41V68.4ZM57.77 68.49C57.43 68.49 57.15 68.22 57.15 67.87C57.15 67.52 57.43 67.25 57.77 67.25C58.11 67.25 58.39 67.52 58.39 67.87C58.39 68.22 58.11 68.49 57.77 68.49ZM62.12 68.53C60.7 68.53 59.63 67.53 59.63 65.95V65.87C59.63 64.31 60.74 63.26 62.1 63.26C63.16 63.26 64.15 63.75 64.31 65.04H63.51C63.39 64.23 62.8 63.93 62.1 63.93C61.18 63.93 60.47 64.67 60.47 65.87V65.95C60.47 67.19 61.15 67.85 62.13 67.85C62.85 67.85 63.5 67.43 63.59 66.61H64.34C64.23 67.71 63.35 68.53 62.12 68.53ZM70.43 65.93C70.43 67.47 69.37 68.53 67.92 68.53C66.47 68.53 65.43 67.43 65.43 65.94V65.86C65.43 64.33 66.49 63.26 67.93 63.26C69.37 63.26 70.43 64.32 70.43 65.85V65.93ZM79.16 68.44H78.35V65.23C78.35 64.33 77.97 63.96 77.27 63.96C76.61 63.96 75.93 64.41 75.93 65.32V68.43H75.12V65.22C75.12 64.32 74.74 63.95 74.04 63.95C73.38 63.95 72.7 64.4 72.7 65.31V68.42H71.89V63.33H72.7V64.11C72.93 63.63 73.49 63.24 74.22 63.24C74.87 63.24 75.45 63.51 75.71 64.19C76.06 63.53 76.82 63.24 77.45 63.24C78.36 63.24 79.16 63.78 79.16 65.26V68.41V68.44ZM80.01 55.06H20.01V54.5H80V55.06H80.01ZM80.01 36.14C79.89 36.48 79.63 36.62 79.29 36.66C78.24 36.78 77.2 36.92 76.15 37.04C75.7 37.09 75.25 37.12 74.81 37.16C74.77 37.16 74.71 37.22 74.71 37.25C74.58 38.04 74.44 38.82 74.34 39.61C74.19 40.89 74.08 42.17 74.07 43.46C74.07 44.25 74.09 45.04 74.14 45.82C74.16 46.17 74.27 46.51 74.36 46.85C74.52 47.42 75.02 47.51 75.49 47.33C75.9 47.17 76.25 46.9 76.54 46.57C76.85 46.22 77.13 45.85 77.41 45.47C77.59 45.22 77.83 45.1 78.08 45.15C78.52 45.24 78.73 45.74 78.45 46.11C78.12 46.56 77.77 47.01 77.4 47.43C77.06 47.82 76.66 48.13 76.19 48.35C75.52 48.66 74.85 48.75 74.16 48.41C73.7 48.18 73.43 47.8 73.24 47.35C73.04 46.86 72.94 46.35 72.91 45.82C72.87 45.18 72.87 44.53 72.85 43.89C72.85 43.85 72.85 43.81 72.83 43.73C72.68 43.88 72.57 44.02 72.43 44.14C71.89 44.64 71.24 44.9 70.5 44.92C70.37 44.92 70.3 44.96 70.26 45.1C70.08 45.75 69.83 46.38 69.39 46.9C68.73 47.69 67.9 48.07 66.87 47.96C66.2 47.89 65.65 47.55 65.22 47.03C65.01 46.78 64.85 46.5 64.73 46.19C64.71 46.15 64.69 46.1 64.66 46.04C64.53 46.22 64.41 46.39 64.28 46.56C64.05 46.85 63.8 47.12 63.47 47.31C62.69 47.79 61.83 47.49 61.5 46.64C61.28 46.07 61.22 45.49 61.24 44.89C61.27 44.13 61.34 43.38 61.38 42.62C61.41 42.04 61.48 41.45 61.36 40.87C61.35 40.81 61.33 40.75 61.29 40.64C61.16 40.75 61.04 40.83 60.95 40.93C60.45 41.45 60.1 42.06 59.82 42.71C59.31 43.9 58.95 45.15 58.53 46.38C58.36 46.87 58.16 47.36 57.93 47.83C57.79 48.13 57.54 48.32 57.18 48.32C56.77 48.32 56.48 48.01 56.54 47.6C56.63 46.94 56.72 46.28 56.82 45.61C56.83 45.52 56.84 45.42 56.82 45.32C56.72 45.49 56.62 45.67 56.52 45.84C56.13 46.51 55.6 47.01 54.85 47.25C54.3 47.42 53.76 47.39 53.21 47.25C52.41 47.04 51.73 46.62 51.15 46.05C50.72 45.62 50.34 45.13 49.94 44.67C49.92 44.65 49.9 44.63 49.86 44.58C49.84 44.71 49.83 44.81 49.82 44.91C49.73 45.98 49.64 47.05 49.54 48.12C49.52 48.38 49.22 48.62 48.95 48.62C48.65 48.62 48.37 48.4 48.35 48.11C48.34 47.91 48.36 47.7 48.38 47.5C48.51 46.01 48.63 44.52 48.76 43.02C48.81 42.4 48.86 41.79 48.92 41.17C48.92 41.1 48.92 41.02 48.92 40.9C48.82 41.03 48.74 41.13 48.66 41.23C48.47 41.48 48.28 41.73 48.08 41.98C47.88 42.24 47.49 42.29 47.23 42.09C46.95 41.87 46.9 41.51 47.12 41.21C47.37 40.88 47.64 40.56 47.88 40.22C48.31 39.6 48.72 38.97 49.14 38.34C49.17 38.29 49.18 38.22 49.19 38.16C49.31 37.06 49.41 35.95 49.54 34.85C49.63 34.02 49.74 33.19 49.86 32.36C49.96 31.64 50.12 30.94 50.4 30.27C50.54 29.94 50.72 29.62 51.01 29.4C51.13 29.31 51.27 29.26 51.41 29.2H51.8C52.41 29.44 52.62 29.96 52.73 30.55C52.85 31.2 52.81 31.85 52.72 32.5C52.61 33.28 52.45 34.06 52.19 34.8C51.96 35.45 51.7 36.1 51.41 36.72C51.11 37.37 50.75 37.99 50.41 38.63C50.39 38.68 50.37 38.73 50.36 38.79C50.27 39.76 50.18 40.74 50.1 41.71C50.1 41.75 50.1 41.8 50.1 41.87C50.3 41.77 50.48 41.7 50.66 41.6C51.96 40.9 53.06 39.96 53.97 38.8C54.02 38.74 54.06 38.67 54.12 38.61C54.35 38.37 54.71 38.34 54.94 38.54C55.2 38.76 55.25 39.11 55.05 39.39C54.85 39.66 54.64 39.93 54.41 40.18C53.76 40.91 53.04 41.56 52.21 42.09C51.68 42.43 51.11 42.7 50.56 43C50.51 43.03 50.46 43.05 50.39 43.08C50.5 43.26 50.59 43.43 50.7 43.59C51.1 44.2 51.54 44.78 52.09 45.26C52.56 45.67 53.08 46 53.71 46.12C54.4 46.25 54.95 46.02 55.31 45.45C55.61 44.98 55.88 44.47 56.09 43.96C56.61 42.72 57.1 41.46 57.6 40.21C57.7 39.95 57.85 39.74 58.16 39.72C58.55 39.69 58.85 39.97 58.81 40.36C58.78 40.69 58.72 41.02 58.67 41.35C58.61 41.77 58.55 42.2 58.51 42.63C58.6 42.43 58.68 42.24 58.77 42.04C59.16 41.19 59.64 40.42 60.36 39.8C60.61 39.59 60.88 39.42 61.21 39.38C61.73 39.32 62.16 39.59 62.39 40.09C62.56 40.47 62.64 40.88 62.63 41.28C62.62 41.99 62.57 42.7 62.54 43.4C62.51 44.04 62.47 44.69 62.48 45.33C62.48 45.6 62.56 45.88 62.63 46.15C62.68 46.31 62.73 46.31 62.87 46.21C63.27 45.92 63.52 45.51 63.76 45.09C64.16 44.37 64.43 43.59 64.66 42.8C64.86 42.08 65.14 41.38 65.57 40.76C65.97 40.19 66.46 39.72 67.1 39.44C67.33 39.34 67.55 39.36 67.75 39.51C67.95 39.66 68.01 39.88 67.97 40.12C67.97 40.16 67.95 40.21 67.93 40.27C68.01 40.24 68.09 40.22 68.16 40.19C68.72 39.95 69.45 40.17 69.85 40.73C70.22 41.25 70.38 41.84 70.46 42.46C70.51 42.84 70.52 43.23 70.55 43.64C70.74 43.64 70.94 43.58 71.12 43.5C71.57 43.3 71.86 42.94 72.09 42.52C72.64 41.5 72.92 40.38 73.12 39.25C73.23 38.61 73.28 37.96 73.35 37.32C73.35 37.28 73.35 37.24 73.35 37.18C73.01 37.2 72.68 37.22 72.36 37.24C71.36 37.29 70.37 37.34 69.37 37.38C69.18 37.38 69.01 37.33 68.87 37.18C68.7 36.99 68.67 36.77 68.75 36.55C68.84 36.31 69.03 36.17 69.3 36.16C69.94 36.13 70.59 36.11 71.23 36.08C71.95 36.04 72.67 35.99 73.38 35.95C73.5 35.95 73.53 35.9 73.55 35.79C73.64 35.06 73.74 34.33 73.82 33.61C73.86 33.24 74.13 32.99 74.48 33.02C74.82 33.04 75.07 33.31 75.05 33.68C75.01 34.31 74.94 34.93 74.89 35.56C74.89 35.65 74.88 35.74 74.87 35.84C75.12 35.82 75.35 35.81 75.58 35.78C76.56 35.67 77.53 35.57 78.51 35.46C78.71 35.44 78.92 35.41 79.12 35.36C79.52 35.26 79.86 35.38 80 35.84V36.05L80.01 36.14ZM68.89 41.57C68.82 41.47 68.74 41.37 68.6 41.42C68.46 41.46 68.44 41.58 68.43 41.7C68.42 42.04 68.52 42.35 68.69 42.64C68.84 42.9 69.04 43.12 69.27 43.3C69.29 43.3 69.3 43.29 69.32 43.28C69.28 42.99 69.25 42.7 69.2 42.41C69.15 42.11 69.06 41.82 68.88 41.56L68.89 41.57ZM69.02 44.62C68.22 44.17 67.65 43.51 67.36 42.64C67.14 41.98 67.11 41.32 67.55 40.68C67.24 40.81 66.96 41.04 66.73 41.33C66.17 42.04 65.87 42.85 65.74 43.74C65.63 44.42 65.63 45.1 65.85 45.75C66.04 46.3 66.4 46.7 66.99 46.79C67.53 46.88 68 46.66 68.36 46.25C68.74 45.83 68.93 45.31 69.09 44.77C69.12 44.68 69.09 44.65 69.01 44.61L69.02 44.62Z" fill="black"/>
</svg>
