<svg width="100" height="100" viewBox="0 0 100 100" fill="none" xmlns="http://www.w3.org/2000/svg">
<path d="M72.4102 70.4402L75.8702 72.4502L74.9002 68.7502L78.0102 66.2902L73.9502 66.0102L72.4102 62.4902L70.8702 66.0102L66.8102 66.2902L62.7502 66.0102L61.2102 62.4902L59.6702 66.0102L55.6002 66.2902L51.5402 66.0102L50.0002 62.4902L48.4602 66.0102L44.4002 66.2902L40.3302 66.0102L38.7902 62.4902L37.2602 66.0102L33.1902 66.2902L29.1302 66.0102L27.5902 62.4902L26.0502 66.0102L21.9902 66.2902L25.1002 68.7502L24.1302 72.4502L27.5902 70.4402L31.0502 72.4502L30.0802 68.7502L33.1902 66.2902L36.3002 68.7502L35.3302 72.4502L38.7902 70.4402L42.2602 72.4502L41.2802 68.7502L44.4002 66.2902L47.5102 68.7502L46.5402 72.4502L50.0002 70.4402L53.4602 72.4502L52.4902 68.7502L55.6002 66.2902L58.7202 68.7502L57.7402 72.4502L61.2102 70.4402L64.6702 72.4502L63.7002 68.7502L66.8102 66.2902L69.9202 68.7502L68.9502 72.4502L72.4102 70.4402Z" fill="black"/>
<path fill-rule="evenodd" clip-rule="evenodd" d="M80.6394 38.03L80.6094 37.98C79.1294 38.21 77.6494 38.35 76.1394 38.48C76.1008 38.2004 76.1645 37.8372 76.2318 37.453L76.2394 37.41C76.3894 36.59 76.5394 35.71 75.7394 35.51C74.9512 35.6198 74.9195 36.506 74.8896 37.3443L74.8894 37.35C74.8794 37.76 74.8594 38.15 74.7594 38.43C74.023 38.7304 73.0706 38.7397 72.1115 38.7491L72.0194 38.75C71.4194 38.75 70.8294 38.75 70.2894 38.82C69.7494 38.82 69.4594 39.5 69.8294 39.89C70.7194 40.21 71.7394 40.1 72.7494 39.99C73.3594 39.92 73.9594 39.86 74.5394 39.89C74.4933 40.1663 74.4591 40.472 74.423 40.7936C74.4167 40.8502 74.4103 40.9072 74.4038 40.9647C74.399 41.0063 74.3943 41.0481 74.3894 41.09L74.3867 41.114C74.1371 43.3202 73.8213 46.1121 71.5994 46.68C71.6594 45.08 70.9794 42.2 68.8594 43.13C69.0594 41.23 66.7794 42.78 66.3694 43.65C65.8611 44.3596 65.592 45.2072 65.3238 46.0516L65.279 46.1928C64.9026 47.3816 64.5303 48.5576 63.5394 49.38C63.3894 49.49 63.3294 49.49 63.2894 49.32C63.0194 48.33 63.1094 47.3 63.2094 46.27L63.2155 46.2013C63.3136 45.0942 63.4117 43.9885 63.0394 42.95C61.5194 40.67 59.4794 44.17 58.9594 45.61C58.9194 45.31 59.0094 44.9 59.1094 44.48L59.1133 44.463C59.3122 43.5879 59.5232 42.6594 58.5794 42.56C58.2494 42.58 58.0994 42.79 57.9894 43.08C57.9594 43.17 57.9294 43.26 57.8894 43.35C56.1894 48.05 54.5394 52.61 50.4094 46.11C51.6594 45.52 56.1794 42.9 55.1794 41.35C54.9294 41.14 54.5594 41.17 54.3194 41.42C53.2094 42.89 51.7994 44.09 50.0994 44.85C49.9394 42.83 50.6994 41.1 51.4694 39.35L51.4736 39.3403C52.0822 37.9535 52.6997 36.5464 52.8594 34.99C52.8594 34.95 52.8594 34.91 52.8694 34.87C52.9894 33.71 53.1494 32.09 51.8994 31.52H51.4894C49.7912 32.7117 49.6315 35.3531 49.4825 37.8185L49.4794 37.87C49.4094 39.07 49.3394 40.23 49.0994 41.14L48.9794 41.32C48.3494 42.29 47.7194 43.26 46.9794 44.15C46.4394 44.8 47.4594 45.61 47.9894 44.95C48.2394 44.63 48.4694 44.33 48.7094 44.01C48.7344 43.98 48.7594 43.9475 48.7844 43.915C48.8094 43.8825 48.8344 43.85 48.8594 43.82C48.9494 44.29 48.7994 45.44 48.6294 46.74L48.6232 46.7879C48.3144 49.1683 47.9458 52.0096 48.8994 51.94C49.1794 51.94 49.4994 51.68 49.5194 51.41C49.5286 51.3021 49.5377 51.1947 49.5469 51.0877C49.5577 50.9615 49.5686 50.8358 49.5794 50.71L49.5805 50.6968C49.6001 50.4687 49.6198 50.2406 49.6394 50.01C49.6994 49.24 49.7694 48.47 49.8494 47.69C51.5194 50.37 55.5394 52.24 57.1594 48.48C57.2294 48.81 57.1294 49.27 57.0194 49.73C56.8194 50.59 56.6194 51.48 57.5394 51.63C57.9094 51.63 58.1794 51.42 58.3294 51.11C58.7894 50.22 59.0994 49.24 59.3994 48.25L59.4043 48.2341C59.9427 46.4994 60.4836 44.7563 61.8694 43.55C62.0926 44.4719 62.005 45.4219 61.9174 46.3729L61.9094 46.46L61.9088 46.4665C61.799 47.6143 61.6901 48.7521 62.0894 49.85C62.8394 51.66 64.7694 50.47 65.4094 49.22C66.5894 52.59 70.7994 51.34 71.2994 48.22C71.3394 48.07 71.4094 48.03 71.5494 48.03C72.5394 48.01 73.3694 47.53 73.9894 46.77C73.5394 51.97 76.7094 53.97 79.9094 49.27C80.1894 48.88 79.9794 48.36 79.5194 48.26C79.0094 48.21 78.6994 48.67 78.3994 49.12C78.2394 49.36 78.0794 49.6 77.8894 49.75C73.9594 53.49 75.4294 43.59 75.8794 40.56C75.9194 40.29 75.9494 40.08 75.9694 39.94C76.7714 39.7442 77.6518 39.6614 78.5374 39.5781L78.7294 39.56C79.4194 39.5 80.1194 39.43 80.7894 39.32C81.1594 39.28 81.4194 39.13 81.5494 38.77C81.5994 38.21 81.0894 37.89 80.6194 38.04L80.6394 38.03ZM50.8794 36.61C51.0094 35.44 51.1394 34.27 51.5494 33.14C51.8194 33.75 51.3094 36.76 50.7594 37.65C50.7933 37.4123 50.8181 37.1791 50.843 36.9443C50.8548 36.8334 50.8666 36.7222 50.8794 36.61ZM69.2894 49.33C65.5794 52 65.8194 44.4 68.4294 43.47C67.4494 44.97 68.5994 46.84 69.9794 47.6C70.1894 48.08 69.6094 48.89 69.2994 49.32L69.2894 49.33ZM70.2394 46.24C68.2394 44.39 70.1794 43 70.2894 46.22C70.2747 46.22 70.2654 46.2254 70.2537 46.2322C70.2494 46.2347 70.2447 46.2373 70.2394 46.24Z" fill="black"/>
<path fill-rule="evenodd" clip-rule="evenodd" d="M41.8099 47.13L41.8699 46.98L41.8999 47C42.1499 46.16 43.4099 46.54 43.1299 47.37C42.4399 49.26 41.0299 51.93 38.6399 51.53C38.0299 51.39 37.6199 50.99 37.2999 50.46C37.2133 50.32 37.0933 50.2767 36.9399 50.33C33.4399 51.39 33.5899 47.83 33.7099 45.12C33.7399 44.5 33.7599 43.92 33.7399 43.46C33.7299 43.45 33.7199 43.45 33.7199 43.45C33.7099 43.43 33.6899 43.43 33.6799 43.43C32.4699 44.83 31.8799 46.58 31.2899 48.33C30.9699 49.29 30.6399 50.25 30.2199 51.15C28.8718 52.28 28.919 50.3543 28.9491 49.1225L28.9499 49.09V48.43C27.0899 51.47 23.4499 50.41 23.6899 46.78C23.5899 47.02 23.4899 47.27 23.3899 47.52L23.3837 47.5355C22.6654 49.3313 21.8849 51.2827 20.1299 52.22H19.9099C19.3699 52.07 19.1499 51.35 19.6699 51.03C22.0292 48.9007 22.8094 45.6321 23.5492 42.5329L23.5499 42.53C23.7299 41.75 23.9199 40.98 24.1199 40.24C23.7199 40.25 23.3099 40.27 22.9099 40.29C22.7757 40.2941 22.6432 40.3014 22.5117 40.3088C22.3197 40.3194 22.1298 40.33 21.9399 40.33L21.9599 40.37C21.6999 40.32 21.1999 40.37 20.6399 40.43C19.2099 40.58 17.3899 40.77 18.1999 39.36C19.1499 39.09 20.2299 39.1 21.2999 39.11C22.4096 39.12 23.5102 39.1299 24.4499 38.83C24.5799 38.54 24.6199 38.08 24.6599 37.59L24.6601 37.5877C24.7501 36.5783 24.8506 35.4501 25.7399 35.53C26.4299 35.88 26.2099 36.79 25.9999 37.65C25.9955 37.6686 25.991 37.6872 25.9866 37.7057C25.8813 38.1454 25.7811 38.5634 25.8099 38.88C26.1749 38.9392 26.6761 38.8524 27.1887 38.7637L27.2099 38.76C28.1499 38.59 29.1499 38.42 29.4699 39.14C29.4699 40.0902 28.1963 40.0901 27.0745 40.09H27.0399C26.5199 40.08 26.0499 40.08 25.7399 40.17C25.3599 41.25 25.2799 42.55 25.2099 43.84L25.2089 43.8589C25.1692 44.5828 25.1291 45.3159 25.0299 45.99C24.5299 51.57 28.7899 48 29.1999 44.94C29.4199 43.77 29.4599 42.51 29.4899 41.24L29.4901 41.2341C29.56 38.746 29.6311 36.2185 31.1099 34.3C31.8599 33.64 33.0699 34.07 33.2099 35.08C33.6093 37.5361 32.7128 39.8228 31.8241 42.0893L31.8199 42.1C31.1899 43.71 30.5699 45.3 30.3999 46.94C30.8799 45.47 33.2199 39.74 34.8999 42.83C35.1485 43.4764 35.0609 44.4786 34.9714 45.5026L34.9699 45.52C34.8299 47.1 34.6899 48.75 35.7399 49.24C36.8699 49.29 36.7799 48.85 36.6399 48.19C36.5999 48 36.5599 47.79 36.5399 47.58C36.4599 45.63 36.6399 43.05 38.4699 41.94C39.3399 41.49 40.2799 41.92 40.5399 42.9C41.1099 45.25 40.1699 47.89 38.3799 49.48C38.2099 49.64 38.4399 49.89 38.5999 50.06C38.6399 50.1 38.6699 50.13 38.6899 50.16C40.2999 50.7 41.2699 48.41 41.8099 47.13ZM30.8599 40.02C30.8299 40.31 30.8099 40.6 30.7899 40.9C30.7866 40.9467 30.7821 40.9934 30.7777 41.04C30.7688 41.1334 30.7599 41.2267 30.7599 41.32C31.4499 39.43 32.1699 37.31 31.9299 35.27C31.9099 35.26 31.8899 35.26 31.8699 35.26C31.172 36.1938 31.0925 37.3596 31.014 38.5102L31.0099 38.57C30.9799 39.07 30.9499 39.55 30.8699 40.02H30.8599ZM37.9199 48.07C37.9299 48.08 37.9599 48.08 37.9599 48.08V48.09C39.3699 47.27 40.2099 40.47 38.2299 44.16C37.8199 45.41 37.6299 46.77 37.8999 48.07H37.9199Z" fill="black"/>
<path fill-rule="evenodd" clip-rule="evenodd" d="M12.1504 12.1499H87.8404V87.8399H12.1504V12.1499ZM86.8004 86.7899V13.1999H13.2004V86.7899H86.8004Z" fill="black"/>
</svg>
