<svg width="100" height="100" viewBox="0 0 100 100" fill="none" xmlns="http://www.w3.org/2000/svg">
<path d="M26.8498 28.55C39.8798 14.29 63.3998 15.44 75.0098 30.86C75.0498 30.81 75.0898 30.77 75.1398 30.72C75.2198 30.64 75.2998 30.56 75.3498 30.45C64.0698 15.03 39.5798 13.48 26.5098 28.16L26.5322 28.1862C26.5826 28.2452 26.6274 28.2977 26.6798 28.35C26.7098 28.38 26.7373 28.4125 26.7648 28.445C26.7923 28.4775 26.8198 28.51 26.8498 28.54V28.55Z" fill="black"/>
<path fill-rule="evenodd" clip-rule="evenodd" d="M41.8697 31.54V39.09H41.4297V38.35C40.4797 39.72 38.2197 39.37 37.7797 37.66C37.0497 35.34 39.7797 33.73 41.4297 35.53V31.54H41.8697ZM39.8697 38.79C37.4497 38.79 37.6297 34.91 40.0197 35.19C42.0197 35.39 41.8597 38.75 39.8697 38.79Z" fill="black"/>
<path fill-rule="evenodd" clip-rule="evenodd" d="M77.4399 42.4102V56.6702H75.7099V55.3102C75.1399 56.3602 74.0499 56.7602 72.9299 56.8902H71.8399C67.6499 56.5102 66.5299 50.9202 68.6499 47.8802C70.2099 45.6202 74.0399 45.4202 75.6999 47.6602V42.4102H77.4399ZM69.4499 51.5602C69.3199 45.9702 76.2599 46.5102 75.7599 51.9002C75.5699 56.8402 69.2799 56.4402 69.4499 51.5602Z" fill="black"/>
<path fill-rule="evenodd" clip-rule="evenodd" d="M46.8296 55.3399L46.8181 55.3421C46.5101 55.4018 46.1285 55.4757 46.0396 55.1399C45.9396 53.9099 45.9496 52.6699 45.9696 51.4299C45.9796 50.6399 45.9896 49.8499 45.9696 49.0599C46.1296 47.2399 44.5696 46.1399 42.8796 46.1399C40.5296 45.8899 37.6096 46.7599 37.7096 49.5899H39.3996C39.4296 48.2199 40.4996 47.6499 41.7496 47.6399H41.7796C42.4996 47.6399 43.3096 47.6399 43.8496 48.1899C44.5296 48.9099 44.3796 50.2599 43.2796 50.4099C42.8396 50.5099 42.3496 50.5899 41.8396 50.6599C39.7996 50.9599 37.4696 51.3099 37.3096 53.6699C37.0796 55.5199 38.3796 56.7999 40.1696 56.8999H41.2896C42.4496 56.7599 43.5496 56.2999 44.3196 55.3899C44.3796 56.1599 44.6596 56.7499 45.4796 56.8999H46.2896C46.3897 56.8544 46.5063 56.8255 46.6169 56.798L46.6496 56.7899C46.7496 56.7699 46.8395 56.7399 46.9295 56.7099C46.9795 56.6899 47.0496 56.6199 47.0496 56.5799V55.3099C46.9972 55.3099 46.9372 55.3251 46.8696 55.3423L46.8396 55.3499L46.8296 55.3399ZM42.6096 55.1499C41.1296 55.7799 38.5096 55.3599 39.2496 53.2099C39.8296 52.1499 40.9996 52.0199 42.1796 51.8899C42.9296 51.8099 43.6796 51.7299 44.2696 51.3999C44.3596 52.9799 44.3496 54.5399 42.6096 55.1499Z" fill="black"/>
<path fill-rule="evenodd" clip-rule="evenodd" d="M61.5897 56.9099H60.4297C56.4797 56.6899 55.0597 51.6799 56.7497 48.5999C57.9497 46.1299 61.4997 45.2799 63.6697 46.9999C65.1897 48.1999 65.6397 50.1699 65.6197 52.0299H57.9097C57.7197 53.5499 58.7697 55.1299 60.3297 55.3399C61.3197 55.4899 62.4297 55.4199 63.1497 54.6199C63.4297 54.3099 63.5997 53.9499 63.6897 53.5599C63.7197 53.4099 63.7797 53.3699 63.9297 53.3699H65.4597C65.1297 55.3299 63.5697 56.7599 61.5897 56.9099ZM63.7397 50.4899H57.8797C58.0897 46.5799 63.6097 46.7999 63.7397 50.4899Z" fill="black"/>
<path fill-rule="evenodd" clip-rule="evenodd" d="M46.8396 36.3998C46.8396 34.7798 46.8396 33.1598 46.8196 31.5498H46.4196C46.3996 32.3098 46.3996 33.0698 46.4096 33.8298V35.5398C44.7696 33.7498 42.0796 35.3198 42.7496 37.6298C43.0996 39.2998 45.4396 39.7798 46.4096 38.3598V39.0998H46.8396V36.3998ZM44.5396 38.7698C42.5396 38.4998 42.7296 35.2098 44.7196 35.1698C47.1696 35.1298 46.8996 39.0998 44.5396 38.7698Z" fill="black"/>
<path fill-rule="evenodd" clip-rule="evenodd" d="M32.609 54.3655C32.579 53.6369 32.5487 52.8984 32.3091 52.1998V52.2098C32.0991 51.2198 31.2591 50.5998 30.2391 50.6198H28.6791C28.3388 50.6198 27.9973 50.6187 27.6554 50.6175H27.6377C26.9412 50.6153 26.2426 50.6131 25.5491 50.6198V56.6998H23.6191V42.4398H25.9691C27.5291 42.4298 29.0991 42.4198 30.6591 42.4398C31.6491 42.4498 32.5791 42.6998 33.3791 43.3198C35.5391 44.9698 34.9591 49.1598 32.1991 49.8198C34.1691 50.2298 34.2791 51.8898 34.3891 53.5998C34.4591 54.7298 34.5391 55.8698 35.1491 56.6898H34.0591C33.9818 56.6898 33.9045 56.6891 33.8273 56.6885C33.5954 56.6867 33.364 56.6848 33.1391 56.6998C33.0391 56.6998 32.9791 56.6698 32.9391 56.5898C32.6691 55.8798 32.6391 55.1298 32.6091 54.3698L32.609 54.3655ZM27.4673 48.958L27.5091 48.9598V48.9698C30.0491 49.0698 33.0991 49.1898 32.7291 46.0498C32.6391 44.8698 31.6191 43.9798 30.4591 44.0498H25.5591V48.9598C26.0985 48.9009 26.7628 48.9286 27.4673 48.958Z" fill="black"/>
<path d="M53.2612 55.1496L53.2506 55.15L53.2296 55.1511C52.6553 55.1809 52.0288 55.2134 51.8806 54.67C51.8176 53.4723 51.8275 52.2584 51.8374 51.0502L51.8406 50.65C51.8406 50.3405 51.8428 50.0311 51.8451 49.7216L51.8451 49.72C51.8495 49.1 51.854 48.48 51.8406 47.86H53.8906V46.34H51.8406V43.27H50.1206V46.35H48.3906V47.87H50.1306C50.144 48.4971 50.1395 49.1285 50.1351 49.7585C50.1328 50.073 50.1306 50.3871 50.1306 50.7L50.1274 50.9499C50.108 52.4465 50.0885 53.9422 50.2306 55.42C50.5004 56.7588 51.9479 56.7101 53.1373 56.6701L53.1406 56.67C53.2329 56.67 53.3229 56.6677 53.4105 56.6654C53.5791 56.661 53.7393 56.6569 53.8906 56.67V55.15H53.8806C53.7034 55.1303 53.4873 55.1397 53.2612 55.1496Z" fill="black"/>
<path d="M67.2193 32.3898C67.2893 32.2098 67.5893 32.2298 67.8593 32.2498V32.2598C67.9074 32.2598 67.9556 32.2622 68.0021 32.2645C68.0908 32.2688 68.1738 32.2729 68.2393 32.2598C67.9943 32.8598 67.7518 33.4573 67.5093 34.0548C67.2668 34.6523 67.0243 35.2498 66.7793 35.8498V35.8698C66.6194 36.2662 66.4595 36.6614 66.2997 37.0567L66.2988 37.0587C65.979 37.8495 65.6591 38.6402 65.3393 39.4398L64.8793 38.2498C64.6793 37.7339 64.4793 37.2211 64.2793 36.7083L64.2785 36.7062L64.2762 36.7003L64.2737 36.6938C63.9756 35.9294 63.6774 35.165 63.3793 34.3898L62.9293 35.5398V35.5598C62.4293 36.8398 61.9293 38.1198 61.4293 39.4198C61.0799 38.5641 60.7355 37.7084 60.3927 36.8562C60.2547 36.5134 60.117 36.1712 59.9793 35.8298C59.8442 35.4949 59.7091 35.1592 59.5738 34.8229L59.5659 34.8032C59.223 33.9512 58.8787 33.0955 58.5293 32.2398H59.3193C59.4593 32.2298 59.5193 32.2798 59.5693 32.4098C59.6593 32.6398 59.7493 32.8723 59.8393 33.1048C59.9293 33.3373 60.0193 33.5698 60.1093 33.7998L61.4293 37.1298C61.6177 36.6399 61.8045 36.1525 61.991 35.6657C62.4478 34.4734 62.9036 33.2839 63.3793 32.0698C63.5588 32.535 63.7369 32.9973 63.9143 33.4577L63.9165 33.4633C64.3904 34.6936 64.8596 35.9114 65.3393 37.1398C65.5659 36.5654 65.7895 36.0002 66.0118 35.4382L66.0143 35.432C66.3601 34.5578 66.7028 33.6912 67.0493 32.8098L67.2193 32.3898Z" fill="black"/>
<path d="M24.6908 35.7201C24.9525 36.5255 25.2188 37.3354 25.4866 38.1498L25.4871 38.1516C25.6181 38.55 25.7494 38.9495 25.8808 39.3501C26.4508 37.9801 27.0108 36.6301 27.5708 35.2801C27.7895 34.7438 28.0132 34.2076 28.2384 33.6679C28.3323 33.4426 28.4266 33.2168 28.5208 32.9901L28.9208 33.9401C29.4084 35.1169 29.8961 36.2811 30.3865 37.4518L30.3883 37.4561C30.6515 38.0845 30.9155 38.7148 31.1808 39.3501C31.3402 38.8677 31.4981 38.387 31.6556 37.9072L31.6592 37.8963C31.8956 37.1762 32.1315 36.458 32.3708 35.7401L32.3712 35.7387L32.3716 35.7377C32.7613 34.5586 33.1511 33.3792 33.5408 32.1901C33.5011 32.1967 33.4571 32.1945 33.4115 32.1923C33.3882 32.1912 33.3645 32.1901 33.3408 32.1901C33.2008 32.1801 33.0608 32.1701 33.0208 32.3401C32.5689 33.7458 32.1171 35.1164 31.6594 36.5048L31.658 36.5091L31.6575 36.5109L31.3908 37.3201L31.1408 38.0701C30.613 36.8105 30.0959 35.5617 29.5789 34.3129L29.5785 34.312C29.2337 33.4791 28.8888 32.6462 28.5408 31.8101C27.9808 33.1501 27.4308 34.4801 26.8808 35.8101C26.5708 36.5601 26.2608 37.3101 25.9508 38.0701C25.2908 36.0901 24.6508 34.1401 24.0108 32.1901H23.5508C23.7408 32.7751 23.9333 33.3601 24.1258 33.9452L24.1263 33.9465C24.3186 34.531 24.5109 35.1155 24.7008 35.7001L24.6908 35.7201Z" fill="black"/>
<path fill-rule="evenodd" clip-rule="evenodd" d="M77.4492 38.1101C75.7792 40.7001 72.3492 38.7201 73.5292 35.8901H73.5192C73.9792 34.7101 75.5692 34.3901 76.5892 35.0601C77.2992 35.5401 77.4192 36.3501 77.4692 37.1401H74.1692C74.1092 38.4901 75.8592 39.0801 76.5892 37.9201C76.6992 37.6501 76.8892 37.7701 77.1192 37.9201C77.2192 37.9901 77.3292 38.0601 77.4492 38.1101ZM76.5892 36.4901H74.2392C74.3392 35.1801 76.4692 35.0701 76.5892 36.4901Z" fill="black"/>
<path d="M54.3809 39.6899H54.3719L54.3709 39.6799L54.3809 39.6899Z" fill="black"/>
<path fill-rule="evenodd" clip-rule="evenodd" d="M54.3719 39.6899H53.9609C54.0209 41.4699 56.4609 42.0799 57.6009 40.8899C58.0209 40.4699 58.1909 39.9399 58.2009 39.3599V34.8499H57.7609V35.5299C56.4209 33.8399 53.7009 35.1399 54.0409 37.2299C54.2209 39.1799 56.5309 39.8299 57.7909 38.3699L57.7609 38.8499C57.7309 39.6399 57.6909 40.4699 56.9109 40.8699C55.9137 41.4184 54.4888 40.9027 54.3719 39.6899ZM54.4809 37.2399C54.1509 34.7899 57.6209 34.3899 57.8009 36.7899C57.9309 39.1499 54.8409 39.5399 54.4809 37.2399Z" fill="black"/>
<path fill-rule="evenodd" clip-rule="evenodd" d="M33.5604 35.6599C34.8703 33.8799 37.3503 34.9599 37.3204 37.0299L37.3104 37.0399H33.6003C33.4503 38.6899 35.8303 39.6099 36.7904 37.8499C36.8154 37.8649 36.8429 37.8799 36.8704 37.8949C36.8979 37.9099 36.9254 37.9249 36.9504 37.9399C36.9864 37.9639 37.0261 37.9844 37.0673 38.0055C37.0945 38.0195 37.1225 38.034 37.1504 38.0499C36.7704 38.8599 35.8904 39.2999 35.0204 39.1999C33.3604 39.0799 32.6404 36.9399 33.5604 35.6599ZM36.8604 36.6099H33.6003C33.8603 34.7299 36.5704 34.7099 36.8604 36.6099Z" fill="black"/>
<path d="M73.0294 35.7001C73.1495 35.4501 73.2695 35.2101 73.4095 34.9601C72.7995 34.5001 72.0194 34.7401 71.5194 35.5501V34.8801H70.6895V39.1301H71.5194C71.5324 38.9813 71.5286 38.7948 71.5242 38.5868V38.5858C71.5219 38.473 71.5194 38.3529 71.5194 38.2301C71.4694 36.8701 71.4095 35.0001 73.0395 35.7101L73.0294 35.7001Z" fill="black"/>
<path d="M53.1705 39.0798H52.7205C52.7139 38.8331 52.7161 38.5865 52.7183 38.3398C52.7194 38.2165 52.7205 38.0931 52.7205 37.9698L52.7232 37.797C52.7331 37.1647 52.743 36.533 52.6605 35.9098C52.5905 35.3598 52.2405 35.1898 51.7805 35.1698C50.3405 35.1598 50.4105 36.6998 50.4705 37.9798L50.4716 38.0012C50.4912 38.4133 50.5099 38.8049 50.4705 39.0998H50.0605V34.8598H50.4605V35.4898C50.8805 34.8698 51.5805 34.6198 52.2905 34.8398C52.8005 34.9798 53.0305 35.3698 53.1005 35.8598C53.1766 36.4771 53.1741 37.0943 53.1715 37.7237C53.171 37.8386 53.1705 37.954 53.1705 38.0698V39.0798Z" fill="black"/>
<path d="M69.5102 34.8599H68.6602V39.1199H69.5102V34.8599Z" fill="black"/>
<path d="M48.2305 34.8599H48.6405V39.0899H48.2305V34.8599Z" fill="black"/>
<path d="M68.4902 32.9101C68.5202 33.6501 69.6402 33.6601 69.6702 32.9101C69.6402 32.1801 68.5302 32.1201 68.4902 32.9101Z" fill="black"/>
<path d="M48.4409 33.0698C47.9209 33.0698 47.9309 33.8498 48.4409 33.8498C48.9409 33.8498 48.9509 33.0698 48.4409 33.0698Z" fill="black"/>
<path d="M23.0384 67.1642C23.1544 67.0573 23.2549 66.9645 23.3552 66.8557L23.3596 66.8601V66.851L23.3605 66.85C17.5805 57.83 16.8705 46.07 21.5305 36.43C21.4405 36.34 21.3605 36.25 21.2705 36.14C21.2279 36.0973 21.1853 36.0474 21.1364 35.9903L21.1105 35.96C16.2305 45.91 16.9305 57.97 22.9405 67.25L23.0105 67.19L23.0384 67.1642Z" fill="black"/>
<path d="M79.6604 39.5302C79.4904 39.1602 79.6904 38.9602 79.9804 38.7202C83.6504 47.6402 82.0804 59.6002 77.2804 66.7402C77.1904 66.6302 77.1104 66.5402 77.0104 66.4302C76.9904 66.4102 76.9729 66.3902 76.9554 66.3702C76.9379 66.3502 76.9204 66.3302 76.9004 66.3102C81.7304 58.3702 82.8304 48.2802 79.6604 39.5302Z" fill="black"/>
<path d="M50 78.3301V78.3401L50.0087 78.3314C49.9423 78.4707 49.876 78.6012 49.8096 78.7316C49.7763 78.7972 49.7426 78.8634 49.7093 78.9301C49.6456 79.0574 49.5831 79.1836 49.5209 79.3091L49.5203 79.3103L49.5192 79.3125C49.3964 79.5603 49.2751 79.8052 49.1493 80.0501L48.1293 80.2001H48.1283C47.8487 80.2401 47.5689 80.2801 47.2793 80.3301C47.3291 80.3848 47.3789 80.4371 47.4286 80.4894C47.4786 80.5419 47.5293 80.5951 47.5793 80.6501C47.7793 80.8701 47.9793 81.0801 48.1893 81.2601C48.6993 81.6601 48.5693 82.2001 48.4293 82.7601C48.3593 83.0301 48.2893 83.3001 48.2993 83.5701C48.7192 83.3748 49.0819 83.1795 49.4619 82.9748L49.4893 82.9601L49.6093 82.8901L49.7393 82.8201C49.9193 82.7101 50.0593 82.7001 50.2593 82.8201L50.3893 82.8901L50.5193 82.9611C50.9112 83.1754 51.2869 83.3809 51.7193 83.5701L51.713 83.5273L51.7043 83.4701C51.6993 83.4376 51.6943 83.4051 51.6893 83.3701L51.6493 83.1201C51.6214 82.9606 51.5951 82.8043 51.5691 82.6499C51.5299 82.417 51.4914 82.1886 51.4493 81.9601C51.4093 81.7801 51.4293 81.6501 51.5693 81.5201C51.689 81.4003 51.8187 81.2806 51.9485 81.1609L51.9493 81.1601C52.2293 80.9001 52.5093 80.6401 52.7393 80.3301L52.1793 80.2501C51.9937 80.2212 51.8115 80.194 51.6314 80.1672C51.3746 80.1289 51.122 80.0912 50.8693 80.0501L50.8593 80.0601L50.8393 80.0101C50.7899 79.9094 50.7408 79.809 50.6917 79.7087L50.6402 79.6032C50.4385 79.1904 50.2352 78.7744 50.0095 78.3305L50 78.3301Z" fill="black"/>
<path d="M37.6339 79.6276L37.4792 79.5601C37.1892 79.4401 36.8992 79.3101 36.6192 79.1701C36.5192 79.1301 36.3892 79.1301 36.2992 79.1701C35.9892 79.2601 35.6692 79.3301 35.3492 79.4001L35.1758 79.4402C34.6739 79.5558 34.1745 79.6708 33.6992 79.8501C34.006 79.9728 34.2897 80.1109 34.5773 80.2509L34.6992 80.3101C35.1592 80.5401 35.6192 80.7601 36.0992 80.9101C36.6114 80.8356 37.1148 80.7005 37.6338 80.5611L37.7492 80.5301C37.8239 80.5105 37.8989 80.4905 37.9742 80.4704C38.2823 80.3881 38.596 80.3044 38.9092 80.2401H38.8892C38.4876 79.9992 38.062 79.8139 37.6339 79.6276Z" fill="black"/>
<path d="M33.891 79.0599L33.8897 79.0601H33.8797C33.5623 79.0898 33.2547 79.1196 32.9471 79.1493L32.9397 79.1501C32.7197 79.1801 32.5197 79.15 32.3297 79.0201C32.0397 78.83 31.7497 78.64 31.4497 78.4501C31.1097 78.2401 30.7597 78.0201 30.4297 77.7901C30.4497 77.7701 30.4497 77.7501 30.4497 77.7301C30.7897 77.7001 31.1397 77.66 31.4797 77.6101C32.1197 77.5201 32.7597 77.4401 33.3697 77.5101C33.6297 77.6801 33.8997 77.8501 34.1697 78.0101L34.2848 78.0816C34.696 78.3366 35.103 78.5891 35.4597 78.9001C34.9309 78.9599 34.4121 79.0097 33.8933 79.0595L33.891 79.0599Z" fill="black"/>
<path d="M56.6604 81.1999C56.0679 81.1604 55.5047 81.2867 54.9323 81.415L54.9104 81.4199C54.8698 81.4286 54.8292 81.4373 54.7885 81.4462L54.687 81.4683C54.4306 81.5245 54.1715 81.5812 53.9004 81.6199C54.2204 81.7999 54.5404 81.9699 54.8504 82.1299C54.9554 82.1849 55.0604 82.2393 55.1654 82.2937C55.4802 82.4567 55.7955 82.62 56.1104 82.7999C56.6768 83.0583 57.3322 82.892 57.9979 82.7231L58.0104 82.7199C58.3703 82.63 58.7305 82.5399 59.0704 82.5199C58.6793 82.2266 58.225 81.9965 57.7707 81.7664L57.6851 81.723L57.6004 81.6799C57.5489 81.6534 57.4972 81.6271 57.4453 81.6009L57.345 81.5504C57.1172 81.4358 56.8885 81.3208 56.6704 81.1899L56.6604 81.1999Z" fill="black"/>
<path d="M66.4501 77.57C66.5801 77.49 66.7001 77.44 66.8602 77.46H66.8502C67.1746 77.4971 67.5076 77.5255 67.8333 77.5534L67.9102 77.56C67.9859 77.5671 68.0616 77.5741 68.1373 77.581C68.5916 77.6226 69.0459 77.6643 69.5002 77.75C69.1431 78.0178 68.7701 78.2537 68.4024 78.4862L68.2701 78.57C68.1866 78.6246 68.1021 78.6781 68.0172 78.7317L67.9685 78.7624C67.8051 78.8653 67.6407 78.9689 67.4802 79.08C67.3802 79.15 67.2802 79.2 67.1402 79.18C66.775 79.1319 66.4098 79.1023 66.0535 79.0735L66.0102 79.07L65.8559 79.0557L65.744 79.0454L65.7409 79.0451C65.3004 79.005 64.8586 78.9647 64.4102 78.89C64.8602 78.59 65.2802 78.32 65.7001 78.05C65.7525 78.0165 65.8045 77.9834 65.8562 77.9505L65.9476 77.8924C66.1121 77.7879 66.2767 77.6834 66.4501 77.57Z" fill="black"/>
<path d="M37.7505 77.4898C37.3205 77.1498 36.8005 76.9298 36.2805 76.7198C35.9505 76.5898 35.6205 76.4498 35.3105 76.2798C35.5105 76.8198 35.7905 77.3398 36.0705 77.8598C36.2305 78.1597 36.3906 78.4599 36.5405 78.7598C36.9759 79.0962 37.4798 79.3053 38.0037 79.5228L38.0205 79.5298L38.1145 79.5694L38.1899 79.6011C38.463 79.7155 38.7336 79.8289 38.9905 79.9698C38.7997 79.4544 38.5359 78.9663 38.2775 78.4882L38.2405 78.4198C38.0705 78.1098 37.9005 77.7998 37.7505 77.4898Z" fill="black"/>
<path d="M67.176 75.2673C66.9414 76.0207 66.6694 76.8941 66.36 77.3002H66.35C66.2853 77.3424 66.2197 77.3846 66.1538 77.4271C65.9858 77.5353 65.8151 77.6453 65.65 77.7602C65.2 78.0702 64.74 78.3702 64.25 78.6302C64.3901 78.294 64.4953 77.9491 64.5982 77.6117L64.62 77.5402C64.8 76.9402 64.98 76.3502 65.3 75.8202C65.6595 75.5854 66.0191 75.356 66.3826 75.124C66.5142 75.04 66.6471 74.9552 66.78 74.8702L67.44 74.4502C67.3901 74.5928 67.3351 74.7659 67.275 74.955L67.2736 74.9594L67.2731 74.961L67.2379 75.0716L67.2 75.1902L67.176 75.2673Z" fill="black"/>
<path d="M29.9609 72.3301L29.9709 72.3401V72.3301H29.9609Z" fill="black"/>
<path d="M42.3897 81.2199C41.9397 81.3899 41.4997 81.5499 41.0497 81.6999H41.0397C40.6597 81.8299 40.2797 81.9599 39.8897 82.1099C39.4064 82.1987 38.7771 81.9469 38.1842 81.7097L38.1597 81.6999C37.8197 81.5599 37.4797 81.4299 37.1797 81.3599V81.3099C37.4462 81.2239 37.7054 81.1231 37.9699 81.0203L38.163 80.9454C38.7625 80.7131 39.3715 80.4772 39.9897 80.3999C40.5896 80.5999 41.1897 80.7999 41.8097 81.0199C41.9239 81.062 42.0382 81.1005 42.1546 81.1397C42.2317 81.1656 42.3101 81.192 42.3897 81.2199Z" fill="black"/>
<path d="M63.6002 79.1499C63.0837 79.2073 62.5306 79.4843 61.9759 79.762L61.9002 79.7999C61.5902 79.9599 61.2802 80.1199 60.9902 80.2299C61.3673 80.2759 61.7444 80.3895 62.1137 80.5009L62.2102 80.5299L62.2223 80.5337C62.9882 80.7724 63.7441 81.008 64.4902 80.6499C64.8699 80.4401 65.2795 80.2603 65.6891 80.0805L65.69 80.08L66.2302 79.8399C65.7103 79.6299 65.1503 79.5099 64.5904 79.3899C64.2604 79.3199 63.9202 79.2399 63.6002 79.1499Z" fill="black"/>
<path d="M56.6576 80.6822C56.5584 80.7913 56.4685 80.8901 56.3096 80.9199L56.2996 80.9099C55.9796 80.9599 55.6596 81.0199 55.3496 81.0799L55.296 81.0907C54.8146 81.187 54.3414 81.2817 53.8496 81.3299C54.1208 81.0588 54.3537 80.78 54.5818 80.5069L54.7097 80.354C55.0586 79.9371 55.3913 79.5396 55.7996 79.1799C56.4296 78.9899 57.1196 78.8799 57.7996 78.7799C57.9895 78.7499 58.1797 78.7199 58.3596 78.6899C58.0496 79.1399 57.6896 79.5399 57.3196 79.9399C57.0896 80.1799 56.8696 80.4299 56.6596 80.6799L56.6576 80.6822Z" fill="black"/>
<path d="M38.9304 77.8199C39.3304 77.9599 39.7304 78.0999 40.1404 78.2099H40.1204C40.9522 78.4179 41.4016 79.2044 41.8375 79.9674L41.8504 79.9899C42.0404 80.3299 42.2304 80.6499 42.4404 80.9299C42.3119 80.8849 42.1668 80.8399 42.0133 80.7923C41.9278 80.7658 41.8397 80.7385 41.7504 80.7099L41.5946 80.6612C40.9629 80.4643 40.2682 80.2477 39.8804 79.9799C39.7554 79.7899 39.6329 79.5974 39.5104 79.4049C39.3879 79.2124 39.2654 79.0199 39.1404 78.8299C38.9004 78.4499 38.6504 78.0699 38.4004 77.6899C38.4034 77.6869 38.4083 77.6838 38.4136 77.6805C38.4258 77.6729 38.4404 77.6638 38.4404 77.6499C38.6004 77.6999 38.7704 77.7599 38.9304 77.8199Z" fill="black"/>
<path d="M42.5691 79.8899C42.6304 79.9589 42.6924 80.0279 42.7546 80.0971L42.7553 80.098C42.9361 80.2991 43.1181 80.5018 43.2891 80.7099C43.7191 80.9999 44.3791 81.0899 45.0191 81.1699L45.1028 81.1818L45.1852 81.1932C45.4762 81.2337 45.7568 81.2727 46.0091 81.3399C45.7469 80.9279 45.4058 80.5598 45.0597 80.1862L44.9891 80.1099C44.7391 79.8399 44.4891 79.5699 44.2591 79.2799C43.8523 79.0418 43.229 78.9513 42.6137 78.8621L42.5991 78.8599C42.2191 78.8099 41.8491 78.7499 41.5391 78.6699C41.8195 79.068 42.1409 79.4252 42.4588 79.7784L42.5591 79.8899H42.5691Z" fill="black"/>
<path d="M64.5897 76.29L64.6297 76.33L64.6497 76.34C64.6101 76.4142 64.5706 76.4859 64.531 76.5576L64.5297 76.56L64.4802 76.65C64.4635 76.6804 64.4468 76.711 64.4301 76.7419L64.4097 76.78C64.1597 77.24 63.9097 77.7 63.6997 78.19C63.3897 78.97 62.5497 79.29 61.7497 79.59L61.6362 79.6329C61.3868 79.7268 61.1469 79.8171 60.9297 79.93C60.9924 79.8046 61.0591 79.6634 61.1297 79.5138C61.1716 79.425 61.215 79.3332 61.2597 79.24L61.2719 79.2141C61.5988 78.5206 61.9646 77.7446 62.3597 77.31C62.6097 77.195 62.8572 77.0825 63.1047 76.97C63.3522 76.8575 63.5997 76.745 63.8497 76.63C63.9025 76.6058 63.9559 76.5811 64.0096 76.5561L64.102 76.5131L64.1034 76.5124C64.2636 76.4377 64.4267 76.3618 64.5897 76.29Z" fill="black"/>
<path d="M60.2209 80.3999C59.6837 80.4027 59.1073 80.6313 58.5408 80.8599C58.2108 80.9899 57.8708 81.1199 57.5508 81.2099C57.9551 81.3878 58.3725 81.533 58.7871 81.6772C58.8852 81.7114 58.9832 81.7454 59.0808 81.7799C59.1678 81.8098 59.2543 81.839 59.3403 81.8681C59.5999 81.9559 59.8554 82.0422 60.1108 82.1399C60.2308 82.1799 60.3508 82.1799 60.4708 82.1399C60.7805 82.03 61.091 81.9198 61.4008 81.8199C61.8607 81.6699 62.3209 81.5199 62.7708 81.3299C62.2708 81.1199 61.7608 80.9399 61.2508 80.7699L61.0391 80.6955C60.7667 80.5999 60.4906 80.5031 60.2209 80.3999Z" fill="black"/>
<path d="M34.5878 77.9666L34.4395 77.87L34.4495 77.88C34.1796 77.7 33.8997 77.5201 33.6199 77.3402C33.4999 77.2602 33.4095 77.18 33.3695 77.04C33.2595 76.7 33.1395 76.37 33.0195 76.04L32.9523 75.8502C32.7933 75.403 32.6334 74.953 32.5195 74.48C32.9195 74.72 33.2995 74.96 33.6795 75.21C33.8006 75.2851 33.9198 75.362 34.0396 75.4391C34.2065 75.5467 34.375 75.6552 34.5495 75.76C34.6595 75.83 34.7495 75.9 34.7895 76.03C34.8995 76.38 35.0195 76.73 35.1495 77.08L35.2287 77.3078C35.3817 77.7474 35.5315 78.1778 35.6595 78.63C35.2828 78.4197 34.9368 78.1941 34.5878 77.9666Z" fill="black"/>
<path d="M57.4707 80.9099C57.9506 80.8099 58.4206 80.64 58.8905 80.47L59.0834 80.4013C59.3261 80.3145 59.5654 80.2291 59.8107 80.1499C59.9507 80.1099 60.0307 80.0199 60.1107 79.8999C60.2057 79.7499 60.3032 79.5999 60.4007 79.4499C60.4982 79.2999 60.5957 79.1499 60.6907 78.9999C60.9807 78.5599 61.2607 78.1199 61.5307 77.6699C61.0643 77.7686 60.6139 77.9316 60.1652 78.0941L60.0107 78.1499C59.9323 78.1779 59.8531 78.2067 59.7736 78.2356C59.5694 78.3099 59.362 78.3852 59.1607 78.4499C58.7407 78.8599 58.4207 79.3899 58.1007 79.9299C57.9007 80.2699 57.7007 80.5999 57.4707 80.9099Z" fill="black"/>
<path d="M43.1691 81.2402C43.3191 81.1702 43.4491 81.1302 43.6191 81.1702V81.1602C43.9491 81.2302 44.2791 81.2902 44.6091 81.3402L44.7586 81.3654C45.1769 81.4359 45.588 81.5051 45.9991 81.6302C45.6991 81.7702 45.3391 81.9702 44.9791 82.1802C44.3791 82.5302 43.7491 82.8902 43.2791 82.9702C42.9591 82.9002 42.6291 82.8402 42.2991 82.7902L42.1649 82.7684C41.7215 82.6967 41.287 82.6265 40.8691 82.4902C41.3091 82.2302 41.7591 81.9902 42.2091 81.7602C42.2891 81.7177 42.369 81.6759 42.449 81.634C42.689 81.5084 42.9291 81.3827 43.1691 81.2402Z" fill="black"/>
<path d="M69.3295 66.8002L72.6095 67.0202L70.0994 69.0002L70.8794 71.9802L68.0894 70.3602L65.2995 71.9802L66.0795 69.0002L63.5695 67.0202L66.8494 66.8002L68.0894 63.9602L69.3295 66.8002Z" fill="black"/>
<path d="M48.7895 66.7902L50.0294 63.9502L51.2695 66.7902L54.5445 67.0099L57.8195 66.7902L59.0595 63.9502L60.2995 66.7902L63.5795 67.0102L61.0695 68.9902L61.8494 71.9702L59.0595 70.3502L56.2695 71.9702L57.0495 68.9902L54.5445 67.0141L52.0395 68.9902L52.8195 71.9702L50.0294 70.3502L47.2395 71.9702L48.0195 68.9902L45.5095 67.0102L48.7895 66.7902Z" fill="black"/>
<path d="M42.2295 66.7902L45.5095 67.0102L42.9995 68.9902L43.7794 71.9702L40.9895 70.3502L38.1995 71.9702L38.9795 68.9902L36.4745 67.0141L33.9695 68.9902L34.7495 71.9702L31.9595 70.3502L29.1695 71.9702L29.9495 68.9902L27.4395 67.0102L30.7195 66.7902L31.9595 63.9502L33.1995 66.7902L36.4745 67.0099L39.7495 66.7902L40.9895 63.9502L42.2295 66.7902Z" fill="black"/>
<path fill-rule="evenodd" clip-rule="evenodd" d="M51.41 11H48.6C28.31 11.66 11.78 28.38 11 48.62V51.37C12.65 85.32 53.07 101.52 77.44 77.69C101.6 53.55 85.49 12.49 51.41 11ZM49.36 86.2C29.75 86.29 13.06 68.72 13.82 49.16C14.74 28.47 30.27 13.44 52.65 13.79C60.04 13.92 68.67 17.4 75.7 24.51C98.43 46.81 81.91 86.94 49.36 86.2Z" fill="black"/>
</svg>
