<svg width="100" height="100" viewBox="0 0 100 100" fill="none" xmlns="http://www.w3.org/2000/svg">
<path d="M79.3008 48.5898V44.8701C79.3008 44.6401 79.4805 44.52 79.8301 44.52C80.2012 44.52 80.3906 44.6299 80.3906 44.8701V48.5898C80.3906 48.6846 80.3633 48.7603 80.3086 48.8184C80.2207 48.9136 80.0605 48.96 79.8301 48.96C79.5684 48.96 79.4023 48.8926 79.3359 48.7539C79.3125 48.7075 79.3008 48.6528 79.3008 48.5898Z" fill="black"/>
<path fill-rule="evenodd" clip-rule="evenodd" d="M57.6699 33.1099C57.2695 33.3896 56.6289 33.54 55.7598 33.54C54.8828 33.5342 54.2637 33.4019 53.9023 33.1406C53.7559 33.0347 53.6523 32.9072 53.5898 32.7588C53.543 32.6479 53.5195 32.5249 53.5195 32.3896V30.4697C53.5195 29.52 54.7402 29.0498 57.1699 29.0498C59.6191 29.0498 60.8496 29.5298 60.8496 30.48V34.8198C60.8496 35.4082 60.4062 35.8159 59.5176 36.0435C59.2148 36.1211 58.8613 36.1777 58.457 36.2139C58.1094 36.2446 57.7227 36.2598 57.2988 36.2598C54.9297 36.2598 53.75 35.7798 53.75 34.8198V33.8799H56.6992V35.0098C56.6992 35.1499 56.8594 35.21 57.1699 35.21C57.5098 35.21 57.6699 35.1499 57.6699 35.0098V33.1099ZM57.1602 30.0898C56.9961 30.0898 56.877 30.1055 56.8008 30.1382C56.7266 30.1694 56.6895 30.2163 56.6895 30.2798V32.2798C56.6895 32.4199 56.8496 32.48 57.1602 32.48C57.5 32.48 57.6602 32.4199 57.6602 32.2798V30.2798C57.6602 30.1499 57.4805 30.0898 57.1602 30.0898Z" fill="black"/>
<path d="M39.1016 38.0601L38.6309 36.73H38.2012V38.4702H38.4902V37.1299L38.9707 38.4702H39.2207L39.7012 37.1299V38.4702H39.9902V36.73H39.5703L39.1016 38.0601Z" fill="black"/>
<path fill-rule="evenodd" clip-rule="evenodd" d="M41.5996 38.4702L42.2695 36.73H42.5996L43.2695 38.4702H42.9395L42.7793 38.0098H42.0801L41.9199 38.4702H41.5996ZM42.4199 37.0298L42.1602 37.77H42.6797L42.4199 37.0298Z" fill="black"/>
<path d="M45.5703 37.77H46.0215C46.0215 37.8086 46.0215 37.8467 46.0156 37.8833C46.0098 37.9136 46 37.9429 45.9805 37.9702C45.9609 38.0303 45.9316 38.0801 45.8906 38.1201C45.8398 38.1704 45.8008 38.1899 45.7402 38.21C45.6816 38.23 45.6113 38.25 45.5312 38.2402C45.4414 38.2402 45.3613 38.2202 45.2812 38.1899C45.2207 38.1504 45.1504 38.1001 45.1211 38.04C45.0703 37.98 45.0508 37.9004 45.0312 37.8301C45.0098 37.75 45 37.6704 45 37.5903C45 37.5103 45 37.4302 45.0312 37.3403C45.0508 37.2603 45.0801 37.1899 45.1211 37.1304L45.1914 37.0532C45.2188 37.0259 45.248 37.0015 45.2812 36.98L45.3086 36.9644L45.3438 36.9512C45.3965 36.9351 45.4609 36.9302 45.5312 36.9302C45.5801 36.9302 45.6406 36.9302 45.6914 36.9502L45.7148 36.959L45.8301 37.0103C45.8711 37.04 45.9004 37.0703 45.9316 37.1201C45.9609 37.1704 45.9805 37.21 45.9805 37.27H46.2812C46.2812 37.228 46.2734 37.1899 46.2637 37.1543C46.248 37.105 46.2246 37.061 46.2012 37.02C46.1504 36.9502 46.1016 36.8804 46.041 36.8301C45.9805 36.7803 45.8906 36.7402 45.8105 36.7202C45.7305 36.6899 45.6406 36.6802 45.541 36.6802C45.4102 36.6802 45.291 36.71 45.1914 36.75C45.0898 36.8003 45 36.8701 44.9316 36.9502C44.8613 37.0303 44.8008 37.1304 44.7715 37.2402C44.7402 37.3501 44.7207 37.4702 44.7207 37.5903C44.7207 37.71 44.7402 37.8403 44.7715 37.9399C44.8105 38.0503 44.8613 38.1504 44.9316 38.23C45 38.3101 45.0898 38.3804 45.1914 38.4302C45.291 38.48 45.4102 38.5 45.541 38.5L45.5977 38.498L45.666 38.4907L45.752 38.4727L45.8203 38.4502C45.8516 38.4351 45.8828 38.417 45.9141 38.3955C45.9629 38.3604 46.0137 38.3159 46.0703 38.2603L46.1211 38.4702H46.3203V37.5503H45.5801L45.5703 37.77Z" fill="black"/>
<path fill-rule="evenodd" clip-rule="evenodd" d="M48.2012 38.4604H47.8809L48.5508 36.7202H48.8809L49.5508 38.4604H49.2207L49.0605 38H48.3613L48.2012 38.4604ZM48.7012 37.02L48.4414 37.7603H48.9609L48.7012 37.02Z" fill="black"/>
<path d="M52.4902 36.9302V36.71H51.1602V36.9697H52.0996L51.0801 38.2002V38.4399H52.5195V38.1802H51.4707L52.4902 36.9302Z" fill="black"/>
<path d="M54.1504 36.71H54.4609V38.4502H54.1504V36.71Z" fill="black"/>
<path d="M57.3594 38L56.5703 36.7202H56.2402V38.4604H56.5293V37.1802L57.3301 38.4604H57.6504V36.7202H57.3594V38Z" fill="black"/>
<path d="M60.6191 37.6802H59.7402V38.2002H60.709V38.4604H59.4297V36.7202H60.6895V36.98H59.7402V37.4302H60.6191V37.6802Z" fill="black"/>
<path d="M45.1719 33.98H42.2207V34.9199H41.0508C41.0508 34.6699 41.2012 34.4399 41.4805 34.1997C41.7715 33.9697 42.1113 33.7598 42.5117 33.5596C42.9102 33.3599 43.3105 33.1499 43.7109 32.9297C44.1113 32.71 44.4512 32.4399 44.7402 32.1196C45.0312 31.7998 45.1719 31.46 45.1719 31.0898V30.46C45.1719 29.5098 43.9902 29.0298 41.6211 29.0298C40.4316 29.0298 39.541 29.1504 38.9492 29.3911C38.3633 29.6299 38.0703 29.9868 38.0703 30.46V31.9297H41.0215V30.27C41.0215 30.1396 41.1719 30.0796 41.4902 30.0796C41.8105 30.0796 41.9902 30.1396 41.9902 30.27V31.1997C41.9902 31.4497 41.8418 31.6997 41.5605 31.9399C41.2812 32.1899 40.9316 32.3999 40.5312 32.6099C40.1309 32.8198 39.7305 33.0298 39.332 33.25C39.2324 33.3066 39.1367 33.3652 39.0449 33.4258C38.7676 33.6113 38.5195 33.8164 38.3008 34.0498C38.0117 34.3599 37.8711 34.6899 37.8711 35.0596V36.1299H45.1816L45.1719 33.98Z" fill="black"/>
<path fill-rule="evenodd" clip-rule="evenodd" d="M45.6797 34.8101V30.4702C45.6797 29.52 46.9297 29.04 49.3594 29.04C51.7891 29.04 53.0098 29.52 53.0098 30.4702V34.8101C53.0098 35.77 51.8105 36.25 49.3594 36.25C48.1719 36.25 47.2715 36.1372 46.6582 35.9116C46.0059 35.6719 45.6797 35.3047 45.6797 34.8101ZM49.8301 35V30.2803C49.8301 30.1826 49.7402 30.1245 49.5645 30.1016C49.5059 30.0938 49.4375 30.0898 49.3594 30.0898C49.1895 30.0898 49.0645 30.1045 48.9824 30.1357C48.9004 30.167 48.8594 30.2148 48.8594 30.2803V35C48.8594 35.1401 49.0391 35.2002 49.3594 35.2002C49.5527 35.2002 49.6855 35.1782 49.7598 35.1299C49.8066 35.0981 49.8301 35.0552 49.8301 35Z" fill="black"/>
<path d="M52.8906 53.5303C52.6113 54.2603 52.4199 55.8003 52.6406 55.9805C52.6406 55.9805 52.6562 55.9805 52.6895 55.9678C52.7109 55.9595 52.7383 55.9463 52.7754 55.9248L52.877 55.8564C52.9277 55.8179 52.9883 55.7671 53.0605 55.7002C53.5117 55.2803 54.5703 53.3203 54.4609 52.2002C54.4316 51.9302 54.3418 51.75 54.1816 51.6504C54.0703 51.5801 53.9609 51.5303 53.8711 51.4902L53.7422 51.7261L53.627 51.936L53.3965 52.3828C53.2148 52.7505 53.043 53.1343 52.8906 53.5303Z" fill="black"/>
<path d="M50.8516 53C50.7617 53.04 50.6719 53.0503 50.6113 53.02H50.6309C50.582 53 50.5215 52.9399 50.502 52.8604C50.4414 52.6602 50.5215 52.4199 50.6211 52.1802V52.1499C50.7305 51.8301 50.9004 51.5303 51.1211 51.2603C51.5605 50.71 52.0117 50.3901 52.332 50.3901H52.3711V50.4702C52.3594 50.5469 52.3418 50.627 52.3184 50.709C52.2852 50.8198 52.2422 50.9351 52.1914 51.0503C52.0312 51.4102 51.8203 51.7803 51.5918 52.1401L51.5215 52.25L51.4707 52.3203C51.291 52.6001 51.1113 52.8701 50.8516 53Z" fill="black"/>
<path d="M52.1309 69.2402L54.5801 66.79L51.1504 66.2402L49.5605 63.1602L47.9805 66.2402L44.5508 66.79L47 69.2402L46.4609 72.6602L49.5605 71.1001L52.6602 72.6602L52.1309 69.2402Z" fill="black"/>
<path d="M70.5273 44.7363C70.5098 44.7759 70.5 44.8203 70.5 44.8701V53.6602C70.5 53.9102 70.6895 54.0298 71.0605 54.0298C71.4102 54.0298 71.5898 53.9102 71.5898 53.6602V44.8701C71.5898 44.6299 71.4102 44.52 71.0605 44.52C70.916 44.52 70.7988 44.5386 70.709 44.5747C70.6191 44.6108 70.5586 44.665 70.5273 44.7363Z" fill="black"/>
<path d="M74.0508 30.2598L75.2305 29.6699L76.4102 30.2598L76.2109 28.96L77.1406 28.0298L75.8301 27.8198L75.2305 26.6499L74.6309 27.8198L73.3203 28.0298L74.25 28.96L74.0508 30.2598Z" fill="black"/>
<path d="M75.2305 32.1499L75.8301 33.3198L77.1504 33.5298L76.2207 34.46L76.4199 35.7598L75.2402 35.1699L74.0605 35.7598L74.2598 34.46L73.3301 33.5298L74.6309 33.3198L75.2305 32.1499Z" fill="black"/>
<path d="M68.9707 27.5698L70.1504 26.98L71.3301 27.5698L71.1309 26.27L72.0605 25.3398L70.75 25.1299L70.1504 23.96L69.5508 25.1299L68.2402 25.3398L69.1699 26.27L68.9707 27.5698Z" fill="black"/>
<path d="M65.0801 24.2798L63.9004 24.8696L64.0996 23.5698L63.1699 22.6396L64.4805 22.4297L65.0801 21.2598L65.6797 22.4297L66.9902 22.6299L66.0605 23.5698L66.2598 24.8696L65.0801 24.2798Z" fill="black"/>
<path d="M58.8301 22.1597L60.0098 21.5698L61.1895 22.1597L60.9902 20.8599L61.9199 19.9297L60.6094 19.7197L60 18.5498L59.4102 19.7197L58.0996 19.9297L59.0293 20.8599L58.8301 22.1597Z" fill="black"/>
<path d="M54.9297 18.8599L53.7598 19.4497L53.9492 18.1499L53.0195 17.2197L54.3301 17.0098L54.9297 15.8398L55.5293 17.0098L56.8398 17.2197L55.9102 18.1499L56.1191 19.4497L54.9297 18.8599Z" fill="black"/>
<path d="M48.6816 16.75L49.8613 16.1602L51.041 16.75L50.8418 15.4502L51.7715 14.52L50.4609 14.3101L49.8613 13.1401L49.2617 14.3101L47.9512 14.52L48.8809 15.4502L48.6816 16.75Z" fill="black"/>
<path d="M44.791 18.8701L43.6211 19.46L43.8105 18.1602L42.8809 17.23L44.1914 17.02L44.791 15.8501L45.3906 17.02L46.7012 17.23L45.7715 18.1602L45.9805 19.46L44.791 18.8701Z" fill="black"/>
<path d="M38.5508 22.1699L39.7305 21.5801L40.9102 22.1699L40.7109 20.8701L41.6406 19.9399L40.3301 19.73L39.7207 18.5601L39.1309 19.73L37.8203 19.9502L38.75 20.8701L38.5508 22.1699Z" fill="black"/>
<path d="M34.6602 24.2998L33.4805 24.8896L33.6797 23.5898L32.75 22.6597L34.0605 22.4497L34.6602 21.2798L35.2598 22.4497L36.5703 22.6597L35.6406 23.5898L35.8398 24.8896L34.6602 24.2998Z" fill="black"/>
<path d="M28.4102 27.6001L29.5898 27.0103L30.7695 27.6001L30.5703 26.3003L31.5 25.3701L30.1895 25.1602L29.5898 23.9902L28.9902 25.1602L27.6797 25.3701L28.6094 26.3003L28.4102 27.6001Z" fill="black"/>
<path d="M24.5195 29.7202L23.3398 30.3203L23.5391 29.02L22.6094 28.0903L23.9199 27.8804L24.5195 26.7002L25.1191 27.8701L26.4297 28.0801L25.5 29.0103L25.6992 30.3101L24.5195 29.7202Z" fill="black"/>
<path d="M25.1191 33.3701L24.5195 32.2002L23.9199 33.3804L22.6094 33.5903L23.5488 34.52L23.3496 35.8203L24.5293 35.2202L25.709 35.8101L25.5098 34.5103L26.4395 33.5801L25.1191 33.3701Z" fill="black"/>
<path d="M20.7402 45.3999V47.4497C20.7402 47.71 20.5703 47.8398 20.25 47.8398H19.7598V45.0098H20.25C20.5801 45.0098 20.7402 45.1396 20.7402 45.3999Z" fill="black"/>
<path d="M20.7402 53.0801V50.4902C20.7402 50.2402 20.5801 50.1201 20.25 50.1201H19.7598V53.5103H20.25C20.5703 53.5103 20.7402 53.3701 20.7402 53.0801Z" fill="black"/>
<path d="M76.2207 59.3799L76.4102 60.5698L75.2305 59.98L74.0508 60.5698L74.2402 59.3799H76.2207Z" fill="black"/>
<path d="M25.6797 60.5698L25.5 59.3799H23.5098L23.3203 60.5698L24.5 59.98L25.6797 60.5698Z" fill="black"/>
<path d="M24.5312 67.9502L25.1309 69.1201L26.4414 69.3301L25.5117 70.2603L25.7109 71.5601L24.5312 70.9702L23.3516 71.5601L23.5508 70.2603L22.6211 69.3301L23.9316 69.1201L24.5312 67.9502Z" fill="black"/>
<path d="M24.5312 62.4502L23.9316 63.6201L22.6211 63.8301L23.5508 64.7603L23.3516 66.0601L24.5312 65.4702L25.7109 66.0601L25.5117 64.7603L26.4414 63.8301L25.1309 63.6201L24.5312 62.4502Z" fill="black"/>
<path d="M29.6113 70.6499L30.2109 71.8198L31.5215 72.0298L30.5918 72.96L30.791 74.2598L29.6113 73.6699L28.4316 74.2598L28.6309 72.96L27.7012 72.0298L29.0117 71.8198L29.6113 70.6499Z" fill="black"/>
<path d="M35.2793 74.5298L34.6797 73.3599L34.0801 74.5298L32.7695 74.7397L33.6992 75.6699L33.5 76.9697L34.6797 76.3799L35.8594 76.9697L35.6602 75.6699L36.5898 74.7397L35.2793 74.5298Z" fill="black"/>
<path d="M39.75 76.0698L40.3496 77.2397L41.6602 77.4497L40.7305 78.3799L40.9297 79.6797L39.75 79.0898L38.5703 79.6797L38.7695 78.3799L37.8398 77.4497L39.1504 77.2397L39.75 76.0698Z" fill="black"/>
<path d="M45.4199 79.9497L44.8203 78.7798L44.2207 79.9497L42.9102 80.1597L43.8398 81.0898L43.6406 82.3896L44.8203 81.7998L46 82.3896L45.8008 81.0898L46.7305 80.1597L45.4199 79.9497Z" fill="black"/>
<path d="M49.8906 81.4902L50.4902 82.6602L51.8008 82.8701L50.8711 83.8003L51.0703 85.1001L49.8906 84.5103L48.7109 85.1001L48.9102 83.8003L47.9805 82.8701L49.291 82.6602L49.8906 81.4902Z" fill="black"/>
<path d="M55.5605 79.9497L54.9609 78.7798L54.3613 79.9497L53.0508 80.1597L53.9805 81.0898L53.7812 82.3896L54.9609 81.7998L56.1406 82.3896L55.9414 81.0898L56.8711 80.1597L55.5605 79.9497Z" fill="black"/>
<path d="M60.0312 76.0698L60.6309 77.2397L61.9414 77.4497L61.0117 78.3799L61.2109 79.6797L60.0312 79.0898L58.8516 79.6797L59.0508 78.3799L58.1211 77.4497L59.4316 77.2397L60.0312 76.0698Z" fill="black"/>
<path d="M65.6992 74.5298L65.0996 73.3599L64.5 74.5298L63.1895 74.7397L64.1191 75.6699L63.9199 76.9697L65.0996 76.3799L66.2793 76.9697L66.0801 75.6699L67.0098 74.7397L65.6992 74.5298Z" fill="black"/>
<path d="M70.1699 70.6499L70.7695 71.8198L72.0801 72.0298L71.1504 72.96L71.3496 74.2598L70.1699 73.6699L68.9902 74.2598L69.1895 72.96L68.2598 72.0298L69.5703 71.8198L70.1699 70.6499Z" fill="black"/>
<path d="M75.8398 69.1099L75.2402 67.9399L74.6406 69.1099L73.3301 69.3198L74.2598 70.25L74.0605 71.5498L75.2402 70.96L76.4199 71.5498L76.2207 70.25L77.1504 69.3198L75.8398 69.1099Z" fill="black"/>
<path d="M74.6406 63.6099L75.2402 62.4399L75.8398 63.6099L77.1504 63.8198L76.2207 64.75L76.4199 66.0498L75.2402 65.46L74.0605 66.0498L74.2598 64.75L73.3301 63.8198L74.6406 63.6099Z" fill="black"/>
<path fill-rule="evenodd" clip-rule="evenodd" d="M92.2598 57.5L95.5391 52.2998C95.0898 52.23 94.6504 52.1602 94.2109 52.0698C91.9004 51.6401 89.4609 51.6602 87.1309 51.96C86.6699 52.02 86.2109 52.0601 85.75 52.0801L86.8809 39.6802H80.2598V25.6802L49.8691 9L19.4805 25.6802V39.6802H13.0898L14.2207 52.0898C13.6797 52.0601 13.1406 52.02 12.6094 51.96C10.2793 51.6602 7.83984 51.6299 5.5293 52.0698L5.30078 52.1108L5.06836 52.1499L4.86914 52.1802C4.65039 52.2202 4.41992 52.2598 4.21094 52.29L7.48047 57.4902L4 63.2002L4.92578 62.9985L6.16016 62.7402C7.2793 62.52 8.36914 62.3198 9.51953 62.4302C10.1895 62.4902 10.8496 62.6201 11.5 62.7402L12.0684 62.8481C12.3281 62.8955 12.5898 62.9395 12.8496 62.98C15 63.29 17.1699 63.27 19.3398 63.21H19.4902V72.8999L49.8809 89.5801L80.2695 72.8999V63.21H80.4102C82.5801 63.27 84.75 63.29 86.9004 62.98C87.3594 62.9102 87.8105 62.8301 88.2695 62.7402L88.9492 62.6143C89.375 62.5381 89.8008 62.4692 90.2305 62.4302C91.3809 62.3198 92.4707 62.52 93.5898 62.7402C94.3105 62.8799 95.0293 63.0298 95.75 63.2002L92.2598 57.5ZM83.9805 45.25V53.3301C83.9805 55.1201 82.6504 56.0098 79.9902 56.0098C77.3301 56.0098 76 55.1201 76 53.3301V51.5801H79.3105V53.6802C79.3105 53.9302 79.4902 54.0498 79.8398 54.0498C80.0156 54.0498 80.1504 54.0229 80.2441 53.9678C80.3477 53.9067 80.4004 53.8115 80.4004 53.6802V50.1401C79.9492 50.6699 79.2402 50.9399 78.2598 50.9399C76.5801 50.9399 75.7402 50.23 75.7402 48.8198V45.25C75.7402 43.48 77.1094 42.5898 79.8496 42.5898C80.9941 42.5898 81.9023 42.7451 82.5723 43.0547C83.041 43.2705 83.3926 43.562 83.6289 43.9287L83.6699 43.999C83.6973 44.0425 83.7207 44.0864 83.7422 44.1318L83.7832 44.2178C83.8164 44.2891 83.8438 44.3628 83.8672 44.4385C83.9434 44.6846 83.9805 44.9551 83.9805 45.25ZM24.6992 53.5298H25.0293V45.04H24.6992V42.77H32.9102V47.6499H29.5898V45.04H28.6191V47.98H30.6191V50.0698H28.6191V53.5298H29.5898V50.3999H32.9102V55.7998H24.6992V53.5298ZM29.4004 39.6802V31.5698L49.8594 20.3301L70.3203 31.5698V39.6802H29.4004ZM63.0293 53.52V51.7798H66.3398V55.7998H58.1309V53.8101C58.1309 53.7207 58.1348 53.6318 58.1406 53.5439C58.1445 53.4629 58.1523 53.3828 58.1621 53.3037L58.1836 53.1514C58.1992 53.0591 58.2188 52.9678 58.2402 52.8774C58.3203 52.5532 58.4434 52.2412 58.6094 51.9399C58.6895 51.7935 58.7754 51.6528 58.8652 51.5171C58.9551 51.3799 59.0508 51.2485 59.1504 51.1226L59.3008 50.9429L59.3965 50.8311L59.541 50.6743L59.6699 50.5459L59.7695 50.4502L60.0391 50.1987L60.4434 49.8359L60.7148 49.5957L61.1191 49.25C61.5703 48.8701 61.9609 48.4502 62.2793 48C62.5996 47.5498 62.7598 47.0898 62.7598 46.6201V44.8901C62.7598 44.6499 62.5703 44.54 62.1992 44.54C62.0527 44.54 61.9355 44.5615 61.8496 44.6035C61.7773 44.6387 61.7266 44.6885 61.6973 44.752C61.6797 44.7925 61.6699 44.8384 61.6699 44.8901V47.98H58.3594V45.2402C58.3594 43.4702 59.6895 42.5801 62.3496 42.5801C65.0098 42.5801 66.3398 43.4702 66.3398 45.2402V46.4102C66.3398 46.5732 66.3301 46.7344 66.3125 46.8931C66.2832 47.147 66.2285 47.3945 66.1523 47.6353C66.0781 47.8701 65.9805 48.0986 65.8594 48.3198C65.5391 48.9102 65.1504 49.4102 64.6992 49.8198C64.25 50.23 63.8008 50.6201 63.3496 50.9902C62.9004 51.3599 62.5098 51.7598 62.1895 52.1899C61.8691 52.6201 61.7109 53.0601 61.7109 53.5V53.52H63.0293ZM56.4492 50.2393C56.4805 50.2954 56.4941 50.3628 56.4805 50.4302C56.4492 50.5698 56.3105 50.6602 56.1699 50.6299C55.6191 50.52 54.8906 50.5601 54.3008 50.7798L54.1797 50.9702C54.1797 50.9902 54.1602 51 54.1504 51.02L54.1426 51.0396C54.1367 51.0469 54.1309 51.0547 54.1309 51.0601L54.2168 51.0986L54.3086 51.146L54.4492 51.23C54.75 51.4199 54.9297 51.73 54.9707 52.1699C55.0332 52.8003 54.7969 53.6206 54.4746 54.3564C54.127 55.1499 53.6797 55.8457 53.4004 56.1001C53.2695 56.23 52.9492 56.52 52.6309 56.52C52.5391 56.52 52.4395 56.5 52.3496 56.4399C51.5996 55.9399 52.4004 53.3999 52.4102 53.3701C52.6191 52.8101 52.8691 52.27 53.1406 51.77C53.1094 51.77 53.0801 51.77 53.0391 51.75L52.9824 51.7212L52.9395 51.6836C52.8789 51.6172 52.8555 51.521 52.8906 51.4302C53.0605 50.9302 53.4707 50.5898 53.9609 50.3599L53.9785 50.333C53.9922 50.3086 54.0078 50.2817 54.0293 50.2598L54.1309 50.1001C54.9609 48.8101 55.8906 47.5801 56.8809 46.4302C56.9355 46.3633 57.0195 46.3335 57.1016 46.3398C57.1543 46.3442 57.207 46.3643 57.25 46.3999C57.3594 46.4902 57.3691 46.6602 57.2793 46.7598C56.3691 47.8101 55.5195 48.9399 54.75 50.1099C55.2891 50.0098 55.8496 50.0098 56.2891 50.1099C56.3203 50.1191 56.3477 50.1343 56.373 50.1533C56.4043 50.1763 56.4297 50.2061 56.4492 50.2393ZM48.1797 45.04V53.5298H48.5898V55.7998H44.2207V53.5298H44.5996V45.04H44.1895V47.7598H41.4492V42.77H51.3496V47.7598H48.5898V45.04H48.1797ZM49.9609 53.02C49.8496 52.6602 49.9805 52.2998 50.0801 52.02L50.0996 52.04V52.0098C50.25 51.6299 50.4395 51.2798 50.6992 50.96C51.1309 50.4399 51.7695 49.8301 52.4199 49.8999C52.4805 49.8999 52.5293 49.9199 52.5801 49.9399C52.6797 49.9858 52.752 50.0552 52.7988 50.1362C52.877 50.2666 52.8945 50.4277 52.8691 50.5698C52.8438 50.7085 52.8066 50.8555 52.7559 51.0049C52.7266 51.0928 52.6914 51.1812 52.6504 51.27C52.5859 51.4141 52.5137 51.5596 52.4355 51.7061C52.377 51.8184 52.3145 51.9312 52.248 52.0439L52.1543 52.2017L52.0098 52.4302L51.9395 52.54L51.9102 52.5801C51.6992 52.9102 51.4609 53.2798 51.0801 53.4702C50.9492 53.54 50.8105 53.5698 50.6699 53.5698C50.5801 53.5698 50.4902 53.5498 50.4102 53.52C50.1992 53.4399 50.0293 53.25 49.9609 53.02ZM37.1699 53.7402C37.4902 53.7402 37.6504 53.6201 37.6504 53.3701V52.3101C37.6504 52.0093 37.584 51.731 37.4492 51.4717C37.3828 51.3433 37.2988 51.2192 37.1992 51.1001C36.9004 50.7402 36.5391 50.4199 36.1309 50.1299C35.7109 49.8398 35.2891 49.5298 34.8809 49.2002C34.4609 48.8599 34.0996 48.4102 33.8105 47.8398C33.5098 47.27 33.3594 46.6099 33.3594 45.8701V45.1401C33.3594 43.4399 34.3008 42.5898 36.1699 42.5898C37.0098 42.5898 37.6309 42.8101 38.0195 43.23L38.0508 43.27L38.1699 43.4199C38.1699 43.4199 38.1797 43.4399 38.1895 43.4502V42.7798H41.0293V47.25H37.9395V45.2402C37.9395 45.1982 37.9355 45.1597 37.9258 45.125C37.9141 45.0801 37.8945 45.0415 37.8672 45.0088C37.791 44.9155 37.6523 44.8701 37.4492 44.8701C37.1191 44.8701 36.9395 44.9902 36.9395 45.2402V46C36.9395 46.4502 37.0898 46.8501 37.3906 47.21C37.6895 47.5698 38.0508 47.8901 38.4609 48.1802C38.8809 48.4702 39.3008 48.77 39.7109 49.1001C39.8008 49.1704 39.8867 49.2461 39.9707 49.3271C40.0449 49.3984 40.1172 49.4741 40.1855 49.5537C40.2383 49.6143 40.2891 49.6777 40.3398 49.7437C40.4277 49.8599 40.5117 49.9839 40.5918 50.1152L40.7129 50.3228L40.7793 50.4502C41.0801 51.02 41.2305 51.6802 41.2305 52.4199V53.4399C41.2305 55.1499 40.2891 56.0098 38.4199 56.0098C37.4297 56.0098 36.7598 55.7202 36.4004 55.1299V55.7998H33.3594V51H36.6797V53.3501C36.6797 53.6099 36.8398 53.7402 37.1699 53.7402ZM70.3301 59.3701V67.0698L49.8691 78.3101L29.4102 67.0698V59.3701H70.3301ZM71.0605 56C68.3203 56 66.9297 55.1099 66.9297 53.3198V45.2402C66.9297 43.4702 68.3105 42.5801 71.0605 42.5801C73.8105 42.5801 75.1699 43.4702 75.1699 45.2402V53.3198C75.1699 55.1099 73.8008 56 71.0605 56ZM49.8691 10.1401L79.2598 26.2798V39.6802H76.5098L77.1504 39.0298L75.8398 38.8198L75.2402 37.6499L74.6406 38.8198L73.3398 39.0298L73.9805 39.6802H71.3203V30.9702L49.8594 19.1899L28.4004 30.9702V39.6802H25.8496L26.4395 39.0801L25.1309 38.8701L24.5293 37.7002L23.9297 38.8701L22.6309 39.0801L23.2207 39.6699H20.4902V26.27L49.8691 10.1401ZM15.8809 53.5498H16.2109V45.0601H15.8809V42.79H20.4102C21.5898 42.79 22.5098 42.96 23.1699 43.29C23.8301 43.6299 24.1699 44.3101 24.1699 45.3398V47.0498C24.1699 47.7402 24.0059 48.271 23.6797 48.6479C23.4961 48.8608 23.2598 49.0244 22.9707 49.1401C23.8906 49.4399 24.3496 50.1299 24.3496 51.21V53.2202C24.3496 54.25 24 54.9399 23.3008 55.2998C22.5996 55.6499 21.6602 55.8301 20.4902 55.8301H15.8809V53.5498ZM14.8809 59.3701H19.4805V61.7798L14.8809 59.3701ZM49.8691 88.4502L20.4805 72.3101V59.3701H28.4102V67.6699L49.8691 79.46L71.3301 67.6699V59.3701H79.2598V72.3101L49.8691 88.4502ZM80.2598 61.7798V59.3701H85.0898L80.2598 61.7798Z" fill="black"/>
</svg>
