<svg width="100" height="100" viewBox="0 0 100 100" fill="none" xmlns="http://www.w3.org/2000/svg">
<path d="M59.3384 86.8901C57.3028 86.071 59.1647 84.2016 59.84 82.9874C53.2607 84.8087 46.7489 84.8087 40.1696 82.9874C42.0122 85.8494 42.6007 86.418 38.8866 87.4973C46.0736 89.6173 53.7816 89.3475 61.0362 87.6033C61.0362 87.5551 61.0362 87.5069 61.0266 87.4587C60.4671 87.266 59.8979 87.0829 59.3384 86.8805V86.8901ZM90.9035 46.6383C90.8649 46.0794 90.836 45.5205 90.7974 44.817C90.016 46.0216 89.1092 46.9371 88.5689 48.0838C88.6172 49.1631 88.6847 50.2424 88.7426 51.4566C89.524 50.3869 90.2186 49.4522 90.9904 48.4018V47.3418C90.9614 47.1105 90.9132 46.8792 90.8939 46.648L90.9035 46.6383ZM88.2506 56.1978C89.0802 55.3305 89.7555 54.5499 90.508 53.6634C91.0675 52.7864 90.836 51.6204 91 50.6182V49.8473C90.1704 50.8591 89.1381 51.7553 88.4242 52.825C88.3567 53.9043 88.3085 54.9836 88.2506 56.1978ZM30.7252 18.2009C31.7478 17.3433 32.4713 16.1965 33.4746 15.1172C31.5838 15.7339 29.5 15.4641 28.4292 17.3625C27.9372 17.9214 27.5224 18.4322 26.9628 19.0875C28.3134 18.7695 29.5193 18.49 30.7252 18.2009ZM70.5289 18.5189C71.3296 18.6249 72.1207 18.8658 73.0468 19.0778C72.0628 18.0082 71.32 16.8903 70.3456 16.0134C69.1108 15.7147 67.876 15.4352 66.5351 15.1172C67.8567 16.4278 68.5223 18.278 70.5193 18.5093L70.5289 18.5189ZM88.2602 44.0076C88.4821 44.817 88.6172 45.6554 88.8101 46.5901C89.3407 45.347 90.2861 44.1232 90.508 42.9668C90.3054 41.9357 90.0932 40.9046 89.8809 39.8735C89.8423 39.8735 89.8038 39.8542 89.7652 39.8446C89.2732 41.2226 87.9033 42.4657 88.2602 43.9979V44.0076ZM11.7205 42.803C11.2092 41.743 10.7654 40.789 10.148 39.7578C9.96471 41.0395 9.47271 42.167 9.55953 43.3426C10.0515 44.4027 10.6111 45.4338 11.1995 46.5998C11.3539 45.3085 12.0292 43.969 11.7205 42.8126V42.803ZM73.7607 19.8488C73.3555 19.55 72.9407 19.444 72.4487 19.4922C71.3393 19.5886 70.4614 19.6367 69.2845 19.762C70.7315 20.5233 71.6384 21.9399 73.3748 21.6411C74.2141 21.4773 75.092 21.487 76.0856 21.4099C75.2271 20.8413 74.4746 20.3691 73.7704 19.8488H73.7607ZM30.0402 20.2149C30.2235 20.0897 30.4068 19.9548 30.7155 19.7427C29.3842 19.6464 28.2073 19.5597 27.0304 19.4922C26.8953 19.4922 26.7409 19.5404 26.6252 19.6078C25.7569 20.1764 24.8984 20.7546 23.9144 21.4099C24.8984 21.487 25.7473 21.4773 26.5576 21.6411C28.0144 21.9688 28.9308 20.8895 30.0402 20.2149ZM20.5572 24.9176C22.0042 24.7441 23.3259 24.8405 24.5896 24.5321C25.3904 23.819 26.1911 23.0963 27.0496 22.3157C26.1332 22.3253 23.9336 22.4121 23.1619 22.5952C22.3226 23.3275 21.4833 24.0792 20.5572 24.9079V24.9176ZM78.5939 72.6184C78.4878 71.8764 78.5746 71.1055 78.5746 70.296C77.8607 71.1537 77.1758 71.9728 76.5005 72.7919C76.2111 73.8905 76.4715 75.4516 76.3847 76.6851C77.3205 75.4034 78.8447 74.4397 78.5939 72.6281V72.6184ZM82.8 69.6504C84.2181 68.7542 86.0703 68.6482 86.7456 67.0774C87.0351 66.3258 87.4402 65.6223 87.8454 64.7839C86.6009 65.4392 85.3854 65.8536 84.3242 66.5474C83.8322 67.5303 83.3499 68.5229 82.8 69.6407V69.6504ZM21.5412 74.1892C22.2358 75.0276 22.9304 75.8563 23.6249 76.6754C23.6249 75.4516 23.6249 74.2567 23.6249 73.0521C23.6249 72.9557 23.5574 72.8401 23.4899 72.7533C22.8242 71.9439 22.1489 71.144 21.4833 70.3346C21.5412 71.6259 21.3772 72.9364 21.5508 74.1796L21.5412 74.1892ZM27.532 79.7687C27.2522 78.3907 27.1944 77.1187 26.8278 75.9141C26.0078 75.1721 25.1878 74.4301 24.252 73.5821C24.5414 74.8059 24.5993 76.5983 25.0431 77.4945C25.7859 78.2654 26.6252 78.9593 27.5224 79.7687H27.532ZM87.1412 46.7829C86.5624 46.2143 86.2344 45.7036 85.6266 45.0965C85.6845 46.2914 85.7327 47.3418 85.8002 48.4018C86.3405 49.4811 87.5367 50.4255 88.2699 51.3988C88.212 49.7606 88.6268 47.9296 87.1508 46.7829H87.1412ZM15.7336 66.6534C14.8847 65.8921 13.3315 65.4489 12.1546 64.7839C12.6176 65.7379 13.0421 66.5667 13.4184 67.4147C13.5824 67.7809 13.8042 68.0411 14.1901 68.2145C15.232 68.6771 16.1099 69.1686 17.1904 69.6215C16.6694 68.5615 16.2064 67.6074 15.7336 66.6631V66.6534ZM76.9442 22.7012C75.8155 22.2482 74.2431 22.4603 72.9118 22.2964C73.8089 23.1059 74.6 23.8286 75.4103 24.5417C76.6741 24.8501 77.9958 24.7537 79.4332 24.9272C78.5264 24.1177 77.7449 23.4046 76.9442 22.7108V22.7012ZM75.2753 76.4056C75.42 75.4612 75.584 74.6517 75.7384 73.5917C74.7158 74.7867 73.0468 75.2974 72.9504 76.9356C72.7864 77.8896 72.632 78.6991 72.4777 79.7495C73.4617 78.6027 75.2271 77.9667 75.2656 76.4056H75.2753ZM14.3155 45.1254C13.4762 46.1854 12.4729 47.0238 11.8362 48.1127C11.7687 49.2016 11.7205 50.2809 11.6626 51.4855C12.4729 50.3869 13.9296 49.3366 14.2384 48.1416C14.2866 47.1202 14.4024 46.1469 14.3155 45.1254ZM11.2478 51.4566C11.3153 50.2809 11.3828 49.2402 11.4214 48.1994C11.4214 48.0356 11.3539 47.8525 11.2671 47.7176C10.5725 46.7636 9.97435 45.7903 9.19294 44.8941C9.20259 46.1083 8.85529 47.3803 9.10612 48.4596C9.78141 49.4233 10.4664 50.3773 11.2478 51.4566ZM18.3769 32.5208C16.8431 33.4074 14.7979 33.6868 14.2769 35.6334C14.0936 36.1827 13.7849 36.6838 13.4859 37.3102C14.7207 36.6549 15.9555 36.2501 16.9974 35.5467C17.4894 34.5637 17.9718 33.5808 18.4541 32.5883C18.4252 32.5593 18.4059 32.5401 18.3769 32.5112V32.5208ZM84.6715 33.9952C83.5911 33.4748 82.6167 32.9737 81.4976 32.4919C82.1054 33.6194 82.472 34.7276 83.1184 35.6816C84.2085 36.2116 85.3082 36.7416 86.5238 37.3294C85.9932 36.2405 85.5301 35.2576 85.0381 34.2843C84.9706 34.159 84.8066 34.0723 84.6715 34.0048V33.9952ZM67.2393 82.2935C67.6831 81.2142 68.2426 80.2024 68.5802 79.0846C67.6155 79.7013 66.1492 80.1735 65.4642 80.9059C64.9819 81.9851 64.5092 83.0644 63.9882 84.269C65.0591 83.7005 65.9948 83.1994 66.9209 82.6886C67.056 82.6115 67.1718 82.4477 67.2393 82.2935ZM16.5344 30.3333C16.7852 29.9575 16.9395 29.6009 16.8141 29.1287C16.6598 28.0302 16.6019 27.1147 16.4089 25.9198C15.7722 27.0569 15.0294 27.9627 14.5856 29.0227C14.7304 30.208 14.8847 31.403 15.0487 32.7328C15.5889 31.8462 16.0424 31.0753 16.5344 30.3333ZM85.3468 28.7915C84.7873 27.876 84.2278 26.9605 83.6296 25.9872C83.3209 26.9509 83.4271 27.9724 83.1859 28.9456C82.9929 30.4008 84.3242 31.403 84.9513 32.7328C85.0478 31.3162 85.424 30.0442 85.3468 28.7818V28.7915ZM36.0021 84.2594C35.4715 83.0355 34.9988 81.937 34.5165 80.848C33.6482 80.1157 32.4616 79.7206 31.4776 79.1135C31.4487 79.1424 31.4294 79.1713 31.4005 79.1906C31.9504 80.3084 32.3169 81.5708 32.9633 82.6212C33.9376 83.1512 34.912 83.6715 36.0021 84.2594ZM29.2299 82.6983C29.9245 82.6404 30.6094 82.5826 31.4391 82.5152C29.9727 81.7442 28.9791 80.2024 27.2136 80.6649C26.3744 80.7035 25.6122 80.7902 24.6475 80.8673C26.1525 81.6575 27.1365 83.1994 28.9501 82.7079C29.0369 82.679 29.1431 82.7079 29.2395 82.7079L29.2299 82.6983ZM22.9979 21.9592C23.1908 20.822 23.3741 19.6849 23.5767 18.4418C22.6892 19.2416 21.8885 19.9451 21.1071 20.6679C20.5958 21.7857 20.6247 23.2986 20.316 24.6092C21.1842 23.8286 21.9849 23.1155 22.7856 22.3832C22.8918 22.2868 22.9689 22.1133 22.9979 21.9688V21.9592ZM79.6744 24.6092C79.3656 23.2312 79.3946 21.8917 78.9122 20.6968C78.1212 19.9644 77.3108 19.2513 76.404 18.4322C76.7127 19.8102 76.732 21.1208 77.1661 22.3157C77.9475 23.0866 78.7868 23.8094 79.684 24.6092H79.6744ZM71.3875 80.636C70.4711 81.2335 69.5739 81.8406 68.5706 82.5055C69.6414 82.6693 70.5386 82.6404 71.5805 82.7753C72.14 82.8428 72.6127 82.7753 73.0661 82.4092C73.8282 81.8213 74.5132 81.4551 75.3428 80.8673C73.9151 80.8191 72.6609 80.5204 71.3875 80.636ZM79.52 73.2737C80.2049 72.2715 80.8224 71.3753 81.4205 70.4695C81.4976 69.1975 81.2661 67.9351 81.2179 66.4992C80.5233 67.5207 79.8962 68.4362 79.2788 69.3516C79.192 70.6044 79.4621 71.8764 79.5103 73.2737H79.52ZM18.5506 69.2938C18.5216 69.6889 18.4059 70.1708 18.5795 70.4695C19.1198 71.4042 19.7758 72.2715 20.4704 73.2834C20.4993 71.9535 20.7984 70.4888 20.6729 69.3516C20.0941 68.4169 19.4478 67.5207 18.7725 66.5281C18.6856 67.5303 18.6085 68.4169 18.5506 69.2938ZM11.5854 56.1881C11.6336 56.14 11.6915 56.1014 11.7398 56.0532C11.6144 54.9258 11.7687 53.7019 11.4696 52.6226C10.6786 51.7168 9.88753 50.8109 9 49.8087C9.06753 51.023 9.12541 52.1022 9.19294 53.1719C9.66565 54.1548 10.6496 54.8872 11.3153 55.7641C11.4214 55.8894 11.4986 56.0436 11.5854 56.1881ZM27.2426 80.0289C26.3454 79.2195 25.564 78.516 24.7826 77.8222C23.5767 77.4367 22.1489 77.6005 20.7501 77.4174C22.0911 78.4678 22.9111 80.0193 24.7633 79.9037C25.5351 79.8747 26.3165 79.9808 27.2329 80.0289H27.2426ZM72.8732 79.9133L72.9021 80.0193C74.1466 79.8844 75.4779 79.9808 76.6838 79.7206C77.5038 78.9882 78.3334 78.2462 79.2499 77.4174C77.8125 77.6102 76.4233 77.4174 75.1885 77.8607C74.3974 78.516 73.6449 79.2291 72.8828 79.9133H72.8732ZM80.4365 25.9487C81.1021 26.7678 81.7967 27.5773 82.4816 28.406C82.4238 27.1051 82.5974 25.8138 82.4141 24.5803C81.7292 23.7419 81.0249 22.9035 80.2821 22.0073C80.1664 23.183 80.3014 24.3297 80.2918 25.5054C80.2918 25.6596 80.34 25.833 80.4365 25.9487ZM64.1908 84.5967C65.5125 84.7508 66.9885 85.3001 68.1751 85.1556C69.1591 84.7219 70.0852 84.163 71.1367 83.5945C69.9501 83.4595 68.1558 82.9295 67.2393 82.997C66.2264 83.4692 65.252 84.0281 64.1908 84.5967ZM32.8958 83.0355C32.8186 82.9873 32.7125 82.9392 32.6256 82.9488C31.4101 83.1512 30.1946 83.3632 28.8633 83.5945C29.9245 84.163 30.8699 84.6834 31.8249 85.1748C33.0694 85.2808 34.4489 84.7508 35.8092 84.5967C34.7769 84.0377 33.8412 83.5366 32.8958 83.0355ZM11.6144 46.5131C11.6144 46.5131 11.6819 46.542 11.7205 46.5612C12.6755 45.5301 14.4506 44.8556 14.7207 43.4004C14.8461 42.5428 15.0487 41.7044 15.2513 40.7311C14.2094 41.6948 13.0614 42.3597 12.2607 43.3619C12.0388 44.4123 11.8266 45.4627 11.6144 46.5034V46.5131ZM87.8068 43.7474C87.7586 43.5161 87.7007 43.2366 87.5464 43.1017C86.6685 42.3212 85.752 41.5791 84.7487 40.7408C85.1539 42.5139 85.0188 44.3448 86.8228 45.3759C87.3727 45.6843 87.8165 46.1661 88.2988 46.5709C88.1927 45.5879 88.0094 44.6628 87.7972 43.7474H87.8068ZM78.4202 27.8953C79.6358 28.3 80.9285 28.4349 82.2791 28.7722C81.4108 27.8471 80.8031 26.7485 79.8866 26.045C78.7097 25.7849 77.5327 25.5343 76.2111 25.2548C77.0118 26.2089 77.716 27.0569 78.4299 27.9049L78.4202 27.8953ZM21.3482 28.0013C22.1972 27.4327 22.94 26.1414 23.7793 25.2548C22.3998 25.621 21.0685 25.6789 19.8819 26.1896C19.1487 27.0087 18.4638 27.8567 17.7113 28.7722C18.9847 28.5024 20.1616 28.2614 21.3386 28.0013H21.3482ZM13.0228 60.7848C12.5694 59.5127 12.8588 57.8071 11.6915 56.9205C10.8619 56.2941 10.2348 55.687 9.36659 55.0221C9.71388 56.2556 9.69459 57.5951 10.2541 58.5876C11.132 59.3489 12.0195 60.0813 12.9071 60.8233C12.9456 60.8137 12.9842 60.7944 13.0228 60.7848ZM19.3513 26.18C20.0652 24.9561 19.6021 23.395 19.7275 21.9977C19.004 23.0288 17.7885 23.925 17.4991 25.0332C17.4701 26.1414 17.4894 27.2496 17.4894 28.4445C18.1358 27.664 18.7725 26.9509 19.3513 26.18ZM23.3162 76.9163C22.5445 76.078 21.9174 75.0276 21.0492 74.3048C19.8529 74.0446 18.6471 73.7941 17.3544 73.5146C18.1936 74.3819 18.9365 75.731 19.8336 76.261C20.9816 76.5212 22.1296 76.7621 23.2776 77.0031C23.2873 76.9742 23.3066 76.9356 23.3162 76.9067V76.9163ZM76.6934 76.9163C76.6934 76.9163 76.7224 76.9838 76.732 77.0127C77.9572 76.6851 79.3078 76.5887 80.4751 76.1261C81.1889 75.2878 81.8932 74.4397 82.6649 73.5146C81.2951 73.8712 79.9734 73.9772 78.7675 74.4397C78.0729 75.2588 77.388 76.0972 76.6934 76.926V76.9163ZM87.5174 58.1154C87.3631 59.0116 87.1701 59.8886 86.9579 60.9293C88.0094 59.9849 89.0802 59.2815 89.9292 58.3564C90.1607 57.2771 90.3826 56.1978 90.6431 54.9932C89.7459 55.7449 88.9741 56.4194 88.1541 57.0554C87.7875 57.3445 87.5946 57.6722 87.5174 58.1251V58.1154ZM14.8751 65.2465C14.4988 64.225 14.1322 63.2132 13.7464 62.2013C13.6981 62.0857 13.5438 61.999 13.428 61.9219C12.4151 61.3437 11.4986 60.6595 10.4374 60.168C10.8329 61.2473 11.1899 62.2302 11.5661 63.2228C12.4633 64.0901 13.7464 64.5912 14.7882 65.3236C14.8172 65.3043 14.8558 65.2754 14.8847 65.2561L14.8751 65.2465ZM14.2769 53.2394C14.3638 53.1044 14.3831 52.9021 14.3734 52.7383C14.2866 51.6975 14.4216 50.6471 14.1612 49.6353C13.4473 50.7531 12.5212 51.6879 12.0002 52.8153C12.0485 53.9043 12.1064 54.9836 12.1642 56.217C12.9264 55.1474 13.6113 54.1934 14.2769 53.2297V53.2394ZM40.5169 85.5121C40.5169 85.5121 40.5652 85.4543 40.5845 85.4254C39.9285 84.3943 39.2725 83.3632 38.6165 82.3321C37.4974 81.9466 36.4652 81.4359 35.3075 81.1564C36.0793 82.2742 36.6099 83.4595 37.4299 84.4136C38.4525 84.7894 39.4847 85.1556 40.5073 85.5218L40.5169 85.5121ZM83.4849 36.5681C83.8805 37.6474 84.0927 38.8424 84.604 39.8638C85.6073 40.548 86.6106 41.2322 87.7007 41.9742C87.2569 40.8275 87.0929 39.4013 86.4948 38.5051C85.5301 37.8402 84.5558 37.1752 83.5814 36.52C83.5525 36.5392 83.5139 36.5585 83.4849 36.5778V36.5681ZM15.7144 39.1893C15.9652 38.3027 16.2546 37.4354 16.5633 36.4236C15.4249 37.2813 14.2287 37.8402 13.3219 38.7364C12.9939 39.7771 12.6659 40.8275 12.3186 41.9742C13.2736 41.3286 14.1226 40.7119 15.0101 40.1529C15.396 39.912 15.6082 39.6037 15.724 39.1893H15.7144ZM62.5315 84.4328C63.3901 83.527 63.9111 82.2646 64.6442 81.2335C64.6249 81.2046 64.596 81.1757 64.5767 81.1468C64.2487 81.2624 63.9207 81.4262 63.5831 81.4937C61.9431 81.8213 60.8144 82.7272 60.1487 84.2497C59.9654 84.6737 59.6664 85.0496 59.3576 85.5603C60.5056 85.1459 61.5186 84.7894 62.5315 84.4232V84.4328ZM87.9708 53.9621C87.9901 53.5188 88.1348 52.9695 87.9419 52.6419C87.3341 51.6204 86.5816 50.676 85.8292 49.6257C85.6266 50.5604 85.7134 51.447 85.6459 52.3913C85.6459 52.6612 85.5687 52.9984 85.6941 53.1912C86.3598 54.1934 87.0736 55.1474 87.8358 56.217C87.884 55.369 87.9419 54.6656 87.9708 53.9621ZM86.8711 37.1367C87.1122 35.7683 87.5946 34.5445 87.6621 33.2725C87.1894 32.2799 86.7071 31.2873 86.1765 30.208C85.9932 31.933 84.8838 33.4845 85.8485 35.0648C86.2344 35.6912 86.5141 36.3851 86.8807 37.1367H86.8711ZM14.6049 34.0819C14.5181 32.8099 14.0647 31.5957 13.8139 30.208C13.2833 31.297 12.8009 32.2703 12.3379 33.2532C12.3765 34.5348 12.8878 35.7779 13.1193 37.1367C13.6402 36.067 14.1322 35.0745 14.6049 34.0819ZM85.1249 65.2465C85.1249 65.2465 85.1925 65.2947 85.2214 65.3139C86.3791 64.3888 88.2409 64.0419 88.7233 62.5001C88.9645 61.7291 89.2635 60.9775 89.5915 60.0813C88.4049 60.8619 87.2376 61.3919 86.2536 62.1917C85.8774 63.2035 85.5012 64.225 85.1249 65.2465ZM79.2016 28.7433C79.848 29.678 80.3207 30.8151 81.0828 31.6439C82.2212 32.0775 83.3692 32.4919 84.6136 32.9448C83.9866 31.9233 83.4271 31.0079 82.8579 30.0924C81.8064 29.4082 80.4365 29.1673 79.2692 28.6469C79.2499 28.6758 79.2209 28.7144 79.2016 28.7433ZM18.8304 31.6631C19.6021 30.979 20.1327 29.6106 20.7791 28.724C19.5732 29.0613 18.4252 29.4853 17.2868 29.9189C16.544 30.8055 16.0713 31.8752 15.3574 32.9448C16.6019 32.4823 17.7113 32.0775 18.8304 31.6535V31.6631ZM76.2979 21.1015C75.7866 19.7717 75.584 18.4418 74.9473 17.3143C74.0501 16.7072 73.1529 16.1098 72.1496 15.4449C72.6513 16.7747 72.8442 18.0564 73.4424 19.1838C74.3588 19.8006 75.2753 20.4173 76.2979 21.1015ZM17.9814 70.5369C16.8527 70.1708 15.724 69.8238 14.4313 69.4191C15.1162 70.4309 15.7144 71.3175 16.3318 72.2041C16.4089 72.3197 16.5826 72.3968 16.7273 72.4353C17.856 72.763 18.9172 73.2063 20.0748 73.4279C19.3127 72.445 18.84 71.3079 17.9718 70.5369H17.9814ZM79.9155 73.3701C79.9155 73.3701 79.9638 73.4279 79.9831 73.4568C81.1696 73.0135 82.4913 72.7919 83.6007 72.2233C84.2181 71.3271 84.8259 70.4309 85.5205 69.4191C84.3725 69.872 82.4816 70.1708 81.7002 70.7393C81.1021 71.6162 80.504 72.4835 79.9059 73.3605L79.9155 73.3701ZM82.5009 69.3227C82.8482 68.6 83.1569 67.858 83.5621 67.1738C84.3725 65.6994 83.3016 64.1672 83.128 62.5386C82.6071 63.6083 82.144 64.5527 81.6809 65.5067C81.6231 66.7112 82.2115 68.1085 82.3948 69.342C82.4334 69.342 82.4624 69.3324 82.5009 69.3227ZM18.2515 66.3354C18.3769 65.8632 18.3094 65.4778 18.0779 65.0538C17.6148 64.2057 17.3061 63.4155 16.8334 62.5386C16.6019 63.9359 16.0906 65.1598 16.0809 66.4414C16.5344 67.4147 17.0071 68.3687 17.5376 69.4673C17.7981 68.3205 18.0007 67.3183 18.2515 66.3258V66.3354ZM27.8311 15.4545C27.204 15.8689 26.712 16.2736 26.1525 16.5531C24.3099 17.4107 24.3967 19.3958 23.7021 21.0919C24.744 20.3209 25.8341 19.8198 26.6734 19.0104C27.0593 17.8636 27.4259 16.7169 27.8311 15.4545ZM72.4584 76.5694C71.8409 76.9838 71.3779 77.3789 70.8376 77.6294C68.9468 78.4967 69.0433 80.4626 68.3391 82.2068C69.3906 81.4262 70.5 80.9348 71.32 80.1157C71.6866 78.9785 72.0532 77.8414 72.4584 76.5694ZM31.5452 82.1297C31.5452 82.1297 31.6031 82.0719 31.6224 82.0526C31.1689 80.8769 30.9567 79.5567 30.3682 78.4582C29.4711 77.8511 28.5642 77.2536 27.5513 76.5791C28.0529 77.8993 28.2362 79.2387 28.8633 80.3373C29.7605 80.9348 30.6576 81.5322 31.5548 82.1393L31.5452 82.1297ZM12.9553 38.5822C12.6273 37.3583 12.0485 36.202 11.5854 34.8914C11.2188 36.0478 10.8908 37.0885 10.5628 38.1389C10.8136 39.3724 11.4696 40.5095 11.9231 41.849C12.2993 40.6733 12.6273 39.6229 12.9553 38.5822ZM87.4113 39.7964C87.6718 40.4228 87.8358 41.078 88.0866 41.849C88.5689 40.6155 88.9934 39.5169 89.4179 38.4087C89.4565 38.3027 89.4468 38.1485 89.4179 38.0329C89.1092 37.0211 88.7908 36.0189 88.4339 34.8914C87.9612 36.6163 86.6299 38.0425 87.4306 39.7867L87.4113 39.7964ZM85.8774 62.1146C85.7231 60.8522 85.0864 59.6573 84.7198 58.3082C84.3242 59.532 83.7551 60.5728 83.5332 61.7195C83.9094 62.8759 84.2953 64.0323 84.7101 65.285C85.1249 64.1672 85.5012 63.1457 85.8774 62.1242V62.1146ZM16.4572 61.469C16.0809 60.4475 15.6951 59.426 15.2802 58.2985C14.8944 59.6573 14.3445 60.8233 14.1129 62.0761C14.4892 63.1072 14.8751 64.1383 15.2995 65.2754C15.6661 63.9263 16.3028 62.7313 16.4572 61.469ZM37.3045 84.7894C36.0407 84.9917 34.8445 85.5796 33.4939 85.9554C34.6322 86.3698 35.6741 86.7456 36.716 87.1214C37.9798 86.9094 39.176 86.3216 40.5266 85.9458C39.3882 85.5314 38.3464 85.1556 37.3045 84.7894ZM59.4831 85.9458C60.8336 86.3312 62.0299 86.9191 63.2936 87.1214C64.3355 86.7456 65.3774 86.3698 66.5158 85.9554C65.1652 85.5796 63.9786 84.9917 62.7052 84.7894C61.6633 85.1556 60.6214 85.5314 59.4831 85.9458ZM13.5148 60.7077C14.2287 59.0406 15.6468 57.6047 14.8461 55.6967C14.6725 55.1859 14.6049 54.6367 14.4506 53.9717C13.8525 55.1474 13.3219 56.1881 12.8106 57.2385C12.772 58.3756 13.2447 59.5513 13.4087 60.698C13.4473 60.698 13.4762 60.698 13.5148 60.698V60.7077ZM87.0254 58.7033C87.6428 56.8723 86.1765 55.6389 85.5398 53.9621C85.2021 55.7738 84.3725 57.3638 85.5976 58.9924C85.9642 59.5224 86.2054 60.1391 86.5527 60.8233C86.7167 60.0331 86.8035 59.3393 87.0158 58.7033H87.0254ZM52.5854 31.1717C52.4311 31.1717 52.2767 31.3066 52.132 31.3837C52.3539 31.4993 52.5468 31.6921 52.8073 31.6342C59.8304 31.6342 66.8534 31.6342 73.8765 31.6342C74.1659 31.6921 74.3492 31.5861 74.5421 31.3741C74.3492 31.2006 74.1466 31.1331 73.8861 31.1717C70.3649 31.1717 66.8438 31.1717 63.3226 31.1717C59.7435 31.1717 56.1645 31.1717 52.5758 31.1717H52.5854ZM25.0141 31.3933C25.1974 31.5861 25.3904 31.6728 25.6605 31.6246C32.7221 31.6246 39.7934 31.6246 46.8551 31.6246C47.1445 31.6728 47.2892 31.615 47.4435 31.3451C47.2506 31.1139 46.9998 31.1428 46.72 31.1524C39.5812 31.162 32.4231 31.1235 25.2842 31.162C25.1781 31.191 25.0913 31.3066 25.0045 31.3837L25.0141 31.3933ZM34.912 68.6193C35.0278 68.6 35.1339 68.4458 35.24 68.3494C35.2014 68.3109 35.1725 68.2627 35.1339 68.2242H31.7671C31.7381 68.2724 31.7188 68.3302 31.6899 68.3784C32.1047 68.7542 32.7318 68.5807 32.7125 69.3035C32.7125 71.279 32.7414 73.2544 32.6932 75.2299C32.6739 76.2129 32.452 77.1572 31.1689 77.5909C31.4391 77.7547 31.6031 77.9378 31.7285 77.9185C32.7125 77.7836 33.8894 77.2054 34.1209 76.0201C34.5068 73.8423 34.2656 71.6162 34.3235 69.4191C34.3235 69.0047 34.42 68.6867 34.912 68.6193ZM49.9421 74.0543C50.2508 74.5072 50.4727 75.0179 50.7911 75.4708C51.1769 76.0009 52.0645 76.2032 52.5565 75.972C51.9487 75.1239 51.3313 74.2663 50.7139 73.3894C51.7075 72.763 51.968 72.2426 51.7461 71.4813C51.2927 70.084 48.6976 70.5948 47.4628 70.6044C48.3021 70.8646 48.0899 71.5199 48.0899 72.0788C48.0899 72.9654 48.0899 73.8615 48.0899 74.7481C48.0899 75.2396 48.1092 75.6925 47.4435 75.7503C47.4242 75.7503 47.4049 75.8659 47.3664 75.9816H49.7878C48.6784 75.3938 49.2958 74.4301 49.2765 73.5628C49.5562 73.6881 49.7878 73.8519 49.9421 74.0639V74.0543ZM49.1896 71.2115C49.1896 71.0959 49.4115 70.9128 49.5466 70.9031C50.8586 70.7393 51.0612 73.0424 49.7974 73.2352C49.6238 73.2641 49.4405 73.2544 49.1704 73.2737C49.1704 72.5606 49.1511 71.8861 49.1896 71.2211V71.2115ZM40.4108 71.5102C39.6294 70.1129 36.6871 69.872 36.1179 72.0595C35.9346 72.6859 35.9056 73.3894 35.9635 74.0446C36.1468 76.2032 39.2339 76.7621 40.3144 75.1047C40.98 74.1603 41.0282 72.4932 40.4108 71.5102ZM39.3496 75.0179C37.7289 77.2536 36.8318 73.7266 37.1887 72.3486C37.2176 71.6741 37.6325 71.0091 38.2788 70.7971C39.5233 70.6044 39.4268 72.5606 39.7162 73.3026C39.5908 73.9579 39.5619 74.5168 39.3593 75.0083L39.3496 75.0179ZM58.6052 70.614H56.396C56.6854 70.8646 57.1388 71.0573 57.1678 71.2982C57.2546 72.233 57.2064 73.1774 57.2064 74.1892C56.2995 73.0232 55.4602 71.9246 54.6016 70.826C54.2061 70.3057 53.444 70.6237 52.8845 70.5466C52.8748 70.6044 52.8652 70.6526 52.8555 70.7104C53.2028 70.7779 53.6562 71.2404 53.6948 71.5488C53.7431 72.6281 53.7238 73.717 53.6948 74.8059C53.6948 75.2107 53.6369 75.6443 53.0678 75.7021C53.0195 75.7021 52.9906 75.8563 52.9424 75.9527H55.0358C55.0358 75.9527 55.0647 75.8659 55.084 75.8274C54.8332 75.6925 54.3508 75.4516 54.2833 75.2107C54.1965 74.1796 54.1675 73.1484 54.1193 72.1077C54.1675 72.1077 54.2158 72.0884 54.264 72.0788C55.1901 73.2448 56.0101 74.4879 56.9266 75.6636C57.0713 75.8563 57.3607 75.943 57.708 76.1647C57.708 74.9216 57.6308 73.8905 57.7273 72.869C57.8045 72.0981 57.38 71.1248 58.6148 70.6044L58.6052 70.614ZM47.1059 70.614H45.0028C45.2536 70.8549 45.6781 71.067 45.6974 71.3079C45.7746 72.3101 45.7746 73.3219 45.7167 74.3337C45.6202 75.9912 43.1602 75.7792 43.2664 74.1699C43.2471 73.4954 43.2471 72.8208 43.2664 72.1462C43.276 71.5777 42.9866 70.8646 43.8838 70.6044H41.4624C41.4624 70.6044 41.4141 70.7008 41.3852 70.7489C42.2245 70.7875 42.1184 71.356 42.128 71.8668C42.2245 73.5146 41.6456 76.1069 44.0864 76.0972C46.1798 76.155 46.2569 74.3434 46.2859 72.7437C46.3631 71.9921 45.9386 71.0862 47.1155 70.6237L47.1059 70.614ZM39.6873 64.2443C39.7259 64.331 39.832 64.3985 39.9092 64.4756C40.2372 64.2636 39.9767 63.2806 40.0056 62.9433C38.4139 63.059 36.8704 63.0879 35.2496 62.9144C35.2207 63.377 35.2014 63.8974 35.1725 64.4177C35.24 64.4563 35.2979 64.4948 35.3654 64.5334C35.5391 64.2443 35.6548 63.8781 35.9056 63.695C36.1854 63.4926 36.5906 63.4444 37.0151 63.3095C37.0151 64.9959 37.0247 66.5185 36.9958 68.0507C36.9282 68.3398 36.4555 68.6193 36.1468 68.7156C36.1565 68.7446 36.1758 68.7831 36.1854 68.812H39.1856C39.0024 68.6771 38.9445 68.5904 38.8769 68.5807C38.2692 68.5614 38.1727 68.176 38.1824 67.6749C38.2016 66.268 38.1824 64.8514 38.1824 63.4444C39.1664 63.377 39.3014 63.4637 39.668 64.2539L39.6873 64.2443ZM59.7049 75.2878C59.6856 74.9601 59.8111 74.3916 60.004 74.3241C60.4671 74.1699 61.2099 74.0446 61.4704 74.2856C61.8852 74.671 62.3386 75.3648 61.3932 75.9527H63.776C63.7471 75.837 63.7374 75.7214 63.7085 75.7214C63.1586 75.625 63.0428 75.1721 62.8981 74.7577C62.3096 73.3412 62.0202 71.7511 61.2292 70.4502C61.0748 70.5948 60.8626 70.72 60.7854 70.9031C60.2452 72.233 59.7339 73.5724 59.2129 74.9119C59.0682 75.2878 58.9332 75.6443 58.4412 75.7021C58.3929 75.7021 58.3544 75.8467 58.2965 75.972H60.3416C60.0715 75.6925 59.7242 75.4998 59.7049 75.2878ZM60.7275 72.0884C60.7275 72.0884 60.8144 72.0884 60.8529 72.0884C61.0266 72.6281 61.2002 73.1774 61.3932 73.7652H60.1391C60.3416 73.1774 60.5346 72.6281 60.7275 72.0788V72.0884ZM66.8824 70.5948H64.2487C64.6346 70.8357 64.9819 71.0091 64.9722 71.5295C64.9529 72.6859 64.9722 73.8423 64.9722 74.989C64.9722 75.3648 64.8468 75.6539 64.4031 75.6732C64.3162 75.6732 64.2391 75.7792 64.1619 75.837C64.1812 75.8756 64.1908 75.9141 64.2101 75.943H68.3487C68.4355 75.4805 68.5224 75.0083 68.6092 74.5361C68.5513 74.5072 68.5031 74.4879 68.4452 74.459C68.3487 74.565 68.2329 74.671 68.1654 74.7963C67.7892 75.5094 67.4708 75.6732 66.6605 75.6058C66.2456 75.5672 66.0624 75.413 66.072 74.9698C66.0913 73.9386 66.072 72.9075 66.072 71.8764C66.072 71.3111 66.3453 70.8806 66.892 70.5851L66.8824 70.5948ZM47.4242 68.3109C47.7812 68.8602 48.2539 69.024 48.8906 68.8795C48.4372 68.2434 47.9741 67.5978 47.5111 66.9425C47.7426 66.7787 47.8776 66.692 47.9934 66.586C48.5529 66.0559 48.3889 65.0538 47.6558 64.9188C46.8261 64.7647 45.9579 64.7936 45.1958 64.7454C45.6878 65.7958 45.4659 66.7594 45.5141 67.8484C45.5141 68.2627 45.5527 68.6578 45.0221 68.812H46.8744C46.064 68.3591 46.4113 67.7038 46.3341 67.1545C46.3824 67.116 46.4306 67.0774 46.4788 67.0485C46.9708 67.3376 47.1445 67.858 47.4242 68.3109ZM46.3245 66.7691C46.4306 66.2583 45.9772 64.7454 46.8551 65.0634C47.8101 65.4103 47.6172 67.0389 46.3245 66.7691ZM62.7438 64.8225H60.9108C61.4221 65.0056 61.3739 65.4199 61.3642 65.8054C61.3642 66.48 61.3642 67.1545 61.3642 67.8291C61.3642 68.2145 61.4221 68.6193 60.9398 68.8024H62.7631C62.1071 68.4362 62.1071 68.3976 62.2228 66.9136C62.3193 66.9425 62.3868 66.9522 62.4061 66.9811C63.0139 67.7327 63.5541 69.3516 64.7214 68.7927C64.2005 68.07 63.6506 67.3183 63.12 66.5474C63.0621 66.4703 63.12 66.239 63.2165 66.1523C63.6988 65.6898 64.2005 65.2465 64.6635 64.8225H63.1779C63.3612 64.967 63.4576 65.0441 63.6216 65.179C63.1682 65.6801 62.7534 66.1523 62.3289 66.6341C62.2807 66.5956 62.2325 66.5667 62.1842 66.5281C62.3193 65.9596 61.8562 65.2465 62.7534 64.8225H62.7438ZM53.8299 68.8313C56.3574 69.8142 57.3993 65.5452 55.1033 64.7743C52.5661 64.013 51.7461 68.0411 53.8299 68.8313ZM53.8299 65.4681C53.936 65.2561 54.2351 65.0248 54.4569 65.0152C54.6788 65.0056 55.0358 65.1983 55.1322 65.4007C55.576 66.2969 55.576 67.2605 55.2384 68.1856C55.1612 68.4073 54.8235 68.6675 54.6209 68.6578C54.3701 68.6482 54.0228 68.4169 53.9264 68.1856C53.7141 67.7134 53.6369 67.1738 53.5212 66.7112C53.6369 66.239 53.6755 65.815 53.8492 65.4585L53.8299 65.4681ZM41.0861 67.6556C41.0282 69.3227 43.7391 69.3517 43.9899 67.9544C44.1153 67.4051 44.096 66.8269 44.1249 66.268C44.1442 65.7379 44.0671 65.1887 44.7713 64.8225H43.1506C43.3918 65.0441 43.7198 65.1983 43.7198 65.3718C43.6233 66.2872 44.2021 68.5325 42.8033 68.5229C41.6167 68.494 41.9447 67.01 41.8579 66.2101C41.8579 65.6994 41.6456 65.1019 42.3499 64.8321H40.5845C41.1536 65.0152 41.0282 65.4681 41.0379 65.8536C41.0572 66.4607 41.0475 67.0678 41.0861 67.6653V67.6556ZM59.9654 65.497C60.0426 65.6319 60.1487 65.7476 60.2355 65.8729C60.2838 65.8536 60.3224 65.8343 60.3706 65.815C60.3416 65.4874 60.3127 65.1598 60.2741 64.8321C56.3381 63.695 55.7207 69.4962 59.6953 68.918C60.2548 68.8313 60.496 68.3976 60.3513 67.7134C58.7113 70.3346 57.2932 67.0582 58.3254 65.4778C58.7981 64.7936 59.5313 64.8032 59.9654 65.5067V65.497ZM49.2089 68.812H52.2671C52.3346 68.494 52.4118 68.1567 52.4793 67.8194C52.4214 67.7905 52.3732 67.7616 52.3153 67.7327C52.0452 68.282 51.5435 68.812 50.8586 68.5904C50.4438 68.4554 50.5692 68.1085 50.5595 67.8291C50.5499 67.2605 50.5499 66.692 50.5595 66.1234C50.5595 65.6319 50.3569 65.0538 51.0515 64.8128H49.2379C49.8456 64.9574 49.7202 65.4392 49.7299 65.815C49.7492 66.4318 49.7299 67.0582 49.7299 67.6749C49.7299 68.1182 49.8167 68.6096 49.1993 68.7927L49.2089 68.812ZM50.5692 23.1155C51.0901 23.183 51.1673 23.1348 51.1673 22.6144C51.1673 20.3499 51.1673 18.1045 51.1673 15.84C50.82 15.7725 50.5113 15.7147 50.164 15.6472C50.164 16.794 50.1736 17.9022 50.164 19.0104C50.2412 20.398 49.344 21.3906 48.4275 22.3446C49.0642 22.8361 49.8071 23.0095 50.5788 23.1155H50.5692ZM50 26.0065C54.1868 26.0065 57.5826 22.6433 57.5826 18.4804C57.1871 8.50655 42.8226 8.50655 42.4271 18.4804C42.4271 22.6337 45.8228 26.0065 50.0096 26.0065H50ZM47.6847 13.6717C48.9388 13.585 50.1544 13.7681 51.3602 14.1343C52.4696 14.4812 53.608 14.751 54.4569 13.5079C54.7464 14.8667 53.7624 15.6761 51.6207 15.9363V22.9614C52.8362 22.6144 53.6659 21.8146 54.3991 20.8702C53.9456 23.1348 52.4504 24.3587 50.5306 24.4936C44.5591 24.8887 43.1602 18.384 47.8969 15.2328C47.1348 15.2328 46.4499 15.0401 45.8518 15.4063C45.3019 15.7436 44.8388 16.1965 44.3661 16.5723C44.5784 14.7703 45.9 13.797 47.6944 13.6717H47.6847ZM48.032 21.9784C48.3504 21.6219 48.5047 21.1979 48.5047 20.716C48.5047 18.9236 48.5047 17.1312 48.5047 15.3389C48.4565 15.3196 48.4082 15.3003 48.36 15.281C46.4016 16.7651 45.9579 20.5811 48.032 21.9784ZM48.6301 47.2936C45.8807 47.92 46.4306 53.8946 49.5369 53.1334C52.1802 52.401 51.6496 46.648 48.6301 47.2936ZM51.5339 41.5984C52.6819 39.6229 51.2445 37.3005 48.8906 37.9558V42.6103C49.9904 42.7452 50.984 42.6103 51.5339 41.5984ZM62.1746 38.6593C62.1167 39.0158 62.1649 39.3917 62.1649 39.8928C62.6859 39.8157 63.1393 39.8253 63.5155 39.6711C64.7407 39.0736 63.8821 37.5511 62.5026 37.8402C61.8948 37.9173 62.2132 38.3798 62.1746 38.6689V38.6593ZM42.8129 38.0136C42.5525 39.0158 42.3306 39.8638 42.0991 40.7215H43.5751C43.3242 39.8349 43.0927 38.9966 42.8129 38.0136ZM29.2492 39.8157C29.6061 39.8157 29.8859 39.8446 30.156 39.8157C30.648 39.7482 31.0725 39.5651 31.1496 38.9966C31.2075 38.6015 31.1689 38.1774 30.7638 38.0522C30.3393 37.9076 29.8569 37.9269 29.3939 37.898C29.1045 38.2642 29.3167 39.2375 29.2588 39.8253L29.2492 39.8157ZM24.8308 56.8723H74.7736V33.8699H24.8212V56.8723H24.8308ZM42.8033 54.5885H40.8449V51.0133H37.536V54.5692H35.5391V45.8192H37.5071V49.1438H40.7871V45.8289H42.8033V54.5788V54.5885ZM50.0772 54.7041C44.4144 55.9665 42.8226 47.8718 47.3856 45.9638C50.2122 44.8556 53.4247 46.4167 53.3475 50.2135C53.3282 52.613 52.1127 54.3283 50.0675 54.7137L50.0772 54.7041ZM72.5741 54.5885H66.9595V45.8289H72.3619V47.4285H68.9951V49.2016H72.2075V50.9169H68.9951V52.9503H72.5838V54.5885H72.5741ZM72.2268 37.0018C72.4776 36.0381 72.468 36.0381 73.6546 36.1249C73.3266 36.838 73.0468 37.5222 72.6802 38.1485C72.5934 38.3027 72.2075 38.2931 71.8313 38.3895C71.9953 37.8113 72.1207 37.4065 72.2268 37.0018ZM69.2266 41.0877C67.9339 40.7022 66.3711 39.7193 66.7184 38.3413C66.9113 37.4065 67.7988 36.6356 68.8793 36.5681C69.4967 36.5296 70.1334 36.6067 70.7508 36.6741C71.2139 36.7223 71.484 36.9247 71.2235 37.4547C71.1174 37.6763 71.0885 37.9365 71.0402 38.1004C70.1334 38.11 68.9951 37.5511 68.5127 38.4955C68.4548 38.6785 68.6864 39.0447 68.8889 39.17C69.3134 39.4398 69.8151 39.5844 70.2685 39.806C72.304 40.6444 72.0628 43.3234 69.9694 43.8726C68.8311 44.2099 67.7409 44.0654 66.6315 43.5932C66.7473 43.1114 66.8631 42.6681 66.9499 42.3212C67.8374 42.3693 69.5642 43.2077 69.9115 42.0513C70.0369 41.5117 69.6704 41.2804 69.2459 41.0973L69.2266 41.0877ZM61.1038 36.6549C62.6473 36.6838 65.3774 36.2598 65.7344 38.1774C65.9369 39.1026 65.5993 39.7867 64.5864 40.4709C65.6861 41.3382 65.5318 42.7066 66.0624 43.9208C65.4932 43.9208 65.0108 43.9401 64.5285 43.9016C64.4031 43.9016 64.2391 43.7185 64.2005 43.5835C63.6892 42.3597 64.0268 40.8179 62.1746 41.107V43.8919H60.5056C60.3995 41.6948 60.5056 39.488 60.4574 37.2909C60.4574 36.7994 60.6118 36.6356 61.0941 36.6452L61.1038 36.6549ZM65.6861 46.0505C65.5511 46.5516 65.4256 47.0623 65.2809 47.5923C63.7663 47.2454 62.2711 46.966 61.2774 48.4211C60.4864 49.5775 60.4864 50.9073 61.2967 52.0444C62.2904 53.4321 63.776 53.1912 65.2809 52.8443C65.3774 53.3646 65.4739 53.8754 65.5704 54.3668C56.1066 57.5276 56.3767 43.015 65.6861 46.0505ZM54.7946 36.6838H59.2322V38.0329H56.4635V39.4591H59.0586V40.8757H56.4635V42.5139H59.3384V43.9016H54.7946V36.6934V36.6838ZM54.6885 45.8481H56.6951V54.5981H54.6885V45.8481ZM47.212 37.2042C47.212 37.0307 47.4049 36.7031 47.5014 36.7031C48.7073 36.7031 49.9325 36.6067 51.1191 36.7898C53.0581 37.0885 53.8685 38.8135 53.6659 40.5288C53.3282 44.1521 50.1447 44.0557 47.2024 43.9497C47.2024 41.637 47.1831 39.488 47.212 37.2042ZM40.2275 41.6755C40.6906 40.1529 41.1826 38.6496 41.6264 37.1174C41.7325 36.7416 41.9158 36.626 42.2824 36.6549C42.8419 36.6934 43.5461 36.5103 43.9416 36.7802C44.2986 37.0307 44.3275 37.7534 44.4915 38.2738C45.08 40.1337 45.6588 42.0032 46.2569 43.8919C46.1605 43.9208 46.1412 43.9305 46.1219 43.9401C44.2021 44.1521 44.4433 43.651 43.8548 42.0995H41.8193C41.6842 42.591 41.5299 43.0728 41.4238 43.5546C41.3562 43.863 41.2115 43.969 40.9028 43.9594C40.488 43.9401 40.0828 43.9594 39.5619 43.9594C39.8031 43.1595 40.0153 42.4272 40.2372 41.6948L40.2275 41.6755ZM34.3621 36.6838H38.7805V38.0425H36.0118V39.4591H38.6551V40.866H36.0118V42.5043H38.9541V43.9112H34.3428V36.6838H34.3621ZM28.188 36.6645C29.0659 36.6838 29.9534 36.6163 30.8216 36.6838C32.9922 36.7609 33.7158 39.3627 31.7092 40.4806C32.8089 41.3575 32.6256 42.7548 33.1852 43.9401C32.4906 43.863 31.632 44.2292 31.2751 43.5546C30.812 42.4079 31.0532 40.7504 29.2492 41.1551V43.9016H27.5802C27.5802 41.6755 27.5995 39.4977 27.5706 37.2716C27.5706 36.7994 27.7249 36.6452 28.1784 36.6549L28.188 36.6645ZM27.2426 48.4789C28.188 45.7518 31.5066 45.1254 34.0148 46.012C33.8605 46.5612 33.7254 47.0816 33.5807 47.602C32.0468 47.2358 30.5805 47.0045 29.5386 48.4693C28.8826 49.3847 28.9308 51.0904 29.5579 52.0155C30.2621 53.0466 31.4487 53.3068 33.5711 52.8635C33.6096 53.3646 34.1016 54.1548 33.5904 54.5114C29.5579 55.899 25.564 52.8732 27.2329 48.4789H27.2426ZM50.2122 30.4586L49.7106 28.9167L49.2089 30.4586H47.5786L48.9002 31.4126L48.3986 32.9544L49.7202 32.0004L51.0419 32.9544L50.5402 31.4126L51.8619 30.4586H50.2315H50.2122ZM74.5421 60.0524C74.3492 59.8789 74.1466 59.8115 73.8861 59.85C70.3649 59.85 66.8438 59.85 63.3226 59.85C59.7435 59.85 56.1645 59.85 52.5758 59.85C52.4214 59.85 52.2671 59.9849 52.1224 60.062C52.3442 60.1777 52.5372 60.3704 52.7976 60.3126C59.8207 60.3126 66.8438 60.3126 73.8668 60.3126C74.1562 60.3704 74.3395 60.2644 74.5325 60.0524H74.5421ZM47.4435 60.0331C47.2506 59.8018 46.9998 59.8307 46.72 59.8404C39.5812 59.85 32.4231 59.8115 25.2842 59.85C25.1781 59.8789 25.0913 59.9946 25.0045 60.0717C25.1878 60.2644 25.3807 60.3511 25.6508 60.3029C32.7125 60.3029 39.7838 60.3029 46.8454 60.3029C47.1348 60.3511 47.2795 60.2933 47.4339 60.0235L47.4435 60.0331ZM49.7106 60.6884L51.0322 61.6424L50.5306 60.1006L51.8522 59.1466H50.2219L49.7202 57.6047L49.2186 59.1466H47.5882L48.9099 60.1006L48.4082 61.6424L49.7299 60.6884H49.7106Z" fill="black"/>
</svg>
