<svg width="100" height="100" viewBox="0 0 100 100" fill="none" xmlns="http://www.w3.org/2000/svg">
<path fill-rule="evenodd" clip-rule="evenodd" d="M41.9302 31.54V39.09H41.4902V38.35C40.5402 39.72 38.2802 39.37 37.8402 37.66C37.1102 35.34 39.8402 33.73 41.4902 35.53V31.54H41.9302ZM39.9302 38.79C37.5102 38.79 37.6902 34.91 40.0802 35.19C42.0802 35.39 41.9202 38.75 39.9302 38.79Z" fill="black"/>
<path fill-rule="evenodd" clip-rule="evenodd" d="M77.4997 42.4199V56.6799H75.7697V55.3199C75.1997 56.3699 74.1097 56.7699 72.9897 56.8999H71.8997C67.7197 56.5199 66.5997 50.9299 68.7097 47.8899C70.2797 45.6299 74.0997 45.4299 75.7597 47.6699V42.4199H77.4997ZM69.5097 51.5599C69.3797 45.9699 76.3197 46.5099 75.8197 51.8999C75.6297 56.8399 69.3397 56.4399 69.5097 51.5599Z" fill="black"/>
<path fill-rule="evenodd" clip-rule="evenodd" d="M46.3306 56.9001H45.5206C44.7106 56.7601 44.4306 56.1701 44.3606 55.4001C43.5906 56.3001 42.5006 56.7701 41.3306 56.9101H40.2106C38.4206 56.8001 37.1206 55.5301 37.3506 53.6801C37.5106 51.3201 39.8506 50.9701 41.8806 50.6701C42.3906 50.5901 42.8906 50.5201 43.3206 50.4201C44.4106 50.2601 44.5706 48.9101 43.8906 48.2001C43.3606 47.6501 42.5406 47.6501 41.8206 47.6501H41.7906C40.5506 47.6701 39.4706 48.2301 39.4406 49.6001H37.7506C37.6506 46.7701 40.5806 45.9001 42.9206 46.1501C44.6106 46.1501 46.1706 47.2501 46.0106 49.0701C46.0306 49.8601 46.0206 50.6501 46.0106 51.4401C45.9906 52.6801 45.9806 53.9201 46.0806 55.1501C46.1706 55.4901 46.5606 55.4101 46.8706 55.3501C46.9506 55.3401 47.0206 55.3201 47.0806 55.3101C47.0806 55.4501 47.0806 55.6001 47.0806 55.7401C47.0806 56.0301 47.0806 56.3001 47.0806 56.5801C47.0806 56.6201 47.0106 56.6901 46.9606 56.7101C46.8706 56.7401 46.7706 56.7701 46.6806 56.7901C46.5606 56.8201 46.4306 56.8501 46.3206 56.9001H46.3306ZM39.3106 53.2101C38.5706 55.3601 41.1906 55.7801 42.6706 55.1501C44.4106 54.5501 44.4206 52.9801 44.3306 51.4001C43.7306 51.7201 42.9906 51.8101 42.2406 51.8901C41.0606 52.0201 39.8906 52.1501 39.3106 53.2101Z" fill="black"/>
<path fill-rule="evenodd" clip-rule="evenodd" d="M61.66 56.8999C63.64 56.7599 65.2 55.3299 65.53 53.3699C65.35 53.3699 65.18 53.3699 65.01 53.3699C64.67 53.3699 64.34 53.3699 64 53.3699C63.85 53.3699 63.79 53.4099 63.76 53.5599C63.67 53.9499 63.5 54.3099 63.22 54.6199C62.5 55.4199 61.39 55.4899 60.4 55.3399C58.84 55.1299 57.79 53.5499 57.98 52.0299H65.69C65.71 50.1699 65.26 48.1999 63.74 46.9999C61.57 45.2799 58.02 46.1299 56.82 48.5999C55.13 51.6799 56.55 56.6899 60.5 56.9099H61.68L61.66 56.8999ZM63.8 50.4899H57.94C58.15 46.5799 63.67 46.7999 63.8 50.4899Z" fill="black"/>
<path fill-rule="evenodd" clip-rule="evenodd" d="M42.8101 37.6301C43.1601 39.3001 45.5001 39.7801 46.4701 38.3601V39.1001H46.9001C46.9001 38.2001 46.9001 37.3001 46.9001 36.4101C46.9001 34.7901 46.9001 33.1701 46.8801 31.5601H46.4801C46.4601 32.3201 46.4601 33.0801 46.4701 33.8401C46.4701 34.4101 46.4701 34.9801 46.4701 35.5501C44.8301 33.7601 42.1401 35.3301 42.8101 37.6401V37.6301ZM44.6001 38.7701C42.6001 38.5001 42.7901 35.2101 44.7801 35.1701C47.2301 35.1301 46.9601 39.1001 44.6001 38.7701Z" fill="black"/>
<path fill-rule="evenodd" clip-rule="evenodd" d="M34.1295 56.68C33.8195 56.68 33.5195 56.68 33.2095 56.68C33.1095 56.68 33.0495 56.66 33.0095 56.58C32.7495 55.88 32.7195 55.12 32.6795 54.36C32.6495 53.62 32.6195 52.89 32.3795 52.19C32.1695 51.19 31.3195 50.58 30.3095 50.6C29.7895 50.6 29.2695 50.6 28.7495 50.6C27.7095 50.6 26.6595 50.6 25.6195 50.6V56.68H23.6895V42.42C24.4795 42.42 25.2595 42.42 26.0395 42.42C27.6095 42.42 29.1695 42.41 30.7295 42.42C31.7195 42.42 32.6595 42.67 33.4495 43.3C35.6095 44.95 35.0295 49.14 32.2695 49.8C34.2395 50.21 34.3395 51.88 34.4595 53.58C34.5295 54.71 34.6095 55.85 35.2195 56.67C34.8595 56.68 34.4995 56.68 34.1395 56.67H34.1295V56.68ZM25.6095 44.04V48.96C26.1595 48.9 26.8395 48.93 27.5595 48.96C30.0995 49.06 33.1495 49.18 32.7795 46.04C32.6895 44.87 31.6795 43.97 30.5095 44.04C29.4195 44.03 28.3295 44.04 27.2395 44.04C26.6995 44.04 26.1495 44.04 25.6095 44.04Z" fill="black"/>
<path d="M53.9395 46.34H51.8895V43.27H50.1695V46.35H48.4395V47.87H50.1795C50.1995 48.81 50.1795 49.76 50.1795 50.7C50.1595 52.28 50.1295 53.86 50.2795 55.42C50.5495 56.76 51.9995 56.71 53.1895 56.67C53.4595 56.67 53.7095 56.65 53.9395 56.67V55.15C53.7595 55.13 53.5395 55.14 53.3095 55.15C52.7295 55.18 52.0895 55.22 51.9395 54.67C51.8695 53.34 51.8795 51.99 51.8995 50.65C51.8995 49.72 51.9195 48.79 51.8995 47.86H53.9495V46.34H53.9395Z" fill="black"/>
<path d="M64.9398 38.2501L65.3998 39.4401C65.8798 38.2401 66.3598 37.0601 66.8398 35.8701V35.8501C67.3298 34.6501 67.8098 33.4601 68.2998 32.2601C68.1998 32.2801 68.0598 32.2601 67.9198 32.2601C67.6498 32.2401 67.3498 32.2201 67.2798 32.4001L67.1098 32.8201C66.5398 34.2701 65.9798 35.6801 65.3998 37.1501C64.7398 35.4601 64.0998 33.7901 63.4398 32.0801C62.7698 33.7901 62.1398 35.4501 61.4898 37.1401C61.0498 36.0301 60.6098 34.9201 60.1698 33.8101C59.9898 33.3501 59.8098 32.8801 59.6298 32.4201C59.5798 32.2901 59.5198 32.2401 59.3798 32.2501H58.5898C59.0798 33.4501 59.5598 34.6501 60.0398 35.8401C60.5198 37.0301 60.9998 38.2301 61.4898 39.4301C61.9898 38.1301 62.4898 36.8501 62.9898 35.5701V35.5501L63.4398 34.4001C63.9398 35.7001 64.4398 36.9701 64.9398 38.2601V38.2501Z" fill="black"/>
<path d="M28.5796 32.9898C28.2596 33.7498 27.9496 34.5098 27.6296 35.2698C27.0696 36.6298 26.5096 37.9798 25.9396 39.3398C25.5396 38.1198 25.1496 36.9198 24.7496 35.7098C24.3696 34.5398 23.9896 33.3698 23.5996 32.1998H24.0596C24.6996 34.1398 25.3496 36.0998 25.9996 38.0798C26.3096 37.3198 26.6196 36.5698 26.9296 35.8198C27.4796 34.4898 28.0296 33.1598 28.5896 31.8198C29.4596 33.9098 30.3096 35.9798 31.1896 38.0798L31.4396 37.3298C31.9896 35.6598 32.5296 34.0298 33.0696 32.3498C33.1096 32.1798 33.2496 32.1898 33.3896 32.1998C33.4596 32.1998 33.5196 32.2098 33.5896 32.1998C33.1996 33.3798 32.8096 34.5598 32.4196 35.7498C32.0296 36.9498 31.6296 38.1498 31.2296 39.3598C30.4696 37.5398 29.7296 35.7598 28.9696 33.9498L28.5696 32.9998L28.5796 32.9898Z" fill="black"/>
<path fill-rule="evenodd" clip-rule="evenodd" d="M77.5292 38.1101C75.8592 40.7001 72.4292 38.7201 73.6092 35.8901C74.0692 34.7101 75.6692 34.3901 76.6792 35.0601C77.3892 35.5301 77.4992 36.3501 77.5592 37.1401H74.2592C74.2092 38.4901 75.9592 39.0801 76.6792 37.9201C76.7892 37.6501 76.9692 37.7701 77.2092 37.9201C77.3092 37.9901 77.4192 38.0601 77.5392 38.1101H77.5292ZM76.6592 36.4901H74.3092C74.4092 35.1801 76.5392 35.0701 76.6592 36.4901Z" fill="black"/>
<path fill-rule="evenodd" clip-rule="evenodd" d="M56.9795 40.8899C55.9795 41.4299 54.5495 40.9099 54.4395 39.6899H54.0195C54.0795 41.4699 56.5195 42.0799 57.6595 40.8899C58.0795 40.4699 58.2495 39.9399 58.2595 39.3599C58.2595 38.3599 58.2595 37.3599 58.2595 36.3599C58.2595 35.8599 58.2595 35.3599 58.2595 34.8499H57.8195V35.5299C56.4795 33.8399 53.7595 35.1399 54.0995 37.2299C54.2795 39.1799 56.5895 39.8299 57.8495 38.3699C57.8395 38.5299 57.8295 38.6899 57.8195 38.8499C57.7895 39.6399 57.7495 40.4699 56.9695 40.8699L56.9795 40.8899ZM54.5495 37.2399C54.2195 34.7899 57.6895 34.3899 57.8695 36.7899C57.9995 39.1499 54.9095 39.5399 54.5495 37.2399Z" fill="black"/>
<path fill-rule="evenodd" clip-rule="evenodd" d="M33.6207 35.6599C34.9307 33.8799 37.4207 34.9699 37.3807 37.0299H33.6707C33.5107 38.6799 35.8907 39.5999 36.8607 37.8399C36.9107 37.8699 36.9707 37.8999 37.0207 37.9299C37.0807 37.9699 37.1507 37.9999 37.2207 38.0399C36.8407 38.8499 35.9607 39.2899 35.0907 39.1899C33.4307 39.0799 32.7107 36.9299 33.6307 35.6499L33.6207 35.6599ZM33.6607 36.6099C33.9207 34.7299 36.6307 34.7099 36.9207 36.6099H33.6607Z" fill="black"/>
<path d="M70.7402 34.8798V39.1298H71.5702C71.5902 38.8998 71.5702 38.5798 71.5702 38.2298C71.5202 36.8698 71.4602 34.9998 73.0902 35.7098C73.2102 35.4598 73.3402 35.2198 73.4702 34.9698C72.8602 34.5098 72.0802 34.7498 71.5802 35.5598V34.8898H70.7502L70.7402 34.8798Z" fill="black"/>
<path d="M50.1191 39.09V34.85H50.5191V35.48C50.9391 34.86 51.6391 34.61 52.3491 34.83C52.8591 34.98 53.0891 35.36 53.1591 35.85C53.2491 36.59 53.2391 37.32 53.2291 38.05C53.2291 38.39 53.2291 38.73 53.2291 39.07H52.7891C52.7891 38.7 52.7891 38.33 52.7891 37.96C52.7991 37.27 52.8091 36.59 52.7291 35.9C52.6491 35.35 52.2991 35.17 51.8491 35.16C50.4091 35.15 50.4791 36.68 50.5391 37.97C50.5591 38.39 50.5791 38.78 50.5391 39.09H50.1291H50.1191Z" fill="black"/>
<path d="M68.7207 39.1199H69.5707V34.8599H68.7207V39.1199Z" fill="black"/>
<path d="M48.7108 39.0899H48.3008V34.8599H48.7108V39.0899Z" fill="black"/>
<path d="M68.5508 32.9101C68.5808 33.6501 69.7008 33.6601 69.7308 32.9101C69.7008 32.1801 68.5908 32.1201 68.5508 32.9101Z" fill="black"/>
<path d="M48.4995 33.0698C47.9795 33.0698 47.9895 33.8498 48.4995 33.8498C48.9995 33.8498 49.0095 33.0698 48.4995 33.0698Z" fill="black"/>
<path d="M75.2003 30.7198C75.2003 30.7198 75.1103 30.8098 75.0703 30.8598C63.4603 15.4398 39.9403 14.2798 26.9103 28.5498C26.8503 28.4798 26.8003 28.4198 26.7403 28.3598C26.6803 28.2998 26.6303 28.2298 26.5703 28.1698C39.6403 13.4898 64.1303 15.0398 75.4103 30.4598C75.3603 30.5598 75.2903 30.6398 75.2003 30.7298V30.7198Z" fill="black"/>
<path d="M23.4191 66.85C17.6391 57.83 16.9291 46.07 21.5891 36.43C21.4991 36.34 21.4191 36.25 21.3291 36.14C21.2791 36.09 21.2291 36.03 21.1691 35.96C16.2891 45.91 16.9891 57.97 22.9991 67.25L23.0691 67.19C23.1991 67.07 23.3091 66.97 23.4191 66.85Z" fill="black"/>
<path d="M77.0807 66.44C77.0807 66.44 77.0107 66.36 76.9707 66.32C81.7907 58.39 82.9007 48.29 79.7307 39.54C79.5607 39.16 79.7607 38.96 80.0507 38.73C83.7307 47.65 82.1607 59.61 77.3507 66.75C77.2707 66.65 77.1807 66.55 77.0807 66.44Z" fill="black"/>
<path d="M50.0701 78.3398C50.3701 78.9298 50.6301 79.4698 50.9001 80.0198L50.9201 80.0698C51.3501 80.1398 51.7901 80.1998 52.2301 80.2698L52.7901 80.3498C52.5601 80.6598 52.2801 80.9198 52.0001 81.1798C51.8701 81.2998 51.7401 81.4198 51.6201 81.5398C51.4801 81.6698 51.4601 81.7899 51.5001 81.9799C51.5801 82.3599 51.6401 82.7398 51.7001 83.1398L51.7401 83.3898C51.7501 83.4598 51.7601 83.5198 51.7701 83.5898C51.2901 83.3798 50.8801 83.1499 50.4401 82.9099L50.3101 82.8398C50.1201 82.7298 49.9801 82.7398 49.7901 82.8398L49.6601 82.9099L49.5401 82.9799C49.1501 83.1899 48.7701 83.3898 48.3501 83.5898C48.3501 83.3198 48.4201 83.0498 48.4801 82.7798C48.6201 82.2198 48.7601 81.6798 48.2401 81.2798C48.0201 81.0998 47.8301 80.8898 47.6301 80.6698C47.5301 80.5598 47.4401 80.4598 47.3301 80.3498C47.6101 80.3098 47.9001 80.2598 48.1801 80.2198C48.5201 80.1698 48.8601 80.1198 49.2001 80.0698C49.3901 79.6998 49.5701 79.3298 49.7601 78.9498C49.8601 78.7598 49.9601 78.5598 50.0601 78.3498L50.0701 78.3398Z" fill="black"/>
<path d="M71.2803 73.7299C70.9703 74.0599 70.6603 74.3899 70.3203 74.7099C70.3703 74.3599 70.3803 73.9999 70.4003 73.6499C70.4303 72.9799 70.4703 72.3299 70.6903 71.6999C71.1103 71.2499 71.5303 70.8099 71.9503 70.3699C72.0903 70.2199 72.2203 70.0799 72.3603 69.9399C72.3703 69.9399 72.3803 69.9399 72.4003 69.9399C72.4103 69.9399 72.4203 69.9399 72.4403 69.9399C72.3903 70.2299 72.3703 70.5899 72.3503 70.9799C72.3103 71.7199 72.2703 72.5199 72.0203 72.9499C71.7703 73.1999 71.5303 73.4499 71.2903 73.7099L71.2803 73.7299Z" fill="black"/>
<path d="M25.6401 68.6502C25.6201 69.0502 25.6101 69.4502 25.5801 69.8502C25.5801 70.0102 25.6001 70.1302 25.6901 70.2502C25.8701 70.5002 26.0501 70.7502 26.2201 71.0002C26.5001 71.4102 26.7801 71.8102 27.1001 72.2102C27.1701 71.6802 27.1901 71.1502 27.2101 70.6302C27.2201 70.2902 27.2401 69.9502 27.2601 69.6102C27.2601 69.4302 27.2301 69.2702 27.1201 69.1202C26.9101 68.8402 26.7101 68.5502 26.5101 68.2602C26.2701 67.9102 26.0201 67.5602 25.7601 67.2202C25.7401 67.2202 25.7301 67.2202 25.7101 67.2402C25.6701 67.7002 25.6501 68.1702 25.6301 68.6402L25.6401 68.6502Z" fill="black"/>
<path d="M69.8502 73.4298C69.7802 73.7798 69.7202 74.1298 69.6502 74.4698C69.6502 75.0198 69.3502 75.3798 68.9302 75.6998C68.6802 75.8898 68.4602 76.0898 68.2302 76.2898C67.9902 76.4998 67.7602 76.7198 67.4902 76.9098C67.5702 76.5798 67.6202 76.2198 67.6802 75.8598C67.7802 75.1798 67.8902 74.4898 68.1402 73.9498C68.3702 73.7498 68.6002 73.5498 68.8202 73.3498C69.2202 72.9898 69.6102 72.6398 70.0502 72.3198C69.9702 72.6998 69.9102 73.0598 69.8402 73.4298H69.8502Z" fill="black"/>
<path d="M36.6798 79.1799C36.5798 79.1399 36.4498 79.1399 36.3598 79.1799C36.0498 79.2699 35.7298 79.3399 35.4098 79.4099C34.8498 79.5399 34.2898 79.6599 33.7598 79.8599C34.1098 79.9999 34.4298 80.1599 34.7598 80.3199C35.2198 80.5499 35.6798 80.7699 36.1598 80.9199C36.7098 80.8399 37.2498 80.6899 37.8098 80.5399C38.1898 80.4399 38.5798 80.3299 38.9698 80.2499C38.5198 79.9799 38.0398 79.7799 37.5598 79.5699C37.2698 79.4499 36.9798 79.3199 36.6998 79.1799H36.6798Z" fill="black"/>
<path d="M31.54 77.61C32.18 77.52 32.81 77.43 33.43 77.51C33.69 77.69 33.96 77.85 34.23 78.01C34.68 78.28 35.14 78.56 35.52 78.9C34.99 78.97 34.47 79.01 33.95 79.06C33.64 79.09 33.33 79.12 33.01 79.15C32.78 79.18 32.59 79.15 32.4 79.02C32.11 78.82 31.82 78.64 31.52 78.45C31.18 78.23 30.83 78.02 30.5 77.79C30.5 77.77 30.52 77.75 30.52 77.73C30.86 77.71 31.2 77.66 31.55 77.61H31.54Z" fill="black"/>
<path d="M54.9009 82.13C55.3209 82.35 55.7409 82.56 56.1609 82.8C56.7309 83.06 57.3909 82.89 58.0609 82.72C58.4209 82.63 58.7809 82.54 59.1209 82.52C58.6809 82.19 58.1609 81.94 57.6509 81.68C57.3409 81.52 57.0209 81.37 56.7209 81.19C56.1209 81.15 55.5509 81.28 54.9709 81.41C54.6409 81.48 54.3109 81.56 53.9609 81.61C54.2809 81.79 54.6009 81.96 54.9109 82.12L54.9009 82.13Z" fill="black"/>
<path d="M65.7702 78.05C66.0102 77.89 66.2602 77.73 66.5202 77.57C66.6502 77.49 66.7702 77.45 66.9302 77.46C67.2802 77.51 67.6402 77.53 67.9902 77.56C68.5202 77.6 69.0502 77.65 69.5802 77.75C69.1802 78.05 68.7702 78.31 68.3502 78.57C68.0902 78.74 67.8202 78.9 67.5602 79.08C67.4502 79.15 67.3602 79.19 67.2202 79.18C66.8402 79.13 66.4602 79.1 66.0902 79.07C65.5602 79.02 65.0302 78.98 64.4902 78.89C64.9402 78.59 65.3602 78.32 65.7802 78.05H65.7702Z" fill="black"/>
<path d="M39.0491 79.9598C38.8491 79.4298 38.5691 78.9198 38.2991 78.4198C38.1291 78.1098 37.9591 77.7998 37.8091 77.4898C37.3791 77.1498 36.8591 76.9298 36.3391 76.7198C36.0091 76.5898 35.6791 76.4498 35.3691 76.2798C35.5691 76.8198 35.8491 77.3398 36.1291 77.8598C36.2891 78.1598 36.4491 78.4598 36.5991 78.7598C37.0391 79.0998 37.5491 79.3098 38.0791 79.5298C38.4091 79.6698 38.7391 79.7998 39.0491 79.9698V79.9598Z" fill="black"/>
<path d="M31.0907 76.0099C31.5107 76.3699 31.9407 76.7199 32.3307 77.1099C31.7807 77.1299 31.2407 77.0999 30.7007 77.0599C30.3507 77.0399 30.0007 77.0199 29.6407 77.0099C29.4807 77.0099 29.3707 76.9499 29.2507 76.8399C28.9207 76.5499 28.5807 76.2599 28.2407 75.9599C27.9907 75.7399 27.7307 75.5199 27.4707 75.2899C27.7807 75.2999 28.0907 75.2899 28.4007 75.2899C29.1107 75.2799 29.8207 75.2699 30.4807 75.4799C30.6807 75.6499 30.8807 75.8299 31.0807 75.9999L31.0907 76.0099Z" fill="black"/>
<path d="M73.89 70.9202C74.06 70.6702 74.22 70.4202 74.4 70.1802C74.51 69.6002 74.45 68.8802 74.39 68.1902C74.36 67.8302 74.33 67.4902 74.32 67.1602C73.97 67.5902 73.66 68.0402 73.35 68.5002C73.2 68.7202 73.05 68.9502 72.89 69.1702C72.74 69.7802 72.8 70.4102 72.87 71.0402C72.91 71.4202 72.94 71.8101 72.94 72.2001C73.3 71.8101 73.6 71.3602 73.9 70.9202H73.89Z" fill="black"/>
<path d="M66.8403 74.8702C67.0603 74.7302 67.2803 74.5902 67.5003 74.4502C67.4303 74.6602 67.3503 74.9102 67.2603 75.1902C67.0203 75.9602 66.7403 76.8802 66.4203 77.3002C66.1803 77.4502 65.9503 77.6102 65.7203 77.7602C65.2603 78.0702 64.8103 78.3702 64.3203 78.6302C64.4703 78.2702 64.5803 77.9002 64.6903 77.5402C64.8703 76.9402 65.0503 76.3502 65.3703 75.8202C65.8603 75.5002 66.3503 75.1902 66.8503 74.8702H66.8403Z" fill="black"/>
<path d="M72.1991 73.1298C71.9891 73.3498 71.7891 73.5598 71.5891 73.7798C71.2391 74.1498 70.8891 74.5099 70.5391 74.9099C70.9691 74.8699 71.3691 74.8098 71.7791 74.7498C72.1491 74.6898 72.5191 74.6398 72.8991 74.5998C73.2491 74.5598 73.5191 74.4498 73.7591 74.1798C74.0891 73.7998 74.4391 73.4398 74.8091 73.0598C74.9591 72.9098 75.1091 72.7498 75.2591 72.5898C74.7191 72.6298 74.1991 72.7098 73.6791 72.7898C73.3091 72.8498 72.9491 72.8998 72.5691 72.9498C72.4091 72.9698 72.2991 73.0198 72.1891 73.1298H72.1991Z" fill="black"/>
<path d="M30.2893 73.8998C30.1793 73.3898 30.0693 72.8698 30.0293 72.3398C30.2793 72.5798 30.5493 72.7998 30.8193 73.0198C31.2693 73.3798 31.7093 73.7298 32.0293 74.1898C32.0793 74.5198 32.1593 74.8498 32.2293 75.1898C32.3493 75.7598 32.4793 76.3399 32.5093 76.9099C32.2993 76.6899 32.0093 76.4598 31.7093 76.2198C31.2193 75.8298 30.7093 75.4198 30.4993 75.0098C30.4493 74.6398 30.3693 74.2699 30.2893 73.9099V73.8998Z" fill="black"/>
<path d="M74.0209 71.2099C73.7409 71.5999 73.4609 71.9899 73.2109 72.3999C73.7109 72.2899 74.1909 72.1399 74.6709 71.9899C75.0409 71.8799 75.4009 71.7599 75.7709 71.6699C75.9409 71.6299 76.0409 71.5399 76.1309 71.4099C76.3109 71.1499 76.5009 70.8899 76.6809 70.6299C76.9609 70.2399 77.2409 69.8499 77.5009 69.4399C76.9809 69.5599 76.4809 69.7199 75.9709 69.8699C75.6009 69.9799 75.2309 70.0899 74.8609 70.1899C74.7309 70.2199 74.6509 70.2999 74.5709 70.4099C74.3809 70.6799 74.1909 70.9499 74.0009 71.2199L74.0209 71.2099Z" fill="black"/>
<path d="M38.16 80.9601C38.78 80.7201 39.41 80.4701 40.05 80.3901C40.65 80.5901 41.25 80.8001 41.87 81.0101C42.06 81.0801 42.25 81.1401 42.45 81.2101C42 81.3801 41.55 81.5401 41.11 81.6901C40.73 81.8201 40.35 81.9501 39.96 82.1001C39.46 82.1901 38.83 81.9301 38.23 81.6901C37.88 81.5501 37.55 81.4101 37.25 81.3501C37.25 81.3301 37.25 81.3101 37.25 81.3001C37.55 81.2001 37.86 81.0801 38.17 80.9601H38.16Z" fill="black"/>
<path d="M61.0508 80.2299C61.4608 80.2799 61.8708 80.4099 62.2708 80.5299C63.0408 80.7699 63.8008 81.0099 64.5508 80.6499C64.9308 80.4399 65.3408 80.2599 65.7508 80.0799C65.9308 79.9999 66.1108 79.9199 66.2908 79.8399C65.7708 79.6299 65.2108 79.5099 64.6508 79.3899C64.3208 79.3199 63.9808 79.2399 63.6608 79.1499C63.1208 79.2099 62.5408 79.5099 61.9608 79.7999C61.6508 79.9599 61.3408 80.1199 61.0508 80.2299Z" fill="black"/>
<path d="M57.3799 79.9402C57.1599 80.1802 56.9399 80.4302 56.7199 80.6802C56.6199 80.7902 56.5299 80.8902 56.3699 80.9202C56.0499 80.9702 55.7299 81.0302 55.4199 81.0902C54.9299 81.1902 54.4399 81.2802 53.9199 81.3402C54.2199 81.0302 54.4899 80.7102 54.7499 80.4002C55.1099 79.9702 55.4499 79.5602 55.8699 79.1902C56.4999 79.0002 57.1899 78.8902 57.8699 78.7902C58.0599 78.7602 58.2499 78.7302 58.4299 78.7002C58.1199 79.1402 57.7499 79.5402 57.3899 79.9502L57.3799 79.9402Z" fill="black"/>
<path d="M27.7699 71.5802C27.7999 71.9002 27.8399 72.2202 27.8599 72.5402C27.8799 72.7102 27.9299 72.8502 28.0599 72.9802C28.3699 73.3002 28.6599 73.6002 28.9499 73.9102C29.1999 74.1702 29.4399 74.4302 29.7199 74.7202C29.7099 74.1602 29.6599 73.6102 29.5999 73.0602C29.5699 72.7202 29.5299 72.3702 29.5099 72.0202C29.4899 71.8702 29.4299 71.7502 29.3299 71.6302C29.0999 71.4002 28.8799 71.1702 28.6599 70.9302C28.3399 70.5902 28.0199 70.2502 27.6699 69.9302C27.6699 70.4902 27.7299 71.0402 27.7899 71.5802H27.7699Z" fill="black"/>
<path d="M41.9305 79.9899C42.1205 80.3199 42.3005 80.6499 42.5205 80.9299C42.3205 80.8599 42.0805 80.7899 41.8305 80.7099C41.1605 80.5099 40.3905 80.2799 39.9605 79.9799C39.7105 79.5999 39.4605 79.2199 39.2205 78.8299C38.9705 78.4499 38.7305 78.0699 38.4805 77.6899C38.4805 77.6899 38.5105 77.6599 38.5105 77.6499C38.6705 77.7099 38.8405 77.7599 39.0005 77.8199C39.4005 77.9599 39.8005 78.1099 40.2105 78.2099C41.0505 78.4199 41.5005 79.2099 41.9405 79.9899H41.9305Z" fill="black"/>
<path d="M25.8898 72.7098C25.5098 72.6698 25.1398 72.6298 24.8398 72.5698C25.1398 72.9798 25.4998 73.3498 25.8698 73.7098C26.0998 73.9398 26.3198 74.1598 26.5298 74.3998C27.0898 74.6298 27.6798 74.6898 28.2898 74.7498C28.6798 74.7898 29.0698 74.8298 29.4698 74.9198C29.1798 74.5198 28.8298 74.1598 28.4798 73.8098C28.2498 73.5698 28.0198 73.3398 27.7998 73.0798C27.3298 72.8698 26.5898 72.7898 25.8898 72.7098Z" fill="black"/>
<path d="M42.6294 79.8899C42.2694 79.4999 41.9194 79.1099 41.6094 78.6699C41.9194 78.7599 42.2894 78.8099 42.6694 78.8599C43.2894 78.9499 43.9194 79.0399 44.3294 79.2799C44.5494 79.5599 44.7994 79.8399 45.0594 80.1099C45.4294 80.5099 45.7994 80.8999 46.0794 81.3399C45.7894 81.2599 45.4394 81.2199 45.0894 81.1699C44.4494 81.0899 43.7894 80.9999 43.3594 80.7099C43.1294 80.4199 42.8794 80.1599 42.6394 79.8899H42.6294Z" fill="black"/>
<path d="M25.4301 70.36C25.3501 70.25 25.2501 70.2 25.1201 70.17C24.8101 70.09 24.5001 69.99 24.1901 69.89C23.6601 69.72 23.1301 69.56 22.5801 69.46C22.8301 69.91 23.1401 70.33 23.4401 70.74C23.6201 70.98 23.7901 71.22 23.9601 71.46C24.4601 71.77 25.0901 71.93 25.7201 72.09C26.1001 72.19 26.4801 72.28 26.8301 72.41C26.5901 71.97 26.3001 71.57 26.0001 71.17C25.8001 70.9 25.6101 70.63 25.4301 70.36Z" fill="black"/>
<path d="M64.4602 76.7698C64.2102 77.2298 63.9602 77.6998 63.7502 78.1798C63.4302 78.9598 62.5902 79.2798 61.8002 79.5798C61.5102 79.6898 61.2302 79.7998 60.9902 79.9198C61.0902 79.7198 61.2002 79.4798 61.3202 79.2298C61.6502 78.5298 62.0202 77.7398 62.4202 77.2998C62.9202 77.0698 63.4102 76.8398 63.9102 76.6198C64.1602 76.5098 64.4102 76.3898 64.6502 76.2798L64.6902 76.3198C64.6102 76.4698 64.5302 76.6098 64.4502 76.7598L64.4602 76.7698Z" fill="black"/>
<path d="M57.6096 81.2099C58.1096 81.4299 58.6296 81.5999 59.1396 81.7799C59.4896 81.8999 59.8296 82.0099 60.1696 82.1399C60.2896 82.1799 60.4096 82.1799 60.5296 82.1399C60.8396 82.0299 61.1496 81.9199 61.4596 81.8199C61.9196 81.6699 62.3796 81.5199 62.8296 81.3299C62.3296 81.1199 61.8196 80.9399 61.3096 80.7699C60.9696 80.6499 60.6196 80.5299 60.2796 80.3999C59.7396 80.3999 59.1596 80.6299 58.5896 80.8599C58.2596 80.9899 57.9196 81.1199 57.5996 81.2099H57.6096Z" fill="black"/>
<path d="M34.5003 77.8702C34.2303 77.6902 33.9503 77.5102 33.6703 77.3402C33.5503 77.2502 33.4603 77.1702 33.4203 77.0302C33.3103 76.6902 33.1903 76.3602 33.0703 76.0302C32.8803 75.5202 32.7003 75.0002 32.5703 74.4702C32.9703 74.7102 33.3503 74.9602 33.7303 75.2002C34.0203 75.3902 34.3003 75.5702 34.6003 75.7502C34.7103 75.8202 34.7903 75.8902 34.8403 76.0202C34.9503 76.3802 35.0803 76.7302 35.2003 77.0702C35.3803 77.5802 35.5703 78.0902 35.7103 78.6202C35.2903 78.3802 34.8903 78.1202 34.4903 77.8602L34.5003 77.8702Z" fill="black"/>
<path d="M59.8595 80.1602C59.9995 80.1202 60.0795 80.0302 60.1595 79.9102C60.3495 79.6102 60.5495 79.3102 60.7395 79.0102C61.0295 78.5702 61.3095 78.1302 61.5795 77.6802C61.0695 77.7902 60.5595 77.9802 60.0595 78.1602C59.7795 78.2602 59.4895 78.3702 59.2095 78.4602C58.7895 78.8702 58.4695 79.4002 58.1495 79.9402C57.9495 80.2802 57.7495 80.6102 57.5195 80.9202C57.9995 80.8202 58.4695 80.6502 58.9395 80.4802C59.2495 80.3702 59.5495 80.2602 59.8595 80.1602Z" fill="black"/>
<path d="M42.2697 81.7601C42.5897 81.5901 42.9197 81.4301 43.2297 81.2501C43.3797 81.1701 43.5097 81.1401 43.6797 81.1701C44.0097 81.2501 44.3397 81.3001 44.6697 81.3501C45.1397 81.4301 45.5997 81.5001 46.0597 81.6401C45.7597 81.7701 45.3997 81.9801 45.0397 82.1901C44.4397 82.5401 43.8097 82.9001 43.3397 82.9801C43.0197 82.9101 42.6897 82.8501 42.3597 82.8001C41.8797 82.7201 41.3897 82.6401 40.9297 82.5001C41.3597 82.2301 41.8197 82.0001 42.2697 81.7701V81.7601Z" fill="black"/>
<path d="M67.6992 77.1102C68.2892 77.1402 68.8692 77.1002 69.4492 77.0602C69.7892 77.0402 70.1292 77.0102 70.4792 77.0002C70.5692 77.0002 70.6592 76.9502 70.7292 76.8902C70.9592 76.6802 71.1892 76.4902 71.4292 76.2902C71.8292 75.9602 72.2292 75.6302 72.5792 75.2402C72.3092 75.2502 72.0392 75.2602 71.7892 75.2802C71.1692 75.3102 70.5692 75.3302 69.9192 75.3802C69.4492 75.5102 68.9792 75.9602 68.5092 76.4002C68.2392 76.6602 67.9692 76.9202 67.6992 77.1002V77.1102Z" fill="black"/>
<path fill-rule="evenodd" clip-rule="evenodd" d="M51.41 11H48.6C28.31 11.66 11.78 28.38 11 48.62V51.37C12.65 85.32 53.07 101.52 77.44 77.69C101.6 53.55 85.49 12.49 51.41 11ZM49.36 86.2C29.75 86.29 13.06 68.72 13.82 49.16C14.74 28.47 30.27 13.44 52.65 13.79C60.04 13.92 68.67 17.4 75.7 24.51C98.43 46.81 81.91 86.94 49.36 86.2Z" fill="black"/>
<path d="M70.0905 67.4347L68.351 66.4273L68.1004 66.2822L67.8498 66.4273L66.1103 67.4347L66.5839 65.6374L66.6673 65.3209L66.4106 65.1179L64.9319 63.948L66.9056 63.8087L67.2081 63.7874L67.329 63.5093L68.1004 61.7343L68.8718 63.5093L68.9927 63.7874L69.2952 63.8087L71.2688 63.948L69.7902 65.1179L69.5335 65.3209L69.6169 65.6374L70.0905 67.4347ZM59.1122 61.7301L59.8924 63.5106L60.0137 63.7875L60.3152 63.8087L62.2851 63.9477L60.8009 65.1173L60.5433 65.3202L60.6269 65.6374L61.1005 67.4347L59.361 66.4273L59.1104 66.2822L58.8598 66.4273L57.1203 67.4347L57.5939 65.6374L57.6773 65.3209L57.4206 65.1179L55.9419 63.948L57.9156 63.8087L58.2181 63.7874L58.339 63.5093L59.1122 61.7301ZM28.9757 63.9477L30.9456 63.8087L31.2471 63.7875L31.3684 63.5106L32.1485 61.7301L32.9218 63.5093L33.0427 63.7874L33.3452 63.8087L35.3151 63.9477L33.8309 65.1173L33.5733 65.3202L33.6569 65.6374L34.1298 67.4322L32.4016 66.4277L32.1508 66.2819L31.8998 66.4273L30.1603 67.4347L30.6339 65.6374L30.7175 65.3202L30.4599 65.1173L28.9757 63.9477ZM43.1205 67.4347L41.381 66.4273L41.1299 66.2819L40.8791 66.4277L39.1509 67.4322L39.6239 65.6374L39.7075 65.3202L39.4499 65.1173L37.9657 63.9477L39.9356 63.8087L40.2381 63.7874L40.359 63.5093L41.1322 61.7301L41.9124 63.5106L42.0337 63.7875L42.3352 63.8087L44.3051 63.9477L42.8209 65.1173L42.5633 65.3202L42.6469 65.6374L43.1205 67.4347ZM52.1105 67.4347L50.371 66.4273L50.1199 66.2819L49.8691 66.4277L48.1409 67.4322L48.6139 65.6374L48.6975 65.3202L48.4399 65.1173L46.9557 63.9477L48.9256 63.8087L49.2281 63.7874L49.349 63.5093L50.1222 61.7301L50.9024 63.5106L51.0237 63.7875L51.3252 63.8087L53.2951 63.9477L51.8109 65.1173L51.5533 65.3202L51.6369 65.6374L52.1105 67.4347Z" fill="black" stroke="black"/>
</svg>
