<svg width="100" height="100" viewBox="0 0 100 100" fill="none" xmlns="http://www.w3.org/2000/svg">
<path fill-rule="evenodd" clip-rule="evenodd" d="M80.8203 40.76L80.8503 40.8101L80.8303 40.82C81.3003 40.67 81.8103 40.99 81.7603 41.55C81.6303 41.91 81.3703 42.06 81.0003 42.1C80.3303 42.21 79.6303 42.28 78.9403 42.34L78.7484 42.3581C77.8628 42.4414 76.9824 42.5242 76.1803 42.7201C76.1603 42.8601 76.1303 43.07 76.0903 43.34C75.6403 46.37 74.1703 56.2701 78.1003 52.53C78.2903 52.38 78.4503 52.1401 78.6103 51.9001C78.9103 51.4501 79.2203 50.9901 79.7303 51.0401C80.1903 51.14 80.4003 51.66 80.1203 52.05C76.9203 56.75 73.7503 54.75 74.2003 49.55C73.5803 50.31 72.7503 50.7901 71.7603 50.8101C71.6203 50.8101 71.5503 50.85 71.5103 51C71.0103 54.12 66.8003 55.37 65.6203 52C64.9803 53.25 63.0503 54.4401 62.3003 52.6301C61.9011 51.5321 62.0099 50.3944 62.1197 49.2466L62.1203 49.2401L62.1283 49.1529C62.216 48.202 62.3035 47.2519 62.0803 46.3301C60.6945 47.5364 60.1536 49.2794 59.6152 51.0142L59.6103 51.03C59.3103 52.0201 59.0003 53 58.5403 53.89C58.3903 54.2001 58.1203 54.41 57.7503 54.41C56.8303 54.26 57.0303 53.37 57.2303 52.51C57.3403 52.05 57.4403 51.59 57.3703 51.26C55.7503 55.02 51.7303 53.1501 50.0603 50.4701C49.9803 51.25 49.9103 52.0201 49.8503 52.7901L49.7903 53.4901C49.7703 53.7225 49.7503 53.955 49.7303 54.19C49.7103 54.46 49.3903 54.7201 49.1103 54.7201C48.1567 54.7896 48.5253 51.9483 48.8341 49.568L48.8403 49.5201C49.0103 48.2201 49.1603 47.07 49.0703 46.6C49.0453 46.6301 49.0203 46.6626 48.9953 46.695C48.9703 46.7275 48.9453 46.76 48.9203 46.7901C48.6803 47.1101 48.4503 47.41 48.2003 47.73C47.6703 48.39 46.6503 47.5801 47.1903 46.93C47.9303 46.0401 48.5603 45.0701 49.1903 44.1001L49.3103 43.92C49.5503 43.01 49.6203 41.8501 49.6903 40.6501L49.6934 40.5986C49.8425 38.1332 50.0021 35.4917 51.7003 34.3H52.1103C53.3603 34.87 53.2003 36.4901 53.0803 37.6501C53.0703 37.6901 53.0703 37.73 53.0703 37.7701C52.9107 39.3264 52.2932 40.7335 51.6846 42.1204L51.6803 42.1301C50.9103 43.8801 50.1503 45.6101 50.3103 47.6301C52.0103 46.8701 53.4203 45.6701 54.5303 44.2001C54.7703 43.9501 55.1403 43.9201 55.3903 44.1301C56.3903 45.68 51.8703 48.3 50.6203 48.89C54.7503 55.39 56.4003 50.8301 58.1003 46.1301C58.1403 46.0401 58.1703 45.9501 58.2003 45.8601C58.3103 45.57 58.4603 45.3601 58.7903 45.34C59.7342 45.4394 59.5231 46.3679 59.3242 47.243L59.3203 47.26C59.2203 47.68 59.1303 48.09 59.1703 48.39C59.6903 46.9501 61.7303 43.4501 63.2503 45.73C63.6226 46.7686 63.5246 47.8743 63.4264 48.9814L63.4203 49.05C63.3203 50.08 63.2303 51.11 63.5003 52.1C63.5403 52.27 63.6003 52.2701 63.7503 52.16C64.7412 51.3376 65.1135 50.1617 65.4899 48.9728L65.5348 48.8316C65.8029 47.9872 66.0721 47.1397 66.5803 46.43C66.9903 45.5601 69.2703 44.01 69.0703 45.91C71.1903 44.98 71.8703 47.8601 71.8103 49.46C74.0322 48.8921 74.348 46.1003 74.5976 43.8941L74.6003 43.87C74.6119 43.77 74.623 43.6711 74.634 43.5736C74.67 43.252 74.7043 42.9463 74.7503 42.67C74.1703 42.64 73.5703 42.7001 72.9603 42.7701C71.9503 42.8801 70.9303 42.99 70.0403 42.67C69.6703 42.28 69.9603 41.6 70.5003 41.6C71.0403 41.53 71.6303 41.53 72.2303 41.53L72.3225 41.5291C73.2815 41.5198 74.2339 41.5104 74.9703 41.21C75.0703 40.93 75.0903 40.5401 75.1003 40.1301L75.1005 40.1244C75.1304 39.286 75.1621 38.3998 75.9503 38.2901C76.7503 38.4901 76.6003 39.37 76.4503 40.19L76.4428 40.233C76.3754 40.6172 76.3117 40.9805 76.3503 41.26C77.8603 41.13 79.3403 40.99 80.8203 40.76ZM51.0903 39.39C51.0775 39.5023 51.0657 39.6135 51.0539 39.7244C51.029 39.9592 51.0043 40.1923 50.9703 40.43C51.5203 39.5401 52.0303 36.53 51.7603 35.92C51.3503 37.05 51.2203 38.2201 51.0903 39.39ZM68.6403 46.25C66.0303 47.18 65.7903 54.7801 69.5003 52.1101L69.5103 52.1C69.8203 51.67 70.4003 50.8601 70.1903 50.3801C68.8103 49.6201 67.6603 47.75 68.6403 46.25ZM70.5003 49C70.3903 45.78 68.4503 47.1701 70.4503 49.0201C70.4528 49.0188 70.4551 49.0176 70.4572 49.0164C70.4598 49.015 70.4623 49.0136 70.4646 49.0122C70.4764 49.0054 70.4857 49 70.5003 49Z" fill="black"/>
<path d="M68 69.35L70.78 70.96L70 67.99L72.5 66.02L69.24 65.8L68 62.96L66.76 65.8L63.5 66.02L60.24 65.8L59 62.96L57.76 65.8L54.5 66.02L51.24 65.8L50 62.96L48.76 65.8L45.5 66.02L42.24 65.8L41 62.96L39.76 65.8L36.5 66.02L33.24 65.8L32 62.96L30.76 65.8L27.5 66.02L30 67.99L29.22 70.96L32 69.35L34.78 70.96L34 67.99L36.5 66.02L39 67.99L38.22 70.96L41 69.35L43.78 70.96L43 67.99L45.5 66.02L48 67.99L47.22 70.96L50 69.35L52.78 70.96L52 67.99L54.5 66.02L57 67.99L56.22 70.96L59 69.35L61.78 70.96L61 67.99L63.5 66.02L66 67.99L65.22 70.96L68 69.35Z" fill="black"/>
<path fill-rule="evenodd" clip-rule="evenodd" d="M42.0906 49.7701L42.0306 49.9201C41.4906 51.2001 40.5206 53.4901 38.9106 52.9501C38.8906 52.9201 38.8606 52.89 38.8206 52.8501C38.6606 52.68 38.4306 52.4301 38.6006 52.2701C40.3906 50.6801 41.3306 48.0401 40.7606 45.69C40.5006 44.71 39.5606 44.2801 38.6906 44.73C36.8606 45.84 36.6806 48.4201 36.7606 50.37C36.7806 50.5801 36.8206 50.7901 36.8606 50.98C37.0006 51.6401 37.0906 52.0801 35.9606 52.0301C34.9106 51.5401 35.0506 49.8901 35.1906 48.3101L35.1921 48.2927C35.2816 47.2687 35.3692 46.2664 35.1206 45.62C33.4406 42.5301 31.1006 48.2601 30.6206 49.73C30.7906 48.09 31.4106 46.5 32.0406 44.8901L32.0448 44.8793C32.9335 42.6128 33.83 40.3262 33.4306 37.87C33.2906 36.8601 32.0806 36.43 31.3306 37.09C29.8518 39.0085 29.7807 41.5361 29.7108 44.0242L29.7106 44.03C29.6806 45.3 29.6406 46.5601 29.4206 47.73C29.0106 50.7901 24.7506 54.3601 25.2506 48.7801C25.3498 48.1059 25.3899 47.3728 25.4296 46.6489L25.4306 46.6301C25.5006 45.3401 25.5806 44.0401 25.9606 42.96C26.2706 42.87 26.7406 42.8701 27.2606 42.8801H27.2952C28.417 42.8802 29.6906 42.8803 29.6906 41.93C29.3706 41.2101 28.3706 41.3801 27.4306 41.55L27.4095 41.5537C26.8968 41.6425 26.3956 41.7292 26.0306 41.67C26.0018 41.3534 26.1019 40.9355 26.2073 40.4958L26.2206 40.44C26.4306 39.5801 26.6506 38.6701 25.9606 38.32C25.0713 38.2401 24.9708 39.3683 24.8808 40.3777L24.8806 40.3801C24.8406 40.8701 24.8006 41.3301 24.6706 41.62C23.7309 41.92 22.6312 41.9101 21.5216 41.9001C20.4516 41.8901 19.3706 41.8801 18.4206 42.1501C17.6106 43.5601 19.4306 43.3701 20.8606 43.2201C21.4206 43.1601 21.9206 43.1101 22.1806 43.16L22.1606 43.12C22.3505 43.12 22.5404 43.1095 22.7324 43.0988C22.8639 43.0915 22.9965 43.0841 23.1306 43.0801C23.5306 43.0601 23.9406 43.0401 24.3406 43.03C24.1406 43.7701 23.9506 44.5401 23.7706 45.3201L23.7699 45.323C23.0301 48.4221 22.2499 51.6907 19.8906 53.8201C19.3706 54.1401 19.5906 54.8601 20.1306 55.01H20.3506C22.1056 54.0727 22.8861 52.1213 23.6044 50.3256L23.6106 50.3101C23.7106 50.0601 23.8106 49.8101 23.9106 49.5701C23.6706 53.2001 27.3106 54.2601 29.1706 51.2201V51.8801L29.1698 51.9126C29.1397 53.1444 29.0925 55.0701 30.4406 53.94C30.8606 53.0401 31.1906 52.0801 31.5106 51.12C32.1006 49.37 32.6906 47.6201 33.9006 46.2201C33.9106 46.2201 33.9306 46.2201 33.9406 46.2401C33.9406 46.2401 33.9506 46.2401 33.9606 46.2501C33.9806 46.7101 33.9606 47.2901 33.9306 47.91C33.8106 50.6201 33.6606 54.18 37.1606 53.12C37.314 53.0667 37.434 53.1101 37.5206 53.2501C37.8406 53.7801 38.2506 54.18 38.8606 54.3201C41.2506 54.7201 42.6606 52.0501 43.3506 50.16C43.6306 49.3301 42.3706 48.9501 42.1206 49.7901L42.0906 49.7701ZM31.0106 43.69C31.0306 43.39 31.0506 43.1001 31.0806 42.8101H31.0906C31.1706 42.3401 31.2006 41.8601 31.2306 41.3601L31.2347 41.3003C31.3132 40.1496 31.3927 38.9839 32.0906 38.05C32.1106 38.05 32.1306 38.0501 32.1506 38.0601C32.3906 40.1001 31.6706 42.2201 30.9806 44.1101C30.9806 44.0167 30.9895 43.9234 30.9984 43.8301C31.0028 43.7834 31.0073 43.7367 31.0106 43.69ZM38.1806 50.87C38.1806 50.87 38.1506 50.8701 38.1406 50.8601H38.1206C37.8506 49.5601 38.0406 48.2001 38.4506 46.9501C40.4306 43.2601 39.5906 50.0601 38.1806 50.8801V50.87Z" fill="black"/>
<path fill-rule="evenodd" clip-rule="evenodd" d="M48.6 11H51.41C85.49 12.49 101.6 53.55 77.44 77.69C53.07 101.52 12.65 85.32 11 51.37V48.62C11.78 28.38 28.31 11.66 48.6 11ZM13.82 49.16C13.06 68.72 29.75 86.29 49.36 86.2C81.91 86.94 98.43 46.81 75.7 24.51C68.67 17.4 60.04 13.92 52.65 13.79C30.27 13.44 14.74 28.47 13.82 49.16Z" fill="black"/>
</svg>
