<svg width="100" height="100" viewBox="0 0 100 100" fill="none" xmlns="http://www.w3.org/2000/svg">
<path d="M73.0695 70.0101L69.9795 68.2201L66.8895 70.0101L67.7595 66.7101L64.9895 64.5201L68.6095 64.2701L69.9795 61.1201L71.3495 64.2701L74.9795 64.5201L72.1995 66.7101L73.0695 70.0101Z" fill="black"/>
<path d="M54.9995 64.5201L58.6195 64.2701L59.9895 61.1201L61.3595 64.2701L64.9895 64.5201L62.2095 66.7101L63.0795 70.0101L59.9895 68.2201L56.8995 70.0101L57.7695 66.7101L54.9995 64.5201Z" fill="black"/>
<path d="M44.9995 64.5201L48.6295 64.2701L49.9995 61.1201L51.3695 64.2701L54.9995 64.5201L52.2195 66.7101L53.0895 70.0101L49.9995 68.2201L46.9095 70.0101L47.7795 66.7101L44.9995 64.5201Z" fill="black"/>
<path d="M35.0095 64.5201L38.6395 64.2701L40.0095 61.1201L41.3795 64.2701L44.9995 64.5201L42.2295 66.7101L43.0995 70.0101L40.0095 68.2201L36.9195 70.0101L37.7895 66.7101L35.0095 64.5201Z" fill="black"/>
<path d="M35.0095 64.5201L32.2395 66.7101L33.1095 70.0101L30.0195 68.2201L26.9295 70.0101L27.7995 66.7101L25.0195 64.5201L28.6495 64.2701L30.0195 61.1201L31.3895 64.2701L35.0095 64.5201Z" fill="black"/>
<path d="M20 53.29H79.99V53.85H20V53.29Z" fill="black"/>
<path fill-rule="evenodd" clip-rule="evenodd" d="M80.6394 31.5901L80.6094 31.5401C79.1294 31.7701 77.6494 31.9101 76.1394 32.0401C76.1008 31.7605 76.1645 31.3972 76.2318 31.013L76.2394 30.9701C76.3894 30.1501 76.5394 29.2701 75.7394 29.0701C74.9512 29.1798 74.9195 30.0661 74.8896 30.9044L74.8894 30.9101C74.8794 31.3201 74.8594 31.7101 74.7594 31.9901C74.023 32.2905 73.0706 32.2998 72.1116 32.3092L72.0194 32.3101C71.4194 32.3101 70.8293 32.3101 70.2894 32.3801C69.7494 32.3801 69.4594 33.0601 69.8294 33.4501C70.7194 33.7701 71.7394 33.6601 72.7494 33.5501C73.3594 33.4801 73.9594 33.4201 74.5394 33.4501C74.4933 33.7263 74.4591 34.032 74.423 34.3536C74.4121 34.4511 74.401 34.55 74.3894 34.6501L74.3867 34.674C74.1371 36.8803 73.8213 39.6721 71.5994 40.2401C71.6594 38.6401 70.9794 35.7601 68.8594 36.6901C69.0594 34.7901 66.7794 36.3401 66.3694 37.2101C65.8611 37.9197 65.592 38.7672 65.3238 39.6116L65.279 39.7528C64.9026 40.9417 64.5303 42.1176 63.5394 42.9401C63.3894 43.0501 63.3294 43.0501 63.2894 42.8801C63.0194 41.8901 63.1094 40.8601 63.2094 39.8301L63.2155 39.7614C63.3136 38.6543 63.4117 37.5486 63.0394 36.5101C61.5194 34.2301 59.4794 37.7301 58.9594 39.1701C58.9194 38.8701 59.0094 38.4601 59.1094 38.0401L59.1133 38.023C59.3122 37.148 59.5232 36.2194 58.5794 36.1201C58.2494 36.1401 58.0994 36.3501 57.9894 36.6401C57.9594 36.7301 57.9294 36.8201 57.8894 36.9101C56.1894 41.6101 54.5394 46.1701 50.4094 39.6701C51.6594 39.0801 56.1794 36.4601 55.1794 34.9101C54.9294 34.7001 54.5594 34.7301 54.3194 34.9801C53.2094 36.4501 51.7994 37.6501 50.0994 38.4101C49.9394 36.3901 50.6994 34.6601 51.4694 32.9101L51.4736 32.9004C52.0822 31.5135 52.6997 30.1065 52.8594 28.5501C52.8594 28.5101 52.8594 28.4701 52.8694 28.4301C52.9894 27.2701 53.1494 25.6501 51.8994 25.0801H51.4894C49.7912 26.2718 49.6315 28.9132 49.4825 31.3786L49.4794 31.4301C49.4094 32.6301 49.3394 33.7901 49.0994 34.7001L48.9794 34.8801C48.3494 35.8501 47.7194 36.8201 46.9794 37.7101C46.4394 38.3601 47.4594 39.1701 47.9894 38.5101C48.2394 38.1901 48.4694 37.8901 48.7094 37.5701C48.7344 37.5401 48.7594 37.5076 48.7844 37.4751C48.8094 37.4426 48.8344 37.4101 48.8594 37.3801C48.9494 37.8501 48.7994 39.0001 48.6294 40.3001L48.6232 40.348C48.3144 42.7284 47.9458 45.5696 48.8994 45.5001C49.1794 45.5001 49.4994 45.2401 49.5194 44.9701C49.5394 44.7351 49.5594 44.5027 49.5794 44.2702C49.5994 44.0377 49.6194 43.8051 49.6394 43.5701C49.6994 42.8001 49.7694 42.0301 49.8494 41.2501C51.5194 43.9301 55.5394 45.8001 57.1594 42.0401C57.2294 42.3701 57.1294 42.8301 57.0194 43.2901C56.8194 44.1501 56.6194 45.0401 57.5394 45.1901C57.9094 45.1901 58.1794 44.9801 58.3294 44.6701C58.7894 43.7801 59.0994 42.8001 59.3994 41.8101L59.4043 41.7942C59.9427 40.0594 60.4836 38.3164 61.8694 37.1101C62.0925 38.0319 62.005 38.982 61.9174 39.9329L61.9094 40.0201L61.9088 40.0266C61.799 41.1744 61.6901 42.3122 62.0894 43.4101C62.8394 45.2201 64.7694 44.0301 65.4094 42.7801C66.5894 46.1501 70.7994 44.9001 71.2994 41.7801C71.3394 41.6301 71.4094 41.5901 71.5494 41.5901C72.5394 41.5701 73.3694 41.0901 73.9894 40.3301C73.5394 45.5301 76.7094 47.5301 79.9094 42.8301C80.1894 42.4401 79.9794 41.9201 79.5194 41.8201C79.0094 41.7701 78.6994 42.2301 78.3994 42.6801C78.2394 42.9201 78.0794 43.1601 77.8894 43.3101C73.9594 47.0501 75.4294 37.1501 75.8794 34.1201C75.9194 33.8501 75.9494 33.6401 75.9694 33.5001C76.7715 33.3042 77.6519 33.2214 78.5375 33.1382L78.7294 33.1201C79.4194 33.0601 80.1194 32.9901 80.7894 32.8801C81.1594 32.8401 81.4194 32.6901 81.5494 32.3301C81.5994 31.7701 81.0894 31.4501 80.6194 31.6001L80.6394 31.5901ZM50.8794 30.17C51.0094 29 51.1394 27.8301 51.5494 26.7001C51.8194 27.3101 51.3094 30.3201 50.7594 31.2101C50.7933 30.9723 50.8181 30.7391 50.843 30.5043C50.8547 30.3936 50.8666 30.2821 50.8794 30.17ZM69.2894 42.8901C65.5794 45.5601 65.8194 37.9601 68.4294 37.0301C67.4494 38.5301 68.5994 40.4001 69.9794 41.1601C70.1894 41.6401 69.6094 42.4501 69.2994 42.8801L69.2894 42.8901ZM70.2394 39.8001C68.2394 37.9501 70.1794 36.5601 70.2894 39.7801C70.2747 39.7801 70.2654 39.7854 70.2537 39.7922C70.2494 39.7947 70.2447 39.7974 70.2394 39.8001Z" fill="black"/>
<path fill-rule="evenodd" clip-rule="evenodd" d="M41.8099 40.6901L41.8699 40.5401L41.8999 40.5601C42.1499 39.7201 43.4099 40.1001 43.1299 40.9301C42.4399 42.8201 41.0299 45.4901 38.6399 45.0901C38.0299 44.9501 37.6199 44.5501 37.2999 44.0201C37.2133 43.8801 37.0933 43.8367 36.9399 43.8901C33.4399 44.9501 33.5899 41.3901 33.7099 38.6801C33.7399 38.0601 33.7599 37.4801 33.7399 37.0201C33.7299 37.0101 33.7199 37.0101 33.7199 37.0101C33.7099 36.9901 33.6899 36.9901 33.6799 36.9901C32.4699 38.3901 31.8799 40.1401 31.2899 41.8901C30.9699 42.8501 30.6399 43.8101 30.2199 44.7101C28.8718 45.8401 28.919 43.9144 28.9491 42.6826L28.9499 42.6501V41.9901C27.0899 45.0301 23.4499 43.9701 23.6899 40.3401C23.5899 40.5801 23.4899 40.8301 23.3899 41.0801L23.3837 41.0956C22.6654 42.8913 21.8849 44.8428 20.1299 45.7801H19.9099C19.3699 45.6301 19.1499 44.9101 19.6699 44.5901C22.0292 42.4607 22.8094 39.1921 23.5492 36.093L23.5499 36.0901C23.7299 35.3101 23.9199 34.5401 24.1199 33.8001C23.7199 33.8101 23.3099 33.8301 22.9099 33.8501C22.7757 33.8541 22.6432 33.8615 22.5117 33.8688C22.3197 33.8795 22.1298 33.8901 21.9399 33.8901L21.9599 33.9301C21.6999 33.8801 21.1999 33.9301 20.6399 33.9901C19.2099 34.1401 17.3899 34.3301 18.1999 32.9201C19.1499 32.6501 20.2299 32.6601 21.2999 32.6701C22.4096 32.6801 23.5102 32.69 24.4499 32.3901C24.5799 32.1001 24.6199 31.6401 24.6599 31.1501L24.6601 31.1477C24.7501 30.1383 24.8506 29.0101 25.7399 29.0901C26.4299 29.4401 26.2099 30.3501 25.9999 31.2101C25.9955 31.2287 25.991 31.2472 25.9866 31.2658C25.8812 31.7055 25.7811 32.1234 25.8099 32.4401C26.1749 32.4993 26.6761 32.4125 27.1887 32.3237L27.2099 32.3201C28.1499 32.1501 29.1499 31.9801 29.4699 32.7001C29.4699 33.6503 28.1963 33.6502 27.0745 33.6501H27.0399C26.5199 33.6401 26.0499 33.6401 25.7399 33.7301C25.3599 34.8101 25.2799 36.1101 25.2099 37.4001L25.2089 37.4189C25.1692 38.1428 25.1291 38.8759 25.0299 39.5501C24.5299 45.1301 28.7899 41.5601 29.1999 38.5001C29.4199 37.3301 29.4599 36.0701 29.4899 34.8001L29.4901 34.7942C29.56 32.3061 29.6311 29.7786 31.1099 27.8601C31.8599 27.2001 33.0699 27.6301 33.2099 28.6401C33.6093 31.0962 32.7128 33.3829 31.8241 35.6493L31.8199 35.6601C31.1899 37.2701 30.5699 38.8601 30.3999 40.5001C30.8799 39.0301 33.2199 33.3001 34.8999 36.3901C35.1485 37.0364 35.0609 38.0387 34.9714 39.0627L34.9699 39.0801C34.8299 40.6601 34.6899 42.3101 35.7399 42.8001C36.8699 42.8501 36.7799 42.4101 36.6399 41.7501C36.5999 41.5601 36.5599 41.3501 36.5399 41.1401C36.4599 39.1901 36.6399 36.6101 38.4699 35.5001C39.3399 35.0501 40.2799 35.4801 40.5399 36.4601C41.1099 38.8101 40.1699 41.4501 38.3799 43.0401C38.2099 43.2001 38.4399 43.4501 38.5999 43.6201C38.6399 43.6601 38.6699 43.6901 38.6899 43.7201C40.2999 44.2601 41.2699 41.9701 41.8099 40.6901ZM30.8599 33.5801C30.8299 33.8701 30.8099 34.1601 30.7899 34.4601C30.7866 34.5067 30.7821 34.5534 30.7777 34.6001C30.7688 34.6934 30.7599 34.7867 30.7599 34.8801C31.4499 32.9901 32.1699 30.8701 31.9299 28.8301C31.9099 28.8201 31.8899 28.8201 31.8699 28.8201C31.172 29.7539 31.0925 30.9196 31.014 32.0703L31.0099 32.1301C30.9799 32.6301 30.9499 33.1101 30.8699 33.5801H30.8599ZM37.9199 41.6301C37.9299 41.6401 37.9599 41.6401 37.9599 41.6401V41.6501C39.3699 40.8301 40.2099 34.0301 38.2299 37.7201C37.8199 38.9701 37.6299 40.3301 37.8999 41.6301H37.9199Z" fill="black"/>
<path fill-rule="evenodd" clip-rule="evenodd" d="M87.8404 11.8101H12.1504V87.5001H87.8404V11.8101ZM86.8004 12.8601V86.4501H13.2004V12.8601H86.8004Z" fill="black"/>
</svg>
