<svg width="100" height="100" viewBox="0 0 100 100" fill="none" xmlns="http://www.w3.org/2000/svg">
<path fill-rule="evenodd" clip-rule="evenodd" d="M41.9311 31.5421V39.09H41.4935V38.3544C40.5395 39.7204 38.2815 39.3702 37.8439 37.6627C37.1174 35.3423 39.8394 33.7311 41.4935 35.5349V31.5421H41.9311ZM39.9356 38.7923C37.52 38.7923 37.6951 34.9132 40.0844 35.1934C42.0887 35.3948 41.9224 38.7572 39.9356 38.7923Z" fill="black"/>
<path fill-rule="evenodd" clip-rule="evenodd" d="M77.4994 42.4173V56.6724H75.7665V55.3152C75.1976 56.3659 74.1036 56.7687 72.9833 56.9001H71.8893C67.7058 56.5236 66.5855 50.9283 68.7035 47.8899C70.2702 45.6308 74.0948 45.4294 75.7578 47.671V42.4173H77.4994ZM69.5087 51.5588C69.3774 45.9723 76.3179 46.5064 75.819 51.9003C75.6265 56.8388 69.3424 56.436 69.5087 51.5588Z" fill="black"/>
<path fill-rule="evenodd" clip-rule="evenodd" d="M46.3338 56.9003H45.5548L45.5286 56.9091C44.7146 56.7602 44.4345 56.1735 44.3733 55.403C43.6031 56.3049 42.5091 56.769 41.345 56.9091H40.2248C38.4306 56.804 37.1352 55.5256 37.3628 53.678C37.5236 51.3133 39.8579 50.9666 41.897 50.6637C42.4099 50.5875 42.9042 50.514 43.3405 50.4119C44.4345 50.2543 44.5921 48.9059 43.9094 48.1879C43.375 47.6359 42.5604 47.6361 41.8419 47.6362L41.8089 47.6362C40.5661 47.6537 39.4896 48.2141 39.4633 49.5889H37.7741C37.6779 46.7606 40.6011 45.885 42.9467 46.1389C44.6358 46.1389 46.1937 47.2422 46.0362 49.0635C46.0567 49.8508 46.0465 50.6408 46.0364 51.4309V51.4336C46.0206 52.672 46.0047 53.9115 46.1062 55.1403C46.1977 55.4781 46.5831 55.403 46.8945 55.3423C46.9705 55.3275 47.0421 55.3136 47.104 55.3067C47.104 55.4504 47.1049 55.593 47.1059 55.7351V55.7413C47.1079 56.0213 47.1098 56.2989 47.104 56.5763C47.104 56.6201 47.0339 56.6902 46.9814 56.7077C46.8897 56.7421 46.793 56.7648 46.6964 56.7875C46.5717 56.8168 46.4472 56.8461 46.3338 56.9003ZM39.3145 53.2139C38.5706 55.3592 41.1962 55.7795 42.6754 55.1491C44.417 54.5449 44.4258 52.9775 44.3383 51.4014C43.7427 51.7248 42.9937 51.8073 42.245 51.8898C41.0682 52.0194 39.8922 52.149 39.3145 53.2139Z" fill="black"/>
<path fill-rule="evenodd" clip-rule="evenodd" d="M61.6576 56.9002C63.6356 56.7601 65.1935 55.3329 65.526 53.3715C65.3496 53.3715 65.1771 53.3725 65.0062 53.3734C64.6688 53.3754 64.337 53.3773 63.9944 53.3715C63.8456 53.3715 63.7844 53.4153 63.7494 53.5641C63.6618 53.9581 63.4868 54.3171 63.2067 54.6236C62.489 55.4204 61.3775 55.4905 60.3885 55.3416C58.8306 55.1315 57.7804 53.5554 57.9642 52.0318H65.6748C65.6923 50.1754 65.246 48.2053 63.7231 46.9969C61.5526 45.2807 58.0079 46.1301 56.8001 48.5993C55.111 51.6815 56.5288 56.6901 60.476 56.909H61.6576V56.9002ZM63.8019 50.4907H57.9467C58.1567 46.5854 63.6793 46.8043 63.8019 50.4907Z" fill="black"/>
<path fill-rule="evenodd" clip-rule="evenodd" d="M42.814 37.6277C43.1641 39.3001 45.501 39.773 46.4724 38.3544V39.09H46.9013C46.8982 38.1926 46.9006 37.2942 46.9031 36.3954V36.391C46.9075 34.7742 46.9119 33.1563 46.8838 31.5421H46.4812C46.4612 32.3026 46.464 33.0632 46.4669 33.8237C46.4691 34.3941 46.4712 34.9645 46.4637 35.5349C44.827 33.7487 42.1314 35.316 42.8053 37.6277H42.814ZM44.5995 38.766C42.5952 38.4945 42.7878 35.2022 44.7745 35.1672C47.2251 35.1321 46.9538 39.0987 44.5995 38.766Z" fill="black"/>
<path fill-rule="evenodd" clip-rule="evenodd" d="M34.132 56.6792C33.8252 56.6761 33.518 56.673 33.2132 56.6811L33.2045 56.6899C33.1082 56.6899 33.0469 56.6636 33.0032 56.5848C32.7409 55.8822 32.7089 55.1277 32.6767 54.3695C32.6456 53.6345 32.6142 52.8961 32.373 52.1979C32.163 51.1997 31.314 50.5868 30.2987 50.6043C29.7801 50.6043 29.2605 50.6023 28.7402 50.6004H28.7375C27.6961 50.5965 26.6516 50.5926 25.6076 50.6043V56.6811H23.6821V42.4259C24.4675 42.4259 25.252 42.423 26.0358 42.4201C27.6014 42.4143 29.1645 42.4084 30.7276 42.4259C31.7166 42.4347 32.6531 42.6799 33.4495 43.3016C35.6113 44.9477 35.0249 49.142 32.268 49.7987C34.2337 50.2099 34.343 51.8752 34.4552 53.5825C34.5293 54.7106 34.6046 55.8571 35.2175 56.6723C34.8607 56.6865 34.5014 56.6829 34.1422 56.6792H34.132ZM25.6163 44.0371V48.9581L25.6251 48.9493C26.1719 48.8989 26.8515 48.9258 27.573 48.9544C30.1081 49.0549 33.161 49.1758 32.7931 46.0335C32.7056 44.8602 31.6903 43.967 30.5263 44.0371C29.4352 44.0254 28.3441 44.0293 27.253 44.0332L27.2502 44.0332C26.7056 44.0352 26.1609 44.0371 25.6163 44.0371Z" fill="black"/>
<path d="M53.9392 46.3402H51.8912V43.2668H50.1758V46.349H48.4429V47.8726H50.1846C50.2075 48.8148 50.1936 49.7607 50.1796 50.7071V50.708C50.1564 52.2852 50.1331 53.8644 50.2808 55.4292C50.5523 56.766 51.9963 56.7196 53.1889 56.6814C53.457 56.6728 53.7127 56.6646 53.9392 56.6726V55.149C53.7598 55.1241 53.5378 55.1375 53.3069 55.1514C52.7271 55.1864 52.0915 55.2248 51.935 54.6674C51.8678 53.3326 51.88 51.9917 51.8922 50.65V50.6491C51.9007 49.7207 51.9091 48.7912 51.8912 47.8638H53.9392V46.3402Z" fill="black"/>
<path d="M64.943 38.2531L64.9441 38.256L65.4042 39.4403C65.8869 38.244 66.3652 37.0564 66.8435 35.8688L66.8527 35.8459C67.3341 34.6506 67.8155 33.4554 68.3012 32.2514C68.2027 32.2693 68.0656 32.2588 67.9234 32.2478C67.6487 32.2266 67.3552 32.2039 67.286 32.3828L67.1185 32.8063C66.5468 34.2521 65.9864 35.6693 65.4042 37.1374C64.7478 35.4475 64.1002 33.775 63.4438 32.0676C62.7786 33.775 62.1397 35.4387 61.492 37.1287C61.0476 36.0232 60.6118 34.9134 60.1756 33.8023L60.1744 33.7992L60.1731 33.796L60.1719 33.7929C59.9909 33.3318 59.8097 32.8704 59.6278 32.409C59.5753 32.2777 59.514 32.2252 59.3827 32.2427H58.5951C59.0808 33.4468 59.5623 34.6421 60.0437 35.8375L60.046 35.8431L60.0466 35.8448C60.5269 37.0373 61.0074 38.2304 61.492 39.4315C61.9941 38.1322 62.4911 36.8534 62.9907 35.5676L62.998 35.5488L62.9994 35.5454L63.4464 34.3949C63.9478 35.6922 64.444 36.9692 64.943 38.2531Z" fill="black"/>
<path d="M28.5791 32.9889C28.2619 33.7525 27.9469 34.5126 27.6322 35.2723L27.631 35.2751C27.0706 36.6276 26.5107 37.9791 25.9403 39.3442C25.5411 38.1284 25.1464 36.9215 24.7528 35.718L24.7514 35.7134C24.3688 34.5435 23.9872 33.3768 23.6035 32.2078H24.0673C24.7062 34.1517 25.3539 36.1044 26.0103 38.0833C26.3229 37.3283 26.6332 36.5767 26.9433 35.8257L26.9441 35.8238C27.4933 34.4937 28.0417 33.1653 28.601 31.8226C29.4674 33.9153 30.3251 35.9818 31.2003 38.0833L31.4462 37.3357L31.4469 37.3336L31.4472 37.3324C31.998 35.6575 32.5323 34.0326 33.0733 32.3479C33.1155 32.1731 33.249 32.1851 33.3937 32.198C33.4592 32.2039 33.527 32.21 33.5897 32.1991C33.198 33.3834 32.8107 34.5633 32.4223 35.7464C32.0296 36.9427 31.6358 38.1424 31.2354 39.3529C30.4774 37.5315 29.7321 35.748 28.978 33.9434L28.9775 33.9423L28.5791 32.9889Z" fill="black"/>
<path fill-rule="evenodd" clip-rule="evenodd" d="M77.5262 38.1092C75.8545 40.7011 72.4237 38.7222 73.6052 35.8939H73.5964C74.0603 34.7118 75.6532 34.3966 76.6685 35.0621C77.3774 35.5349 77.4912 36.3492 77.5437 37.1373H74.2441C74.1916 38.4857 75.942 39.0812 76.6685 37.9166C76.7784 37.6476 76.9609 37.767 77.1951 37.9202C77.2964 37.9864 77.4073 38.059 77.5262 38.1092ZM76.6597 36.4893H74.3141C74.4104 35.1759 76.5459 35.0708 76.6597 36.4893Z" fill="black"/>
<path fill-rule="evenodd" clip-rule="evenodd" d="M56.9755 40.894C55.9777 41.4369 54.5424 40.9115 54.4374 39.6944H54.0173C54.0785 41.4719 56.5204 42.0848 57.6582 40.894C58.0783 40.4737 58.2446 39.9396 58.2533 39.3616C58.2591 38.3641 58.2572 37.3665 58.2553 36.3664C58.2543 35.8653 58.2533 35.3636 58.2533 34.8609H57.8157V35.5439C56.4766 33.854 53.7547 35.1499 54.096 37.2426C54.2711 39.1953 56.5816 39.8432 57.842 38.381C57.8285 38.5365 57.8214 38.6976 57.8143 38.8604C57.7796 39.6506 57.7433 40.4786 56.9667 40.8852L56.9755 40.894ZM54.5424 37.2426C54.2098 34.7909 57.6844 34.3881 57.8595 36.7961C57.9907 39.1603 54.9012 39.5455 54.5424 37.2426Z" fill="black"/>
<path fill-rule="evenodd" clip-rule="evenodd" d="M33.6244 35.6576C34.9373 33.8801 37.4229 34.9659 37.3879 37.0236L37.3791 37.0324H33.6682C33.5107 38.6873 35.8913 39.6067 36.854 37.8467C36.9069 37.8752 36.9599 37.9056 37.0146 37.9371C37.0775 37.9732 37.1426 38.0106 37.2128 38.0481C36.8365 38.8537 35.9525 39.3002 35.0861 39.1952C33.4231 39.0813 32.7055 36.936 33.6244 35.6576ZM33.6682 36.6121C33.9308 34.7295 36.6352 34.712 36.924 36.6121H33.6682Z" fill="black"/>
<path d="M70.7421 34.8784V39.1251H71.5736C71.5933 38.8951 71.5825 38.5776 71.5705 38.2261C71.524 36.8647 71.46 34.9916 73.0877 35.7014C73.2102 35.4563 73.3327 35.2111 73.464 34.9572C72.8514 34.4931 72.0724 34.7383 71.5736 35.5438V34.8784H70.7421Z" fill="black"/>
<path d="M50.1232 39.0902V34.8521H50.5258V35.4826C50.9459 34.8609 51.6461 34.6157 52.355 34.8346C52.8627 34.9835 53.0902 35.3687 53.1602 35.8591C53.2502 36.5971 53.2415 37.3269 53.2328 38.0625V38.0726C53.2288 38.4071 53.2247 38.7432 53.2302 39.0814H52.7926C52.7834 38.7104 52.7893 38.3395 52.7951 37.9689C52.8059 37.281 52.8167 36.5945 52.7314 35.9116C52.6526 35.36 52.3025 35.1849 51.8474 35.1674C50.4095 35.1542 50.4778 36.6877 50.535 37.9726C50.5537 38.3925 50.5712 38.786 50.5346 39.0902H50.1232Z" fill="black"/>
<path d="M68.7216 39.125H69.5705V34.8607H68.7216V39.125Z" fill="black"/>
<path d="M48.7055 39.09H48.2942V34.8607H48.7055V39.09Z" fill="black"/>
<path d="M68.5541 32.9082C68.5803 33.6525 69.7006 33.6612 69.7356 32.9082C69.7094 32.1814 68.5978 32.1201 68.5541 32.9082Z" fill="black"/>
<path d="M48.5038 33.0744C47.9874 33.0744 47.9962 33.8537 48.5038 33.8537C49.0027 33.845 49.0114 33.0744 48.5038 33.0744Z" fill="black"/>
<path d="M75.202 30.7221C75.1588 30.766 75.1151 30.8104 75.0755 30.8591C63.4614 15.4394 39.9443 14.2836 26.9123 28.5475C26.8554 28.4818 26.7986 28.4183 26.7417 28.3548C26.6848 28.2914 26.6279 28.2279 26.571 28.1622C39.638 13.4868 64.1266 15.0366 75.4081 30.4563C75.3624 30.5592 75.2832 30.6397 75.202 30.7221Z" fill="black"/>
<path d="M23.4193 66.8562L23.4159 66.8509L23.4193 66.8475V66.8562Z" fill="black"/>
<path d="M23.4159 66.8509C17.6338 57.8327 16.9261 46.0758 21.5901 36.4283C21.5038 36.3362 21.4212 36.2441 21.3276 36.1395C21.2789 36.0852 21.2268 36.027 21.17 35.9642C16.295 45.9113 16.9864 57.9774 22.9992 67.2503L23.0665 67.1867C23.1937 67.0667 23.3049 66.9618 23.4159 66.8509Z" fill="black"/>
<path d="M77.0838 66.4352C77.0485 66.396 77.0122 66.3556 76.9746 66.3133C81.7971 58.3801 82.8998 48.2842 79.7315 39.5367C79.5565 39.1602 79.7578 38.9588 80.0466 38.7224C83.7225 47.645 82.1559 59.606 77.351 66.7423C77.2677 66.6398 77.1798 66.542 77.0838 66.4352Z" fill="black"/>
<path d="M50.071 78.3268L50.0666 78.3356L50.0622 78.3268H50.071Z" fill="black"/>
<path d="M50.0666 78.3356C50.3629 78.9284 50.6265 79.4642 50.8972 80.0144L50.9199 80.0605C51.3538 80.1288 51.7877 80.1926 52.2341 80.2582L52.7929 80.3407C52.5648 80.647 52.2832 80.9079 52.0018 81.1688C51.8728 81.2883 51.7439 81.4078 51.6201 81.5316C51.4801 81.6629 51.4626 81.7855 51.4976 81.9694C51.5741 82.3458 51.6367 82.7269 51.7023 83.1262L51.7441 83.3798C51.7551 83.4461 51.7662 83.513 51.7777 83.5805C51.2989 83.373 50.8856 83.1436 50.445 82.899L50.316 82.8275C50.1235 82.7137 49.9835 82.7312 49.7997 82.8363L49.6704 82.9058L49.5473 82.9722C49.1546 83.1842 48.7818 83.3854 48.3556 83.5805C48.3527 83.3153 48.4213 83.0408 48.4889 82.7706C48.6288 82.2113 48.764 81.6704 48.2505 81.2689C48.0318 81.0914 47.837 80.878 47.6364 80.6583C47.5402 80.5529 47.4425 80.4458 47.3403 80.3407C47.6253 80.2972 47.9068 80.2554 48.187 80.2138C48.5265 80.1634 48.8642 80.1133 49.2045 80.0605C49.3943 79.6865 49.5766 79.32 49.7662 78.9387L49.7679 78.9353L49.7683 78.9344C49.8651 78.7399 49.9641 78.5408 50.0666 78.3356Z" fill="black"/>
<path d="M71.2774 73.726C70.9693 74.0572 70.6617 74.3879 70.3148 74.7102C70.36 74.357 70.3782 74.0038 70.3963 73.6534C70.4306 72.9876 70.4644 72.3322 70.6823 71.7068C71.0973 71.2587 71.5173 70.8204 71.9385 70.3809L71.9429 70.3763C72.0799 70.2334 72.2169 70.0904 72.354 69.9468C72.3671 69.9468 72.378 69.9512 72.389 69.9556C72.3999 69.9599 72.4109 69.9643 72.424 69.9643C72.376 70.2499 72.3578 70.617 72.3387 71.0023C72.3023 71.7391 72.2625 72.5422 72.0039 72.9677C71.7496 73.2184 71.5134 73.4723 71.2774 73.726Z" fill="black"/>
<path d="M25.6351 68.646C25.618 69.0484 25.6009 69.4505 25.5726 69.8508C25.5638 70.0084 25.5901 70.131 25.6776 70.2536C25.8615 70.5045 26.0364 70.7566 26.2111 71.0086L26.2122 71.01L26.2128 71.0108C26.495 71.4177 26.7769 71.8241 27.0955 72.2238C27.1699 71.6916 27.1894 71.166 27.209 70.6389C27.2216 70.2987 27.2343 69.9579 27.2618 69.6144C27.2705 69.4305 27.2355 69.2729 27.1217 69.1241C26.9126 68.8438 26.7123 68.5563 26.5122 68.269C26.2684 67.9191 26.0247 67.5693 25.7651 67.2327C25.7476 67.2327 25.7301 67.2415 25.7126 67.2502V67.2415C25.6749 67.708 25.655 68.1772 25.6351 68.646Z" fill="black"/>
<path d="M69.8484 73.4338C69.7827 73.784 69.7179 74.129 69.649 74.474C69.649 75.0256 69.3514 75.3846 68.9313 75.6998C68.6841 75.8875 68.4597 76.0897 68.2349 76.2922C67.9981 76.5055 67.7608 76.7194 67.4959 76.917C67.5726 76.5885 67.6278 76.2288 67.6838 75.8643C67.7874 75.1892 67.8935 74.4975 68.1436 73.9574C68.3773 73.7614 68.6031 73.5598 68.8282 73.3587L68.8301 73.357L68.8309 73.3564L68.832 73.3555C69.2295 73.0004 69.6254 72.6467 70.0603 72.3287C69.9848 72.7064 69.9161 73.0729 69.8484 73.4338Z" fill="black"/>
<path d="M36.6789 79.1762C36.5826 79.1324 36.4513 79.1412 36.355 79.1675C36.0415 79.253 35.7245 79.3248 35.4078 79.3965C34.8494 79.523 34.2918 79.6493 33.7556 79.8504C34.102 79.9912 34.4305 80.1513 34.7547 80.3093C35.2169 80.5346 35.6702 80.7556 36.1537 80.9099C36.7023 80.8323 37.2477 80.6842 37.7992 80.5345C38.1804 80.4311 38.5645 80.3268 38.9544 80.2445C38.5062 79.9765 38.0273 79.77 37.5475 79.5632C37.259 79.4388 36.9702 79.3143 36.6876 79.1762H36.6789Z" fill="black"/>
<path d="M31.5449 77.6059C32.1809 77.518 32.8198 77.4297 33.4329 77.5036C33.6886 77.6806 33.959 77.8442 34.2299 78.0081C34.6822 78.2817 35.136 78.5563 35.5247 78.8958C34.993 78.9616 34.4717 79.0102 33.9499 79.0589L33.9486 79.059C33.6378 79.088 33.3262 79.1171 33.0128 79.1497C32.7852 79.176 32.5927 79.1497 32.4001 79.0184C32.1115 78.8232 31.8153 78.6355 31.5186 78.4475C31.1766 78.2308 30.8336 78.0134 30.5009 77.7838C30.5097 77.7662 30.5184 77.74 30.5184 77.7225C30.8566 77.7009 31.2004 77.6534 31.5449 77.6059Z" fill="black"/>
<path d="M54.9044 82.1282C55.3242 82.3454 55.7398 82.5604 56.1613 82.8013C56.728 83.0622 57.3939 82.8934 58.0567 82.7254C58.4174 82.6339 58.7771 82.5427 59.1195 82.5211C58.6746 82.1954 58.1623 81.9404 57.6496 81.6851C57.3353 81.5286 57.0207 81.372 56.7214 81.199C56.1223 81.1597 55.5519 81.289 54.9666 81.4215C54.6369 81.4962 54.3026 81.5719 53.9557 81.6193V81.628C54.2765 81.8034 54.591 81.9661 54.9031 82.1276L54.9044 82.1282Z" fill="black"/>
<path d="M65.7655 78.0478L65.768 78.0462C66.0124 77.8893 66.2588 77.7312 66.5147 77.5648C66.646 77.486 66.7685 77.4422 66.926 77.4597C67.2791 77.5052 67.6336 77.5339 67.9879 77.5626C68.5204 77.6057 69.0523 77.6488 69.5779 77.7487C69.1772 78.0481 68.7633 78.3083 68.3484 78.5692C68.0837 78.7356 67.8186 78.9023 67.5562 79.0796C67.4511 79.1497 67.3549 79.1934 67.2148 79.1759C66.8312 79.1289 66.455 79.0968 66.0802 79.0648C65.5487 79.0194 65.0194 78.9743 64.4754 78.887C64.9244 78.5875 65.3418 78.3196 65.7655 78.0478Z" fill="black"/>
<path d="M39.0504 79.9552C38.8497 79.4234 38.5751 78.9186 38.3016 78.4157C38.1336 78.107 37.9661 77.799 37.8163 77.4859C37.3866 77.142 36.868 76.93 36.3453 76.7164C36.0162 76.5819 35.6855 76.4467 35.3745 76.2776C35.5745 76.8225 35.8558 77.3391 36.1375 77.8567C36.2994 78.1541 36.4616 78.452 36.6085 78.7556C37.0438 79.0943 37.5617 79.3076 38.085 79.5231C38.4139 79.6586 38.745 79.795 39.0591 79.9639L39.0504 79.9552Z" fill="black"/>
<path d="M31.0866 76.0138C31.5104 76.3712 31.9319 76.7266 32.3293 77.1183C31.7828 77.1395 31.2428 77.106 30.7014 77.0725C30.3497 77.0507 29.9974 77.0288 29.6424 77.022C29.4849 77.0132 29.3711 76.9607 29.2573 76.8556C28.9251 76.5635 28.587 76.2714 28.2432 75.9743L28.2423 75.9735C27.9888 75.7544 27.7317 75.5323 27.4719 75.3057C27.7809 75.3189 28.0907 75.3146 28.3989 75.3103C29.112 75.3003 29.8165 75.2905 30.4826 75.4984C30.6828 75.6732 30.8851 75.8439 31.0866 76.0138Z" fill="black"/>
<path d="M73.8883 70.9218C74.0551 70.6735 74.2225 70.4244 74.4008 70.1833C74.5106 69.5996 74.4488 68.8862 74.389 68.1966C74.3582 67.8415 74.328 67.4926 74.3221 67.1712C73.9691 67.6008 73.6597 68.0541 73.3485 68.5099L73.348 68.5107C73.1964 68.7328 73.0444 68.9555 72.8867 69.1763C72.739 69.7895 72.7999 70.4129 72.8621 71.0487C72.8993 71.4299 72.937 71.8155 72.9305 72.206C73.2902 71.8123 73.5887 71.3679 73.8883 70.9218Z" fill="black"/>
<path d="M66.8354 74.8714C67.0528 74.7319 67.2725 74.591 67.4954 74.4476C67.4229 74.6535 67.3435 74.9119 67.2578 75.1911L67.2575 75.1921C67.0224 75.9576 66.7394 76.8789 66.4189 77.3022C66.18 77.4527 65.947 77.6092 65.7146 77.7652C65.2576 78.0722 64.8027 78.3777 64.3096 78.6331C64.4551 78.2727 64.5668 77.9047 64.6774 77.5406C64.8595 76.9407 65.0386 76.3508 65.3599 75.8224C65.8478 75.5051 66.3357 75.1921 66.8354 74.8714Z" fill="black"/>
<path d="M72.1965 73.1253C71.9908 73.3472 71.7863 73.5596 71.5826 73.7712L71.5813 73.7725C71.2306 74.1367 70.882 74.4988 70.5336 74.9028C70.9607 74.8661 71.3685 74.8028 71.776 74.7396C72.1451 74.6823 72.514 74.6251 72.8966 74.5876C73.2467 74.5526 73.518 74.4388 73.7544 74.1673C74.0867 73.7909 74.4371 73.4279 74.8087 73.043L74.8099 73.0417C74.9565 72.8898 75.1064 72.7345 75.2597 72.5737C74.7209 72.6148 74.2031 72.695 73.6834 72.7755C73.3169 72.8323 72.9492 72.8892 72.5728 72.9327C72.4153 72.9502 72.3015 73.0027 72.1965 73.1166V73.1253Z" fill="black"/>
<path d="M30.0284 72.3381L30.0276 72.3287H30.0189L30.0284 72.3381Z" fill="black"/>
<path d="M30.2916 73.8965C30.1834 73.3826 30.075 72.8677 30.0284 72.3381C30.2756 72.5807 30.5483 72.7978 30.8197 73.0137C31.2676 73.3702 31.7119 73.7238 32.0319 74.185C32.0865 74.5159 32.1576 74.848 32.2287 75.1805C32.3515 75.754 32.4745 76.3285 32.5132 76.8995C32.2993 76.6756 32.0099 76.4455 31.7139 76.2102C31.2227 75.8196 30.7132 75.4146 30.5002 74.9994C30.4458 74.6289 30.3687 74.2629 30.2916 73.8965Z" fill="black"/>
<path d="M74.0166 71.2122C73.7388 71.6008 73.4611 71.989 73.2019 72.3987C73.6989 72.2843 74.1789 72.1361 74.6597 71.9877L74.6614 71.9872C75.0267 71.8744 75.3925 71.7614 75.7663 71.6632C75.9326 71.6194 76.0376 71.5318 76.1252 71.4005C76.3057 71.1365 76.4903 70.8795 76.6747 70.6227C76.9552 70.2322 77.2353 69.8424 77.4993 69.4303C76.9831 69.5518 76.4787 69.7055 75.9741 69.8593C75.6059 69.9715 75.2377 70.0836 74.8649 70.1834C74.7336 70.2184 74.6548 70.2972 74.576 70.4023H74.5848C74.3993 70.6771 74.2078 70.9448 74.0166 71.2122Z" fill="black"/>
<path d="M38.1592 80.9646C38.7813 80.7214 39.4112 80.4751 40.0489 80.3932C40.6515 80.5941 41.249 80.8002 41.8727 81.0153L41.8778 81.0171C42.0677 81.0826 42.2601 81.149 42.4557 81.2162C42.0033 81.3907 41.5585 81.5448 41.1131 81.6992L41.1122 81.6995C40.7307 81.8317 40.3488 81.964 39.9613 82.1094C39.4657 82.1985 38.8354 81.9438 38.2305 81.6993C37.8848 81.5596 37.5474 81.4232 37.2482 81.3563C37.2394 81.3388 37.2394 81.3213 37.2394 81.3038C37.5436 81.2053 37.8498 81.0856 38.1578 80.9651L38.1592 80.9646Z" fill="black"/>
<path d="M61.0549 80.2269C61.4695 80.2746 61.8749 80.4027 62.2746 80.529C63.0479 80.7732 63.7999 81.0108 64.5558 80.6472C64.9399 80.4397 65.3454 80.262 65.7572 80.0815C65.9365 80.003 66.117 79.9239 66.2974 79.8416C65.7762 79.633 65.2172 79.5105 64.657 79.3876C64.3236 79.3145 63.9895 79.2413 63.663 79.1498C63.125 79.2065 62.5392 79.5052 61.9675 79.7967C61.6559 79.9557 61.3482 80.1126 61.0549 80.2269Z" fill="black"/>
<path d="M57.3773 79.9404C57.1556 80.184 56.9333 80.4281 56.7222 80.6822C56.6259 80.7872 56.5297 80.8923 56.3721 80.9186C56.0482 80.9698 55.7322 81.0316 55.4174 81.0931C54.9243 81.1896 54.4343 81.2854 53.9215 81.3389C54.2234 81.0258 54.4881 80.7081 54.7469 80.3975C55.1034 79.9696 55.4487 79.5552 55.8645 79.1849C56.4944 78.9931 57.1832 78.887 57.8598 78.7828C58.048 78.7538 58.2353 78.725 58.4201 78.6945C58.1093 79.1365 57.744 79.5377 57.3773 79.9404Z" fill="black"/>
<path d="M27.7746 71.5789C27.8092 71.8985 27.8439 72.218 27.8665 72.5386C27.884 72.705 27.9365 72.8451 28.0678 72.9764C28.3808 73.2943 28.6655 73.5967 28.9553 73.9046C29.2004 74.165 29.4493 74.4293 29.722 74.7102C29.7112 74.1504 29.6575 73.6038 29.6034 73.0542C29.5695 72.7097 29.5355 72.3641 29.5119 72.0133C29.4944 71.8644 29.4332 71.7418 29.3281 71.628C29.0967 71.4 28.8768 71.1648 28.6574 70.9299C28.3374 70.5876 28.0182 70.2461 27.6652 69.9293L27.6565 69.938C27.6565 70.4897 27.7155 71.0345 27.7746 71.5789Z" fill="black"/>
<path d="M42.5168 80.924L42.5261 80.9359V80.9272L42.5168 80.924Z" fill="black"/>
<path d="M41.9295 79.9888C42.1175 80.3203 42.3033 80.6479 42.5168 80.924C42.3152 80.8547 42.0756 80.7827 41.8219 80.7066C41.149 80.5045 40.377 80.2728 39.9529 79.9815C39.7035 79.6006 39.4562 79.2175 39.209 78.8344L39.2083 78.8334L39.2076 78.8323C38.9608 78.4499 38.714 78.0675 38.4651 77.6874C38.4738 77.6786 38.4913 77.6611 38.5001 77.6436C38.6629 77.6996 38.8258 77.7586 38.9891 77.8177L38.9903 77.8181C39.3882 77.9622 39.7887 78.1073 40.198 78.2127C41.0399 78.4202 41.4906 79.215 41.9295 79.9888Z" fill="black"/>
<path d="M25.8946 72.7141C25.515 72.6725 25.1484 72.6323 24.8462 72.5737C25.1438 72.9851 25.5082 73.3496 25.8734 73.7149C26.099 73.9405 26.3248 74.1664 26.5354 74.4037C27.0959 74.6334 27.689 74.6937 28.2969 74.7554C28.6855 74.7949 29.0801 74.835 29.4761 74.9204C29.182 74.5158 28.8343 74.1617 28.4861 73.8069C28.2539 73.5705 28.0215 73.3337 27.8044 73.0815C27.3341 72.8718 26.5921 72.7905 25.8946 72.7141Z" fill="black"/>
<path d="M42.6277 79.885C42.2723 79.494 41.9181 79.1043 41.607 78.6684C41.9158 78.7548 42.2865 78.8072 42.6634 78.8604C43.2797 78.9474 43.9128 79.0369 44.3201 79.2814C44.5438 79.5655 44.7949 79.8367 45.0458 80.1079C45.4134 80.505 45.7809 80.902 46.0618 81.3391C45.7696 81.2613 45.4266 81.2167 45.0759 81.1711C44.4394 81.0883 43.7775 81.0022 43.3486 80.7086C43.1171 80.4235 42.8724 80.1543 42.6283 79.8857L42.6277 79.885Z" fill="black"/>
<path d="M25.4325 70.3587C25.3538 70.2449 25.2487 70.2011 25.1262 70.1661C24.8144 70.0825 24.5061 69.9859 24.1979 69.8893C23.667 69.7229 23.1363 69.5566 22.5881 69.4568C22.8382 69.9074 23.1449 70.3225 23.452 70.7383C23.6284 70.9771 23.8049 71.2161 23.9709 71.462C24.4661 71.7723 25.0999 71.9337 25.7273 72.0934C26.109 72.1906 26.4886 72.2873 26.8329 72.4164C26.597 71.9812 26.3015 71.5806 26.0066 71.1806C25.809 70.9126 25.6116 70.645 25.4325 70.3675V70.3587Z" fill="black"/>
<path d="M64.4584 76.7724C64.2076 77.2364 63.9562 77.7014 63.7503 78.1866H63.759C63.4438 78.9655 62.6035 79.2854 61.8084 79.588C61.522 79.6971 61.2414 79.8039 60.9934 79.9291C61.0972 79.726 61.2077 79.4893 61.3242 79.24C61.6493 78.544 62.0204 77.7494 62.42 77.311C62.916 77.0775 63.412 76.8517 63.9081 76.626C64.156 76.5131 64.4039 76.4003 64.6518 76.2865L64.6955 76.3303C64.6175 76.4779 64.5379 76.6252 64.4584 76.7724Z" fill="black"/>
<path d="M57.6139 81.2077C58.1127 81.4284 58.6305 81.6017 59.1483 81.7751C59.4934 81.8907 59.8386 82.0063 60.1782 82.1359C60.3008 82.1796 60.4145 82.1796 60.5371 82.1359C60.8481 82.0227 61.1592 81.9195 61.4697 81.8165C61.9279 81.6646 62.385 81.513 62.8389 81.3303C62.3422 81.1158 61.8331 80.942 61.3226 80.7677C60.9785 80.6503 60.6338 80.5326 60.292 80.4021C59.7507 80.4021 59.1711 80.6323 58.5993 80.8593C58.2651 80.9921 57.9335 81.1237 57.6139 81.2077Z" fill="black"/>
<path d="M34.4995 77.8678C34.2253 77.6884 33.9513 77.5091 33.6685 77.3372L33.6772 77.3285C33.5547 77.2496 33.4672 77.1708 33.4234 77.0307C33.3171 76.6911 33.1974 76.3596 33.0779 76.0287C32.8924 75.5151 32.7075 75.0031 32.5744 74.4652C32.975 74.7056 33.3554 74.9517 33.7372 75.1987L33.7381 75.1993C34.0233 75.3839 34.3094 75.5689 34.6049 75.7523C34.71 75.8224 34.7975 75.8924 34.8413 76.0238C34.955 76.3794 35.0803 76.7293 35.2054 77.0787C35.3884 77.5895 35.5709 78.0992 35.7165 78.6244C35.2924 78.3864 34.8956 78.1269 34.4995 77.8678Z" fill="black"/>
<path d="M59.8635 80.1569C60.0035 80.1131 60.0823 80.0255 60.1611 79.9029C60.3522 79.5984 60.5477 79.2995 60.7428 79.0012C61.0301 78.5619 61.3166 78.1238 61.5877 77.6701C61.0727 77.7821 60.5721 77.9657 60.0698 78.15C59.7866 78.2538 59.5029 78.3579 59.2158 78.4494C58.7916 78.8631 58.4761 79.3922 58.1581 79.9254C57.9579 80.2612 57.7566 80.5986 57.5267 80.9099C58.0073 80.8148 58.4752 80.6431 58.9419 80.4719C59.2485 80.3594 59.5546 80.2471 59.8635 80.1569Z" fill="black"/>
<path d="M42.2718 81.7632C42.5948 81.5967 42.9181 81.4302 43.2353 81.2514V81.2427C43.3841 81.1726 43.5153 81.1376 43.6816 81.1726C44.0111 81.2487 44.3421 81.3023 44.6722 81.3557C45.1398 81.4315 45.6055 81.5069 46.0622 81.6455C45.759 81.7774 45.4049 81.9813 45.041 82.1908C44.4386 82.5377 43.8095 82.9 43.3403 82.9764C43.0183 82.9021 42.6891 82.8492 42.3604 82.7964C41.8759 82.7186 41.3923 82.6409 40.9334 82.4948C41.3675 82.2292 41.8194 81.9963 42.2718 81.7632Z" fill="black"/>
<path d="M67.6976 77.1095C68.2834 77.1371 68.8656 77.0984 69.451 77.0596C69.7927 77.0369 70.1356 77.0141 70.4808 77.0044C70.5684 77.0044 70.6559 76.9519 70.7259 76.8993C70.9533 76.6913 71.1891 76.4954 71.4244 76.2999C71.8231 75.9687 72.2203 75.6386 72.5726 75.2531C72.3002 75.266 72.0369 75.2773 71.7777 75.2885C71.1542 75.3154 70.5549 75.3412 69.9119 75.3845C69.4382 75.5168 68.9679 75.9647 68.5055 76.4051C68.2332 76.6645 67.9636 76.9213 67.6976 77.1095Z" fill="black"/>
<path fill-rule="evenodd" clip-rule="evenodd" d="M38.7888 63.4676C38.7888 63.7128 38.7363 63.9229 38.6225 64.0893V64.1068C38.5088 64.2732 38.3425 64.4133 38.1237 64.5183C38.43 64.6059 38.6575 64.7548 38.8063 64.9737C38.9551 65.1926 39.0339 65.4553 39.0339 65.7617C39.0339 66.0157 38.9814 66.2258 38.8851 66.4097C38.7888 66.5936 38.6575 66.7424 38.4912 66.8563C38.325 66.9701 38.1412 67.0576 37.9311 67.1102C37.7211 67.1627 37.5023 67.189 37.2834 67.189H34.8941V62.2505H37.2134C37.441 62.2505 37.6598 62.2767 37.8523 62.3118C38.0449 62.3468 38.2112 62.4168 38.3512 62.5132C38.4912 62.6095 38.5963 62.7321 38.675 62.8897C38.7538 63.0473 38.7888 63.2399 38.7888 63.4676ZM36.9946 63.0911H35.9881V64.2469H37.0821C37.2747 64.2469 37.4322 64.1944 37.5548 64.1068C37.6773 64.0192 37.7386 63.8704 37.7386 63.6602C37.7386 63.5464 37.7211 63.4501 37.6773 63.38C37.6335 63.3012 37.581 63.2487 37.511 63.2049C37.4535 63.1689 37.39 63.1507 37.3207 63.1308L37.2961 63.1237L37.2747 63.1173C37.1872 63.0911 37.0909 63.0911 36.9946 63.0911ZM37.7036 66.1995C37.7736 66.1558 37.8348 66.0857 37.8786 66.0069C37.9224 65.9281 37.9399 65.823 37.9399 65.6917C37.9399 65.4377 37.8786 65.2626 37.7298 65.1488C37.581 65.035 37.3972 64.9824 37.1609 64.9824H35.9794V66.3396H37.1434C37.2484 66.3396 37.3535 66.3221 37.4497 66.3046C37.546 66.2783 37.6335 66.2521 37.7036 66.1995Z" fill="black"/>
<path d="M43.1727 67.1801V63.6075H42.1925V65.4814C42.1925 65.8491 42.1312 66.103 42.0087 66.2694C41.8861 66.4358 41.6936 66.5058 41.431 66.5058C41.1947 66.5058 41.0284 66.4358 40.9409 66.2869C40.8446 66.1381 40.8009 65.9192 40.8009 65.6302V63.6163H39.8206V65.8141C39.8206 66.033 39.8381 66.2344 39.8819 66.4183C39.9169 66.6022 39.9869 66.751 40.0832 66.8824C40.1795 67.0049 40.3107 67.11 40.477 67.1713C40.6433 67.2414 40.8621 67.2764 41.1247 67.2764C41.3347 67.2764 41.536 67.2326 41.7286 67.1363C41.9299 67.04 42.0874 66.8911 42.21 66.6897H42.2275V67.1888H43.1639L43.1727 67.1801Z" fill="black"/>
<path d="M46.535 65.1488C46.6663 65.1925 46.7888 65.2538 46.8938 65.3326L46.8676 65.3677C46.9726 65.4377 47.0601 65.534 47.1214 65.6479C47.1826 65.7617 47.2176 65.9018 47.2176 66.0682C47.2176 66.3046 47.1739 66.506 47.0776 66.6636C46.9813 66.8212 46.8588 66.9525 46.71 67.0489C46.5525 67.1452 46.3774 67.2152 46.1849 67.2503C45.9923 67.294 45.791 67.3115 45.5897 67.3115C45.3884 67.3115 45.1871 67.294 44.9858 67.2503C44.7933 67.2065 44.6095 67.1364 44.4607 67.0401C44.3119 66.9438 44.1806 66.8124 44.0844 66.6548C43.9793 66.4972 43.9268 66.2958 43.9181 66.0594H44.8546C44.8546 66.1645 44.8808 66.252 44.9246 66.3309C44.9683 66.4009 45.0208 66.4622 45.0909 66.5147C45.1609 66.5585 45.2397 66.5935 45.3272 66.6198C45.4147 66.6461 45.511 66.6548 45.6072 66.6548C45.6773 66.6548 45.7473 66.6461 45.826 66.6286C45.9048 66.6111 45.9748 66.5848 46.0361 66.5498C46.0974 66.5147 46.1499 66.4709 46.1936 66.4097C46.2374 66.3484 46.2549 66.2783 46.2549 66.1907C46.2549 66.0419 46.1499 65.9281 45.9573 65.858C45.756 65.788 45.4847 65.7092 45.1346 65.6391C44.9858 65.6041 44.8546 65.5691 44.7145 65.5253C44.5832 65.4815 44.4607 65.4202 44.3557 65.3502C44.2507 65.2801 44.1631 65.1838 44.1019 65.0787C44.0406 64.9736 44.0056 64.8423 44.0056 64.6847C44.0056 64.4483 44.0494 64.2644 44.1369 64.1155C44.2332 63.9667 44.3469 63.8528 44.4957 63.7653C44.6445 63.6777 44.8108 63.6164 44.9946 63.5814C45.1784 63.5464 45.3709 63.5289 45.5635 63.5289C45.756 63.5289 45.9398 63.5464 46.1236 63.5814C46.3074 63.6164 46.4737 63.6777 46.6137 63.7653C46.7625 63.8528 46.8763 63.9667 46.9726 64.1155C47.0601 64.2644 47.1214 64.4483 47.1389 64.6672H46.2024C46.1936 64.4745 46.1236 64.3519 45.9923 64.2819C45.8611 64.2206 45.7123 64.1856 45.5372 64.1856C45.5175 64.1856 45.4978 64.1865 45.4781 64.1877L45.4453 64.19C45.4147 64.1921 45.3841 64.1943 45.3534 64.1943C45.2922 64.2031 45.2309 64.2206 45.1784 64.2381C45.1259 64.2556 45.0821 64.2906 45.0471 64.3344C45.0121 64.3782 44.9946 64.4395 44.9946 64.5096C44.9946 64.5971 45.0296 64.6672 45.0909 64.7197C45.1609 64.7722 45.2397 64.816 45.3447 64.851C45.4497 64.8861 45.5722 64.9211 45.7035 64.9474C45.8436 64.9736 45.9748 64.9999 46.1149 65.0349C46.2477 65.0584 46.3667 65.0958 46.4903 65.1347L46.535 65.1488Z" fill="black"/>
<path d="M49.0112 62.2415H48.0309V63.0471H49.0112V62.2415Z" fill="black"/>
<path d="M48.0309 63.6075H49.0112V67.1801H48.0309V63.6075Z" fill="black"/>
<path d="M53.0467 63.9141C52.9504 63.7915 52.8192 63.6865 52.6529 63.6164C52.4866 63.5463 52.2678 63.5113 52.0052 63.5113C51.7952 63.5113 51.5939 63.5551 51.4013 63.6514C51.2 63.7477 51.0425 63.8966 50.9199 64.1067H50.9024V63.6076H49.966V67.1802H50.9462V65.3064C50.9462 64.9386 51.0075 64.6847 51.13 64.5183C51.2525 64.3519 51.4451 64.2819 51.7076 64.2819C51.944 64.2819 52.1102 64.3519 52.1978 64.5008C52.2853 64.6496 52.3378 64.8685 52.3378 65.1575V67.1802H53.318V64.9824C53.318 64.7635 53.3005 64.5621 53.2568 64.3782C53.2218 64.1943 53.1518 64.0455 53.0555 63.9141H53.0467Z" fill="black"/>
<path fill-rule="evenodd" clip-rule="evenodd" d="M57.2287 64.1593C57.3775 64.3519 57.4825 64.5796 57.5438 64.8335H57.5263C57.5963 65.0874 57.6138 65.3501 57.5963 65.6303H55.0231C55.0406 65.9456 55.1194 66.182 55.2682 66.3221C55.417 66.4622 55.627 66.5322 55.9071 66.5322C56.0997 66.5322 56.2747 66.4797 56.4147 66.3834C56.5548 66.287 56.6423 66.182 56.6773 66.0681H57.5438C57.4037 66.4972 57.1937 66.8037 56.9049 66.9875C56.6248 67.1802 56.2747 67.2677 55.8721 67.2677C55.592 67.2677 55.3382 67.224 55.1107 67.1364C54.8831 67.0488 54.6906 66.9175 54.533 66.7511C54.3842 66.5848 54.2617 66.3834 54.1742 66.1557C54.0867 65.9193 54.0429 65.6566 54.0429 65.3939C54.0429 65.1312 54.0867 64.8773 54.1742 64.6496C54.2617 64.422 54.393 64.2206 54.5505 64.0542C54.7081 63.8878 54.9006 63.7565 55.1282 63.6602C55.3557 63.5639 55.6008 63.5113 55.8721 63.5113C56.1784 63.5113 56.441 63.5726 56.6685 63.6864C56.8961 63.8003 57.0799 63.9579 57.2287 64.1593ZM55.0757 64.7722C55.0494 64.8598 55.0319 64.9386 55.0319 65.0086H56.6248C56.581 64.7547 56.4935 64.5708 56.3797 64.4395C56.2659 64.3081 56.0822 64.2468 55.8458 64.2468C55.6883 64.2468 55.557 64.2731 55.452 64.3257C55.3557 64.3869 55.2682 64.4482 55.2069 64.527C55.1457 64.6058 55.1019 64.6847 55.0757 64.7722Z" fill="black"/>
<path d="M60.2926 66.5147C60.2313 66.5498 60.1613 66.576 60.0825 66.5935C60.0037 66.611 59.9337 66.6198 59.8637 66.6198C59.7674 66.6198 59.6712 66.6111 59.5836 66.5848C59.4961 66.5585 59.4173 66.5235 59.3473 66.4797C59.2773 66.4272 59.2248 66.3659 59.181 66.2958C59.1373 66.217 59.111 66.1295 59.111 66.0244H58.1745C58.1833 66.2608 58.2358 66.4622 58.3408 66.6198C58.4371 66.7774 58.5684 66.9088 58.7172 67.0051C58.866 67.1014 59.0498 67.1714 59.2423 67.2152C59.4436 67.259 59.6449 67.2765 59.8462 67.2765C60.0475 67.2765 60.2488 67.259 60.4413 67.2152C60.6339 67.1802 60.8089 67.1102 60.9665 67.0138C61.1153 66.9175 61.2378 66.7862 61.3341 66.6286C61.4303 66.4709 61.4741 66.2696 61.4741 66.0331C61.4741 65.8668 61.4391 65.7267 61.3778 65.6128C61.3166 65.499 61.229 65.4027 61.124 65.3326C61.019 65.2538 60.8965 65.1925 60.7652 65.1488L60.7206 65.1348C60.5969 65.0958 60.4779 65.0584 60.3451 65.0349C60.205 64.9999 60.0738 64.9736 59.9337 64.9474C59.8024 64.9211 59.6799 64.8861 59.5749 64.851C59.4699 64.816 59.3911 64.7722 59.3211 64.7197C59.2598 64.6672 59.2248 64.5971 59.2248 64.5096C59.2248 64.4395 59.2423 64.3782 59.2773 64.3344C59.3123 64.2906 59.3561 64.2556 59.4086 64.2381C59.4611 64.2206 59.5224 64.2031 59.5836 64.1943C59.6143 64.1943 59.6449 64.1921 59.6755 64.19C59.7062 64.1878 59.7368 64.1856 59.7674 64.1856C59.9425 64.1856 60.0913 64.2206 60.2225 64.2819C60.3538 64.3519 60.4238 64.4745 60.4326 64.6672H61.3691C61.3516 64.4483 61.2903 64.2644 61.2028 64.1155C61.1065 63.9667 60.9927 63.8528 60.8439 63.7653C60.7039 63.6777 60.5376 63.6164 60.3538 63.5814C60.17 63.5464 59.9862 63.5289 59.7937 63.5289C59.6011 63.5289 59.4086 63.5464 59.2248 63.5814C59.041 63.6164 58.8747 63.6777 58.7259 63.7653C58.5771 63.8528 58.4634 63.9667 58.3671 64.1155C58.2796 64.2644 58.2358 64.4483 58.2358 64.6847C58.2358 64.8423 58.2708 64.9736 58.3321 65.0787C58.3933 65.1838 58.4809 65.2801 58.5859 65.3502C58.6909 65.4202 58.8134 65.4815 58.9447 65.5253C59.0848 65.5691 59.216 65.6041 59.3648 65.6391C59.7149 65.7092 59.9862 65.788 60.1875 65.858C60.3801 65.9281 60.4851 66.0419 60.4851 66.1907C60.4851 66.2783 60.4676 66.3484 60.4238 66.4097C60.3801 66.4709 60.3276 66.5147 60.2663 66.5498L60.2926 66.5147Z" fill="black"/>
<path d="M63.968 66.5935C64.0468 66.576 64.1168 66.5498 64.178 66.5147L64.1518 66.5498C64.2131 66.5147 64.2656 66.4709 64.3093 66.4097C64.3531 66.3484 64.3706 66.2783 64.3706 66.1907C64.3706 66.0419 64.2656 65.9281 64.073 65.858C63.8717 65.788 63.6004 65.7092 63.2503 65.6391C63.1015 65.6041 62.9703 65.5691 62.8302 65.5253C62.6989 65.4815 62.5764 65.4202 62.4714 65.3502C62.3663 65.2801 62.2788 65.1838 62.2176 65.0787C62.1563 64.9736 62.1213 64.8423 62.1213 64.6847C62.1213 64.4483 62.165 64.2644 62.2526 64.1155C62.3488 63.9667 62.4626 63.8528 62.6114 63.7653C62.7602 63.6777 62.9265 63.6164 63.1103 63.5814C63.2941 63.5464 63.4866 63.5289 63.6792 63.5289C63.8717 63.5289 64.0555 63.5464 64.2393 63.5814C64.4231 63.6164 64.5894 63.6777 64.7294 63.7653C64.8782 63.8528 64.992 63.9667 65.0883 64.1155C65.1758 64.2644 65.2371 64.4483 65.2546 64.6672H64.3181C64.3093 64.4745 64.2393 64.3519 64.108 64.2819C63.9767 64.2206 63.828 64.1856 63.6529 64.1856C63.6223 64.1856 63.5917 64.1878 63.561 64.19C63.5304 64.1921 63.4998 64.1943 63.4691 64.1943C63.4079 64.2031 63.3466 64.2206 63.2941 64.2381C63.2416 64.2556 63.1978 64.2906 63.1628 64.3344C63.1278 64.3782 63.1103 64.4395 63.1103 64.5096C63.1103 64.5971 63.1453 64.6672 63.2066 64.7197C63.2766 64.7722 63.3553 64.816 63.4604 64.851C63.5654 64.8861 63.6879 64.9211 63.8192 64.9474C63.9592 64.9736 64.0905 64.9999 64.2306 65.0349C64.3634 65.0584 64.4823 65.0958 64.606 65.1347C64.6208 65.1394 64.6357 65.1441 64.6507 65.1488C64.7819 65.1925 64.9045 65.2538 65.0095 65.3326C65.1145 65.4027 65.2021 65.499 65.2633 65.6128C65.3246 65.7267 65.3596 65.8668 65.3596 66.0331C65.3596 66.2696 65.3158 66.4709 65.2196 66.6286C65.1233 66.7862 65.0008 66.9175 64.852 67.0138C64.6944 67.1102 64.5194 67.1802 64.3268 67.2152C64.1343 67.259 63.933 67.2765 63.7317 67.2765C63.5304 67.2765 63.3291 67.259 63.1278 67.2152C62.9352 67.1714 62.7514 67.1014 62.6027 67.0051C62.4539 66.9088 62.3226 66.7774 62.2263 66.6198C62.1213 66.4622 62.0688 66.2608 62.06 66.0244H62.9965C62.9965 66.1295 63.0228 66.217 63.0665 66.2958C63.1103 66.3659 63.1628 66.4272 63.2328 66.4797C63.3028 66.5235 63.3816 66.5585 63.4691 66.5848C63.5566 66.6111 63.6529 66.6198 63.7492 66.6198C63.8192 66.6198 63.8892 66.611 63.968 66.5935Z" fill="black"/>
<path fill-rule="evenodd" clip-rule="evenodd" d="M51.4088 11H48.5993C28.3118 11.6567 11.7789 28.3811 11 48.6168V51.3662C12.6454 85.3142 53.0717 101.513 77.4377 77.6875C101.594 53.5465 85.4897 12.4886 51.4088 11ZM49.3608 86.1985C29.7471 86.2861 13.0568 68.7211 13.8182 49.1597C14.7372 28.4687 30.2723 13.443 52.6516 13.7932C60.0384 13.9246 68.668 17.4008 75.7048 24.5109C98.4342 46.813 81.9101 86.9428 49.3608 86.1985Z" fill="black"/>
</svg>
