<svg width="100" height="100" viewBox="0 0 100 100" fill="none" xmlns="http://www.w3.org/2000/svg">
<path d="M69.9795 77.9301L73.0695 79.7201L72.1995 76.4201L74.9795 74.2301L71.3495 73.9801L69.9795 70.8401L68.6095 73.9801L64.9895 74.2301L61.3595 73.9801L59.9895 70.8401L58.6195 73.9801L54.9995 74.2301L51.3695 73.9801L49.9995 70.8401L48.6295 73.9801L44.9995 74.2301L41.3795 73.9801L40.0095 70.8401L38.6395 73.9801L35.0095 74.2301L31.3895 73.9801L30.0195 70.8401L28.6495 73.9801L25.0195 74.2301L27.7995 76.4201L26.9295 79.7201L30.0195 77.9301L33.1095 79.7201L32.2395 76.4201L35.0095 74.2301L37.7895 76.4201L36.9195 79.7201L40.0095 77.9301L43.0995 79.7201L42.2295 76.4201L44.9995 74.2301L47.7795 76.4201L46.9095 79.7201L49.9995 77.9301L53.0895 79.7201L52.2195 76.4201L54.9995 74.2301L57.7695 76.4201L56.8995 79.7201L59.9895 77.9301L63.0795 79.7201L62.2095 76.4201L64.9895 74.2301L67.7595 76.4201L66.8895 79.7201L69.9795 77.9301Z" fill="black"/>
<path d="M79.9998 64.1001H20.0098V64.6601H79.9998V64.1001Z" fill="black"/>
<path d="M20 47.8999H79.99V48.4599H20V47.8999Z" fill="black"/>
<path d="M44.4898 54.7101C43.7198 54.7101 43.2098 55.0901 42.9998 55.5201V54.7801H42.2598V59.4401H42.9998C43.0384 59.1693 43.021 58.7957 43.0017 58.3825L42.9998 58.3401L42.9982 58.3058C42.9383 56.9708 42.8621 55.2708 44.2998 55.3501C45.0498 55.3501 45.3998 55.7201 45.3998 56.5301V59.4401H46.1398C46.1268 59.2516 46.1307 59.025 46.135 58.7742C46.1373 58.6392 46.1398 58.497 46.1398 58.3501C46.1998 56.7301 46.2698 54.5301 44.4998 54.7101H44.4898Z" fill="black"/>
<path d="M40.1309 54.7901H40.9909L39.0009 56.9501L41.1709 59.4501H40.2709L38.2009 57.0301V59.4501H37.4609V52.5701H38.2009V56.9301L40.1309 54.7901Z" fill="black"/>
<path d="M24.3202 58.22V55.42H25.4102V54.8H24.3202V53.74H23.5802V54.8H22.9102V55.42H23.5802C23.6046 55.6807 23.5959 56.0011 23.5864 56.3488C23.5842 56.4279 23.582 56.5084 23.5802 56.59L23.5798 56.5983C23.5098 58.1368 23.4238 60.0289 25.4702 59.42V58.8C25.0002 58.98 24.2702 58.97 24.3302 58.22H24.3202Z" fill="black"/>
<path d="M27.4295 55.5201C27.6395 55.09 28.1495 54.71 28.9195 54.71L28.9295 54.7001C30.6995 54.5201 30.6295 56.7201 30.5695 58.34C30.5695 58.487 30.567 58.629 30.5647 58.764C30.5604 59.0147 30.5564 59.2416 30.5695 59.43H29.8295V56.5201C29.8295 55.71 29.4795 55.34 28.7295 55.34C27.2918 55.2607 27.368 56.9608 27.4279 58.2958L27.4295 58.3301L27.4314 58.3724C27.4507 58.7856 27.4681 59.1593 27.4295 59.43H26.6895V52.55H27.4295V55.5201Z" fill="black"/>
<path d="M54.1307 58.22V55.42H55.2207V54.8H54.1307V53.74H53.3907V54.8H52.7207V55.42H53.3907C53.4151 55.6807 53.4064 56.0011 53.3969 56.3487C53.3948 56.4279 53.3926 56.5084 53.3907 56.59L53.3903 56.5983C53.3204 58.1368 53.2344 60.0289 55.2807 59.42V58.8C54.8107 58.98 54.0807 58.97 54.1407 58.22H54.1307Z" fill="black"/>
<path d="M75.09 54.71V54.74C76.7812 54.5609 76.7108 56.8264 76.6608 58.435L76.66 58.46C76.66 58.5965 76.6576 58.7281 76.6552 58.8531C76.6509 59.0852 76.647 59.2945 76.66 59.47H75.92V56.53C75.92 55.71 75.57 55.37 74.93 55.37C73.55 55.28 73.63 57.05 73.7 58.38C73.7019 58.4632 73.7042 58.5449 73.7065 58.6245C73.7159 58.956 73.7242 59.2503 73.7 59.46H72.96V56.52C72.96 55.7 72.61 55.36 71.97 55.36C70.59 55.28 70.67 57.05 70.74 58.38C70.742 58.4646 70.7443 58.5474 70.7466 58.6276V58.6286C70.7559 58.9555 70.7641 59.2414 70.74 59.45H70V54.79H70.74V55.5C71.16 54.52 73.09 54.35 73.49 55.58C73.81 54.98 74.5 54.71 75.09 54.71Z" fill="black"/>
<path d="M57.0902 58.3501C56.3502 58.3301 56.3502 59.5001 57.0902 59.4801C57.8302 59.5001 57.8302 58.3301 57.0902 58.3501Z" fill="black"/>
<path d="M61.0398 55.3201C59.0798 55.1901 59.0498 59.1101 61.0698 58.9101H61.0598C61.7198 58.9101 62.3198 58.5401 62.3998 57.7801H63.0898C62.8098 60.4401 58.5098 59.8701 58.7798 57.1001C58.6098 54.5201 62.6298 53.6701 63.0598 56.3401H62.3298C62.2098 55.5901 61.6798 55.3201 61.0398 55.3201Z" fill="black"/>
<path fill-rule="evenodd" clip-rule="evenodd" d="M66.3801 54.7099C63.3701 54.6299 63.3401 59.5799 66.3801 59.5199C69.4101 59.6099 69.4201 54.6199 66.3801 54.7099ZM64.8501 57.0799C64.7301 54.7099 68.0801 54.7799 67.9001 57.1499C68.0201 59.5099 64.6501 59.4199 64.8501 57.0799Z" fill="black"/>
<path fill-rule="evenodd" clip-rule="evenodd" d="M49.6906 54.7099C46.6806 54.6299 46.6506 59.5799 49.6906 59.5199C52.7206 59.6099 52.7306 54.6199 49.6906 54.7099ZM48.1606 57.0799C48.0406 54.7099 51.3906 54.7799 51.2106 57.1499C51.3306 59.5099 47.9606 59.4199 48.1606 57.0799Z" fill="black"/>
<path fill-rule="evenodd" clip-rule="evenodd" d="M34.02 54.7099C35.18 54.6599 36.24 55.6099 36.11 57.2599H32.61C32.4 58.9599 34.96 59.5499 35.35 58.0899H36.09C35.59 60.4499 31.59 59.6999 31.85 57.1599C31.81 55.7499 32.71 54.7099 34.02 54.7099ZM35.36 56.6699H32.63C32.77 54.9599 35.31 54.7799 35.36 56.6699Z" fill="black"/>
<path fill-rule="evenodd" clip-rule="evenodd" d="M80.6394 27.4099L80.6094 27.3599C79.1294 27.5899 77.6494 27.7299 76.1394 27.8599C76.1008 27.5803 76.1645 27.2171 76.2318 26.8329L76.2394 26.7899C76.3894 25.9699 76.5394 25.0899 75.7394 24.8899C74.9512 24.9997 74.9195 25.8859 74.8896 26.7242L74.8894 26.7299C74.8794 27.1399 74.8594 27.5299 74.7594 27.8099C74.023 28.1103 73.0706 28.1196 72.1115 28.129L72.0194 28.1299C71.4194 28.1299 70.8294 28.1299 70.2894 28.1999C69.7494 28.1999 69.4594 28.8799 69.8294 29.2699C70.7194 29.5899 71.7394 29.4799 72.7494 29.3699C73.3594 29.2999 73.9594 29.2399 74.5394 29.2699C74.4933 29.5462 74.4591 29.8519 74.423 30.1735C74.4121 30.2709 74.401 30.3699 74.3894 30.4699L74.3867 30.4938C74.1371 32.7001 73.8213 35.492 71.5994 36.0599C71.6594 34.4599 70.9794 31.5799 68.8594 32.5099C69.0594 30.6099 66.7794 32.1599 66.3694 33.0299C65.8611 33.7395 65.592 34.5871 65.3238 35.4315L65.279 35.5726C64.9026 36.7615 64.5303 37.9375 63.5394 38.7599C63.3894 38.8699 63.3294 38.8699 63.2894 38.6999C63.0194 37.7099 63.1094 36.6799 63.2094 35.6499L63.2155 35.5812C63.3136 34.4741 63.4117 33.3684 63.0394 32.3299C61.5194 30.0499 59.4794 33.5499 58.9594 34.9899C58.9194 34.6899 59.0094 34.2799 59.1094 33.8599L59.1133 33.8429C59.3122 32.9678 59.5232 32.0393 58.5794 31.9399C58.2494 31.9599 58.0994 32.1699 57.9894 32.4599C57.9594 32.5499 57.9294 32.6399 57.8894 32.7299C56.1894 37.4299 54.5394 41.9899 50.4094 35.4899C51.6594 34.8999 56.1794 32.2799 55.1794 30.7299C54.9294 30.5199 54.5594 30.5499 54.3194 30.7999C53.2094 32.2699 51.7994 33.4699 50.0994 34.2299C49.9394 32.2099 50.6994 30.4799 51.4694 28.7299L51.4736 28.7202C52.0822 27.3334 52.6997 25.9263 52.8594 24.3699C52.8594 24.3299 52.8594 24.2899 52.8694 24.2499C52.9894 23.0899 53.1494 21.4699 51.8994 20.8999H51.4894C49.7912 22.0916 49.6315 24.733 49.4825 27.1984L49.4794 27.2499C49.4094 28.4499 49.3394 29.6099 49.0994 30.5199L48.9794 30.6999C48.3494 31.6699 47.7194 32.6399 46.9794 33.5299C46.4394 34.1799 47.4594 34.9899 47.9894 34.3299C48.2394 34.0099 48.4694 33.7099 48.7094 33.3899C48.7344 33.3599 48.7594 33.3274 48.7844 33.2949C48.8094 33.2624 48.8344 33.2299 48.8594 33.1999C48.9494 33.6699 48.7994 34.8199 48.6294 36.1199L48.6232 36.1678C48.3144 38.5482 47.9458 41.3894 48.8994 41.3199C49.1794 41.3199 49.4994 41.0599 49.5194 40.7899C49.5394 40.5549 49.5594 40.3225 49.5794 40.09C49.5994 39.8575 49.6194 39.6249 49.6394 39.3899C49.6994 38.6199 49.7694 37.8499 49.8494 37.0699C51.5194 39.7499 55.5394 41.6199 57.1594 37.8599C57.2294 38.1899 57.1294 38.6499 57.0194 39.1099C56.8194 39.9699 56.6194 40.8599 57.5394 41.0099C57.9094 41.0099 58.1794 40.7999 58.3294 40.4899C58.7894 39.5999 59.0994 38.6199 59.3994 37.6299L59.4043 37.614C59.9427 35.8793 60.4836 34.1362 61.8694 32.9299C62.0925 33.8517 62.005 34.8018 61.9174 35.7527L61.9094 35.8399L61.9088 35.8464C61.799 36.9942 61.6901 38.132 62.0894 39.2299C62.8394 41.0399 64.7694 39.8499 65.4094 38.5999C66.5894 41.9699 70.7994 40.7199 71.2994 37.5999C71.3394 37.4499 71.4094 37.4099 71.5494 37.4099C72.5394 37.3899 73.3694 36.9099 73.9894 36.1499C73.5394 41.3499 76.7094 43.3499 79.9094 38.6499C80.1894 38.2599 79.9794 37.7399 79.5194 37.6399C79.0094 37.5899 78.6994 38.0499 78.3994 38.4999C78.2394 38.7399 78.0794 38.9799 77.8894 39.1299C73.9594 42.8699 75.4294 32.9699 75.8794 29.9399C75.9194 29.6699 75.9494 29.4599 75.9694 29.3199C76.7714 29.1241 77.6518 29.0413 78.5374 28.958L78.7294 28.9399C79.4194 28.8799 80.1194 28.8099 80.7894 28.6999C81.1594 28.6599 81.4194 28.5099 81.5494 28.1499C81.5994 27.5899 81.0894 27.2699 80.6194 27.4199L80.6394 27.4099ZM50.8794 25.9899C51.0094 24.8199 51.1394 23.6499 51.5494 22.5199C51.8194 23.1299 51.3094 26.1399 50.7594 27.0299C50.7933 26.7921 50.8181 26.559 50.843 26.3242C50.8548 26.2133 50.8666 26.1021 50.8794 25.9899ZM69.2894 38.7099C65.5794 41.3799 65.8194 33.7799 68.4294 32.8499C67.4494 34.3499 68.5994 36.2199 69.9794 36.9799C70.1894 37.4599 69.6094 38.2699 69.2994 38.6999L69.2894 38.7099ZM70.2394 35.6199C68.2394 33.7699 70.1794 32.3799 70.2894 35.5999C70.2694 35.5999 70.2594 35.6099 70.2394 35.6199Z" fill="black"/>
<path fill-rule="evenodd" clip-rule="evenodd" d="M41.8099 36.5199L41.8699 36.3699L41.8999 36.3899C42.1499 35.5499 43.4099 35.9299 43.1299 36.7599C42.4399 38.6499 41.0299 41.3199 38.6399 40.9199C38.0299 40.7799 37.6199 40.3799 37.2999 39.8499C37.2133 39.7099 37.0933 39.6666 36.9399 39.7199C33.4399 40.7799 33.5899 37.2199 33.7099 34.5099C33.7399 33.8899 33.7599 33.3099 33.7399 32.8499C33.7299 32.8399 33.7199 32.8399 33.7199 32.8399C33.7099 32.8199 33.6899 32.8199 33.6799 32.8199C32.4699 34.2199 31.8799 35.9699 31.2899 37.7199C30.9699 38.6799 30.6399 39.6399 30.2199 40.5399C28.8718 41.6699 28.919 39.7442 28.9491 38.5124L28.9499 38.4799V37.8199C27.0899 40.8599 23.4499 39.7999 23.6899 36.1699C23.5899 36.4099 23.4899 36.6599 23.3899 36.9099L23.3837 36.9254C22.6654 38.7212 21.8849 40.6726 20.1299 41.6099H19.9099C19.3699 41.4599 19.1499 40.7399 19.6699 40.4199C22.0292 38.2906 22.8094 35.022 23.5492 31.9228L23.5499 31.9199C23.7299 31.1399 23.9199 30.3699 24.1199 29.6299C23.7199 29.6399 23.3099 29.6599 22.9099 29.6799C22.7757 29.684 22.6432 29.6913 22.5117 29.6987C22.3197 29.7093 22.1298 29.7199 21.9399 29.7199L21.9599 29.7599C21.6999 29.7099 21.1999 29.7599 20.6399 29.8199C19.2099 29.9699 17.3899 30.1599 18.1999 28.7499C19.1499 28.4799 20.2299 28.4899 21.2999 28.4999C22.4096 28.5099 23.5102 28.5198 24.4499 28.2199C24.5799 27.9299 24.6199 27.4699 24.6599 26.9799L24.6601 26.9776C24.7501 25.9682 24.8506 24.84 25.7399 24.9199C26.4299 25.2699 26.2099 26.1799 25.9999 27.0399C25.9955 27.0585 25.991 27.0771 25.9866 27.0956C25.8812 27.5353 25.7811 27.9533 25.8099 28.2699C26.1749 28.3291 26.6761 28.2423 27.1887 28.1536L27.2099 28.1499C28.1499 27.9799 29.1499 27.8099 29.4699 28.5299C29.4699 29.4801 28.1963 29.48 27.0745 29.4799L27.0399 29.4799C26.5199 29.4699 26.0499 29.4699 25.7399 29.5599C25.3599 30.6399 25.2799 31.9399 25.2099 33.2299L25.2089 33.2488C25.1692 33.9726 25.1291 34.7058 25.0299 35.3799C24.5299 40.9599 28.7899 37.3899 29.1999 34.3299C29.4199 33.1599 29.4599 31.8999 29.4899 30.6299L29.4901 30.624C29.56 28.1359 29.6311 25.6084 31.1099 23.6899C31.8599 23.0299 33.0699 23.4599 33.2099 24.4699C33.6093 26.926 32.7128 29.2127 31.8241 31.4792L31.8199 31.4899C31.1899 33.0999 30.5699 34.6899 30.3999 36.3299C30.8799 34.8599 33.2199 29.1299 34.8999 32.2199C35.1485 32.8662 35.0609 33.8685 34.9714 34.8925L34.9699 34.9099C34.8299 36.4899 34.6899 38.1399 35.7399 38.6299C36.8699 38.6799 36.7799 38.2399 36.6399 37.5799C36.5999 37.3899 36.5599 37.1799 36.5399 36.9699C36.4599 35.0199 36.6399 32.4399 38.4699 31.3299C39.3399 30.8799 40.2799 31.3099 40.5399 32.2899C41.1099 34.6399 40.1699 37.2799 38.3799 38.8699C38.2099 39.0299 38.4399 39.2799 38.5999 39.4499C38.6399 39.4899 38.6699 39.5199 38.6899 39.5499C40.2999 40.0899 41.2699 37.7999 41.8099 36.5199ZM30.8599 29.4099C30.8299 29.6999 30.8099 29.9899 30.7899 30.2899C30.7866 30.3366 30.7821 30.3832 30.7777 30.4299C30.7688 30.5232 30.7599 30.6166 30.7599 30.7099C31.4499 28.8199 32.1699 26.6999 31.9299 24.6599C31.9099 24.6499 31.8899 24.6499 31.8699 24.6499C31.172 25.5837 31.0925 26.7495 31.014 27.9001L31.0099 27.9599C30.9799 28.4599 30.9499 28.9399 30.8699 29.4099H30.8599ZM37.9199 37.4599C37.9299 37.4699 37.9599 37.4699 37.9599 37.4699V37.4799C39.3699 36.6599 40.2099 29.8599 38.2299 33.5499C37.8199 34.7999 37.6299 36.1599 37.8999 37.4599H37.9199Z" fill="black"/>
<path fill-rule="evenodd" clip-rule="evenodd" d="M12.1504 11.8101H87.8404V87.5001H12.1504V11.8101ZM86.8004 86.4501V12.8601H13.2004V86.4501H86.8004Z" fill="black"/>
</svg>
