<svg width="600" height="174" viewBox="0 0 600 174" fill="none" xmlns="http://www.w3.org/2000/svg">
<path d="M461.4 76C459.2 80.9 458.1 86.9 457.1 92.3V93.4C450 111.3 437.6 129.2 426.7 129.2C421.3 129.2 419.1 122.1 417.5 110.2L414.2 88.5L413.6 80.9L402.2 79.3L390.8 104.8L391.9 85.3L380 83.7C377.3 94.6 372.9 104.9 368.1 113.6C361.7 126.6 348.4 134.8 333.9 134.8H333.4C322 134.8 311.7 131.5 301.9 126.7V121.3C326.5 109.3 348.3 92.3 366 71.3V70.8L356.8 63.7C342.7 82 324.7 96.8 304.1 107.1L303 107.6C304.1 74.5 306.3 40.3 307.9 25.1L296 24C294.4 40.3 292.2 77.8 290.6 113L282.5 115.2L279.2 125.5L290.1 133.1L289.6 171.1V172.2H301.5V139.6C311.3 143.9 322.1 146.7 333.5 146.7H334C352.5 146.7 368.8 136.4 377.4 121.2L374.7 142.4L386.1 145.7L404.6 103.9L405.7 112C406.8 121.2 410 141.3 427.4 141.3C438.3 141.3 448 133.2 455.6 121.8C456.7 131 458.9 139.2 463.2 145.1C467.5 151.6 474.6 156 483.3 156C492.1 156.4 500.2 151.5 503.9 143.5C509.9 131 507.2 112 496.8 97.9C495.1 96 493.3 94.1 491.4 92.5H519.6V110.4C519.1 143 522.3 159.3 530.5 168C534.3 171.8 539.2 174 544.6 174H545.1C567.9 174 584.7 141.4 588.5 128.4L576.6 125.1C573.3 137.6 558.7 162 545.1 162C542.4 162 540.8 160.9 539.7 159.8C532.1 152.2 531 127.8 531 109.8V91.3C554.7 89.8 578.1 84.3 600 75L595.1 64.1C578.8 71.7 556 77.1 532.1 79.3C532.6 64.1 534.3 52.2 536.4 33.7L537.5 19L525.6 17.4L524 32.1C522.4 45.1 521.3 61.4 520.2 78.3V79.9C520 79.8 485.8 82 461.4 76ZM492.9 137.9C490.7 142.2 487.5 143.9 483.7 143.9C478.8 143.9 475 141.7 472.8 138.5C466.8 129.3 466.3 111.4 468.5 96.7L469.6 91.3C476.1 94.6 483.2 100 487 105.4C495.6 116.8 496.7 130.9 492.9 137.9ZM209.4 154.2C200.7 154.2 197.5 147.1 196.4 139.5C219.2 129.2 229 105.8 229 94.4C229 84.6 222.5 80.8 216.5 80.8C202.9 80.8 185 104.1 183.9 131.3L172.5 132.4C167.1 132.4 163.3 131.3 161.1 128.6C153.5 120.5 154 102.5 154 89V82.5L143.1 78.7L113.2 122.1C112.7 99.3 114.3 72.1 117 49.9C122.4 28.2 127.3 7 124.1 2.7C123 1.1 121.4 0 118.7 0L114.4 2.2C108.8 16.8 105.7 32.2 105.2 47.8C100.3 66.3 95.4 80.9 90 95.6L91.1 92.9C78.6 122.2 55.8 152.1 46.6 153.7C45 151 43.3 141.2 45 113.5V110.8L47.2 89.1L79.8 84.8L77.6 72.9L48.8 76.7L49.3 71.3C50.9 60.4 52.6 47.4 53.6 32.7L41.7 31.6C40.6 46.3 39 58.7 37.4 69.6L36.9 77.7L0 81.5L1.1 94L35.3 90.7L33.7 110.2V113.5C31.5 139 32.1 156.4 38.6 162.9C40.2 165.1 42.9 166.2 45.7 166.2C54.4 166.2 64.7 158.1 77.2 141.8C86.4 129.3 95.1 115.2 101.6 100V98.9C101.6 115.7 101.6 131.5 102.7 141.3L113.6 144L129.6 120L142.1 102.6C142.1 115.6 144.3 129.2 152.4 137.4C157.7 142.8 165 145.7 172.5 145.5L185.5 143.9H184.4C187.1 158.6 195.8 166.7 208.8 166.7C231.6 166.7 244.1 143.9 247.9 124.3L236 122.1C236 123.2 229.5 154.7 208.9 154.7L209.4 154.2ZM216.5 93.4V94.5C216.5 99.9 211.1 116.8 196.4 126C199.1 107 211.6 93.4 216.5 93.4Z" fill="#E64C38"/>
</svg>
