<svg width="601" height="90" viewBox="0 0 601 90" fill="none" xmlns="http://www.w3.org/2000/svg">
<path d="M45.5 28C49.0898 28 52 25.0898 52 21.5C52 17.9102 49.0898 15 45.5 15C41.9102 15 39 17.9102 39 21.5C39 25.0898 41.9102 28 45.5 28Z" fill="white"/>
<path d="M45.5002 40.5C48.4272 40.5 50.8003 38.127 50.8003 35.1997C50.8003 32.2729 48.4272 29.8999 45.5002 29.8999C42.573 29.8999 40.2002 32.2729 40.2002 35.1997C40.2002 38.127 42.573 40.5 45.5002 40.5Z" fill="white"/>
<path d="M55.7002 28.7998C55.7002 25.1997 58.7002 22.2998 62.2002 22.2998C65.7002 22.2998 68.4001 25.1997 68.6001 28.6997C68.6001 32.2998 65.6001 35.1997 62.1001 35.1997H61.3003C52.3003 45.1997 46.8003 60.0996 47.0002 75.1997H44.3003C44.5002 60.0996 39.0002 45.1997 30.0002 35.1997H29.2002C25.6001 35.1997 22.7002 32.2998 22.7002 28.6997C22.7002 25.0996 25.6001 22.1997 29.2002 22.1997C32.8003 22.1997 35.7002 25.1997 35.7002 28.6997C35.7002 30.8999 34.8003 32.7998 33.0002 33.9995C38.0002 39.8999 42.0002 47.3999 44.3003 55.4995V42.9995H47.0002V55.6997C49.4001 47.5996 53.3003 40.1997 58.4001 34.0996C56.9001 32.8999 55.7002 30.9995 55.7002 28.7998Z" fill="white"/>
<path fill-rule="evenodd" clip-rule="evenodd" d="M45.4995 0.299805C20.7996 0.299805 0.599609 20.2998 0.599609 45.1997C0.599609 70.0996 20.7996 89.8999 45.4995 89.8999C70.1997 89.8999 90.3997 69.8999 90.3997 45C90.3997 20.0996 70.3997 0.299805 45.4995 0.299805ZM45.4995 3.09961C68.5996 3.09961 87.3997 21.8999 87.3997 45C87.3997 68.0996 68.5996 87 45.4995 87C22.3997 87 3.49951 68.0996 3.49951 45C3.49951 21.8999 22.3997 3.09961 45.4995 3.09961Z" fill="white"/>
<path d="M115.1 22.2998H106.7L121.9 67.3994H128.8L139.8 35.1997L150.8 67.3994H157.6L173.1 22.2998H164.9L154.3 55.3994L143.3 22.0996H136.6L125.7 55.3994L115.1 22.2998Z" fill="white"/>
<path d="M179.8 22.2998H212.9V29.2998H187.6V40.8999H210V47.8999H187.6V59.8999H213.3V67H179.8V22.2998Z" fill="white"/>
<path fill-rule="evenodd" clip-rule="evenodd" d="M238.6 22.2998H221.9V67.0996H238.6C252.5 67.0996 262.3 57.2998 262.3 44.7998V44.5996C262.3 31.8999 252.7 22.2998 238.6 22.2998ZM229.7 59.6997V29.0996H238.5C247.9 29.0996 254 35.5996 254 44.3999V44.5996C254 53.3999 247.9 59.6997 238.5 59.6997H229.7Z" fill="white"/>
<path fill-rule="evenodd" clip-rule="evenodd" d="M270.9 22.2998H287.601C301.7 22.2998 311.3 31.8999 311.3 44.5996V44.7998C311.3 57.2998 301.5 67.0996 287.601 67.0996H270.9V22.2998ZM278.8 59.6997H287.601C297 59.6997 303.101 53.3999 303.101 44.5996V44.3999C303.101 35.5996 297 29.0996 287.601 29.0996H278.8V59.6997Z" fill="white"/>
<path d="M328 22.2998H320.1V67H328V22.2998Z" fill="white"/>
<path d="M346.2 22.2998L370.1 53.1997V22.2998H377.7V67H371.1L346.4 35.1997V67H338.7V22.2998H346.2Z" fill="white"/>
<path d="M409.7 21.5C396.2 21.5 386.6 32.1001 386.6 44.7998C386.6 57.7002 395.8 67.7002 410.1 68.2998C417.899 68.2998 424.2 64.8999 428.7 61.2002V42.3999H409.7V49.2998H421.1V57.7002C418.3 59.6001 414.6 61 410.3 61C401.1 61 395 54.1001 395 44.8999V44.7002C395 36.1001 401.3 28.7998 409.5 28.7998C415.1 28.7998 418.5 30.6001 422 33.5L426.899 27.6001C422.2 23.7002 417.5 21.5 409.7 21.5Z" fill="white"/>
<path d="M432.801 22.2998H438.301L451.001 59.4995L463.401 22.0996H467.501L479.901 59.4995L492.601 22.2998H497.901L481.801 67.3994H477.501L465.201 31.0996L452.801 67.3994H448.501L432.801 22.2998Z" fill="white"/>
<path d="M510.6 22.2998H505.5V67H510.6V22.2998Z" fill="white"/>
<path fill-rule="evenodd" clip-rule="evenodd" d="M541.8 22.2998C547.3 22.2998 551.8 23.8999 554.5 26.7998C556.7 29 558 32.0996 558 35.5996V35.7998C558 43.1997 552.9 47.5996 545.8 48.8999L559.5 67.0996H553.2L540.3 49.6997H527.6V67.0996H522.5V22.2998H541.8ZM541.4 45C548.1 45 553 41.5 553 35.7998V35.5996C553 30.0996 548.7 26.7998 541.6 26.7998H527.9V45H541.4Z" fill="white"/>
<path d="M600.2 22.2998H567.9V66.7998H600.601V62.2998H573V46.5996H597.5V42.0996H573V26.7998H600.2V22.2998Z" fill="white"/>
</svg>
