<svg width="120" height="66" viewBox="0 0 120 66" fill="none" xmlns="http://www.w3.org/2000/svg">
<path d="M56.8444 16.9856C56.8444 14.9185 56.1348 13.2649 54.7773 11.8458C49.2574 15.8637 45.522 21.5893 41.3949 27.9151C40.4866 29.3074 39.5592 30.7288 38.5897 32.1675C32.2097 41.6203 24.7653 46.3467 15.1952 46.3467C9.76224 46.3467 6.63086 44.5728 6.63086 41.6789C6.63086 39.3157 8.87677 37.3659 11.0611 37.3659C12.2427 37.3659 13.0695 38.1341 13.0695 39.1369C13.0695 40.0223 12.2427 40.7319 11.2986 40.7319C10.8796 40.7319 10.4964 40.574 10.148 40.4305C9.85761 40.3109 9.5914 40.2012 9.34883 40.2012C8.58357 40.2012 7.93267 41.028 7.93267 42.0337C7.93267 43.746 10.2929 45.0449 14.8434 45.0449C23.7039 45.0449 29.0196 39.3744 36.8774 29.0948C37.5415 28.2272 38.2042 27.3357 38.8784 26.4289C42.7019 21.2859 46.8927 15.6489 53.7746 11.0776C51.2354 9.42395 47.6906 8.65577 43.1402 8.65577C36.5813 8.65577 29.7908 10.843 24.3519 14.857C19.9803 18.1056 17.7373 21.7706 17.7373 24.8404C17.7373 27.4998 19.4496 29.0361 22.5223 29.0361C28.0169 29.0361 35.9304 23.307 40.7183 12.2592L41.7211 12.4967C37.7629 24.0165 30.0253 30.5139 22.9357 30.5139C18.9189 30.5139 16.3798 28.2122 16.3798 24.7261C16.3798 21.2399 19.1593 16.9856 24.4164 13.2649C29.6735 9.6028 36.5901 7.41553 43.5008 7.41553C48.2272 7.41553 52.1356 8.4212 54.9063 10.1951C56.3225 9.18939 57.7093 8.36256 59.4685 7.59438V8.71734C58.2957 9.42688 57.0936 10.1951 56.0293 11.0805C58.0377 13.2062 58.9671 15.2762 58.9671 17.8153C58.9671 24.1954 52.7659 30.6341 47.2127 30.6341C44.9082 30.6341 43.6093 29.5727 43.6093 28.0363C43.6093 26.6759 44.8495 24.9049 47.3329 23.4858L48.2184 24.0165C46.0341 25.6115 44.9111 26.8518 44.9111 28.0334C44.9111 28.8602 45.6793 29.3909 46.9195 29.3909C50.9364 29.3909 56.8444 23.1897 56.8444 16.9856Z" fill="black"/>
<path fill-rule="evenodd" clip-rule="evenodd" d="M110.773 39.3656C111.556 39.3656 112.242 39.1692 113.024 38.7792L113.027 38.7675L113.37 39.4536C112.444 40.04 111.558 40.2364 110.535 40.2364C109.752 40.2364 108.97 39.9931 108.283 39.5034C104.516 44.35 100.651 46.7455 97.6666 46.7455C96.0511 46.7455 94.8285 45.6694 94.8285 44.007C94.8285 43.1684 95.0659 42.1891 95.5292 41.1454C90.1314 45.1857 86.2406 46.7455 83.9859 46.7455C82.1241 46.7455 81.048 45.6196 81.048 44.1037C81.048 43.2153 81.2445 42.2859 81.6286 41.3301C79.0367 43.2007 75.8379 44.9335 71.9823 46.5021C66.0596 54.6238 60.6794 58.5849 56.8649 58.5849C55.4927 58.5849 54.6629 57.9487 54.6629 56.9225C54.6629 54.184 59.7031 50.0733 69.927 46.2089L73.6946 41.3183C69.9768 44.8895 66.8923 46.6018 64.6435 46.6018C63.2742 46.6018 62.3917 45.6724 62.3917 44.0099C62.3917 43.3414 62.5618 42.5615 62.8843 41.723C59.2486 44.8749 56.5365 46.4054 55.1027 46.4054C53.927 46.4054 53.1442 45.6694 53.1442 44.4966C53.1442 43.8633 53.3406 43.0805 53.7306 42.1012C50.306 45.1827 47.3212 46.5051 45.6089 46.5051C44.0432 46.5051 43.1108 45.5756 43.1108 44.0598C43.1108 41.4649 45.1632 37.7472 49.271 34.6656C52.4991 32.2203 55.7214 31.1443 57.5803 31.1443C59.0991 31.1443 59.7676 31.8304 59.7676 33.1996V33.6394L61.1192 31.7981H63.7111L55.6862 42.5762L55.6409 42.6375C54.9787 43.5344 54.5105 44.1685 54.5105 44.696C54.5105 45.2355 54.7568 45.429 55.2933 45.429C56.4133 45.429 59.3835 43.4792 64.0629 39.4389C65.1331 37.797 66.6929 36.0818 68.7366 34.5689C71.9148 32.2203 74.9348 31.1941 76.7468 31.1941C78.3594 31.1941 79.1159 31.8773 79.1159 33.3462V33.4928L80.5877 31.7981H83.0828L73.2489 44.8778C76.8025 43.4177 79.8723 41.5822 82.6518 39.3949C83.5901 37.9524 84.9271 36.4776 86.6687 35.0116C89.8499 32.3699 93.2276 31.1472 95.3298 31.1472C96.5994 31.1472 97.2855 31.587 97.2855 32.5165C97.2855 34.5718 93.2276 37.9465 85.1059 40.0019C83.3936 42.0103 82.561 43.5731 82.561 44.4057C82.561 45.1387 83.2001 45.5785 84.2762 45.5785C86.6071 45.5785 90.7295 43.79 96.6962 39.0812C97.608 37.756 98.8424 36.4043 100.399 35.1582C103.777 32.4666 106.812 31.1472 109.013 31.1472C110.383 31.1472 111.212 31.9301 111.212 33.1029C111.212 34.4252 110.477 36.4307 108.814 38.7792C109.453 39.1692 110.037 39.3656 110.773 39.3656ZM96.1655 32.6631C96.1655 32.32 95.8723 32.0767 95.236 32.0767C93.4739 32.0767 90.1959 34.1818 86.1849 38.6825C92.8875 36.9672 96.1655 33.7391 96.1655 32.6631ZM44.7792 44.696C44.7792 45.2355 45.1222 45.5287 45.7584 45.5287V45.5258C47.4209 45.5258 50.5054 43.8633 54.0267 40.2921C57.2548 36.9672 58.8205 34.519 58.8205 33.2964C58.8205 32.6132 58.4306 32.2203 57.5979 32.2203C56.1788 32.2203 53.4403 33.786 50.0626 37.2106C46.4416 40.8815 44.7792 43.5203 44.7792 44.696ZM65.1302 45.6255C66.4525 45.6255 69.1412 44.2562 72.5188 41.1248L72.5159 41.1219C76.4301 37.5009 78.0926 34.5659 78.0926 33.3931C78.0926 32.71 77.7026 32.3171 76.8729 32.3171C75.2573 32.3171 72.3693 34.0792 68.7981 37.9934C65.6198 41.418 64.104 43.7167 64.104 44.696C64.104 45.3323 64.4441 45.6255 65.1302 45.6255ZM55.7888 56.4856C55.7888 57.2186 56.2755 57.5616 57.205 57.5616C59.6034 57.5616 63.6642 54.2837 68.9975 47.4843C60.0432 51.0057 55.7888 54.7733 55.7888 56.4856ZM107.738 38.7264C107.591 38.2368 107.495 37.797 107.495 37.454V37.4569C107.495 36.1844 108.717 34.2258 110.037 34.1291C110.136 33.8359 110.136 33.5427 110.136 33.3462C110.136 32.6601 109.744 32.2702 109.06 32.2702C107.738 32.2702 105.049 33.7362 101.528 37.2106C98.1504 40.5853 96.488 43.1772 96.488 44.353C96.488 45.2326 97.1213 45.7222 98.1504 45.7222C100.646 45.7222 103.777 43.3737 107.738 38.7264Z" fill="black"/>
</svg>
