<svg width="104" height="104" viewBox="0 0 104 104" fill="none" xmlns="http://www.w3.org/2000/svg">
<path d="M85.1426 64.1355H84.1298V82.1332C84.1298 82.6152 83.7424 83 83.2736 83H46.8818C46.7044 83 46.5417 82.9447 46.4057 82.8549C46.2697 82.9447 46.1069 83 45.9369 83H18.8562C18.3801 83 18 82.6078 18 82.1332V54.7162C18 54.2343 18.3862 53.8494 18.8562 53.8494H31.5337V35.6845C31.5337 35.6427 31.5398 35.6083 31.547 35.5677C31.547 35.5468 31.5531 35.5259 31.5531 35.5124C31.5592 35.478 31.5738 35.4509 31.5798 35.4227C31.5859 35.3944 31.5932 35.3747 31.6066 35.3464C31.6066 35.3403 31.6066 35.3329 31.6126 35.3329L32.7214 32.896L31.626 30.6509C31.4973 30.3829 31.5106 30.0583 31.6673 29.8038C31.8239 29.5493 32.1033 29.3907 32.3947 29.3907H43.4194V25.0677C43.4194 20.0697 47.4392 16 52.3771 16C57.315 16 61.3336 20.0758 61.3336 25.0751V29.3993H72.3643C72.663 29.3993 72.9351 29.5579 73.0917 29.8124C73.2484 30.0669 73.2618 30.3903 73.133 30.6595L72.0376 32.9046L73.1464 35.3415C73.1464 35.3456 73.1484 35.3501 73.1525 35.355C73.1658 35.3821 73.1731 35.4104 73.1792 35.4374C73.1853 35.4645 73.1998 35.4927 73.2059 35.5198C73.212 35.5407 73.212 35.5616 73.212 35.5813C73.218 35.6157 73.2253 35.6575 73.2253 35.6907V49.0555C73.2727 49.0137 73.3213 48.9658 73.3686 48.9178C75.0348 47.4928 76.7423 47.6022 77.4018 47.7129C79.2854 48.0363 80.7755 49.6543 81.0123 51.6449C81.339 54.3166 80.0602 56.5752 77.3058 58.1994H85.1438C85.6199 58.1994 86 58.5917 86 59.0662V63.2663C86 63.7482 85.6126 64.1343 85.1438 64.1343L85.1426 64.1355ZM82.4089 64.1355H73.6152V81.259H82.4089V64.1355ZM69.072 64.1355V81.259H71.8943V64.1355H69.072ZM58.5646 64.1355V81.259H67.3584V64.1355H58.5646ZM19.7111 81.2664H45.071V55.5916H36.2506V63.5503C36.2506 63.8663 36.0805 64.1564 35.8146 64.3077C35.5425 64.4589 35.2098 64.4589 34.9438 64.2942L32.3874 62.7179L29.831 64.2942C29.695 64.3765 29.5384 64.4183 29.3817 64.4183C29.2384 64.4183 29.089 64.3839 28.9603 64.3089C28.6883 64.1577 28.5243 63.8675 28.5243 63.5515V55.5929H19.7038V81.2676H19.7111V81.2664ZM30.2452 55.5916V62.0085L31.9454 60.9622C32.2174 60.79 32.5647 60.79 32.8368 60.9622L34.537 62.0085V55.5916H30.2452ZM45.9284 53.8494C46.4045 53.8494 46.7846 54.2416 46.7846 54.7162V81.2725C46.8113 81.2725 46.8392 81.2664 46.8733 81.2664H56.8438V64.1355H55.8309C55.3549 64.1355 54.9748 63.7433 54.9748 63.2687V59.0687C54.9748 58.5867 55.3622 58.2019 55.8309 58.2019H63.3665C60.6195 56.5839 59.3334 54.3179 59.6601 51.6461C59.9054 49.6568 61.387 48.0387 63.2706 47.7141C63.93 47.6047 65.6375 47.494 67.3037 48.9191C68.9627 50.3379 69.9767 52.7674 70.3301 56.156C70.5208 54.3105 70.9155 52.7478 71.4923 51.4814V36.5759H61.3251V39.0891C62.7192 39.4751 63.7466 40.7624 63.7466 42.2907C63.7466 44.1227 62.2772 45.6092 60.4689 45.6092C58.6606 45.6092 57.1911 44.1215 57.1911 42.2907C57.1911 40.7624 58.2185 39.4751 59.6127 39.0891V36.5759H45.1342V39.0817C46.5356 39.4604 47.5764 40.7477 47.5764 42.2907C47.5764 44.1227 46.1069 45.6092 44.2986 45.6092C42.4903 45.6092 41.0209 44.1215 41.0209 42.2907C41.0209 40.7686 42.041 39.4887 43.4218 39.0965V36.5759H33.2545V53.8506H45.9296L45.9284 53.8494ZM68.7526 58.2007C68.6093 53.3392 67.311 51.1912 66.2022 50.2482C65.3655 49.5326 64.5227 49.3937 63.998 49.3937C63.8013 49.3937 63.6507 49.4146 63.5621 49.4281C62.4193 49.6273 61.5157 50.6256 61.3651 51.8588C60.8004 56.5199 67.4385 58.0421 68.1866 58.1994H68.7513L68.7526 58.2007ZM60.4762 42.3239C60.0001 42.3239 59.62 41.9317 59.62 41.4571V40.9752C59.1986 41.2579 58.9193 41.7387 58.9193 42.2895C58.9193 43.1637 59.62 43.8657 60.4762 43.8657C61.3323 43.8657 62.0331 43.1563 62.0331 42.2895C62.0331 41.7387 61.7538 41.2567 61.3323 40.9739V41.4559C61.3323 41.9305 60.9522 42.3227 60.4762 42.3227V42.3239ZM59.62 34.8325V31.1415H45.1415V34.8325H59.62ZM44.2768 42.3239C43.8007 42.3239 43.4206 41.9317 43.4206 41.4571V40.9887C43.0126 41.2715 42.7405 41.7522 42.7405 42.2907C42.7405 43.1649 43.4412 43.867 44.2974 43.867C45.1536 43.867 45.8543 43.1575 45.8543 42.2907C45.8543 41.7325 45.5617 41.2444 45.133 40.9616V41.4571C45.133 41.9317 44.7516 42.3239 44.2768 42.3239ZM33.7768 31.1427L34.4435 32.5062C34.5589 32.7399 34.5589 33.0153 34.4568 33.2575L33.7355 34.8411H43.4194V31.1501H33.7755V31.1439L33.7768 31.1427ZM59.62 25.0763C59.62 21.0349 56.3689 17.7435 52.3771 17.7435C48.3852 17.7435 45.1342 21.0349 45.1342 25.0763V29.4005H59.62V25.0763ZM61.3336 31.1427V34.8337H71.0163L70.2949 33.2501C70.1868 33.0091 70.1929 32.7337 70.3083 32.4989L70.975 31.1353H61.3311V31.1427H61.3336ZM79.3072 51.8601C79.1579 50.6281 78.2531 49.6297 77.1103 49.4293C77.0217 49.4158 76.8723 49.3949 76.6743 49.3949C76.1509 49.3949 75.3069 49.5326 74.4701 50.2494C73.3613 51.1924 72.0631 53.3404 71.9198 58.2019H72.4845C73.2326 58.0433 79.8707 56.5224 79.306 51.8613L79.3072 51.8601ZM84.2791 59.9367H56.6883V62.3945H84.2791V59.9367Z" fill="#7B7261"/>
</svg>
