<svg width="104" height="104" viewBox="0 0 104 104" fill="none" xmlns="http://www.w3.org/2000/svg">
<path d="M59.8549 56.6771H52.5509V41.8303C52.6806 41.7618 52.7946 41.6685 52.8871 41.555C55.177 38.6052 58.8092 40.7482 61.1781 42.2832C61.5695 42.5046 62.0613 42.4405 62.3817 42.1259C66.0738 38.2917 70.2779 38.5659 73.8899 42.3023C74.4426 42.872 75.6665 42.4787 75.5684 41.6146C74.9367 35.715 73.5943 31.0537 69.1127 26.9049C64.6321 22.755 60.2091 19.0186 54.4065 18.0162C54.1606 17.9712 53.9068 18.0207 53.6959 18.1544C53.3338 18.1297 52.9863 18.2994 52.7867 18.6017C52.5859 18.9028 52.5644 19.2883 52.728 19.6096C55.7286 25.1362 60.3287 32.7854 60.032 39.275C59.6767 39.1176 59.2221 38.9019 58.5317 38.6648C57.6101 38.2951 56.6242 38.1074 55.6304 38.1141C54.6242 38.1377 53.6462 38.4445 52.807 38.9996C52.2148 32.5404 52.0636 26.0498 52.3535 19.5703C52.3456 19.1658 52.085 18.8095 51.7015 18.6781C51.318 18.5455 50.8916 18.6668 50.6355 18.9804C50.5148 18.4949 50.0715 18.16 49.5695 18.1746C49.3992 18.0645 49.1995 18.0095 48.9976 18.0173C43.0754 19.0208 38.3772 22.9539 34.2125 26.8869C30.0478 30.82 28.3896 35.6779 27.7568 41.5966C27.7568 42.4619 28.8826 42.8552 29.4353 42.2843C33.0675 38.5681 37.3315 38.3512 40.9435 42.1079C41.2638 42.4225 41.7556 42.4877 42.1471 42.2652C44.5554 40.7504 48.0692 38.6075 50.4381 41.537L50.5565 41.6359V56.64H43.4703C42.9254 56.64 42.4832 57.0805 42.4832 57.6232C42.4832 58.166 42.9254 58.6065 43.4703 58.6065H50.5769V78.0167C50.5769 78.5595 51.019 79 51.5639 79C52.1087 79 52.5509 78.5595 52.5509 78.0167V58.6458H59.8549C60.3998 58.6458 60.8419 58.2053 60.8419 57.6626C60.8419 57.1198 60.3998 56.6793 59.8549 56.6793V56.6771ZM73.2198 39.1356C71.7556 37.9613 69.9463 37.2983 68.0681 37.2444C66.1899 37.1904 64.3456 37.7523 62.8171 38.8401L61.9485 39.2918C62.2249 33.0978 58.3163 25.8992 55.2368 20.2749C59.512 21.72 63.3868 24.145 66.5475 27.3544C70.1245 30.3514 72.4945 34.5351 73.2198 39.1334V39.1356ZM40.4302 38.8412C38.9051 37.7692 37.0709 37.2196 35.2052 37.277C33.3394 37.3343 31.5436 37.9939 30.0862 39.1558C30.7697 34.5586 33.1059 30.366 36.6592 27.3567C39.8233 24.1495 43.697 21.7245 47.97 20.2771C44.9108 25.8621 41.1003 33.0798 41.2977 39.2547L40.4291 38.8412H40.4302ZM47.6756 38.0939C46.6818 38.0883 45.6959 38.2748 44.7743 38.6445C44.1031 38.8805 43.6485 39.0963 43.274 39.2547C42.9976 32.9225 47.4195 25.489 50.4201 19.9434C50.1663 26.3981 50.3512 32.8629 50.9728 39.2941C50.0388 38.5265 48.8679 38.1029 47.6564 38.0939H47.6767H47.6756Z" fill="#7B7261"/>
<path d="M40.2915 62.4587C39.186 61.4552 35.6925 62.1643 34.3693 62.144H24.7946C24.5577 57.8379 24.1437 53.5115 24.0049 49.3031C24.0049 48.0446 22.0309 48.0446 22.0309 49.3031C22.3264 58.0548 24.0049 68.1032 22.0309 76.5986C21.7353 77.8369 23.6496 78.3482 24.0049 77.1301C24.8927 72.8509 25.2108 68.474 24.9525 64.1117H34.3106C35.5752 63.9577 36.8555 63.9577 38.12 64.1117C39.6203 64.9185 39.1273 68.5763 39.2255 70.0113C39.4026 72.5475 39.6 75.0849 39.8572 77.6223C39.9756 78.8809 41.9497 78.8809 41.8312 77.6223C41.5154 74.2399 41.239 70.8574 41.0619 67.475C40.9829 66.2164 41.4567 63.542 40.2915 62.4609V62.4587Z" fill="#7B7261"/>
<path d="M79.97 76.9132C77.9959 68.4178 79.6744 58.3492 79.97 49.6178C79.97 48.3592 77.9959 48.3592 77.9959 49.6178C77.8572 53.8262 77.424 58.1525 77.2063 62.4587H67.6316C66.27 62.4587 62.7754 61.7709 61.7094 62.7733C60.6434 63.7757 61.019 66.4895 60.9401 67.8661C60.7427 71.2485 60.4866 74.6309 60.1708 78.0134C60.0523 79.2719 62.0264 79.2719 62.1448 78.0134C62.3625 75.6929 62.5599 73.3723 62.7167 71.0327C62.8352 69.3213 62.2824 65.468 63.8809 64.4454C64.9468 63.7577 68.895 64.4454 70.2181 64.4454H77.186C76.9277 68.8078 77.2458 73.1847 78.1335 77.4639C78.3512 78.6629 80.2655 78.1516 79.9688 76.9132H79.97Z" fill="#7B7261"/>
</svg>
