<svg width="104" height="104" viewBox="0 0 104 104" fill="none" xmlns="http://www.w3.org/2000/svg">
<path d="M43.029 22.9524H60.9722C61.1878 22.9524 61.3984 23.0392 61.5508 23.1916C61.7044 23.3452 61.7899 23.5509 61.7899 23.7689V30.7297C61.7899 31.1807 61.4232 31.5474 60.9722 31.5474C60.5213 31.5474 60.1558 31.1807 60.1558 30.7297V24.5879H43.8466V30.7285C43.8466 31.1795 43.4799 31.5462 43.029 31.5462C42.5781 31.5462 42.2114 31.1795 42.2114 30.7285V23.7689C42.2114 23.5509 42.2981 23.344 42.4505 23.1916C42.6028 23.0392 42.8134 22.9524 43.029 22.9524Z" fill="#7B7261"/>
<path fill-rule="evenodd" clip-rule="evenodd" d="M47.4578 65.9646C48.6719 67.1789 50.2848 67.8467 52.0019 67.8467C53.7189 67.8467 55.3318 67.1789 56.5459 65.9646C57.7587 64.7504 58.4277 63.1372 58.4277 61.4199C58.4277 59.7027 57.76 58.0907 56.5459 56.8765C55.3318 55.6623 53.7189 54.9944 52.0019 54.9944C50.2861 54.9969 48.6744 55.666 47.4615 56.879C46.2487 58.092 45.5798 59.7052 45.5773 61.4212C45.5773 63.1372 46.245 64.7516 47.4591 65.9659L47.4578 65.9646ZM47.2113 61.4199C47.2113 60.14 47.7093 58.937 48.6137 58.0325C49.518 57.128 50.7209 56.6299 52.0006 56.6299C53.2791 56.6312 54.482 57.1305 55.3864 58.035C56.2907 58.9394 56.7887 60.1413 56.7912 61.4199C56.7912 62.6998 56.2932 63.9029 55.3888 64.8074C54.4845 65.7119 53.2816 66.21 52.0019 66.21C50.7221 66.21 49.5192 65.7119 48.6149 64.8074C47.7105 63.9029 47.2125 62.6998 47.2125 61.4199H47.2113Z" fill="#7B7261"/>
<path fill-rule="evenodd" clip-rule="evenodd" d="M37.318 61.3679V61.4199C37.318 63.3577 37.6933 65.2497 38.4354 67.0401C39.1775 68.8305 40.2478 70.4337 41.618 71.8041C42.9881 73.1744 44.5912 74.2462 46.3813 74.9871C48.1714 75.7293 50.0618 76.1047 52.0006 76.1047C53.9394 76.1047 55.8286 75.728 57.62 74.9871C59.4101 74.2449 61.0131 73.1744 62.3833 71.8041C63.7534 70.4337 64.825 68.8305 65.5658 67.0401C66.3079 65.2497 66.6833 63.359 66.6833 61.4199C66.6833 59.4809 66.3067 57.5914 65.5658 55.7998C64.8238 54.0094 63.7534 52.4062 62.3833 51.0358C61.0131 49.6655 59.4101 48.5937 57.62 47.8528C55.8298 47.1106 53.9394 46.7352 52.0006 46.7352C50.0631 46.7377 48.1739 47.1156 46.3837 47.8578C44.5949 48.5999 42.9931 49.6717 41.6229 51.042C40.2528 52.4123 39.1824 54.0144 38.4391 55.8035C37.7032 57.5765 37.3254 59.4487 37.3167 61.3679H37.318ZM56.9919 49.3681C58.5825 50.0285 60.006 50.9801 61.2225 52.198C62.4403 53.4159 63.3917 54.8396 64.0507 56.4292C64.711 58.0201 65.0455 59.699 65.048 61.4212C65.048 63.1434 64.7135 64.8235 64.0545 66.4144C63.3954 68.0053 62.444 69.4301 61.2262 70.6481C60.0084 71.866 58.5838 72.8176 56.9931 73.4767C55.4024 74.1359 53.7214 74.4704 51.9994 74.4704C50.2774 74.4704 48.5975 74.1359 47.0056 73.4767C45.415 72.8176 43.9903 71.866 42.7726 70.6481C41.5548 69.4301 40.6034 68.0053 39.9443 66.4144C39.2852 64.8235 38.9508 63.1434 38.9508 61.4199C38.9508 59.6965 39.2852 58.0176 39.9443 56.4255C40.6034 54.8346 41.5548 53.4098 42.7726 52.1918C43.9903 50.9739 45.415 50.0223 47.0056 49.3631C48.5963 48.704 50.2762 48.3695 51.9994 48.3695C53.7214 48.3719 55.4 48.7077 56.9906 49.3669L56.9919 49.3681Z" fill="#7B7261"/>
<path fill-rule="evenodd" clip-rule="evenodd" d="M34.0363 53.3094C34.9035 53.3094 35.7508 52.9588 36.3616 52.3467C36.9822 51.7259 37.3242 50.9008 37.3242 50.0223C37.3242 49.1438 36.981 48.3187 36.3604 47.6992C35.7397 47.0784 34.9146 46.7364 34.0375 46.7352C33.1592 46.7352 32.3341 47.0772 31.7135 47.6979C31.0928 48.3187 30.7509 49.1451 30.7509 50.0223C30.7509 50.8995 31.0928 51.7259 31.7135 52.3467C32.3255 52.9588 33.1716 53.3094 34.0351 53.3094H34.0363ZM32.8706 48.8552C33.1827 48.5429 33.5978 48.3719 34.0388 48.3719C34.2568 48.3719 34.4687 48.4141 34.6693 48.4983C35.2888 48.7548 35.6889 49.3532 35.6889 50.0235C35.6889 50.4646 35.5167 50.8785 35.2045 51.1907C34.8923 51.5029 34.4786 51.6739 34.0363 51.6751C33.3661 51.6751 32.7677 51.2749 32.5113 50.6554C32.2549 50.0359 32.3961 49.3297 32.8693 48.8564L32.8706 48.8552Z" fill="#7B7261"/>
<path fill-rule="evenodd" clip-rule="evenodd" d="M77.1824 41.8399C77.3979 41.8399 77.6085 41.9266 77.7609 42.079C77.9133 42.2314 78 42.442 78 42.6576V80.1835C78 80.3991 77.9133 80.6097 77.7609 80.7609C77.6085 80.9133 77.3979 81 77.1824 81H26.8176C26.6021 81 26.3915 80.9133 26.2391 80.7609C26.088 80.6085 26 80.3978 26 80.1823V42.6576C26 42.442 26.0867 42.2314 26.2391 42.079C26.3915 41.9266 26.6021 41.8399 26.8176 41.8399H45.5748V37.5108H40.7867C40.1053 37.5096 39.4649 37.2444 38.983 36.7624C38.5011 36.2805 38.2347 35.6399 38.2347 34.9584V21.5524C38.2347 20.8709 38.5011 20.2303 38.983 19.7484C39.4661 19.2664 40.1066 19 40.7867 19H63.2145C63.8959 19.0012 64.5364 19.2664 65.0183 19.7484C65.5002 20.2303 65.7665 20.8709 65.7665 21.5524V34.9584C65.7653 35.6399 65.5002 36.2805 65.0183 36.7624C64.5364 37.2444 63.8959 37.5108 63.2145 37.5108H58.4252V41.8399H77.1824ZM40.7867 35.8753H63.2145C63.72 35.8753 64.1313 35.4627 64.1313 34.9584V21.5524C64.1313 21.0468 63.72 20.6355 63.2145 20.6355H40.7867C40.2813 20.6367 39.87 21.0468 39.87 21.5524V34.9584C39.87 35.4627 40.2813 35.8753 40.7867 35.8753ZM56.7912 41.8399V37.5108H47.2113V41.8399H56.7912ZM76.366 79.3645V43.4766H27.6365V79.3645H76.366Z" fill="#7B7261"/>
</svg>
