<svg width="104" height="104" viewBox="0 0 104 104" fill="none" xmlns="http://www.w3.org/2000/svg">
<path d="M84.4272 32.8082C82.3377 30.4968 79.2268 29.2169 75.1808 29H19.9233C17.7607 29 16 30.7193 16 32.8311V64.8166C16.0219 65.9681 16.358 66.8328 17.0258 67.4506C18.5527 68.8631 21.551 68.759 24.1958 68.6691C24.8051 68.6477 25.3939 68.6277 25.939 68.6277C26.2429 68.6277 26.5351 68.6334 26.8084 68.6506L27.1576 68.6705L27.2146 69.0073C27.9174 73.1465 31.49 74.9986 34.7192 75C37.9499 75 41.5254 73.148 42.2282 69.0073L42.2896 68.6491H61.5699L61.6313 69.0073C62.337 73.1465 65.9155 74.9986 69.1476 74.9986C72.3783 74.9986 75.9538 73.1465 76.6595 69.0073L76.7165 68.6705L77.0657 68.6491C77.8314 68.6035 78.7315 68.6349 79.6827 68.6677C82.3172 68.759 85.3039 68.8617 86.8235 67.4534C87.4898 66.8356 87.823 65.9709 87.8434 64.8095C87.8463 64.711 87.8434 63.1058 87.8434 61.074C87.8346 51.2316 87.8434 49.0985 87.8609 48.7932C88.4147 41.0882 87.3232 36.0087 84.4286 32.8082H84.4272ZM52.9533 30.9862H68.3717V47.8301H52.9533V30.9862ZM35.498 30.9862H50.9208V47.8301H35.498V30.9862ZM18.0383 32.8354C18.0383 31.8152 18.8873 30.9862 19.9291 30.9862H33.4626V47.8301H18.0383V32.8354ZM34.7294 73.1266H34.7207H34.7119C30.9157 73.0566 29.1916 70.2372 29.1959 67.6475C29.2003 65.0506 30.9274 62.2312 34.709 62.1741C38.5168 62.2397 40.2439 65.0635 40.2439 67.6575C40.2439 70.2443 38.5183 73.0581 34.728 73.1266H34.7294ZM69.1593 73.1266H69.152H69.1447C65.3397 73.0595 63.6097 70.2401 63.6126 67.6489C63.6156 65.0549 65.3456 62.2355 69.1417 62.1755H69.149H69.1564C72.9496 62.2412 74.6767 65.0635 74.6767 67.6575C74.6767 70.2443 72.951 73.0581 69.1593 73.1251V73.1266ZM85.8182 64.8152C85.8182 65.8354 84.9678 66.6658 83.9245 66.6658H76.7297L76.6624 66.3177C75.7872 61.8431 72.0773 60.2579 69.1593 60.2579H69.1461C65.9827 60.2636 62.432 62.1413 61.6283 66.3234L61.5611 66.6729H42.3013L42.2341 66.3234C41.4304 62.1384 37.8841 60.2621 34.7265 60.2593H34.7177C31.5674 60.2593 28.0255 62.1342 27.2102 66.3248L27.143 66.6729H19.9306C18.8873 66.6729 18.0398 65.8425 18.0398 64.8238V49.8162H85.8182V64.8152ZM85.8182 47.4348L85.7875 47.8301H70.4086V30.9862H75.2232C78.5708 31.1474 81.1687 32.2247 82.9455 34.1909C85.3623 36.8648 86.3019 41.1967 85.8182 47.4334V47.4348Z" fill="#7B7261"/>
</svg>
